<?xml version="1.0" encoding="UTF-8"?>
<svg version="1.1" xmlns="http://www.w3.org/2000/svg" width="467" height="512">
<path d="M0 0 C0.73651291 -0.00705963 1.47302582 -0.01411926 2.2318573 -0.02139282 C33.29930133 -0.25157807 33.29930133 -0.25157807 47.01171875 3.203125 C48.18299316 3.49316406 48.18299316 3.49316406 49.37792969 3.7890625 C92.67321972 14.8825176 130.30008129 42.0705019 153.40039062 80.51416016 C175.55710057 118.93466698 182.28642958 165.21390444 171.06176758 208.24243164 C160.70956011 245.41237352 139.01236707 277.23697385 108.01171875 300.203125 C107.13966797 300.84967041 107.13966797 300.84967041 106.25 301.50927734 C78.41792927 321.81261658 44.87196369 331.42594051 10.69921875 331.453125 C9.93916534 331.45379974 9.17911194 331.45447449 8.39602661 331.45516968 C-9.6105438 331.42977856 -25.9006016 328.94252946 -42.98828125 323.203125 C-43.65424316 322.98285645 -44.32020508 322.76258789 -45.00634766 322.53564453 C-65.72163109 315.57664349 -83.37844174 304.31758956 -99.98828125 290.203125 C-100.71917969 289.59597656 -101.45007813 288.98882812 -102.203125 288.36328125 C-106.95457059 284.34142424 -111.01078824 279.98287244 -114.98828125 275.203125 C-115.68824219 274.39101563 -116.38820312 273.57890625 -117.109375 272.7421875 C-145.61425403 239.05011211 -158.52123614 195.71184834 -155.515625 151.8828125 C-152.48866251 116.25357595 -138.59404553 81.66953263 -114.05078125 55.421875 C-112.21382376 53.44575407 -110.5101696 51.41357879 -108.80078125 49.328125 C-82.9411792 19.84223392 -38.99811118 0.25023199 0 0 Z " fill="#C55B17" transform="translate(219.98828125,-0.203125)"/>
<path d="M0 0 C52.82943233 0 94.37608692 14.47361906 131.7734375 51.765625 C146.97994133 67.71284678 158.34142877 86.58582712 166.0625 107.1875 C166.49332886 108.33581299 166.49332886 108.33581299 166.93286133 109.50732422 C168.65427274 114.35281798 169.53018364 118.87842167 170 124 C167.31154013 126.12298904 164.6957885 127.75197265 161.59765625 129.20703125 C160.72052979 129.62235107 159.84340332 130.0376709 158.93969727 130.46557617 C157.51548462 131.13230347 157.51548462 131.13230347 156.0625 131.8125 C154.01010246 132.7831901 151.95803604 133.75458052 149.90625 134.7265625 C148.80410156 135.24766602 147.70195312 135.76876953 146.56640625 136.30566406 C140.04997345 139.40150495 133.557407 142.54681939 127.0625 145.6875 C125.75726983 146.31817109 124.45201326 146.94878757 123.14672852 147.5793457 C120.09758385 149.05241085 117.04870796 150.52603119 114 152 C114.66496872 155.35335605 115.93828071 157.93065202 117.625 160.89453125 C118.16294189 161.84368408 118.70088379 162.79283691 119.25512695 163.77075195 C119.83093506 164.77452881 120.40674316 165.77830566 121 166.8125 C121.58289795 167.83754639 122.1657959 168.86259277 122.76635742 169.91870117 C126.55849541 176.56236851 130.42120417 183.15970559 134.45898438 189.6574707 C137 193.79144276 137 193.79144276 137 196 C127.1 196.33 117.2 196.66 107 197 C111.60277039 205.14008758 111.60277039 205.14008758 116.21484375 213.27490234 C116.78332031 214.28504395 117.35179687 215.29518555 117.9375 216.3359375 C118.52402344 217.37282715 119.11054688 218.4097168 119.71484375 219.47802734 C121 222 121 222 121 224 C110.44 224 99.88 224 89 224 C84.875 216.1875 84.875 216.1875 83.61669922 213.80151367 C80.46304867 207.83712677 77.2316416 201.92467626 74 196 C84.23 196 94.46 196 105 196 C100.03439179 187.65900418 100.03439179 187.65900418 95.03686523 179.3371582 C94.11949585 177.77227661 94.11949585 177.77227661 93.18359375 176.17578125 C92.54993896 175.11270752 91.91628418 174.04963379 91.26342773 172.9543457 C89.82135215 169.58225747 89.76315432 168.40209333 91 165 C92.32275391 162.4921875 92.32275391 162.4921875 93.9765625 159.875 C94.564375 158.92109375 95.1521875 157.9671875 95.7578125 156.984375 C97.00480694 154.99127091 98.25744082 153.00168432 99.515625 151.015625 C100.10085938 150.06171875 100.68609375 149.1078125 101.2890625 148.125 C101.83256348 147.26132813 102.37606445 146.39765625 102.93603516 145.5078125 C104.2434999 142.42605988 104.05699513 141.14468429 103 138 C101.85251119 135.58849653 101.85251119 135.58849653 100.3671875 133.17578125 C99.81514648 132.2412915 99.26310547 131.30680176 98.69433594 130.34399414 C98.09395508 129.34360107 97.49357422 128.34320801 96.875 127.3125 C95.60581034 125.17244434 94.33761812 123.0317969 93.0703125 120.890625 C92.40676758 119.77236328 91.74322266 118.65410156 91.05957031 117.50195312 C88.93956737 113.91176819 86.86822385 110.29473315 84.8046875 106.671875 C84.46376068 106.07461105 84.12283386 105.47734711 83.77157593 104.86198425 C82.10933061 101.94966428 80.45156541 99.0350264 78.80029297 96.11645508 C78.20104004 95.06868896 77.60178711 94.02092285 76.984375 92.94140625 C76.45553711 92.01013916 75.92669922 91.07887207 75.38183594 90.11938477 C74.17361722 87.87639633 74.17361722 87.87639633 72 87 C71.58379395 88.09284302 71.58379395 88.09284302 71.15917969 89.20776367 C70.07184335 91.82694348 68.85102985 94.21122742 67.453125 96.67578125 C66.94539551 97.57345215 66.43766602 98.47112305 65.91455078 99.39599609 C65.36524902 100.35844238 64.81594727 101.32088867 64.25 102.3125 C63.67362793 103.32650879 63.09725586 104.34051758 62.50341797 105.38525391 C54.76239544 118.97123971 46.93134659 132.50682049 38.8515625 145.89453125 C38.50767487 146.46486084 38.16378723 147.03519043 37.80947876 147.62280273 C36.14445404 150.38273732 34.47456446 153.13953387 32.79736328 155.89208984 C32.19907715 156.88031738 31.60079102 157.86854492 30.984375 158.88671875 C30.45553711 159.75514404 29.92669922 160.62356934 29.38183594 161.51831055 C28.92583008 162.33726807 28.46982422 163.15622559 28 164 C27.31611206 165.20897949 27.31611206 165.20897949 26.6184082 166.44238281 C25.7138882 169.09823376 25.7138882 169.09823376 27.16577148 171.89086914 C27.81102783 172.92848389 28.45628418 173.96609863 29.12109375 175.03515625 C29.45923599 175.59569199 29.79737823 176.15622772 30.14576721 176.73374939 C31.22605583 178.52103472 32.32934161 180.29238114 33.4375 182.0625 C34.53995062 183.83724112 35.63656506 185.61464604 36.71852112 187.40196228 C37.70048453 189.0223922 38.70220738 190.63079869 39.70483398 192.23852539 C41 195 41 195 40.81542969 197.15112305 C39.35414902 200.46438009 37.59422853 203.60251069 35.8125 206.75 C35.1623291 207.90918945 35.1623291 207.90918945 34.49902344 209.09179688 C26.55430721 223.18743975 18.35466054 237.14385999 10 251 C6.56149291 246.99359469 4.10944107 242.80734545 1.625 238.1875 C-3.13591338 229.46313081 -8.12134403 220.88135655 -13.17724609 212.32495117 C-14.29812361 210.41914142 -15.40679474 208.50608276 -16.5012207 206.58496094 C-17.43751853 204.97011791 -18.41715179 203.37877848 -19.45776367 201.82910156 C-20.70456441 199.83046986 -21.54231797 198.31222358 -22 196 C-21.13706239 192.605423 -19.45114523 189.92403198 -17.5625 187 C-17.10939453 186.24460938 -16.65628906 185.48921875 -16.18945312 184.7109375 C-14.36860303 181.69604488 -12.5041799 178.72846038 -10.49951172 175.83203125 C-10.03432129 175.14496094 -9.56913086 174.45789063 -9.08984375 173.75 C-8.66437256 173.14671875 -8.23890137 172.5434375 -7.80053711 171.921875 C-6.67439589 169.21831182 -7.12907975 167.77227282 -8 165 C-9.29536509 162.38760065 -9.29536509 162.38760065 -10.94140625 159.76953125 C-11.52470703 158.80208984 -12.10800781 157.83464844 -12.70898438 156.83789062 C-13.32064453 155.83951172 -13.93230469 154.84113281 -14.5625 153.8125 C-15.7759924 151.82135592 -16.98582821 149.82797718 -18.19140625 147.83203125 C-18.72967041 146.95264893 -19.26793457 146.0732666 -19.82250977 145.16723633 C-21 143 -21 143 -21 141 C-21.66 141 -22.32 141 -23 141 C-23.34901367 140.35240723 -23.69802734 139.70481445 -24.05761719 139.03759766 C-28.007027 131.7486705 -32.0966334 124.54933741 -36.25 117.375 C-36.90170166 116.24723145 -37.55340332 115.11946289 -38.22485352 113.95751953 C-43.43864075 104.94529018 -48.69654301 95.95972264 -54 87 C-56.76676969 89.46556132 -58.34544895 92.15096686 -60.1171875 95.390625 C-60.71845459 96.48270264 -61.31972168 97.57478027 -61.93920898 98.69995117 C-62.58448103 99.88329621 -63.22974452 101.06664592 -63.875 102.25 C-64.87557227 104.07136168 -65.87808176 105.89164746 -66.88078308 107.71183777 C-67.56477269 108.95357074 -68.24820927 110.19560848 -68.93110657 111.4379425 C-72.38448273 117.71549123 -75.90449051 123.95441057 -79.4375 130.1875 C-79.99872559 131.1784668 -80.55995117 132.16943359 -81.13818359 133.19042969 C-82.42456165 135.46079551 -83.71176324 137.73068848 -85 140 C-90.1138823 138.29537257 -91.77221336 133.1075512 -94.31762695 128.57299805 C-95.30599432 126.82401226 -96.32456137 125.09523534 -97.34570312 123.36523438 C-98.2825293 121.70911133 -98.2825293 121.70911133 -99.23828125 120.01953125 C-99.81618408 119.00995361 -100.39408691 118.00037598 -100.98950195 116.96020508 C-102.28973672 113.15123031 -101.65439863 111.61088388 -100 108 C-99.15205726 106.35577421 -98.25167158 104.73768465 -97.3046875 103.1484375 C-96.76199219 102.22933594 -96.21929687 101.31023437 -95.66015625 100.36328125 C-95.07105469 99.37714844 -94.48195313 98.39101562 -93.875 97.375 C-92.60034343 95.21686539 -91.3269566 93.05798044 -90.0546875 90.8984375 C-89.05646973 89.20605957 -89.05646973 89.20605957 -88.03808594 87.47949219 C-84.97670233 82.26850956 -81.99131114 77.01417759 -79.00283813 71.76116943 C-77.00425648 68.25129003 -74.99645229 64.74667322 -72.99082947 61.24081421 C-70.97520771 57.71465704 -68.97104173 54.18225275 -66.97384644 50.64562988 C-65.3870163 47.84216985 -63.78594093 45.04685143 -62.1875 42.25 C-61.60677734 41.21359375 -61.02605469 40.1771875 -60.42773438 39.109375 C-59.88826172 38.1709375 -59.34878906 37.2325 -58.79296875 36.265625 C-58.3239917 35.43836914 -57.85501465 34.61111328 -57.37182617 33.75878906 C-56.91912354 33.17838867 -56.4664209 32.59798828 -56 32 C-55.01 32 -54.02 32 -53 32 C-52.58862793 32.72251953 -52.17725586 33.44503906 -51.75341797 34.18945312 C-50.88160889 35.71989258 -50.88160889 35.71989258 -49.9921875 37.28125 C-49.34306396 38.42295654 -48.69394043 39.56466309 -48.02514648 40.7409668 C-46.58367489 43.26949061 -45.12612561 45.7877954 -43.65649414 48.30004883 C-40.04807772 54.49319137 -36.62385921 60.65210658 -33.62890625 67.16796875 C-32.81800537 68.81925781 -32.81800537 68.81925781 -31.99072266 70.50390625 C-30.4375 73.6875 -30.4375 73.6875 -29.18896484 76.796875 C-27.65021116 80.23535555 -27.65021116 80.23535555 -23 84 C-15.41 84.33 -7.82 84.66 0 85 C0 56.95 0 28.9 0 0 Z " fill="#E1863B" transform="translate(220,0)"/>
<path d="M0 0 C2.16366424 3.65293963 2.82883819 7.50251938 3.5625 11.625 C3.68818359 12.28628906 3.81386719 12.94757813 3.94335938 13.62890625 C11.66645113 55.76221309 1.91407633 100.85412775 -22.18359375 136.203125 C-33.68124153 151.8612407 -46.38916658 165.43505606 -62 177 C-62.87205078 177.64654541 -62.87205078 177.64654541 -63.76171875 178.30615234 C-91.59378948 198.60949158 -125.13975506 208.22281551 -159.3125 208.25 C-160.07255341 208.25067474 -160.83260681 208.25134949 -161.61569214 208.25204468 C-179.62226255 208.22665356 -195.91232035 205.73940446 -213 200 C-213.66596191 199.77973145 -214.33192383 199.55946289 -215.01806641 199.33251953 C-235.73334984 192.37351849 -253.39016049 181.11446456 -270 167 C-270.73089844 166.39285156 -271.46179688 165.78570312 -272.21484375 165.16015625 C-276.96628934 161.13829924 -281.02250699 156.77974744 -285 152 C-286.04994141 150.78183594 -286.04994141 150.78183594 -287.12109375 149.5390625 C-316.4105896 114.91958907 -328.86149151 70.6026304 -325.27246094 25.69189453 C-324.60057141 19.05367418 -323.39168208 12.52077453 -322 6 C-318.3215296 6.60281252 -315.33703512 7.63222759 -311.9921875 9.265625 C-311.01757568 9.73774414 -310.04296387 10.20986328 -309.03881836 10.69628906 C-307.9947583 11.20901367 -306.95069824 11.72173828 -305.875 12.25 C-303.64457011 13.33341334 -301.41409984 14.41674355 -299.18359375 15.5 C-298.01812012 16.06847656 -296.85264648 16.63695312 -295.65185547 17.22265625 C-290.03104567 19.96201612 -284.39327722 22.66621979 -278.75762939 25.37487793 C-275.8467897 26.77441582 -272.93709359 28.17632261 -270.02734375 29.578125 C-268.56929321 30.28050293 -268.56929321 30.28050293 -267.08178711 30.99707031 C-266.39479736 31.32803711 -265.70780762 31.65900391 -265 32 C-266.43073003 35.83971074 -268.21062533 39.28165748 -270.265625 42.82421875 C-271.23048828 44.49194336 -271.23048828 44.49194336 -272.21484375 46.19335938 C-272.89321718 47.3580799 -273.57160266 48.52279341 -274.25 49.6875 C-274.90613281 50.82123047 -275.56226563 51.95496094 -276.23828125 53.12304688 C-280.10160631 59.7859385 -284.03654872 66.39424786 -288 73 C-277.77 73 -267.54 73 -257 73 C-258.43848847 77.31546541 -259.61126319 80.37260251 -261.8203125 84.1796875 C-262.35527344 85.1078125 -262.89023437 86.0359375 -263.44140625 86.9921875 C-263.99699219 87.94351563 -264.55257812 88.89484375 -265.125 89.875 C-265.68832031 90.84953125 -266.25164062 91.8240625 -266.83203125 92.828125 C-268.21650363 95.22161962 -269.60593541 97.6120838 -271 100 C-270.11328613 99.94126709 -269.22657227 99.88253418 -268.31298828 99.82202148 C-243.72899981 98.50221571 -243.72899981 98.50221571 -237.63085938 102.58691406 C-234.22325299 106.47066747 -232.45028498 110.90825159 -230.85058594 115.77001953 C-229.64651832 118.92672263 -227.86609628 121.58369655 -225.97509766 124.36889648 C-225 126 -225 126 -225 128 C-224.07364746 127.87431641 -223.14729492 127.74863281 -222.19287109 127.61914062 C-200.16586282 125.01771994 -200.16586282 125.01771994 -192 128 C-185.20840917 133.39422873 -181.93480243 141.48909358 -178.98852539 149.45629883 C-178.03462802 152.18166834 -178.03462802 152.18166834 -176 155 C-173.52508886 155.33814748 -171.28648312 155.48872339 -168.8046875 155.51171875 C-168.09724396 155.52966995 -167.38980042 155.54762115 -166.66091919 155.56611633 C-164.39900697 155.62034442 -162.13730716 155.65415316 -159.875 155.6875 C-158.34241827 155.72066226 -156.80986462 155.7551509 -155.27734375 155.79101562 C-151.51838221 155.87607727 -147.759485 155.94282753 -144 156 C-143.73195557 155.28360352 -143.46391113 154.56720703 -143.18774414 153.82910156 C-141.98496689 150.96419247 -140.58140624 148.40503729 -138.99609375 145.734375 C-138.13274414 144.27644531 -138.13274414 144.27644531 -137.25195312 142.7890625 C-136.65318359 141.78617188 -136.05441406 140.78328125 -135.4375 139.75 C-134.83486328 138.73164063 -134.23222656 137.71328125 -133.61132812 136.6640625 C-129.14501232 129.14501232 -129.14501232 129.14501232 -128 128 C-125.6243148 127.9116033 -123.27791326 127.88469695 -120.90234375 127.90234375 C-119.83905602 127.90446617 -119.83905602 127.90446617 -118.75428772 127.90663147 C-116.48198288 127.91224557 -114.20977525 127.92480037 -111.9375 127.9375 C-110.40039204 127.94251319 -108.86328255 127.94707641 -107.32617188 127.95117188 C-103.55074358 127.96221958 -99.77538829 127.97949359 -96 128 C-94.97913779 125.48521381 -93.99036548 122.97268674 -93.08740234 120.4128418 C-90.3923541 113.11019402 -87.35647989 105.7884507 -81 101 C-70.68178605 98.19156366 -59.47450837 99.66107563 -49 101 C-49.34780518 100.36497559 -49.69561035 99.72995117 -50.05395508 99.07568359 C-51.64126004 96.17606903 -53.22689377 93.27554381 -54.8125 90.375 C-55.35970703 89.37597656 -55.90691406 88.37695312 -56.47070312 87.34765625 C-57.00244141 86.37441406 -57.53417969 85.40117187 -58.08203125 84.3984375 C-58.56905518 83.50817871 -59.0560791 82.61791992 -59.55786133 81.70068359 C-61.09173142 78.82821517 -62.54371484 75.91257032 -64 73 C-53.77 73 -43.54 73 -33 73 C-35.289375 69.019375 -37.57875 65.03875 -39.9375 60.9375 C-40.6792749 59.64561768 -41.4210498 58.35373535 -42.18530273 57.02270508 C-45.07620435 52.00233963 -47.97024143 46.99131231 -51.03515625 42.07421875 C-51.45998291 41.39045166 -51.88480957 40.70668457 -52.32250977 40.00219727 C-53.42321543 38.24741273 -54.5391787 36.50222456 -55.65625 34.7578125 C-57 32 -57 32 -56.99511719 30.04882812 C-55.43150795 26.82954236 -52.53554626 25.8864441 -49.421875 24.4609375 C-48.74683426 24.13816833 -48.07179352 23.81539917 -47.376297 23.48284912 C-45.17361686 22.43347873 -42.96208865 21.40436744 -40.75 20.375 C-39.24145628 19.66006099 -37.73356303 18.94374786 -36.22631836 18.22607422 C-32.50583674 16.45818206 -28.77840826 14.70561413 -25.04779053 12.95922852 C-21.11663373 11.11779129 -17.19164619 9.26333183 -13.26855469 7.40478516 C-11.50492927 6.5707068 -9.73875827 5.74198337 -7.96972656 4.91943359 C-6.81102051 4.37536865 -6.81102051 4.37536865 -5.62890625 3.8203125 C-4.96963135 3.51367676 -4.31035645 3.20704102 -3.63110352 2.89111328 C-1.80535166 1.99303339 -1.80535166 1.99303339 0 0 Z " fill="#018138" transform="translate(390,123)"/>
<path d="M0 0 C3.6784704 0.60281252 6.66296488 1.63222759 10.0078125 3.265625 C10.98242432 3.73774414 11.95703613 4.20986328 12.96118164 4.69628906 C14.0052417 5.20901367 15.04930176 5.72173828 16.125 6.25 C18.35542989 7.33341334 20.58590016 8.41674355 22.81640625 9.5 C23.98187988 10.06847656 25.14735352 10.63695312 26.34814453 11.22265625 C31.96895433 13.96201612 37.60672278 16.66621979 43.24237061 19.37487793 C46.1532103 20.77441582 49.06290641 22.17632261 51.97265625 23.578125 C53.43070679 24.28050293 53.43070679 24.28050293 54.91821289 24.99707031 C55.60520264 25.32803711 56.29219238 25.65900391 57 26 C55.56926997 29.83971074 53.78937467 33.28165748 51.734375 36.82421875 C50.76951172 38.49194336 50.76951172 38.49194336 49.78515625 40.19335938 C49.10678282 41.3580799 48.42839734 42.52279341 47.75 43.6875 C47.09386719 44.82123047 46.43773437 45.95496094 45.76171875 47.12304688 C41.89839369 53.7859385 37.96345128 60.39424786 34 67 C44.23 67 54.46 67 65 67 C63.56151153 71.31546541 62.38873681 74.37260251 60.1796875 78.1796875 C59.64472656 79.1078125 59.10976562 80.0359375 58.55859375 80.9921875 C58.00300781 81.94351563 57.44742188 82.89484375 56.875 83.875 C56.31167969 84.84953125 55.74835938 85.8240625 55.16796875 86.828125 C53.78349637 89.22161962 52.39406459 91.6120838 51 94 C51.88671387 93.94126709 52.77342773 93.88253418 53.68701172 93.82202148 C78.27100019 92.50221571 78.27100019 92.50221571 84.36914062 96.58691406 C87.77674701 100.47066747 89.54971502 104.90825159 91.14941406 109.77001953 C92.35348168 112.92672263 94.13390372 115.58369655 96.02490234 118.36889648 C97 120 97 120 97 122 C97.92635254 121.87431641 98.85270508 121.74863281 99.80712891 121.61914062 C125.38309162 118.59858342 125.38309162 118.59858342 132.75976562 124.03320312 C137.36343512 129.58505388 140.0414823 136.07628041 142.66308594 142.74121094 C144.69432849 147.6924574 147.34079855 152.24068482 150 156.875 C150.8850036 158.49027851 151.76669433 160.10737803 152.64453125 161.7265625 C155.29502626 166.56826096 158.07863335 171.3159522 161 176 C164.21880117 172.2064129 166.6163187 168.34170523 169 164 C169.33 164 169.66 164 170 164 C170 176.54 170 189.08 170 202 C148.39795698 202.35804491 129.48366848 200.88004811 109 194 C108.33403809 193.77973145 107.66807617 193.55946289 106.98193359 193.33251953 C86.26665016 186.37351849 68.60983951 175.11446456 52 161 C51.26910156 160.39285156 50.53820312 159.78570312 49.78515625 159.16015625 C45.03371066 155.13829924 40.97749301 150.77974744 37 146 C35.95005859 144.78183594 35.95005859 144.78183594 34.87890625 143.5390625 C5.5894104 108.91958907 -6.86149151 64.6026304 -3.27246094 19.69189453 C-2.60057141 13.05367418 -1.39168208 6.52077453 0 0 Z " fill="#008138" transform="translate(68,129)"/>
<path d="M0 0 C44.04041341 0 83.20842693 21.28671305 113.7734375 51.765625 C126.19884885 64.79628562 148 90.04174999 148 109 C147.36425049 109.2902002 146.72850098 109.58040039 146.07348633 109.87939453 C142.98504353 111.29145841 139.89851293 112.7076333 136.8125 114.125 C135.66458984 114.65182373 134.51667969 115.17864746 133.33398438 115.72143555 C126.81624268 118.72803785 120.3324189 121.79096276 113.88671875 124.94921875 C113.22493118 125.27269287 112.56314362 125.59616699 111.88130188 125.92944336 C108.63937691 127.51513907 105.40225551 129.10967452 102.17114258 130.71728516 C101.00091553 131.29140137 99.83068848 131.86551758 98.625 132.45703125 C97.58601563 132.97241455 96.54703125 133.48779785 95.4765625 134.01879883 C94.25066406 134.50449341 94.25066406 134.50449341 93 135 C92.34 134.67 91.68 134.34 91 134 C91.54696533 133.17761841 91.54696533 133.17761841 92.10498047 132.33862305 C94.90299086 128.03319246 97.53779412 123.66876182 99.91015625 119.11328125 C100.35238525 118.27063721 100.79461426 117.42799316 101.25024414 116.55981445 C102.22126387 113.2445615 101.61876969 111.52828508 100.3125 108.375 C98.89567416 106.5669402 97.45538034 104.77717297 96 103 C94.39528543 100.32691557 92.96154196 97.56582551 91.5 94.8125 C87.00977077 86.6772409 82.32499776 78.65795485 77.62646484 70.6418457 C72.73785184 62.29217964 67.91975063 53.90377202 63.125 45.5 C62.76621765 44.87119934 62.4074353 44.24239868 62.03778076 43.59454346 C60.02368976 40.06388126 58.01116058 36.53233218 56 33 C53.29942934 35.43031153 51.67122832 38.05677674 49.8828125 41.20703125 C49.28162598 42.25898682 48.68043945 43.31094238 48.06103516 44.39477539 C47.42214355 45.52262451 46.78325195 46.65047363 46.125 47.8125 C44.783536 50.16276773 43.43850163 52.51098721 42.09375 54.859375 C41.75405182 55.45363785 41.41435364 56.0479007 41.06436157 56.66017151 C37.63352756 62.65647587 34.13942163 68.61482605 30.625 74.5625 C30.07215332 75.50134033 29.51930664 76.44018066 28.94970703 77.4074707 C28.18956299 78.6927063 28.18956299 78.6927063 27.4140625 80.00390625 C26.74818115 81.13034546 26.74818115 81.13034546 26.06884766 82.27954102 C25 84 25 84 24 85 C16.08 85 8.16 85 0 85 C0 56.95 0 28.9 0 0 Z " fill="#02407B" transform="translate(238,0)"/>
<path d="M0 0 C0 28.05 0 56.1 0 85 C-23 85 -23 85 -27.59765625 81.03125 C-28.93383789 78.39477539 -28.93383789 78.39477539 -30.0625 75.5 C-31.03889019 73.48693222 -32.01816746 71.47526275 -33 69.46484375 C-33.47824219 68.40894043 -33.95648438 67.35303711 -34.44921875 66.26513672 C-37.1154995 60.65133968 -40.37030569 55.38874373 -43.5625 50.0625 C-44.71283812 48.09692294 -45.86015313 46.12957235 -47.00390625 44.16015625 C-47.51969238 43.27344238 -48.03547852 42.38672852 -48.56689453 41.47314453 C-50.39208452 38.32337033 -52.20003217 35.16424662 -54 32 C-56.8455204 35.40833646 -59.18211602 38.83466984 -61.36328125 42.69921875 C-61.99524414 43.81288818 -62.62720703 44.92655762 -63.27832031 46.07397461 C-63.95638265 47.2784817 -64.63444248 48.4829902 -65.3125 49.6875 C-66.38454291 51.58017286 -67.45819468 53.47192736 -68.53189087 55.36366272 C-69.26642118 56.6580867 -70.00044609 57.9527976 -70.73397827 59.24778748 C-73.75494331 64.57911132 -76.80844579 69.89086016 -79.87597656 75.19555664 C-81.11937699 77.34656162 -82.35964452 79.49938082 -83.59667969 81.65405273 C-86.57050235 86.8303379 -89.57927471 91.97805431 -92.67578125 97.08203125 C-93.53381348 98.51881226 -93.53381348 98.51881226 -94.40917969 99.98461914 C-95.48042779 101.77641288 -96.56743227 103.55891741 -97.67285156 105.32983398 C-100.40906639 109.81455823 -100.40906639 109.81455823 -100.69140625 114.8984375 C-100.13324219 115.92195313 -99.57507813 116.94546875 -99 118 C-98.56792236 118.80115234 -98.13584473 119.60230469 -97.69067383 120.42773438 C-96.12955388 123.27099565 -94.51076679 126.07408146 -92.875 128.875 C-92.31167969 129.84953125 -91.74835938 130.8240625 -91.16796875 131.828125 C-89.78349637 134.22161962 -88.39406459 136.6120838 -87 139 C-90.73037684 140.24345895 -92.06283962 139.26912419 -95.47000122 137.59893799 C-96.56572952 137.04336212 -96.56572952 137.04336212 -97.68359375 136.4765625 C-98.44759491 136.09941101 -99.21159607 135.72225952 -99.99874878 135.3336792 C-101.6352644 134.5247545 -103.26962052 133.71144912 -104.90200806 132.89422607 C-109.10481756 130.79036792 -113.32265282 128.71705353 -117.5390625 126.640625 C-118.36297989 126.23383514 -119.18689728 125.82704529 -120.03578186 125.40792847 C-128.91844697 121.03238992 -137.91871087 116.94637977 -147 113 C-145.08583901 105.93805597 -142.60677613 99.40325914 -139.4375 92.8125 C-139.00058838 91.90193848 -138.56367676 90.99137695 -138.11352539 90.05322266 C-131.96580445 77.53762962 -124.15811903 66.50355221 -115 56 C-114.57605957 55.50902832 -114.15211914 55.01805664 -113.71533203 54.51220703 C-107.37247643 47.205293 -100.70033916 40.90431034 -93 35 C-92.07703125 34.26136719 -91.1540625 33.52273437 -90.203125 32.76171875 C-65.17334012 13.17760328 -31.94856455 0 0 0 Z " fill="#013F7A" transform="translate(220,0)"/>
<path d="M0 0 C2.81784037 2.5083512 4.45723723 5.29922938 6.30078125 8.57421875 C6.94088135 9.70424316 7.58098145 10.83426758 8.24047852 11.99853516 C8.57782013 12.59917786 8.91516174 13.19982056 9.26272583 13.81866455 C11.05593474 17.01098198 12.86525434 20.19416646 14.671875 23.37890625 C15.03801407 24.02543152 15.40415314 24.67195679 15.78138733 25.33807373 C18.60697642 30.32315717 21.47249574 35.28372108 24.36938477 40.2277832 C25.498538 42.15996221 26.61883486 44.097344 27.73022461 46.03979492 C30.46402771 50.79676259 33.26755906 55.4541502 36.33839417 60.00306702 C48.11766253 77.49823243 48.11766253 77.49823243 47.91210938 83.61572266 C46.66772287 88.24269755 44.30227415 91.86915621 41.23925781 95.50634766 C39.5661134 97.52295473 38.2891097 99.72484943 37 102 C39.64943829 100.84107195 42.29482939 99.67423352 44.9375 98.5 C45.79472656 98.11924316 46.65195312 97.73848633 47.53515625 97.34619141 C53.59713604 94.61892674 59.57888167 91.75348926 65.53515625 88.8046875 C66.2726561 88.4409906 67.01015594 88.0772937 67.77000427 87.70257568 C70.76173949 86.22681817 73.75314153 84.7510886 76.7326355 83.25073242 C78.84805426 82.1855013 80.97012651 81.13469259 83.09375 80.0859375 C83.73155899 79.75931122 84.36936798 79.43268494 85.02650452 79.09616089 C87.60026998 77.8377307 89.47126133 76.9577751 92.36621094 77.18896484 C94 78 94 78 95.046875 79.890625 C97.67645922 88.71434094 97.67645922 88.71434094 97 92 C94.39356526 94.2236589 91.68791846 95.75566886 88.59765625 97.20703125 C87.72052979 97.62235107 86.84340332 98.0376709 85.93969727 98.46557617 C84.99022217 98.91006104 84.04074707 99.3545459 83.0625 99.8125 C81.01010246 100.7831901 78.95803604 101.75458052 76.90625 102.7265625 C75.80410156 103.24766602 74.70195312 103.76876953 73.56640625 104.30566406 C67.04997345 107.40150495 60.557407 110.54681939 54.0625 113.6875 C52.75726983 114.31817109 51.45201326 114.94878757 50.14672852 115.5793457 C47.09758385 117.05241085 44.04870796 118.52603119 41 120 C41.66496872 123.35335605 42.93828071 125.93065202 44.625 128.89453125 C45.16294189 129.84368408 45.70088379 130.79283691 46.25512695 131.77075195 C46.83093506 132.77452881 47.40674316 133.77830566 48 134.8125 C48.58289795 135.83754639 49.1657959 136.86259277 49.76635742 137.91870117 C53.55849541 144.56236851 57.42120417 151.15970559 61.45898438 157.6574707 C64 161.79144276 64 161.79144276 64 164 C54.1 164.33 44.2 164.66 34 165 C38.60277039 173.14008758 38.60277039 173.14008758 43.21484375 181.27490234 C43.78332031 182.28504395 44.35179687 183.29518555 44.9375 184.3359375 C45.52402344 185.37282715 46.11054688 186.4097168 46.71484375 187.47802734 C48 190 48 190 48 192 C37.44 192 26.88 192 16 192 C11.875 184.1875 11.875 184.1875 10.61669922 181.80151367 C7.46304867 175.83712677 4.2316416 169.92467626 1 164 C11.23 164 21.46 164 32 164 C27.03439179 155.65900418 27.03439179 155.65900418 22.03686523 147.3371582 C21.11949585 145.77227661 21.11949585 145.77227661 20.18359375 144.17578125 C19.54993896 143.11270752 18.91628418 142.04963379 18.26342773 140.9543457 C16.82135215 137.58225747 16.76315432 136.40209333 18 133 C19.32275391 130.4921875 19.32275391 130.4921875 20.9765625 127.875 C21.564375 126.92109375 22.1521875 125.9671875 22.7578125 124.984375 C24.00480694 122.99127091 25.25744082 121.00168432 26.515625 119.015625 C27.10085938 118.06171875 27.68609375 117.1078125 28.2890625 116.125 C28.83256348 115.26132813 29.37606445 114.39765625 29.93603516 113.5078125 C31.2434999 110.42605988 31.05699513 109.14468429 30 106 C28.85251119 103.58849653 28.85251119 103.58849653 27.3671875 101.17578125 C26.81514648 100.2412915 26.26310547 99.30680176 25.69433594 98.34399414 C25.09395508 97.34360107 24.49357422 96.34320801 23.875 95.3125 C22.60581034 93.17244434 21.33761812 91.0317969 20.0703125 88.890625 C19.40676758 87.77236328 18.74322266 86.65410156 18.05957031 85.50195312 C15.93956737 81.91176819 13.86822385 78.29473315 11.8046875 74.671875 C11.29329727 73.77597908 11.29329727 73.77597908 10.77157593 72.86198425 C9.10933061 69.94966428 7.45156541 67.0350264 5.80029297 64.11645508 C5.20104004 63.06868896 4.60178711 62.02092285 3.984375 60.94140625 C3.19111816 59.54450562 3.19111816 59.54450562 2.38183594 58.11938477 C1.17361722 55.87639633 1.17361722 55.87639633 -1 55 C-1.2781958 55.72928711 -1.5563916 56.45857422 -1.84301758 57.20996094 C-2.92218265 59.81234507 -4.12958907 62.18858227 -5.51171875 64.640625 C-6.01550049 65.53515381 -6.51928223 66.42968262 -7.03833008 67.35131836 C-7.58255615 68.3078833 -8.12678223 69.26444824 -8.6875 70.25 C-9.25041748 71.24330322 -9.81333496 72.23660645 -10.39331055 73.26000977 C-17.06116167 84.95996064 -24.01621555 96.48658684 -31 108 C-35.52121905 103.71573566 -38.57242713 98.80587056 -41.875 93.5625 C-42.49375 92.62083984 -43.1125 91.67917969 -43.75 90.70898438 C-44.32492188 89.79568359 -44.89984375 88.88238281 -45.4921875 87.94140625 C-46.28665283 86.69919312 -46.28665283 86.69919312 -47.09716797 85.43188477 C-48 83 -48 83 -47.34326172 80.52441406 C-45.93627313 77.88023703 -44.52037447 75.25818269 -43.015625 72.66796875 C-42.4175 71.63478516 -41.819375 70.60160156 -41.203125 69.53710938 C-40.55859375 68.43173828 -39.9140625 67.32636719 -39.25 66.1875 C-38.57264387 65.02034057 -37.89556488 63.85302025 -37.21875 62.68554688 C-35.15063886 59.12089194 -33.07607734 55.56001978 -31 52 C-30.39478516 50.96182129 -29.78957031 49.92364258 -29.16601562 48.85400391 C-26.87889151 44.93221353 -24.59127757 41.01072146 -22.29882812 37.09204102 C-19.12964986 31.67053387 -15.98222908 26.23733466 -12.859375 20.7890625 C-12.16666765 19.58203068 -11.47395933 18.37499943 -10.78125 17.16796875 C-9.44956032 14.84704203 -8.12218484 12.5238122 -6.796875 10.19921875 C-6.19875 9.15636719 -5.600625 8.11351562 -4.984375 7.0390625 C-4.45553711 6.11303223 -3.92669922 5.18700195 -3.38183594 4.23291016 C-2 2 -2 2 0 0 Z " fill="#FCFCFC" transform="translate(293,32)"/>
<path d="M0 0 C2.82932863 2.65200039 4.84961455 5.14440291 6.70703125 8.54296875 C7.45303589 9.8892334 7.45303589 9.8892334 8.21411133 11.26269531 C8.74157959 12.22788086 9.26904785 13.19306641 9.8125 14.1875 C13.50125919 20.84711878 17.23668571 27.46516826 21.1875 33.97265625 C21.53270187 34.54183273 21.87790375 35.11100922 22.23356628 35.69743347 C23.92134137 38.47506694 25.6187692 41.24638269 27.32543945 44.01245117 C27.93605225 45.01381104 28.54666504 46.0151709 29.17578125 47.046875 C29.72145752 47.93213867 30.26713379 48.81740234 30.8293457 49.72949219 C32 52 32 52 32 55 C32.66 55 33.32 55 34 55 C34.52170776 55.91495239 34.52170776 55.91495239 35.05395508 56.84838867 C36.63956339 59.6284199 38.2260236 62.40796408 39.8125 65.1875 C40.35970703 66.14720703 40.90691406 67.10691406 41.47070312 68.09570312 C42.00244141 69.02705078 42.53417969 69.95839844 43.08203125 70.91796875 C43.56905518 71.77156982 44.0560791 72.6251709 44.55786133 73.50463867 C45.98890458 76.05067284 45.98890458 76.05067284 47.74487305 78.56762695 C49 81 49 81 48 85 C43.38 93.25 38.76 101.5 34 110 C12.55 110 -8.9 110 -31 110 C-27.55958755 103.1191751 -24.10293673 96.69233488 -19.95507812 90.28320312 C-17.66993507 86.61545251 -16.5126787 84.3027487 -17 80 C-18.23337231 77.17646512 -18.23337231 77.17646512 -19.9921875 74.33203125 C-20.92611328 72.74551758 -20.92611328 72.74551758 -21.87890625 71.12695312 C-22.53761719 70.03318359 -23.19632813 68.93941406 -23.875 67.8125 C-24.52597656 66.70712891 -25.17695313 65.60175781 -25.84765625 64.46289062 C-28.99487382 58.90761829 -28.99487382 58.90761829 -33 54 C-32.01 54 -31.02 54 -30 54 C-29.77957031 53.20464844 -29.55914062 52.40929687 -29.33203125 51.58984375 C-27.60233388 46.92828399 -25.19648151 42.84375266 -22.6875 38.5625 C-21.60863965 36.70094681 -20.53054353 34.83895055 -19.453125 32.9765625 C-18.89044922 32.0062207 -18.32777344 31.03587891 -17.74804688 30.03613281 C-15.95267524 26.91780298 -14.18325787 23.78608081 -12.421875 20.6484375 C-11.54849487 19.09274048 -11.54849487 19.09274048 -10.6574707 17.50561523 C-9.52925638 15.49308587 -8.40273253 13.4796077 -7.27807617 11.46508789 C-6.76220947 10.54719482 -6.24634277 9.62930176 -5.71484375 8.68359375 C-5.26230225 7.87462646 -4.80976074 7.06565918 -4.34350586 6.23217773 C-3.02116065 4.03515752 -1.57512674 2.02144637 0 0 Z " fill="#C55B19" transform="translate(165,86)"/>
<path d="M0 0 C1.21967468 -0.0049926 1.21967468 -0.0049926 2.46398926 -0.01008606 C4.18887772 -0.01515065 5.91377598 -0.01749453 7.63867188 -0.01733398 C10.24366093 -0.0195 12.84821203 -0.0376032 15.453125 -0.05664062 C38.11789198 -0.13677429 38.11789198 -0.13677429 44.84375 4.85546875 C49.4250868 9.41488528 49.8722676 14.44090582 50.09375 20.66796875 C50.01345756 25.52566124 49.40583808 30.54338067 45.78125 34.16796875 C46.32394531 34.44769531 46.86664063 34.72742188 47.42578125 35.015625 C48.14121094 35.41652344 48.85664063 35.81742187 49.59375 36.23046875 C50.65529297 36.80474609 50.65529297 36.80474609 51.73828125 37.390625 C55.31577269 40.50297415 56.53496898 44.08566375 57.0769043 48.66772461 C57.22014121 51.48708339 57.23971576 54.28271457 57.21875 57.10546875 C57.23873047 58.05615234 57.25871094 59.00683594 57.27929688 59.98632812 C57.27507712 66.10918712 56.52299972 71.1621557 52.78125 76.16796875 C47.65533836 80.36649506 42.00108088 81.27965213 35.5637207 81.32910156 C34.04238274 81.34351288 34.04238274 81.34351288 32.49031067 81.35821533 C30.86508736 81.36459015 30.86508736 81.36459015 29.20703125 81.37109375 C27.52676094 81.37964386 27.52676094 81.37964386 25.81254578 81.3883667 C23.4498285 81.39779669 21.08709818 81.40434271 18.72436523 81.40820312 C15.0966138 81.41796105 11.46941669 81.44902463 7.84179688 81.48046875 C5.54687837 81.48699395 3.25195581 81.49224631 0.95703125 81.49609375 C-0.13252365 81.50844055 -1.22207855 81.52078735 -2.34465027 81.5335083 C-3.3494191 81.5305072 -4.35418793 81.5275061 -5.3894043 81.52441406 C-6.71913521 81.52988251 -6.71913521 81.52988251 -8.07572937 81.53546143 C-8.78292618 81.41418884 -9.49012299 81.29291626 -10.21875 81.16796875 C-12.71916096 77.41735231 -12.46651161 75.45813109 -12.46166992 70.97436523 C-12.46356827 70.24562195 -12.46546661 69.51687866 -12.46742249 68.76605225 C-12.47112761 66.35694627 -12.46043064 63.94814168 -12.44921875 61.5390625 C-12.44802677 59.86662329 -12.44757383 58.19418339 -12.4478302 56.52174377 C-12.44626583 53.01713875 -12.43797915 49.51263595 -12.42456055 46.00805664 C-12.40755767 41.50972718 -12.40374662 37.01150995 -12.40450573 32.51315212 C-12.40423419 29.06027652 -12.39875569 25.60742559 -12.39150429 22.15455818 C-12.38831641 20.49551645 -12.38634993 18.83647192 -12.38561058 17.17742729 C-12.38344902 14.86229537 -12.37470919 12.5472839 -12.36401367 10.23217773 C-12.36020187 8.91330063 -12.35639008 7.59442352 -12.35246277 6.23558044 C-12.21875 3.16796875 -12.21875 3.16796875 -11.21875 1.16796875 C-7.45293213 -0.08730387 -3.92362821 0.00558914 0 0 Z M13.78125 20.16796875 C13.78125 23.79796875 13.78125 27.42796875 13.78125 31.16796875 C15.555 31.22984375 17.32875 31.29171875 19.15625 31.35546875 C20.15398437 31.39027344 21.15171875 31.42507813 22.1796875 31.4609375 C23.46746094 31.31591797 23.46746094 31.31591797 24.78125 31.16796875 C27.16923682 28.26211188 27.16923682 28.26211188 26.46875 24.54296875 C26.14011877 21.34292563 26.14011877 21.34292563 24.78125 20.16796875 C21.1120923 20.02486588 17.45409559 20.12575213 13.78125 20.16796875 Z M13.78125 49.16796875 C13.78125 53.12796875 13.78125 57.08796875 13.78125 61.16796875 C16.40686109 61.24871078 19.03000676 61.30833105 21.65625 61.35546875 C22.40261719 61.38060547 23.14898437 61.40574219 23.91796875 61.43164062 C26.34346828 61.49784515 26.34346828 61.49784515 29.78125 61.16796875 C32.09457486 57.69798146 32.12082563 56.24287627 31.78125 52.16796875 C31.12125 51.17796875 30.46125 50.18796875 29.78125 49.16796875 C26.9927211 48.94689088 24.43471819 48.8868934 21.65625 48.98046875 C20.90214844 48.99400391 20.14804688 49.00753906 19.37109375 49.02148438 C17.50750873 49.0568689 15.64429022 49.11067708 13.78125 49.16796875 Z " fill="#FFFFFF" transform="translate(177.21875,429.83203125)"/>
<path d="M0 0 C1.21429688 -0.02578125 2.42859375 -0.0515625 3.6796875 -0.078125 C10.59067302 0.5800641 14.09349767 5.04773739 18.5 9.9375 C19.03882812 10.52466797 19.57765625 11.11183594 20.1328125 11.71679688 C24.20155199 16.16819163 28.15259991 20.71011418 32.125 25.25 C32.455 17.33 32.785 9.41 33.125 1.25 C37.30328639 -0.14276213 41.24924034 0.06575094 45.625 0.0625 C46.92630859 0.04413086 46.92630859 0.04413086 48.25390625 0.02539062 C49.08792969 0.02345703 49.92195313 0.02152344 50.78125 0.01953125 C51.54244141 0.01542236 52.30363281 0.01131348 53.08789062 0.00708008 C55.125 0.25 55.125 0.25 58.125 2.25 C58.42229242 4.75266273 58.52429353 7.00882957 58.49731445 9.51367188 C58.50096512 10.26177628 58.50461578 11.00988068 58.50837708 11.78065491 C58.51650112 14.26024892 58.50285759 16.73919321 58.48828125 19.21875 C58.48776286 20.93745931 58.48827973 22.65616921 58.48979187 24.37487793 C58.48970206 27.97966342 58.47925566 31.58422566 58.46118164 35.18896484 C58.43849411 39.8163058 58.43794944 44.44332034 58.44469929 49.0707016 C58.44803621 52.62053341 58.44141442 56.1702904 58.43157005 59.72010803 C58.42771298 61.42659616 58.42657193 63.1330926 58.4281559 64.83958435 C58.42852558 67.22199439 58.41593402 69.60398144 58.3996582 71.98632812 C58.40213562 72.69600235 58.40461304 73.40567657 58.40716553 74.13685608 C58.35374197 79.02125803 58.35374197 79.02125803 56.125 81.25 C54.00195312 81.49291992 54.00195312 81.49291992 51.40625 81.48046875 C50.47425781 81.47853516 49.54226562 81.47660156 48.58203125 81.47460938 C47.60621094 81.46236328 46.63039062 81.45011719 45.625 81.4375 C44.64917969 81.43685547 43.67335937 81.43621094 42.66796875 81.43554688 C35.40569196 81.39034598 35.40569196 81.39034598 33.125 80.25 C33.19203125 79.18523437 33.2590625 78.12046875 33.328125 77.0234375 C33.54765535 68.03829964 32.51477289 62.25256357 26.3125 55.5 C24.7926115 53.90902438 23.25916851 52.34929735 21.66479492 50.83300781 C19.65256366 48.76430518 17.90343287 46.52038059 16.125 44.25 C16.10518066 45.29978027 16.08536133 46.34956055 16.06494141 47.43115234 C15.98897802 51.31893261 15.90024702 55.20633403 15.80761719 59.09375 C15.76928896 60.77759329 15.73444288 62.46151955 15.703125 64.14550781 C15.65755713 66.56345306 15.59955077 68.98082528 15.5390625 71.3984375 C15.52173569 72.53132706 15.52173569 72.53132706 15.50405884 73.68710327 C15.35274341 79.02225659 15.35274341 79.02225659 13.125 81.25 C9.47746333 81.7023235 5.79736739 81.57406287 2.125 81.5625 C0.58972656 81.58666992 0.58972656 81.58666992 -0.9765625 81.61132812 C-2.44222656 81.61229492 -2.44222656 81.61229492 -3.9375 81.61328125 C-4.83597656 81.61626221 -5.73445313 81.61924316 -6.66015625 81.62231445 C-7.75650391 81.4380188 -7.75650391 81.4380188 -8.875 81.25 C-11.37541096 77.49938356 -11.12276161 75.54016234 -11.11791992 71.05639648 C-11.11981827 70.3276532 -11.12171661 69.59890991 -11.12367249 68.8480835 C-11.12737761 66.43897752 -11.11668064 64.03017293 -11.10546875 61.62109375 C-11.10427677 59.94865454 -11.10382383 58.27621464 -11.1040802 56.60377502 C-11.10251583 53.09917 -11.09422915 49.5946672 -11.08081055 46.09008789 C-11.06380767 41.59175843 -11.05999662 37.0935412 -11.06075573 32.59518337 C-11.06048419 29.14230777 -11.05500569 25.68945684 -11.04775429 22.23658943 C-11.04456641 20.5775477 -11.04259993 18.91850317 -11.04186058 17.25945854 C-11.03969902 14.94432662 -11.03095919 12.62931515 -11.02026367 10.31420898 C-11.01645187 8.99533188 -11.01264008 7.67645477 -11.00871277 6.31761169 C-10.875 3.25 -10.875 3.25 -9.875 1.25 C-6.42834258 0.10111419 -3.63148095 0.0460653 0 0 Z " fill="#FFFFFF" transform="translate(92.875,429.75)"/>
<path d="M0 0 C0.71495132 -0.00902847 1.42990265 -0.01805695 2.16651917 -0.02735901 C3.67517934 -0.04183301 5.18390189 -0.05074116 6.69262695 -0.05444336 C8.99342986 -0.06635203 11.29155865 -0.11556641 13.59179688 -0.16601562 C15.06118489 -0.17547965 16.5305893 -0.18271479 18 -0.1875 C18.68348007 -0.20703232 19.36696014 -0.22656464 20.07115173 -0.24668884 C23.75263699 -0.21212722 25.43844447 0.27231468 28.37866211 2.54199219 C30.59053044 5.40229017 31.87425786 7.81867875 33.13671875 11.1953125 C33.76900391 12.86303711 33.76900391 12.86303711 34.4140625 14.56445312 C35.04634766 16.29405273 35.04634766 16.29405273 35.69140625 18.05859375 C36.12066406 19.19232422 36.54992187 20.32605469 36.9921875 21.49414062 C37.83533138 23.74468621 38.65902978 26.00261737 39.46264648 28.26757812 C40.11450678 30.10045759 40.79342505 31.9247141 41.53149414 33.72460938 C44.82221821 42.55162976 43.88676714 52.22758426 43.75390625 61.49609375 C43.73883385 63.3294161 43.72514996 65.16275043 43.71289062 66.99609375 C43.68008348 71.45472631 43.62844221 75.91277599 43.56640625 80.37109375 C39.67318861 82.31770257 34.84849684 81.59952151 30.56640625 81.62109375 C29.03113281 81.65203125 29.03113281 81.65203125 27.46484375 81.68359375 C26.48773438 81.68875 25.510625 81.69390625 24.50390625 81.69921875 C23.60542969 81.70856445 22.70695312 81.71791016 21.78125 81.72753906 C21.05035156 81.60991211 20.31945312 81.49228516 19.56640625 81.37109375 C17.53519918 78.32428314 17.3198075 77.76991051 17.37109375 74.359375 C17.37608887 73.67657471 17.38108398 72.99377441 17.38623047 72.2902832 C17.40443848 71.43007568 17.42264648 70.56986816 17.44140625 69.68359375 C17.48265625 66.94046875 17.52390625 64.19734375 17.56640625 61.37109375 C11.62640625 61.37109375 5.68640625 61.37109375 -0.43359375 61.37109375 C-0.35453631 67.20502064 -0.35453631 67.20502064 -0.25341797 73.03857422 C-0.24842285 73.76447754 -0.24342773 74.49038086 -0.23828125 75.23828125 C-0.22780762 75.98190918 -0.21733398 76.72553711 -0.20654297 77.49169922 C-0.43359375 79.37109375 -0.43359375 79.37109375 -2.43359375 81.37109375 C-4.55664062 81.61401367 -4.55664062 81.61401367 -7.15234375 81.6015625 C-8.08433594 81.59962891 -9.01632812 81.59769531 -9.9765625 81.59570312 C-10.95238281 81.58345703 -11.92820312 81.57121094 -12.93359375 81.55859375 C-13.90941406 81.55794922 -14.88523438 81.55730469 -15.890625 81.55664062 C-23.15290179 81.51143973 -23.15290179 81.51143973 -25.43359375 80.37109375 C-25.58450171 75.00418754 -25.69198258 69.63857591 -25.76318359 64.27001953 C-25.79293306 62.45274287 -25.83354685 60.63560408 -25.88623047 58.81884766 C-26.24069051 46.25984195 -24.86742333 35.97100102 -20.19476318 24.27874756 C-19.1440745 21.64549643 -18.20022423 18.97531601 -17.23828125 16.30859375 C-16.60002531 14.66082542 -15.95703554 13.01488034 -15.30859375 11.37109375 C-14.82712891 10.0871875 -14.82712891 10.0871875 -14.3359375 8.77734375 C-14.01496094 7.96265625 -13.69398438 7.14796875 -13.36328125 6.30859375 C-12.94925049 5.23931641 -12.94925049 5.23931641 -12.52685547 4.1484375 C-9.71856099 -0.41707921 -4.84929722 0.03793606 0 0 Z M6.56640625 23.37109375 C4.03009996 28.92681228 2.25532174 34.50010181 0.56640625 40.37109375 C5.84640625 40.37109375 11.12640625 40.37109375 16.56640625 40.37109375 C14.91640625 35.09109375 13.26640625 29.81109375 11.56640625 24.37109375 C9.91640625 24.04109375 8.26640625 23.71109375 6.56640625 23.37109375 Z " fill="#FFFFFF" transform="translate(269.43359375,429.62890625)"/>
<path d="M0 0 C0.83402344 -0.00128906 1.66804687 -0.00257813 2.52734375 -0.00390625 C3.39488281 -0.00003906 4.26242187 0.00382812 5.15625 0.0078125 C6.45755859 0.00201172 6.45755859 0.00201172 7.78515625 -0.00390625 C8.61917969 -0.00261719 9.45320313 -0.00132812 10.3125 0 C11.07369141 0.00112793 11.83488281 0.00225586 12.61914062 0.00341797 C14.65625 0.1328125 14.65625 0.1328125 17.65625 1.1328125 C18.94468205 3.7096766 18.81628433 5.61500009 18.86157227 8.50048828 C18.88151749 9.62149933 18.90146271 10.74251038 18.92201233 11.89749146 C18.93872482 13.11210052 18.95543732 14.32670959 18.97265625 15.578125 C18.99343735 16.81827362 19.01421844 18.05842224 19.03562927 19.33615112 C19.09002705 22.63393073 19.14025095 25.9317397 19.18847656 29.22961426 C19.23870234 32.59453903 19.29438277 35.959373 19.34960938 39.32421875 C19.45686557 45.92701104 19.55862189 52.52987122 19.65625 59.1328125 C21.59344378 59.18687372 23.53106921 59.22563275 25.46875 59.2578125 C27.08716797 59.29261719 27.08716797 59.29261719 28.73828125 59.328125 C31.85027868 59.36304967 31.85027868 59.36304967 34.65625 57.1328125 C35.11273617 54.72693339 35.11273617 54.72693339 35.04101562 51.88867188 C35.05112671 50.79413696 35.06123779 49.69960205 35.07165527 48.57189941 C35.06863403 47.38543823 35.06561279 46.19897705 35.0625 44.9765625 C35.07333618 43.76335327 35.08417236 42.55014404 35.09533691 41.3001709 C35.12972782 37.41099732 35.14522127 33.52211849 35.15625 29.6328125 C35.17075401 24.51794263 35.20431657 19.40373815 35.25 14.2890625 C35.24697876 13.10260132 35.24395752 11.91614014 35.24084473 10.69372559 C35.25095581 9.59919067 35.26106689 8.50465576 35.27148438 7.37695312 C35.27353882 6.41035767 35.27559326 5.44376221 35.27770996 4.44787598 C35.40262817 3.68390503 35.52754639 2.91993408 35.65625 2.1328125 C38.77305172 0.05494468 39.46341242 -0.11674664 43 -0.09765625 C44.25103516 -0.09475586 44.25103516 -0.09475586 45.52734375 -0.09179688 C46.39488281 -0.07955078 47.26242188 -0.06730469 48.15625 -0.0546875 C49.45755859 -0.0537207 49.45755859 -0.0537207 50.78515625 -0.05273438 C57.23417152 -0.00788033 57.23417152 -0.00788033 60.65625 1.1328125 C61.97597428 3.77226107 61.79786907 5.76890992 61.81738281 8.72485352 C61.82699036 9.89689835 61.8365979 11.06894318 61.84649658 12.27650452 C61.85074646 13.55037521 61.85499634 14.82424591 61.859375 16.13671875 C61.86507507 17.44430649 61.87077515 18.75189423 61.87664795 20.09910583 C61.88716312 22.8740986 61.89300098 25.64906238 61.89648438 28.42407227 C61.90194082 31.9589419 61.92590452 35.49342081 61.95445633 39.02816868 C61.97771928 42.41851021 61.97954285 45.80880164 61.984375 49.19921875 C61.9967218 50.45891983 62.0090686 51.71862091 62.02178955 53.01649475 C62.00115341 61.22742736 61.6646758 68.49103391 56.28125 75.0078125 C47.22967795 82.33527559 38.16841536 82.49585691 26.90625 82.5078125 C25.70742188 82.53230469 24.50859375 82.55679688 23.2734375 82.58203125 C13.95871577 82.61233946 5.63051599 81.17828147 -2.40625 76.2578125 C-6.588021 71.67135398 -7.71891845 67.41257171 -7.68432617 61.30126953 C-7.68476425 60.64690414 -7.68520233 59.99253876 -7.68565369 59.31834412 C-7.68357915 57.1754576 -7.66031327 55.03337324 -7.63671875 52.890625 C-7.631118 51.39704821 -7.62685016 49.90346588 -7.62385559 48.40988159 C-7.61244441 44.49382094 -7.58300991 40.57809826 -7.54974365 36.66217041 C-7.51896194 32.66024344 -7.50533301 28.65826144 -7.49023438 24.65625 C-7.45813612 16.8149497 -7.40698553 8.97392324 -7.34375 1.1328125 C-4.56353582 0.20607444 -2.87141109 0.00425484 0 0 Z " fill="#FFFFFF" transform="translate(7.34375,429.8671875)"/>
<path d="M0 0 C3.94209538 1.31403179 4.30057532 2.78856653 6.30078125 6.37890625 C6.94217041 7.51714844 7.58355957 8.65539062 8.24438477 9.828125 C8.93405381 11.07275197 9.6234189 12.31754741 10.3125 13.5625 C11.74142022 16.11778055 13.17554585 18.67012787 14.609375 21.22265625 C14.97221085 21.87082306 15.33504669 22.51898987 15.70887756 23.1867981 C18.14096979 27.51847498 20.6434734 31.80120432 23.203125 36.05859375 C23.85369873 37.14648193 24.50427246 38.23437012 25.17456055 39.35522461 C26.4142358 41.42017442 27.66283742 43.47979672 28.92114258 45.53344727 C29.75101685 46.92454712 29.75101685 46.92454712 30.59765625 48.34375 C31.08758057 49.15005859 31.57750488 49.95636719 32.08227539 50.78710938 C33.19775486 53.47684225 33.0950159 54.33263719 32 57 C31.05560633 58.77496508 30.05685604 60.52144116 29.0234375 62.24609375 C28.435625 63.24833984 27.8478125 64.25058594 27.2421875 65.28320312 C25.99707303 67.38661303 24.74444898 69.48559565 23.484375 71.58007812 C22.89914062 72.58361328 22.31390625 73.58714844 21.7109375 74.62109375 C21.16743652 75.5330249 20.62393555 76.44495605 20.06396484 77.38452148 C18.78058077 80.53938463 18.90545609 81.80499657 20 85 C21.29536509 87.61239935 21.29536509 87.61239935 22.94140625 90.23046875 C23.52470703 91.19791016 24.10800781 92.16535156 24.70898438 93.16210938 C25.62647461 94.65967773 25.62647461 94.65967773 26.5625 96.1875 C27.7759924 98.17864408 28.98582821 100.17202282 30.19140625 102.16796875 C30.72967041 103.04735107 31.26793457 103.9267334 31.82250977 104.83276367 C33 107 33 107 33 109 C23.1 109 13.2 109 3 109 C4.4323834 104.7028498 5.68455197 101.46410814 7.8203125 97.6015625 C8.30258301 96.72322754 8.78485352 95.84489258 9.28173828 94.93994141 C10.19415283 93.29904541 10.19415283 93.29904541 11.125 91.625 C13.06375 88.11875 15.0025 84.6125 17 81 C6.44 81 -4.12 81 -15 81 C-15.66 82.98 -16.32 84.96 -17 87 C-17.89214283 88.75182621 -18.83366424 90.47929369 -19.8203125 92.1796875 C-20.35527344 93.1078125 -20.89023437 94.0359375 -21.44140625 94.9921875 C-21.99699219 95.94351563 -22.55257813 96.89484375 -23.125 97.875 C-23.96998047 99.33679688 -23.96998047 99.33679688 -24.83203125 100.828125 C-26.21650363 103.22161962 -27.60593541 105.6120838 -29 108 C-29.99 108 -30.98 108 -32 108 C-34.19638724 104.40241667 -36.36821516 100.79146222 -38.51855469 97.16625977 C-39.25319638 95.93542694 -39.99437529 94.70847131 -40.7421875 93.4855957 C-41.81697601 91.72548659 -42.86736936 89.95270461 -43.9140625 88.17578125 C-44.5529541 87.11270752 -45.1918457 86.04963379 -45.85009766 84.9543457 C-47 82 -47 82 -46.35205078 79.39257812 C-45.90587402 78.60302734 -45.45969727 77.81347656 -45 77 C-44.60458008 76.27192139 -44.20916016 75.54384277 -43.80175781 74.79370117 C-43.35670898 74.05095947 -42.91166016 73.30821777 -42.453125 72.54296875 C-41.94531494 71.69041504 -41.43750488 70.83786133 -40.91430664 69.95947266 C-40.36508545 69.04472168 -39.81586426 68.1299707 -39.25 67.1875 C-38.06577568 65.19959426 -36.8822041 63.21129955 -35.69921875 61.22265625 C-35.08739746 60.19543457 -34.47557617 59.16821289 -33.84521484 58.10986328 C-30.89077769 53.13055387 -27.97562131 48.12855938 -25.0625 43.125 C-24.20277588 41.64918457 -24.20277588 41.64918457 -23.32568359 40.14355469 C-22.15364122 38.13144514 -20.98176746 36.11923737 -19.81005859 34.10693359 C-17.92334173 30.86841743 -16.03426454 27.63128812 -14.14453125 24.39453125 C-13.51345459 23.31349121 -12.88237793 22.23245117 -12.23217773 21.11865234 C-11.02744444 19.05506948 -9.82253944 16.99158684 -8.61743164 14.92822266 C-5.72111212 9.96542078 -2.8404359 4.99501045 0 0 Z " fill="#C55B18" transform="translate(292,87)"/>
<path d="M0 0 C2.67813752 2.4150749 4.3043511 5.01052912 6.08203125 8.13671875 C6.67701416 9.17650879 7.27199707 10.21629883 7.88500977 11.28759766 C8.52108154 12.40956543 9.15715332 13.5315332 9.8125 14.6875 C10.8254655 16.46123375 11.84021083 18.23394202 12.85496521 20.00665283 C13.54885426 21.21918236 14.24217772 22.43203572 14.93495178 23.64520264 C18.27505101 29.49271708 21.66325434 35.31168507 25.0625 41.125 C26.20445033 43.0794135 27.34637732 45.03384064 28.48828125 46.98828125 C29.05756348 47.9623291 29.6268457 48.93637695 30.21337891 49.93994141 C32.11780435 53.20177094 34.01827439 56.46588173 35.91796875 59.73046875 C36.55919678 60.83181152 37.2004248 61.9331543 37.86108398 63.06787109 C39.09435557 65.18628643 40.32696994 67.30508454 41.55883789 69.42431641 C42.11176514 70.3735498 42.66469238 71.3227832 43.234375 72.30078125 C43.72131836 73.13778564 44.20826172 73.97479004 44.70996094 74.8371582 C45.75530981 76.58975957 46.86803563 78.30205345 48 80 C47.69520845 84.52243706 46.30951228 87.72725062 44.05859375 91.6171875 C43.18364258 93.14472656 43.18364258 93.14472656 42.29101562 94.703125 C41.67935547 95.74984375 41.06769531 96.7965625 40.4375 97.875 C39.82197266 98.94492188 39.20644531 100.01484375 38.57226562 101.1171875 C37.05627005 103.74961393 35.53201069 106.37687243 34 109 C33.34 109 32.68 109 32 109 C30.70996094 107.17773438 30.70996094 107.17773438 29.234375 104.59375 C28.68056152 103.63315674 28.12674805 102.67256348 27.55615234 101.68286133 C26.96012207 100.63251709 26.3640918 99.58217285 25.75 98.5 C24.4870455 96.3059514 23.22402262 94.11194216 21.9609375 91.91796875 C21.30963867 90.78020996 20.65833984 89.64245117 19.98730469 88.47021484 C16.80141556 82.90704186 13.59157758 77.35796886 10.375 71.8125 C9.79588867 70.80445312 9.21677734 69.79640625 8.62011719 68.7578125 C6.00459422 64.24414956 3.45760682 59.9382985 0 56 C-8.0644568 69.65777987 -15.94823372 83.38655886 -23.4765625 97.34765625 C-25.59119997 101.26811432 -27.77090168 105.14355525 -30 109 C-35.1138823 107.29537257 -36.77221336 102.1075512 -39.31762695 97.57299805 C-40.30599432 95.82401226 -41.32456137 94.09523534 -42.34570312 92.36523438 C-43.2825293 90.70911133 -43.2825293 90.70911133 -44.23828125 89.01953125 C-44.81618408 88.00995361 -45.39408691 87.00037598 -45.98950195 85.96020508 C-47.28973672 82.15123031 -46.65439863 80.61088388 -45 77 C-44.15205726 75.35577421 -43.25167158 73.73768465 -42.3046875 72.1484375 C-41.76199219 71.22933594 -41.21929687 70.31023437 -40.66015625 69.36328125 C-40.07105469 68.37714844 -39.48195313 67.39101562 -38.875 66.375 C-37.60034343 64.21686539 -36.3269566 62.05798044 -35.0546875 59.8984375 C-34.05646973 58.20605957 -34.05646973 58.20605957 -33.03808594 56.47949219 C-29.97670422 51.26851278 -26.99093812 46.01435126 -24.00228882 40.76144409 C-18.4014325 30.9183778 -12.7618794 21.09889551 -7.0625 11.3125 C-6.46501953 10.28447266 -5.86753906 9.25644531 -5.25195312 8.19726562 C-4.70603516 7.26205078 -4.16011719 6.32683594 -3.59765625 5.36328125 C-3.11820557 4.54126221 -2.63875488 3.71924316 -2.14477539 2.87231445 C-1 1 -1 1 0 0 Z " fill="#FCFDFD" transform="translate(165,31)"/>
<path d="M0 0 C0.82951172 -0.00257813 1.65902344 -0.00515625 2.51367188 -0.0078125 C3.80821289 0.00378906 3.80821289 0.00378906 5.12890625 0.015625 C5.98806641 0.00789063 6.84722656 0.00015625 7.73242188 -0.0078125 C8.97862305 -0.00394531 8.97862305 -0.00394531 10.25 0 C11.00595459 0.00225586 11.76190918 0.00451172 12.54077148 0.00683594 C14.69140625 0.265625 14.69140625 0.265625 18.69140625 2.265625 C18.69140625 21.075625 18.69140625 39.885625 18.69140625 59.265625 C23.31140625 59.265625 27.93140625 59.265625 32.69140625 59.265625 C32.66820312 57.84507812 32.645 56.42453125 32.62109375 54.9609375 C32.60233854 53.10417191 32.58413808 51.24740065 32.56640625 49.390625 C32.54964844 48.45347656 32.53289062 47.51632812 32.515625 46.55078125 C32.50595703 45.20693359 32.50595703 45.20693359 32.49609375 43.8359375 C32.4803833 42.59481201 32.4803833 42.59481201 32.46435547 41.32861328 C32.69140625 39.265625 32.69140625 39.265625 34.69140625 37.265625 C36.81445312 37.00683594 36.81445312 37.00683594 39.41015625 37 C40.34214844 36.99742187 41.27414062 36.99484375 42.234375 36.9921875 C43.21019531 36.99992187 44.18601562 37.00765625 45.19140625 37.015625 C46.65513672 37.00402344 46.65513672 37.00402344 48.1484375 36.9921875 C49.08042969 36.99476563 50.01242187 36.99734375 50.97265625 37 C51.82923828 37.00225586 52.68582031 37.00451172 53.56835938 37.00683594 C55.69140625 37.265625 55.69140625 37.265625 57.69140625 39.265625 C57.89146927 42.25524603 57.97113548 45.1502485 57.95703125 48.140625 C57.9589447 49.02089355 57.96085815 49.90116211 57.96282959 50.80810547 C57.96419177 52.67090134 57.96049307 54.53370669 57.95214844 56.39648438 C57.94144932 59.25412236 57.95204257 62.11113166 57.96484375 64.96875 C57.96352216 66.77604306 57.96095978 68.58333573 57.95703125 70.390625 C57.96107971 71.24897949 57.96512817 72.10733398 57.96929932 72.99169922 C57.9213237 79.03570755 57.9213237 79.03570755 55.69140625 81.265625 C53.14855957 81.51286316 53.14855957 81.51286316 49.89648438 81.50854492 C48.68182495 81.51162155 47.46716553 81.51469818 46.21569824 81.51786804 C44.89799438 81.51068253 43.58029053 81.50349701 42.22265625 81.49609375 C40.86267134 81.49490189 39.5026856 81.4944488 38.1427002 81.4947052 C35.29120741 81.49314005 32.43984012 81.48484824 29.58837891 81.47143555 C25.92964548 81.45444563 22.27105005 81.4506212 18.6122818 81.45138073 C15.80363645 81.45110905 12.99502139 81.44562818 10.18638611 81.43837929 C8.17996591 81.43364054 6.17353934 81.43191602 4.16711426 81.43022156 C2.34512512 81.42065178 2.34512512 81.42065178 0.48632812 81.41088867 C-0.58685669 81.40707687 -1.6600415 81.40326508 -2.76574707 81.39933777 C-5.30859375 81.265625 -5.30859375 81.265625 -7.30859375 80.265625 C-7.37800534 70.13027356 -7.4313599 59.99497836 -7.46403027 49.85943794 C-7.47970786 45.15343983 -7.50098411 40.44760395 -7.53491211 35.74169922 C-7.5674312 31.2029752 -7.58543098 26.66440752 -7.59322548 22.12557602 C-7.59878243 20.39114799 -7.60963338 18.65672883 -7.62578392 16.9223671 C-7.64745962 14.49899842 -7.65056488 12.07628153 -7.64916992 9.65283203 C-7.65995575 8.93066498 -7.67074158 8.20849792 -7.68185425 7.46444702 C-7.6693573 5.46731567 -7.6693573 5.46731567 -7.30859375 2.265625 C-4.21272963 0.20171559 -3.51110923 0.01049323 0 0 Z " fill="#FFFFFF" transform="translate(333.30859375,429.734375)"/>
<path d="M0 0 C0.83402344 -0.00128906 1.66804688 -0.00257813 2.52734375 -0.00390625 C3.39488281 -0.00003906 4.26242187 0.00382812 5.15625 0.0078125 C6.45755859 0.00201172 6.45755859 0.00201172 7.78515625 -0.00390625 C8.61917969 -0.00261719 9.45320313 -0.00132812 10.3125 0 C11.07369141 0.00112793 11.83488281 0.00225586 12.61914062 0.00341797 C14.65625 0.1328125 14.65625 0.1328125 17.65625 1.1328125 C17.65625 20.2728125 17.65625 39.4128125 17.65625 59.1328125 C22.60625 59.1328125 27.55625 59.1328125 32.65625 59.1328125 C32.65625 52.2028125 32.65625 45.2728125 32.65625 38.1328125 C35.03240986 36.94473257 36.5074242 37.00366728 39.15625 37 C40.4865625 36.99806641 40.4865625 36.99806641 41.84375 36.99609375 C42.771875 36.99996094 43.7 37.00382812 44.65625 37.0078125 C46.0484375 37.00201172 46.0484375 37.00201172 47.46875 36.99609375 C48.355625 36.99738281 49.2425 36.99867188 50.15625 37 C50.9709375 37.00112793 51.785625 37.00225586 52.625 37.00341797 C54.65625 37.1328125 54.65625 37.1328125 56.65625 38.1328125 C56.68089574 44.09594416 56.699084 50.05904645 56.71118164 56.0222168 C56.71622278 58.05249548 56.72305557 60.08277052 56.73168945 62.11303711 C56.74376467 65.02458597 56.74948034 67.936087 56.75390625 70.84765625 C56.75906754 71.7611937 56.76422882 72.67473114 56.76954651 73.61595154 C56.76974168 75.78856677 56.71836805 77.96108546 56.65625 80.1328125 C55.65625 81.1328125 55.65625 81.1328125 53.18223572 81.25306702 C52.08303299 81.25084641 50.98383026 81.24862579 49.85131836 81.24633789 C47.98950172 81.24622459 47.98950172 81.24622459 46.09007263 81.24610901 C44.7254126 81.24100161 43.36075298 81.2357856 41.99609375 81.23046875 C40.60746817 81.2286045 39.21884193 81.22718063 37.83021545 81.22618103 C34.16903885 81.22235637 30.5079017 81.21252653 26.84674072 81.20147705 C23.11332737 81.19126182 19.37990766 81.18668317 15.64648438 81.18164062 C8.31638823 81.17090421 0.98632464 81.15382841 -6.34375 81.1328125 C-8.66966297 77.45843868 -8.59144493 74.31055617 -8.58666992 70.02514648 C-8.58856827 69.31737061 -8.59046661 68.60959473 -8.59242249 67.88037109 C-8.59612 65.54643594 -8.58544132 63.21281364 -8.57421875 60.87890625 C-8.57302631 59.25513241 -8.57257392 57.63135787 -8.5728302 56.00758362 C-8.57126714 52.60730664 -8.56299049 49.2071352 -8.54956055 45.80688477 C-8.53255748 41.44656508 -8.52874672 37.08636119 -8.52950573 32.72601223 C-8.52923394 29.37432244 -8.52375158 26.022658 -8.51650429 22.67097664 C-8.51332067 21.06300104 -8.51135093 19.45502257 -8.51061058 17.84704399 C-8.50844454 15.60167409 -8.49969496 13.35642744 -8.48901367 11.11108398 C-8.48520187 9.83297348 -8.48139008 8.55486298 -8.47746277 7.23802185 C-8.34375 4.1328125 -8.34375 4.1328125 -7.34375 1.1328125 C-4.56353582 0.20607444 -2.87141109 0.00425484 0 0 Z " fill="#FFFFFF" transform="translate(410.34375,429.8671875)"/>
<path d="M0 0 C5.94 0 11.88 0 18 0 C18 28.05 18 56.1 18 85 C25.92 85 33.84 85 42 85 C35.49412733 97.02018155 28.7059525 108.87476894 21.88671875 120.71875 C20.73195661 122.72703198 19.5801807 124.73703938 18.43359375 126.75 C17.19541671 128.92298306 15.94455249 131.08790237 14.6875 133.25 C14.03136719 134.38953125 13.37523437 135.5290625 12.69921875 136.703125 C12.13847656 137.46109375 11.57773438 138.2190625 11 139 C10.01 139 9.02 139 8 139 C7.59386475 138.28271729 7.18772949 137.56543457 6.76928711 136.82641602 C4.82856069 133.40328469 2.88437382 129.98213761 0.9375 126.5625 C0.58284668 125.93951019 0.22819336 125.31652039 -0.13720703 124.6746521 C-6.10138407 114.21068057 -12.22289648 103.85226271 -18.47680664 93.55883789 C-19.3700061 92.0853186 -19.3700061 92.0853186 -20.28125 90.58203125 C-20.80783203 89.71811768 -21.33441406 88.8542041 -21.87695312 87.96411133 C-23 86 -23 86 -23 85 C-15.41 85 -7.82 85 0 85 C0 56.95 0 28.9 0 0 Z " fill="#9B3C20" transform="translate(220,0)"/>
<path d="M0 0 C4.54769777 0.47856587 8.36853011 2.45590512 12.40625 4.46484375 C13.47663765 4.98797905 13.47663765 4.98797905 14.56864929 5.52168274 C16.88226089 6.65398303 19.19156222 7.79469189 21.5 8.9375 C24.67206278 10.50617536 27.84504687 12.07294925 31.01953125 13.63671875 C31.79855301 14.02095001 32.57757477 14.40518127 33.38020325 14.80105591 C37.77371955 16.9543339 42.18991282 18.9911021 46.69921875 20.89453125 C58.17753301 25.77109943 63.69653508 29.32138555 69 41 C70.31643114 43.17697756 71.64927304 45.34413384 73 47.5 C75.33462352 51.29376322 76.44572098 53.54723127 76 58 C74.71484375 60.77075195 74.71484375 60.77075195 72.9375 63.73828125 C72.36902344 64.70032471 71.80054688 65.66236816 71.21484375 66.65356445 C70.48394531 67.86101318 69.75304687 69.06846191 69 70.3125 C66.69 74.169375 64.38 78.02625 62 82 C76.85 82.495 76.85 82.495 92 83 C90.54247444 86.64381389 89.0806802 89.85137015 87.21484375 93.265625 C86.68439453 94.23757812 86.15394531 95.20953125 85.60742188 96.2109375 C85.05634766 97.21382813 84.50527344 98.21671875 83.9375 99.25 C83.38255859 100.26835937 82.82761719 101.28671875 82.25585938 102.3359375 C78.13489507 109.86510493 78.13489507 109.86510493 77 111 C74.6243148 111.0883967 72.27791326 111.11530305 69.90234375 111.09765625 C68.83905602 111.09553383 68.83905602 111.09553383 67.75428772 111.09336853 C65.48198288 111.08775443 63.20977525 111.07519963 60.9375 111.0625 C59.40039204 111.05748681 57.86328255 111.05292359 56.32617188 111.04882812 C52.55074358 111.03778042 48.77538829 111.02050641 45 111 C49.70872074 101.46218646 54.64835351 92.20107641 60 83 C49.77 83 39.54 83 29 83 C30.56653308 79.0836673 32.167196 75.79320922 34.265625 72.17578125 C34.90886719 71.06396484 35.55210938 69.95214844 36.21484375 68.80664062 C36.89321718 67.6419201 37.57160266 66.47720659 38.25 65.3125 C38.90613281 64.17876953 39.56226563 63.04503906 40.23828125 61.87695312 C44.10060834 55.21578264 48.01492771 48.58846577 52 42 C51.4528685 41.83342392 50.905737 41.66684784 50.34202576 41.495224 C44.6587508 39.69324324 39.45540613 37.41549568 34.16015625 34.69140625 C33.35315781 34.28341293 32.54615936 33.87541962 31.71470642 33.45506287 C29.16098293 32.16333353 26.61141545 30.86368783 24.0625 29.5625 C9.81683176 22.14692107 9.81683176 22.14692107 -5 16 C-4.35828555 13.51969902 -3.71184679 11.04080278 -3.0625 8.5625 C-2.78889648 7.50192383 -2.78889648 7.50192383 -2.50976562 6.41992188 C-1.11328125 1.11328125 -1.11328125 1.11328125 0 0 Z " fill="#FCFCFC" transform="translate(73,113)"/>
<path d="M0 0 C5.94 0 11.88 0 18 0 C18 28.05 18 56.1 18 85 C12.06 85 6.12 85 0 85 C0 56.95 0 28.9 0 0 Z " fill="#FEFEFE" transform="translate(220,0)"/>
<path d="M0 0 C10.56 0 21.12 0 32 0 C30.5676166 4.2971502 29.31544803 7.53589186 27.1796875 11.3984375 C26.45628174 12.71593994 26.45628174 12.71593994 25.71826172 14.06005859 C24.80584717 15.70095459 24.80584717 15.70095459 23.875 17.375 C21.93625 20.88125 19.9975 24.3875 18 28 C7.11 28 -3.78 28 -15 28 C-11.48472047 20.96944095 -8.01652557 14.05450688 -4.125 7.25 C-2.76375 4.8575 -1.4025 2.465 0 0 Z " fill="#063F76" transform="translate(277,168)"/>
<path d="M0 0 C28.60567969 -2.68832081 28.60567969 -2.68832081 35.46386719 1.50732422 C39.57836854 5.96413582 41.1662092 11.31902953 43 17 C45.475 21.95 45.475 21.95 48 27 C37.11 27 26.22 27 15 27 C12.525 22.730625 10.05 18.46125 7.5 14.0625 C6.3253418 12.04008179 6.3253418 12.04008179 5.12695312 9.97680664 C4.51787109 8.92356201 3.90878906 7.87031738 3.28125 6.78515625 C2.65283203 5.70113525 2.02441406 4.61711426 1.37695312 3.50024414 C0 1 0 1 0 0 Z " fill="#033F78" transform="translate(150,169)"/>
<path d="M0 0 C10.4617991 -1.46739854 21.72093853 -3.0397276 32 0 C40.19469068 6.57942455 43.76794927 17.30384782 47 27 C36.5382009 28.46739854 25.27906147 30.0397276 15 27 C6.80530932 20.42057545 3.23205073 9.69615218 0 0 Z " fill="#FCFCFA" transform="translate(150,224)"/>
<path d="M0 0 C10.56 0 21.12 0 32 0 C30.02 3.96 28.04 7.92 26 12 C25.52820313 13.46953125 25.05640625 14.9390625 24.5703125 16.453125 C22.98111624 21.02040943 21.36267587 24.57670242 17 27 C6.52466096 28.94597734 -4.45104619 27.89850878 -15 27 C-11.42104692 20.41102028 -7.81260515 13.84129258 -4.125 7.3125 C-2.76375 4.899375 -1.4025 2.48625 0 0 Z " fill="#FDFDFC" transform="translate(277,224)"/>
<path d="M0 0 C2.72558157 3.40697697 4.74657784 6.08390876 6.75 9.8125 C7.17796875 10.60269531 7.6059375 11.39289063 8.046875 12.20703125 C8.36140625 12.79871094 8.6759375 13.39039063 9 14 C12.21880117 10.2064129 14.6163187 6.34170523 17 2 C17.33 2 17.66 2 18 2 C18 14.54 18 27.08 18 40 C12.06 40 6.12 40 0 40 C0 26.8 0 13.6 0 0 Z " fill="#FAFBFB" transform="translate(220,291)"/>
<path d="M0 0 C10.23 0 20.46 0 31 0 C29.73181325 3.17046687 28.61594806 5.86524672 26.9765625 8.77734375 C26.595 9.45603516 26.2134375 10.13472656 25.8203125 10.83398438 C25.42585938 11.52814453 25.03140625 12.22230469 24.625 12.9375 C24.23828125 13.62779297 23.8515625 14.31808594 23.453125 15.02929688 C21.12879714 19.14366918 18.6717431 23.102183 16 27 C11.77220166 23.3719591 9.48736773 18.88801606 6.875 14.0625 C6.43285156 13.26392578 5.99070313 12.46535156 5.53515625 11.64257812 C3.41905807 7.78437494 1.64425359 4.11063397 0 0 Z " fill="#242130" transform="translate(214,279)"/>
</svg>
