<?xml version="1.0" encoding="UTF-8" standalone="no"?>
<!-- Created with Inkscape (http://www.inkscape.org/) -->

<svg
   width="50mm"
   height="50mm"
   viewBox="0 0 50 50"
   version="1.1"
   id="svg5"
   xmlns="http://www.w3.org/2000/svg"
   xmlns:svg="http://www.w3.org/2000/svg">
  <defs
     id="defs2" />
  <g
     id="layer1"
     transform="translate(-12.703638,-5.3779107)">
    <path
       style="fill:none;fill-rule:evenodd;stroke:#000000;stroke-width:3.77953;stroke-miterlimit:4;stroke-dasharray:none"
       id="path847-7-1"
       transform="matrix(0.26458333,0,0,0.26458333,-10.861763,-52.193021)"
       d="m 176.37642,304.89877 c -0.27421,4.31879 -5.95693,1.76112 -7.17811,-0.45575 -3.30934,-6.00756 2.41578,-12.48331 8.08961,-13.90047 10.14915,-2.53495 19.21213,6.10975 20.62283,15.72347 2.07026,14.10854 -9.82611,26.0637 -23.35733,27.34519 -18.035,1.70803 -32.96297,-13.54679 -34.06755,-30.99119 -1.39001,-21.952 17.26864,-39.88597 38.62505,-40.78991 25.86547,-1.09479 46.82255,20.99099 47.51227,46.25892 0.81282,29.77737 -24.7136,53.76762 -53.89277,54.23463 -33.68852,0.53918 -60.71837,-28.4364 -60.95699,-61.52664 -0.27115,-37.59924 32.15932,-67.67308 69.16049,-67.67935 41.50973,-0.007 74.63068,35.88236 74.40171,76.79436 -0.25419,45.42007 -39.60548,81.59045 -84.42822,81.12407" />
  </g>
</svg>
