<svg xmlns="http://www.w3.org/2000/svg" xmlns:xlink="http://www.w3.org/1999/xlink" width="500" zoomAndPan="magnify" viewBox="0 0 375 374.999991" height="500" preserveAspectRatio="xMidYMid meet" version="1.0"><defs><clipPath id="8e862e33e6"><path d="M 178 169.828125 L 185 169.828125 L 185 186 L 178 186 Z M 178 169.828125 " clip-rule="nonzero"/></clipPath></defs><path fill="#393e46" d="M 35.167969 152.964844 C 30.511719 153.421875 26.246094 154.664062 23.71875 156.320312 C 18.648438 159.609375 14.628906 165.660156 13.414062 171.804688 C 13.082031 173.433594 12.808594 176.03125 12.960938 176.03125 C 13.082031 176.03125 24.160156 179 26.9375 179.773438 C 28.304688 180.160156 29.53125 180.574219 29.65625 180.699219 C 29.796875 180.835938 30.636719 182.578125 31.5625 184.578125 C 32.476562 186.597656 33.234375 188.253906 33.261719 188.265625 C 33.289062 188.296875 34.3125 188.625 35.539062 189 L 37.777344 189.675781 L 40.015625 189 C 41.246094 188.625 42.265625 188.296875 42.292969 188.265625 C 42.320312 188.253906 43.082031 186.597656 43.992188 184.578125 C 44.917969 182.578125 45.761719 180.835938 45.898438 180.699219 C 46.023438 180.574219 47.253906 180.160156 48.621094 179.773438 C 51.394531 179 62.472656 176.03125 62.597656 176.03125 C 62.75 176.03125 62.472656 173.433594 62.140625 171.804688 C 60.882812 165.410156 56.628906 159.222656 51.285156 155.976562 C 47.820312 153.863281 40.332031 152.46875 35.167969 152.964844 Z M 35.167969 152.964844 " fill-opacity="1" fill-rule="nonzero"/><path fill="#393e46" d="M 12.726562 178.296875 C 12.753906 178.378906 14.449219 184.164062 16.507812 191.152344 L 20.222656 203.859375 L 25.292969 208.859375 L 30.363281 213.875 L 37.503906 213.875 L 37.503906 190.835938 L 34.4375 189.980469 C 27.875 188.15625 22.035156 186.5 20.554688 186.03125 L 19.007812 185.558594 L 17.40625 182.34375 C 15.609375 178.765625 15.96875 179.152344 13.789062 178.476562 C 13.113281 178.269531 12.683594 178.199219 12.726562 178.296875 Z M 12.726562 178.296875 " fill-opacity="1" fill-rule="nonzero"/><path fill="#393e46" d="M 61.339844 178.601562 C 60.511719 178.863281 59.808594 179.082031 59.792969 179.109375 C 59.78125 179.125 59.035156 180.589844 58.148438 182.34375 L 56.546875 185.558594 L 55 186.03125 C 53.523438 186.5 47.679688 188.15625 41.132812 189.980469 L 38.054688 190.835938 L 38.054688 213.875 L 45.195312 213.875 L 50.261719 208.859375 L 55.332031 203.859375 L 59.046875 191.152344 C 61.105469 184.164062 62.804688 178.363281 62.84375 178.269531 C 62.875 178.183594 62.886719 178.101562 62.875 178.117188 C 62.859375 178.117188 62.167969 178.335938 61.339844 178.601562 Z M 61.339844 178.601562 " fill-opacity="1" fill-rule="nonzero"/><path fill="#393e46" d="M 12.65625 188.058594 L 12.640625 194.066406 L 20.042969 206.042969 L 27.449219 218.015625 L 48.109375 218.015625 L 55.511719 206.042969 L 62.914062 194.066406 L 62.902344 188.058594 L 62.902344 182.039062 L 59.601562 193.226562 L 56.300781 204.398438 L 51.007812 209.6875 L 45.71875 214.976562 L 29.835938 214.976562 L 19.257812 204.398438 L 15.957031 193.226562 L 12.65625 182.039062 Z M 12.65625 188.058594 " fill-opacity="1" fill-rule="nonzero"/><g clip-path="url(#8e862e33e6)"><path fill="#393e46" d="M 184.078125 170.601562 C 184.0625 172.621094 184.042969 172.90625 183.980469 172.65625 C 183.609375 171.339844 182.675781 170.695312 181.269531 170.769531 C 180.019531 170.847656 179.175781 171.605469 178.902344 172.921875 C 178.828125 173.296875 178.816406 174.171875 178.832031 178.40625 C 178.851562 183.871094 178.832031 183.605469 179.195312 184.308594 C 179.675781 185.25 180.789062 185.769531 181.929688 185.582031 C 182.539062 185.480469 182.859375 185.328125 183.253906 184.960938 C 183.59375 184.644531 183.792969 184.3125 183.980469 183.738281 C 184.09375 183.410156 184.101562 183.015625 184.121094 176.964844 C 184.125 173.429688 184.125 170.023438 184.121094 169.398438 C 184.109375 168.765625 184.089844 169.296875 184.078125 170.601562 Z M 184.078125 170.601562 " fill-opacity="1" fill-rule="nonzero"/></g><path fill="#393e46" d="M 356.136719 170.449219 C 353.308594 170.777344 350.191406 172.554688 348.417969 174.859375 C 347.601562 175.917969 347.113281 177.050781 346.8125 178.578125 C 346.652344 179.394531 346.652344 181.28125 346.816406 182.027344 C 347.386719 184.636719 349.046875 186.695312 351.679688 188.042969 C 352.8125 188.632812 354.25 189.132812 358.125 190.292969 C 361.191406 191.210938 361.875 191.429688 362.460938 191.714844 C 363.691406 192.304688 364.203125 193.160156 364.121094 194.5 C 364.078125 195.273438 363.957031 195.722656 363.601562 196.445312 C 363.050781 197.566406 362.183594 198.226562 360.773438 198.578125 C 359.835938 198.820312 359.152344 198.890625 358.1875 198.851562 C 356.113281 198.757812 354.105469 197.933594 352.015625 196.304688 C 350.957031 195.484375 350.3125 195.203125 349.503906 195.199219 C 348.804688 195.199219 348.414062 195.355469 347.863281 195.875 C 347.558594 196.167969 347.363281 196.414062 347.222656 196.710938 C 347.027344 197.097656 347.011719 197.171875 347.011719 197.769531 C 347.011719 198.390625 347.019531 198.421875 347.28125 198.941406 C 347.597656 199.574219 347.949219 199.992188 348.722656 200.628906 C 351.128906 202.636719 354.144531 203.734375 357.746094 203.910156 C 359.613281 204 361.90625 203.636719 363.640625 202.992188 C 364.367188 202.71875 365.8125 201.632812 366.886719 200.546875 C 368.726562 198.699219 369.464844 197.054688 369.566406 194.597656 C 369.726562 190.632812 367.742188 187.898438 363.570312 186.300781 C 363.242188 186.175781 361.804688 185.707031 360.378906 185.25 C 354.289062 183.328125 353.644531 183.078125 353.035156 182.496094 C 352.382812 181.863281 352.109375 181.191406 352.109375 180.199219 C 352.117188 178.667969 352.757812 177.527344 353.945312 176.9375 C 354.535156 176.652344 355.789062 176.328125 357.207031 176.109375 C 357.800781 176.019531 358.5 175.898438 358.757812 175.855469 C 360.039062 175.609375 360.792969 174.828125 360.96875 173.570312 C 361.171875 172.144531 360.347656 170.984375 358.859375 170.601562 C 358.042969 170.390625 357.074219 170.335938 356.136719 170.449219 Z M 356.136719 170.449219 " fill-opacity="1" fill-rule="nonzero"/><path fill="#393e46" d="M 82.464844 170.757812 C 81.480469 170.96875 80.746094 171.753906 80.511719 172.839844 C 80.378906 173.488281 80.378906 201.25 80.515625 201.832031 C 80.882812 203.390625 82.15625 204.195312 83.726562 203.867188 C 84.65625 203.671875 85.226562 203.113281 85.589844 202.035156 C 85.703125 201.699219 85.707031 201.144531 85.726562 187.601562 C 85.738281 178.148438 85.722656 173.375 85.675781 173.089844 C 85.449219 171.59375 84.625 170.789062 83.238281 170.726562 C 82.960938 170.714844 82.613281 170.726562 82.464844 170.757812 Z M 82.464844 170.757812 " fill-opacity="1" fill-rule="nonzero"/><path fill="#393e46" d="M 96.34375 170.765625 C 95.464844 170.890625 94.757812 171.285156 94.371094 171.859375 C 94.097656 172.265625 94.027344 172.511719 93.992188 173.234375 C 93.953125 173.96875 94.058594 174.429688 94.390625 174.917969 C 94.65625 175.304688 94.914062 175.519531 95.394531 175.742188 C 96.066406 176.046875 96.453125 176.070312 100.101562 176.078125 L 103.46875 176.078125 L 103.46875 188.5625 C 103.476562 201.929688 103.460938 201.523438 103.785156 202.371094 C 103.949219 202.800781 104.5 203.4375 104.886719 203.632812 C 105.679688 204.039062 106.773438 204.039062 107.550781 203.632812 C 107.867188 203.46875 108.355469 202.972656 108.519531 202.636719 C 108.589844 202.5 108.699219 202.226562 108.761719 202.035156 C 108.875 201.699219 108.882812 201.09375 108.902344 188.441406 C 108.90625 181.007812 108.894531 174.632812 108.863281 173.910156 C 108.789062 172.308594 108.710938 172.054688 108.128906 171.480469 C 107.667969 171.023438 107.292969 170.859375 106.496094 170.757812 C 105.863281 170.683594 96.902344 170.683594 96.34375 170.765625 Z M 96.34375 170.765625 " fill-opacity="1" fill-rule="nonzero"/><path fill="#393e46" d="M 115.308594 170.765625 C 114.832031 170.859375 114.277344 171.167969 113.921875 171.550781 C 112.914062 172.613281 112.941406 174.222656 113.972656 175.261719 C 115.054688 176.335938 116.734375 176.324219 117.773438 175.222656 C 119.558594 173.335938 117.867188 170.265625 115.308594 170.765625 Z M 115.308594 170.765625 " fill-opacity="1" fill-rule="nonzero"/><path fill="#393e46" d="M 133.988281 170.777344 C 132.96875 171.019531 132.460938 171.574219 131.625 173.367188 C 128.25 180.648438 119.335938 200.15625 119.265625 200.433594 C 119.144531 200.882812 119.125 201.777344 119.234375 202.164062 C 119.328125 202.523438 119.621094 202.984375 119.917969 203.246094 C 120.246094 203.535156 120.949219 203.855469 121.464844 203.9375 C 121.996094 204.023438 122.445312 203.960938 122.949219 203.714844 C 123.402344 203.492188 124.019531 202.816406 124.34375 202.195312 C 124.535156 201.820312 133.550781 182.25 134.449219 180.253906 L 134.574219 179.972656 L 135.058594 180.953125 C 135.324219 181.492188 135.9375 182.800781 136.417969 183.863281 C 139.457031 190.550781 141.078125 193.957031 141.484375 194.527344 C 142.300781 195.671875 143.359375 196.203125 144.433594 196.019531 C 145.933594 195.761719 146.738281 194.179688 146.230469 192.476562 C 146.117188 192.089844 145.230469 190.125 140.75 180.351562 C 137.171875 172.542969 137 172.175781 136.664062 171.738281 C 136.359375 171.351562 135.878906 170.980469 135.507812 170.851562 C 135.109375 170.714844 134.40625 170.683594 133.988281 170.777344 Z M 133.988281 170.777344 " fill-opacity="1" fill-rule="nonzero"/><path fill="#393e46" d="M 158.457031 170.808594 C 157.628906 171.09375 157.046875 171.757812 156.738281 172.753906 C 156.628906 173.121094 156.621094 173.722656 156.621094 187.472656 C 156.621094 201.246094 156.628906 201.828125 156.738281 202.164062 C 157.152344 203.390625 158.292969 204.019531 159.414062 203.636719 C 159.851562 203.492188 160.445312 202.890625 160.648438 202.382812 L 160.800781 202.003906 L 160.832031 191.078125 L 160.863281 180.15625 L 170.488281 191.355469 C 175.78125 197.515625 180.226562 202.65625 180.367188 202.777344 C 180.503906 202.898438 180.804688 203.085938 181.03125 203.195312 C 181.40625 203.371094 181.5 203.398438 182.042969 203.398438 C 182.789062 203.398438 182.957031 203.335938 183.558594 202.800781 C 184.160156 202.269531 184.285156 202.011719 184.285156 201.277344 C 184.292969 200.574219 184.101562 199.972656 183.710938 199.394531 C 182.460938 197.566406 177.492188 191.191406 174.324219 187.347656 C 170.296875 182.464844 160.710938 171.347656 160.28125 171.0625 C 159.726562 170.695312 159.054688 170.601562 158.457031 170.808594 Z M 158.457031 170.808594 " fill-opacity="1" fill-rule="nonzero"/><path fill="#393e46" d="M 191.71875 170.757812 C 190.640625 170.941406 189.957031 171.472656 189.636719 172.386719 C 189.453125 172.890625 189.394531 174.152344 189.394531 177.628906 C 189.394531 181.035156 189.453125 182.226562 189.640625 182.769531 C 190.054688 183.945312 191.035156 184.613281 192.261719 184.546875 C 193.378906 184.492188 194.207031 183.820312 194.597656 182.660156 C 194.730469 182.261719 194.730469 182.136719 194.757812 179.160156 L 194.777344 176.0625 L 200.203125 176.097656 C 204.90625 176.121094 205.699219 176.140625 206.167969 176.230469 C 208.410156 176.664062 210.0625 177.84375 211.351562 179.925781 C 212.359375 181.539062 213.03125 183.402344 213.289062 185.289062 C 213.4375 186.335938 213.390625 188.503906 213.203125 189.601562 C 212.820312 191.8125 212.042969 193.894531 211.105469 195.210938 C 210.65625 195.84375 209.796875 196.699219 209.238281 197.066406 C 208.320312 197.675781 207.140625 198.128906 205.832031 198.375 C 205.148438 198.503906 204.894531 198.507812 198.472656 198.554688 C 192.042969 198.59375 191.8125 198.597656 191.410156 198.71875 C 190.566406 198.976562 190.015625 199.429688 189.6875 200.125 C 189.496094 200.523438 189.484375 200.59375 189.484375 201.277344 C 189.484375 201.949219 189.496094 202.035156 189.667969 202.398438 C 189.886719 202.878906 190.382812 203.371094 190.871094 203.59375 C 191.625 203.9375 191.535156 203.9375 198.765625 203.9375 C 202.804688 203.9375 205.71875 203.910156 206.109375 203.871094 C 208.542969 203.636719 210.699219 202.796875 212.59375 201.347656 C 213.183594 200.898438 214.296875 199.789062 214.859375 199.09375 C 216.214844 197.414062 217.316406 195.304688 217.96875 193.160156 C 219.535156 187.992188 218.90625 182.09375 216.328125 177.679688 C 213.878906 173.492188 210.363281 171.136719 206.007812 170.765625 C 205.109375 170.683594 192.175781 170.683594 191.71875 170.757812 Z M 191.71875 170.757812 " fill-opacity="1" fill-rule="nonzero"/><path fill="#393e46" d="M 313.960938 170.757812 C 312.511719 170.800781 312.273438 170.847656 311.703125 171.214844 C 311.15625 171.554688 310.816406 172.121094 310.664062 172.890625 C 310.53125 173.59375 310.539062 181.667969 310.671875 182.308594 C 310.9375 183.5625 311.695312 184.359375 312.828125 184.566406 C 314.191406 184.820312 315.445312 183.929688 315.8125 182.433594 C 315.898438 182.054688 315.914062 181.609375 315.914062 179.078125 L 315.914062 176.152344 L 318.421875 176.109375 C 321.34375 176.050781 326.132812 176.109375 326.910156 176.203125 C 329.542969 176.539062 331.449219 177.964844 332.945312 180.707031 C 334.789062 184.09375 335.054688 188.121094 333.710938 192.222656 C 332.601562 195.597656 330.734375 197.476562 327.746094 198.230469 C 326.402344 198.574219 326.410156 198.574219 319.375 198.609375 L 312.824219 198.65625 L 312.398438 198.792969 C 311.601562 199.058594 310.980469 199.660156 310.722656 200.414062 C 310.554688 200.898438 310.574219 201.828125 310.757812 202.308594 C 310.941406 202.785156 311.46875 203.347656 311.925781 203.574219 C 312.691406 203.949219 312.609375 203.941406 318.300781 203.980469 C 323.933594 204.011719 327.324219 203.941406 328.242188 203.777344 C 330.878906 203.296875 332.902344 202.269531 334.800781 200.441406 C 337.109375 198.210938 338.800781 195.039062 339.535156 191.539062 C 339.871094 189.957031 339.921875 189.410156 339.921875 187.347656 C 339.921875 185.816406 339.898438 185.257812 339.808594 184.65625 C 339.460938 182.339844 338.910156 180.535156 337.984375 178.671875 C 336.039062 174.773438 332.988281 172.09375 329.4375 171.183594 C 328.246094 170.871094 327.722656 170.808594 325.707031 170.757812 C 323.535156 170.695312 315.996094 170.695312 313.960938 170.757812 Z M 313.960938 170.757812 " fill-opacity="1" fill-rule="nonzero"/><path fill="#393e46" d="M 236.285156 170.847656 C 234.949219 171.234375 234.152344 172.398438 234.316406 173.726562 C 234.417969 174.5625 234.914062 175.292969 235.652344 175.679688 C 236.089844 175.914062 236.300781 175.96875 237.253906 176.132812 C 238.503906 176.347656 239.230469 176.671875 239.921875 177.332031 C 240.414062 177.792969 240.742188 178.363281 240.933594 179.097656 C 241.117188 179.789062 241.117188 181.035156 240.933594 181.730469 C 240.605469 182.976562 239.773438 183.902344 238.617188 184.3125 C 237.652344 184.648438 237.894531 184.644531 230.957031 184.679688 L 224.496094 184.726562 L 224.074219 184.863281 C 222.984375 185.230469 222.488281 185.898438 222.3125 187.253906 C 222.269531 187.585938 222.25 190.058594 222.261719 194.628906 C 222.28125 200.878906 222.292969 201.535156 222.394531 201.898438 C 222.636719 202.796875 223.109375 203.429688 223.769531 203.738281 C 224.085938 203.890625 224.1875 203.902344 224.941406 203.902344 C 225.699219 203.902344 225.789062 203.890625 226.125 203.734375 C 226.800781 203.417969 227.265625 202.777344 227.492188 201.859375 C 227.582031 201.492188 227.59375 200.699219 227.613281 195.71875 L 227.636719 190 L 231.480469 190.039062 C 235.914062 190.089844 238.414062 190.019531 239.3125 189.828125 C 240.117188 189.652344 240.605469 189.480469 241.402344 189.089844 C 243.480469 188.0625 245.15625 186.050781 245.917969 183.675781 C 246.304688 182.464844 246.40625 181.761719 246.398438 180.253906 C 246.398438 179.085938 246.378906 178.800781 246.253906 178.230469 C 245.820312 176.214844 245.03125 174.734375 243.65625 173.347656 C 242.382812 172.070312 241.003906 171.304688 239.25 170.910156 C 238.628906 170.769531 236.699219 170.734375 236.285156 170.847656 Z M 236.285156 170.847656 " fill-opacity="1" fill-rule="nonzero"/><path fill="#393e46" d="M 297.996094 170.851562 C 297.128906 171.121094 296.542969 171.796875 296.285156 172.828125 C 296.183594 173.226562 296.175781 174.324219 296.175781 187.347656 C 296.175781 200.464844 296.183594 201.464844 296.285156 201.871094 C 296.511719 202.765625 296.992188 203.402344 297.710938 203.734375 C 298.179688 203.949219 299.160156 204.003906 299.699219 203.847656 C 300.464844 203.625 301.019531 203.054688 301.320312 202.195312 L 301.488281 201.6875 L 301.488281 173.007812 L 301.320312 172.5 C 301.027344 171.652344 300.46875 171.074219 299.730469 170.851562 C 299.335938 170.738281 298.363281 170.734375 297.996094 170.851562 Z M 297.996094 170.851562 " fill-opacity="1" fill-rule="nonzero"/><path fill="#393e46" d="M 277.5 171.746094 C 277.082031 171.878906 276.789062 172.074219 276.410156 172.472656 C 276 172.917969 275.78125 173.289062 275.648438 173.792969 C 275.554688 174.171875 275.554688 174.226562 275.648438 174.613281 C 275.839844 175.394531 276.460938 176.121094 277.9375 177.3125 C 279.59375 178.652344 280.558594 179.832031 281.355469 181.492188 C 282.191406 183.238281 282.507812 184.769531 282.445312 186.796875 C 282.394531 188.570312 282.050781 189.886719 281.253906 191.460938 C 280.664062 192.613281 280.113281 193.367188 279.171875 194.3125 C 277.738281 195.742188 276.125 196.699219 274.230469 197.242188 C 272.382812 197.773438 270.261719 197.769531 268.316406 197.222656 C 264.5625 196.167969 261.605469 193.183594 260.585938 189.4375 C 260.289062 188.339844 260.238281 187.789062 260.238281 185.667969 C 260.238281 183.527344 260.207031 183.25 259.878906 182.644531 C 259.648438 182.230469 259.175781 181.8125 258.730469 181.640625 C 258.226562 181.453125 257.289062 181.40625 256.792969 181.546875 C 255.925781 181.800781 255.3125 182.472656 255.023438 183.484375 C 254.800781 184.257812 254.722656 186.398438 254.855469 188.082031 C 255.097656 191.03125 256.476562 194.363281 258.515625 196.90625 C 259.125 197.660156 260.417969 198.960938 261.125 199.527344 C 262 200.226562 263.113281 200.933594 264.125 201.433594 C 266.46875 202.585938 268.363281 203.019531 271.097656 203.011719 C 273.003906 203.011719 274.398438 202.816406 276.050781 202.316406 C 282.34375 200.414062 286.871094 195.066406 287.757812 188.480469 C 287.894531 187.4375 287.894531 185.503906 287.757812 184.402344 C 287.355469 181.292969 286.046875 178.210938 284.082031 175.777344 C 282.90625 174.324219 281.113281 172.777344 279.867188 172.152344 C 278.960938 171.695312 278.113281 171.550781 277.5 171.746094 Z M 277.5 171.746094 " fill-opacity="1" fill-rule="nonzero"/><path fill="#393e46" d="M 366.003906 173.640625 C 365.484375 173.753906 365.132812 173.9375 364.730469 174.324219 C 363.582031 175.40625 363.671875 177.375 364.90625 178.355469 C 365.71875 178.996094 366.894531 179.089844 367.824219 178.597656 C 368.289062 178.351562 368.84375 177.765625 369.066406 177.296875 C 369.21875 176.96875 369.238281 176.855469 369.238281 176.265625 C 369.238281 175.652344 369.226562 175.570312 369.035156 175.171875 C 368.648438 174.359375 367.839844 173.753906 366.953125 173.609375 C 366.503906 173.53125 366.488281 173.53125 366.003906 173.640625 Z M 366.003906 173.640625 " fill-opacity="1" fill-rule="nonzero"/><path fill="#393e46" d="M 240.128906 192.949219 C 239.679688 193.046875 239.308594 193.222656 239.109375 193.4375 C 238.6875 193.894531 238.269531 194.882812 238.269531 195.425781 C 238.269531 195.875 239.230469 198.207031 240.1875 200.074219 C 240.6875 201.042969 241.527344 202.515625 241.800781 202.890625 C 242.148438 203.371094 243.148438 203.746094 244.085938 203.746094 C 244.765625 203.746094 244.984375 203.664062 245.410156 203.269531 C 246.214844 202.523438 246.550781 201.410156 246.277344 200.359375 C 246.113281 199.730469 243.832031 195.457031 242.777344 193.792969 C 242.359375 193.140625 242.195312 193.015625 241.585938 192.917969 C 241.09375 192.835938 240.597656 192.847656 240.128906 192.949219 Z M 240.128906 192.949219 " fill-opacity="1" fill-rule="nonzero"/></svg>