<?xml version="1.0" encoding="UTF-8" standalone="no"?>
<!-- Created with Inkscape (http://www.inkscape.org/) -->

<svg
   width="130mm"
   height="50mm"
   viewBox="0 0 130 50"
   version="1.1"
   id="svg5"
   xmlns="http://www.w3.org/2000/svg"
   xmlns:svg="http://www.w3.org/2000/svg">
  <defs
     id="defs2" />
  <g
     id="layer1"
     transform="translate(-29.072937,-59.579439)">
    <g
       id="g7860"
       transform="translate(4.3307834,3.6081178)">
      <path
         style="fill:none;fill-rule:evenodd;stroke:#000000;stroke-width:3.77953;stroke-miterlimit:4;stroke-dasharray:none"
         id="path847"
         transform="matrix(0.26458333,0,0,0.26458333,0,-1.5996101)"
         d="m 176.37642,304.89877 c -0.27421,4.31879 -5.95693,1.76112 -7.17811,-0.45575 -3.30934,-6.00756 2.41578,-12.48331 8.08961,-13.90047 10.14915,-2.53495 19.21213,6.10975 20.62283,15.72347 2.07026,14.10854 -9.82611,26.0637 -23.35733,27.34519 -18.035,1.70803 -32.96297,-13.54679 -34.06755,-30.99119 -1.39001,-21.952 17.26864,-39.88597 38.62505,-40.78991 25.86547,-1.09479 46.82255,20.99099 47.51227,46.25892 0.81282,29.77737 -24.7136,53.76762 -53.89277,54.23463 -33.68852,0.53918 -60.71837,-28.4364 -60.95699,-61.52664 -0.27115,-37.59924 32.15932,-67.67308 69.16049,-67.67935 41.50973,-0.007 74.63068,35.88236 74.40171,76.79436 -0.25419,45.42007 -39.60548,81.59045 -84.42822,81.12407" />
      <g
         aria-label="LOGO"
         id="text1533"
         style="font-weight:bold;font-size:25.4px;line-height:1.25;font-family:prosto;-inkscape-font-specification:'prosto Bold';letter-spacing:0px;word-spacing:0px;stroke-width:0.264583">
        <path
           d="M 78.390962,89.714973 V 72.240071 h 3.658692 v 14.647168 h 9.376171 v 2.827734 z"
           style="font-family:'Liberation Sans';-inkscape-font-specification:'Liberation Sans Bold'"
           id="path7819" />
        <path
           d="m 110.89751,80.896907 q 0,2.728516 -1.07901,4.799707 -1.079,2.071192 -3.08818,3.175 -2.00918,1.091406 -4.68809,1.091406 -4.117576,0 -6.461619,-2.418457 -2.331641,-2.430859 -2.331641,-6.647656 0,-4.204394 2.331641,-6.56084 2.33164,-2.356445 6.486429,-2.356445 4.15478,0 6.48642,2.38125 2.34405,2.38125 2.34405,6.536035 z m -3.73311,0 q 0,-2.827734 -1.33945,-4.427636 -1.33946,-1.612305 -3.75791,-1.612305 -2.455668,0 -3.795121,1.599902 -1.339453,1.5875 -1.339453,4.440039 0,2.877344 1.364258,4.539258 1.37666,1.649512 3.745506,1.649512 2.45567,0 3.78272,-1.612305 1.33945,-1.612305 1.33945,-4.576465 z"
           style="font-family:'Liberation Sans';-inkscape-font-specification:'Liberation Sans Bold'"
           id="path7821" />
        <path
           d="m 121.9604,87.098079 q 1.42627,0 2.76572,-0.409277 1.33945,-0.42168 2.07119,-1.066602 v -2.418457 h -4.26641 v -2.703711 h 7.61504 v 6.424414 q -1.38906,1.42627 -3.62148,2.232422 -2.22002,0.806152 -4.66328,0.806152 -4.26641,0 -6.56084,-2.356445 -2.29444,-2.368848 -2.29444,-6.709668 0,-4.316015 2.30684,-6.610449 2.30684,-2.306836 6.63525,-2.306836 6.15157,0 7.82588,4.55166 l -3.37343,1.016992 q -0.54571,-1.32705 -1.71153,-2.009179 -1.16582,-0.682129 -2.74092,-0.682129 -2.57968,0 -3.91914,1.562695 -1.33945,1.562695 -1.33945,4.477246 0,2.96416 1.37666,4.588867 1.38906,1.612305 3.89434,1.612305 z"
           style="font-family:'Liberation Sans';-inkscape-font-specification:'Liberation Sans Bold'"
           id="path7823" />
        <path
           d="m 150.41137,80.896907 q 0,2.728516 -1.079,4.799707 -1.07901,2.071192 -3.08819,3.175 -2.00918,1.091406 -4.68808,1.091406 -4.11758,0 -6.46162,-2.418457 -2.33164,-2.430859 -2.33164,-6.647656 0,-4.204394 2.33164,-6.56084 2.33164,-2.356445 6.48642,-2.356445 4.15479,0 6.48643,2.38125 2.34404,2.38125 2.34404,6.536035 z m -3.7331,0 q 0,-2.827734 -1.33946,-4.427636 -1.33945,-1.612305 -3.75791,-1.612305 -2.45566,0 -3.79512,1.599902 -1.33945,1.5875 -1.33945,4.440039 0,2.877344 1.36426,4.539258 1.37666,1.649512 3.74551,1.649512 2.45566,0 3.78271,-1.612305 1.33946,-1.612305 1.33946,-4.576465 z"
           style="font-family:'Liberation Sans';-inkscape-font-specification:'Liberation Sans Bold'"
           id="path7825" />
      </g>
    </g>
  </g>
</svg>
