<?xml version="1.0" standalone="no"?>
<!DOCTYPE svg PUBLIC "-//W3C//DTD SVG 20010904//EN"
 "http://www.w3.org/TR/2001/REC-SVG-20010904/DTD/svg10.dtd">
<svg version="1.0" xmlns="http://www.w3.org/2000/svg"
 width="10694.000000pt" height="9077.000000pt" viewBox="0 0 10694.000000 9077.000000"
 preserveAspectRatio="xMidYMid meet">

<g transform="translate(0.000000,9077.000000) scale(0.100000,-0.100000)"
fill="#000000" stroke="none">
<path d="M23485 88473 c-512 -35 -1031 -153 -1439 -328 -1128 -482 -1779
-1439 -1743 -2560 9 -292 45 -501 128 -750 239 -721 827 -1278 1812 -1719 260
-116 478 -197 972 -361 270 -90 558 -190 641 -223 959 -385 1387 -818 1464
-1484 18 -153 8 -443 -20 -573 -103 -480 -402 -846 -885 -1081 -629 -305
-1566 -345 -2525 -108 -499 124 -976 324 -1417 597 -7 5 -81 -202 -209 -585
-108 -326 -199 -598 -201 -604 -6 -17 189 -132 370 -219 597 -288 1396 -483
2197 -536 220 -15 757 -6 970 16 796 80 1426 284 1950 630 675 447 1099 1108
1220 1901 28 181 37 510 21 706 -33 381 -109 671 -256 973 -262 538 -728 963
-1455 1324 -341 169 -638 287 -1185 469 -938 312 -1413 551 -1736 872 -272
270 -391 561 -392 960 -1 225 36 394 128 585 308 640 1073 971 2113 916 665
-36 1232 -178 1765 -444 98 -49 180 -87 181 -85 6 7 416 1158 416 1166 0 12
-219 120 -355 175 -498 203 -1087 326 -1755 367 -151 9 -656 11 -775 3z"/>
<path d="M31075 88379 c-488 -18 -1057 -64 -1507 -119 -232 -29 -477 -64 -525
-75 l-23 -5 0 -4058 c0 -2231 -5 -4347 -10 -4702 -5 -355 -17 -1115 -25 -1690
-189 -12990 -419 -20493 -726 -23687 l-12 -122 -80 -63 c-135 -106 -256 -264
-347 -453 -189 -392 -296 -936 -350 -1785 -5 -85 -14 -807 -20 -1605 -5 -797
-12 -1648 -16 -1891 l-6 -441 -91 -17 c-127 -24 -341 -96 -461 -156 -202 -99
-365 -219 -536 -396 -294 -304 -505 -691 -671 -1234 -27 -88 -34 -102 -43 -86
-44 75 -224 338 -280 411 -116 150 -364 390 -490 474 -102 68 -224 136 -231
129 -2 -2 -58 -104 -124 -227 l-121 -224 83 -81 c380 -373 714 -1117 841
-1881 58 -342 59 -381 57 -1260 -3 -1259 -22 -5719 -24 -5721 -1 -2 -59 -14
-128 -28 -924 -187 -1649 -834 -1912 -1706 -58 -190 -91 -383 -102 -585 -3
-60 -21 -1210 -40 -2555 -20 -1345 -38 -2514 -41 -2597 l-6 -153 -7399 0
-7399 0 0 -1290 0 -1290 635 0 635 0 2 -1908 3 -1907 25895 0 25895 0 3 1907
2 1908 635 0 635 0 -2 1288 -3 1287 -7656 3 -7656 2 -7 208 c-3 114 -8 837
-11 1607 -10 2367 -33 3070 -125 3785 -180 1392 -642 2123 -1540 2441 l-105
37 -7 313 c-8 382 -24 727 -43 954 -23 262 -49 392 -111 548 l-35 88 74 78
c124 130 205 266 253 428 21 70 27 116 31 223 4 121 2 145 -21 234 -31 121
-90 242 -169 350 -122 166 -344 358 -574 497 -56 33 -103 66 -106 73 -2 6
-145 824 -318 1818 -173 995 -316 1808 -319 1808 -4 0 -591 -3401 -618 -3580
-3 -20 -26 -39 -109 -90 -539 -327 -811 -732 -765 -1139 26 -229 121 -422 302
-614 l56 -60 -34 -84 c-90 -224 -120 -472 -142 -1148 -6 -187 -14 -413 -18
-503 l-7 -163 -102 -34 c-505 -169 -894 -489 -1161 -955 -262 -458 -413 -1078
-477 -1965 -30 -421 -37 -668 -42 -1604 l-6 -954 -931 7 c-512 3 -1573 9
-2358 12 l-1426 7 -6 121 c-3 66 -20 684 -37 1371 -21 888 -34 1283 -45 1365
-59 459 -229 863 -514 1225 -35 44 -120 136 -189 205 -351 348 -795 583 -1295
684 -72 15 -131 28 -131 29 -1 1 -7 1451 -13 3222 -8 2207 -9 3258 -2 3340 51
593 186 1103 426 1602 141 295 292 521 459 687 l91 90 -99 186 c-55 102 -110
204 -123 227 l-25 43 -58 -30 c-94 -47 -259 -163 -354 -248 -171 -154 -374
-402 -522 -640 -38 -61 -72 -112 -75 -112 -3 0 -22 58 -43 128 -113 375 -286
734 -476 987 -161 214 -304 351 -505 486 -199 134 -420 227 -667 281 l-106 23
-6 785 c-4 432 -7 1143 -7 1580 0 1073 -14 1539 -60 2005 -94 950 -311 1538
-667 1805 -32 24 -61 47 -66 50 -13 11 -64 587 -112 1255 -258 3646 -447
10208 -620 21560 -42 2781 -55 3822 -55 4573 0 779 1 823 18 818 36 -11 220
-45 297 -55 405 -54 1089 -60 1565 -15 1032 97 1882 410 2490 917 121 101 323
306 412 417 140 175 284 420 373 630 221 523 305 1235 214 1826 -152 999 -781
1781 -1753 2181 -494 204 -1055 320 -1756 363 -188 11 -931 11 -1245 -1z
m1015 -1139 c326 -16 564 -48 815 -111 795 -198 1291 -643 1455 -1304 43 -172
60 -328 60 -540 0 -721 -276 -1268 -824 -1636 -521 -351 -1212 -500 -2160
-468 -386 12 -629 39 -868 96 l-108 25 0 1918 c0 1819 1 1919 18 1924 124 36
747 91 1127 99 61 2 148 4 195 5 47 1 177 -3 290 -8z m-2325 -15635 c148
-8302 333 -13851 561 -16805 46 -607 132 -1512 145 -1524 2 -3 75 -18 162 -34
174 -32 182 -36 238 -124 156 -243 259 -754 309 -1528 12 -184 16 -502 30
-2715 5 -841 13 -1637 16 -1768 l7 -237 306 2 c325 2 385 -3 554 -53 102 -30
253 -111 346 -186 352 -282 606 -870 735 -1703 60 -389 91 -761 106 -1273 8
-283 31 -5395 30 -6724 l0 -331 343 -5 c321 -4 349 -6 463 -30 215 -47 409
-124 579 -230 449 -279 725 -739 759 -1262 3 -49 25 -853 47 -1785 23 -932 44
-1698 48 -1702 6 -7 6340 -40 6352 -33 3 3 9 577 12 1277 8 1645 25 2074 102
2613 137 951 426 1422 1000 1625 123 43 184 56 450 99 l230 37 2 85 c2 46 7
350 13 674 17 967 41 1311 102 1455 27 64 68 98 219 185 l151 86 171 -98 c95
-53 187 -113 205 -132 34 -37 68 -115 83 -194 34 -183 58 -717 66 -1479 3
-335 8 -608 10 -608 3 0 100 -16 216 -36 331 -55 467 -95 637 -185 523 -280
765 -952 855 -2369 37 -593 51 -1403 59 -3533 l5 -1267 -11269 0 -11270 0 0
103 c0 56 18 1256 40 2667 33 2065 43 2584 55 2660 102 649 580 1162 1243
1330 159 40 268 51 578 57 l302 6 6 661 c3 364 10 1946 16 3516 6 1570 15
2952 20 3070 41 891 160 1580 357 2065 208 514 498 814 878 910 153 39 282 48
561 41 l251 -7 7 623 c4 343 12 1348 17 2233 6 886 12 1639 15 1675 2 36 9
146 14 245 44 764 179 1357 349 1535 32 33 45 39 111 50 41 7 113 20 160 29
l85 16 7 45 c23 147 108 1072 153 1680 214 2898 394 8288 535 16045 22 1245
34 1727 37 1545 2 -69 9 -512 18 -985z m14558 -30634 c246 -124 490 -308 542
-410 23 -45 14 -73 -43 -133 -86 -93 -171 -139 -402 -222 -85 -31 -162 -56
-170 -56 -23 0 -418 144 -475 173 -125 63 -235 170 -235 227 0 58 137 197 300
305 93 62 315 185 335 185 6 0 72 -31 148 -69z m-23971 -12858 l3 -838 613 -3
612 -2 0 -1520 0 -1520 -5580 0 -5580 0 0 1905 0 1905 -640 0 -640 0 0 455 0
455 5605 0 5605 0 2 -837z m14708 -1523 l0 -2360 -6325 0 -6325 0 0 1940 0
1940 -610 0 -610 0 0 420 0 420 6935 0 6935 0 0 -2360z m14710 1940 l0 -420
-610 0 -610 0 0 -1940 0 -1940 -6325 0 -6325 0 0 2360 0 2360 6935 0 6935 0 0
-420z m12040 -35 l0 -455 -635 0 -635 0 0 -1905 0 -1905 -5580 0 -5580 0 0
1520 0 1520 610 0 610 0 0 840 0 840 5605 0 5605 0 0 -455z"/>
<path d="M28827 45053 c-4 -3 -7 -906 -7 -2005 l0 -1998 975 0 975 0 -2 2003
-3 2002 -966 3 c-531 1 -969 -1 -972 -5z m1103 -2003 l0 -1170 -135 0 -135 0
0 1170 0 1170 135 0 135 0 0 -1170z"/>
<path d="M28820 35290 l0 -1980 975 0 975 0 0 1980 0 1980 -975 0 -975 0 0
-1980z m1110 0 l0 -1150 -135 0 -135 0 0 1150 0 1150 135 0 135 0 0 -1150z"/>
<path d="M43760 33690 l0 -1780 415 0 415 0 0 1780 0 1780 -415 0 -415 0 0
-1780z"/>
<path d="M37935 88348 c-3 -7 -6 -2132 -8 -4723 -3 -3376 -7 -4767 -15 -4910
-24 -416 -33 -551 -38 -588 l-6 -37 629 2 628 3 27 538 c14 296 28 540 30 542
2 3 23 -22 46 -54 423 -600 1020 -983 1762 -1131 243 -48 376 -62 665 -67 272
-5 414 2 625 33 507 74 1044 286 1467 580 446 310 817 739 1068 1235 236 466
369 958 415 1543 13 167 13 557 0 722 -63 782 -323 1473 -761 2025 -107 135
-356 384 -489 489 -445 353 -965 570 -1570 657 -181 26 -757 26 -950 0 -722
-97 -1307 -365 -1754 -805 -121 -119 -216 -228 -300 -346 l-56 -78 0 2191 0
2191 -705 0 c-555 0 -707 -3 -710 -12z m3978 -4263 c345 -54 617 -157 883
-334 686 -456 1064 -1328 1006 -2323 -28 -465 -113 -822 -281 -1163 -332 -678
-896 -1076 -1671 -1181 -176 -24 -525 -24 -680 -1 -546 83 -1018 337 -1354
727 -234 273 -382 570 -438 876 -23 127 -23 141 -23 804 0 610 2 685 18 779
82 462 298 890 606 1199 355 358 807 571 1339 632 111 13 479 4 595 -15z"/>
<path d="M89745 88348 c-3 -7 -6 -937 -8 -2067 l-2 -2053 -32 44 c-52 72 -210
234 -312 319 -386 323 -877 527 -1476 614 -150 22 -623 31 -792 16 -1058 -99
-1971 -649 -2546 -1532 -319 -491 -513 -1053 -594 -1719 -25 -210 -25 -776 0
-980 106 -852 424 -1545 961 -2098 501 -516 1126 -832 1866 -943 173 -26 578
-37 771 -20 666 58 1229 274 1694 648 192 155 435 426 553 617 l37 59 6 -49
c4 -27 17 -289 30 -581 l23 -533 649 0 649 0 -6 63 c-7 70 -21 298 -38 622 -8
158 -13 1542 -17 4900 l-6 4680 -703 3 c-557 2 -704 0 -707 -10z m-1685 -4262
c591 -102 1071 -408 1383 -881 121 -185 229 -442 261 -625 33 -193 38 -326 33
-1005 -5 -740 -5 -744 -76 -995 -222 -785 -897 -1371 -1710 -1484 -128 -18
-447 -21 -586 -6 -403 45 -766 181 -1060 397 -121 89 -354 325 -437 443 -345
488 -509 1119 -468 1802 38 653 220 1169 561 1598 76 97 242 261 339 337 294
229 680 385 1075 432 125 15 572 6 685 -13z"/>
<path d="M47263 85183 c3 -2329 7 -3151 16 -3248 51 -550 115 -919 226 -1306
366 -1266 1140 -2106 2289 -2480 272 -89 613 -159 946 -196 208 -22 859 -25
1070 -5 629 62 1127 192 1596 417 716 343 1261 881 1628 1605 318 627 491
1350 536 2240 6 119 10 1350 10 3143 l0 2947 -725 0 -724 0 -4 -3077 c-3
-2297 -7 -3110 -16 -3203 -37 -390 -95 -725 -170 -982 -121 -412 -307 -781
-536 -1063 -93 -114 -253 -270 -373 -363 -458 -352 -1087 -533 -1769 -508
-684 25 -1215 235 -1642 650 -544 530 -841 1326 -901 2411 -6 123 -10 1239
-10 3163 l0 2972 -725 0 -726 0 4 -3117z"/>
<path d="M67650 87835 c-283 -57 -502 -225 -619 -475 -56 -120 -72 -187 -78
-331 -12 -267 76 -491 259 -665 125 -119 265 -188 445 -219 319 -56 658 63
853 298 59 72 132 212 161 312 30 101 37 295 15 404 -71 348 -320 602 -660
672 -107 22 -278 24 -376 4z"/>
<path d="M72005 86931 c-357 -92 -662 -171 -677 -175 l-28 -6 0 -845 0 -845
-570 0 -570 0 2 -552 3 -553 567 -3 567 -2 4 -2008 c3 -1810 5 -2020 20 -2137
72 -556 204 -927 432 -1220 89 -114 247 -262 362 -339 250 -166 577 -279 915
-315 124 -14 457 -14 624 -1 168 14 380 44 524 76 110 25 326 91 380 117 l26
12 -34 550 c-18 302 -34 551 -36 552 -1 2 -35 -8 -75 -22 -164 -55 -395 -90
-674 -101 -354 -14 -578 47 -746 202 -171 159 -254 352 -312 729 -10 61 -14
540 -16 1992 l-4 1913 973 2 973 3 3 553 2 552 -975 0 -975 0 0 1020 c0 965
-1 1020 -17 1019 -10 -1 -310 -77 -668 -168z"/>
<path d="M61590 85215 c-686 -86 -1280 -366 -1736 -820 -150 -149 -216 -227
-312 -368 l-60 -88 -6 53 c-3 29 -17 251 -31 493 -14 242 -28 470 -31 508 l-6
67 -639 0 -640 0 5 -32 c3 -18 10 -125 16 -238 6 -113 16 -295 22 -405 7 -134
12 -1206 15 -3247 l4 -3048 709 0 710 0 3 2158 3 2157 22 114 c98 507 461 993
954 1280 293 170 600 250 955 251 505 0 897 -149 1191 -455 224 -232 372 -527
456 -905 76 -348 76 -335 76 -2591 l0 -2009 710 0 710 0 0 2058 c0 1288 -4
2119 -10 2222 -50 795 -253 1400 -638 1900 -83 108 -291 316 -402 402 -361
280 -769 450 -1277 534 -139 23 -616 28 -773 9z"/>
<path d="M79130 85224 c-19 -2 -80 -9 -135 -14 -235 -25 -496 -81 -728 -156
-390 -127 -712 -297 -1037 -548 -125 -97 -440 -407 -530 -524 -465 -599 -719
-1237 -817 -2052 -22 -185 -25 -722 -5 -910 116 -1078 610 -1929 1440 -2481
439 -292 966 -485 1564 -573 394 -59 960 -62 1498 -10 483 46 977 151 1409
299 203 69 411 154 411 167 0 18 -253 1013 -259 1020 -3 4 -58 -14 -121 -38
-468 -182 -891 -280 -1420 -330 -233 -21 -748 -30 -935 -15 -537 43 -987 197
-1378 471 -122 85 -372 336 -457 457 -232 333 -371 737 -397 1150 l-6 103
2664 2 2663 3 13 44 c7 25 21 97 30 160 24 162 24 659 0 851 -93 745 -320
1336 -706 1845 -98 129 -358 389 -488 488 -344 261 -734 435 -1179 526 -264
54 -369 63 -729 66 -181 2 -346 1 -365 -1z m460 -1035 c408 -37 755 -174 1023
-404 351 -302 587 -826 623 -1382 l7 -103 -1997 0 -1996 0 5 23 c3 12 14 67
26 122 11 55 42 165 69 245 260 791 816 1319 1540 1464 220 44 467 57 700 35z"/>
<path d="M67110 81575 l0 -3485 710 0 710 0 0 3485 0 3485 -710 0 -710 0 0
-3485z"/>
<path d="M83580 46894 c-1658 -43 -3044 -157 -4428 -364 -2733 -411 -4950
-1112 -6272 -1985 -307 -203 -520 -376 -745 -606 -82 -85 -179 -191 -215 -237
-219 -281 -368 -584 -429 -877 -35 -168 -40 -258 -34 -627 3 -194 -2 -2304
-11 -4688 -10 -2384 -16 -4447 -14 -4585 l3 -249 330 -73 c182 -40 354 -77
383 -83 l52 -11 0 -1193 0 -1193 -26 -24 c-40 -37 -108 -136 -147 -214 -199
-400 -298 -1375 -282 -2775 11 -986 36 -1287 171 -2095 76 -450 251 -1297 300
-1450 60 -186 208 -346 389 -422 28 -12 235 -62 460 -112 4445 -983 10239
-2253 10303 -2259 265 -25 517 62 710 243 127 118 191 221 267 430 27 72 53
135 59 141 7 7 122 15 314 23 l303 12 130 -125 c552 -532 1188 -833 1959 -928
157 -19 612 -16 775 5 706 94 1344 366 1905 813 174 139 495 461 629 631 l104
132 61 -23 c33 -13 293 -114 577 -224 l516 -201 254 59 c1810 416 2896 863
4220 1735 l216 142 7 1184 c18 3235 80 4779 231 5829 l26 175 -3 6205 -3 6205
-26 115 c-78 341 -233 652 -467 930 -953 1137 -3277 1941 -6787 2349 -1085
126 -2261 207 -3655 251 -318 10 -1862 20 -2110 14z m2275 -853 c788 -31 1146
-49 1695 -87 3028 -208 5416 -702 6845 -1417 422 -210 703 -399 948 -637 301
-290 448 -574 451 -870 1 -88 -1 -100 -32 -164 -211 -445 -1014 -937 -2242
-1374 -2454 -872 -6315 -1409 -9655 -1342 l-530 10 -5510 1227 c-3030 675
-5514 1230 -5518 1234 -5 4 -2 35 7 69 192 747 1330 1521 3136 2132 2006 678
4736 1120 7520 1218 168 6 343 12 390 14 195 7 2247 -3 2495 -13z m-8233
-5462 l5268 -1174 0 -935 c1 -514 7 -2400 14 -4190 8 -1790 12 -3257 10 -3259
-5 -5 -10630 2320 -10643 2329 -6 4 22 8383 28 8409 1 5 -271 66 5323 -1180z
m18158 -9804 c-105 -697 -172 -1763 -210 -3345 -16 -683 -30 -1869 -30 -2632
l0 -707 -117 -74 c-958 -604 -1863 -986 -3068 -1297 -110 -28 -208 -53 -217
-56 -16 -5 -18 3 -18 75 0 68 9 111 54 268 173 600 256 1163 256 1734 0 361
-28 655 -95 985 -138 681 -426 1305 -841 1824 -125 156 -362 401 -514 533
-700 606 -1614 974 -2600 1048 -174 13 -735 7 -865 -10 -44 -6 -190 -20 -325
-31 -135 -11 -567 -50 -960 -85 -1431 -128 -1879 -155 -2014 -120 -158 41
-320 172 -389 315 -20 41 -44 102 -52 135 -14 53 -18 602 -35 4895 -11 2659
-20 4891 -20 4960 l0 125 758 1 c852 0 1401 18 2162 69 3603 244 6936 1007
8655 1983 153 86 370 225 454 288 l46 36 3 -5394 c2 -5324 2 -5395 -18 -5523z
m-18384 595 c2385 -522 4338 -951 4340 -953 2 -2 3 -805 2 -1784 l-3 -1780
-4347 966 -4348 966 0 1768 c0 1134 3 1767 10 1767 5 0 1961 -427 4346 -950z
m5345 -1170 c74 -16 144 -32 157 -35 l22 -5 0 -354 c0 -389 8 -509 46 -666 64
-269 184 -481 389 -686 207 -208 436 -330 739 -396 217 -47 646 -25 2226 117
393 35 798 71 900 80 102 8 257 23 345 32 223 24 693 24 895 -1 511 -62 922
-185 1327 -396 331 -173 586 -362 849 -631 539 -552 847 -1235 940 -2089 21
-190 24 -645 5 -835 -41 -419 -116 -795 -241 -1210 -46 -153 -50 -174 -50
-270 0 -58 -2 -105 -5 -105 -11 0 -320 121 -327 128 -3 4 14 54 39 112 60 139
164 454 202 610 34 139 73 360 93 520 17 141 17 690 0 830 -66 532 -216 997
-458 1416 -249 433 -603 814 -1014 1094 -571 387 -1282 592 -1967 566 -1594
-59 -3006 -1156 -3533 -2746 -82 -249 -139 -506 -177 -795 -22 -173 -25 -669
-5 -840 45 -388 146 -771 287 -1090 l53 -120 -151 -8 c-228 -11 -349 -51 -475
-156 -109 -91 -148 -158 -246 -424 -36 -97 -70 -186 -76 -197 -20 -38 -55 -53
-108 -45 -26 3 -53 10 -60 14 -10 6 -683 3017 -726 3251 -53 285 -50 100 -53
2833 -3 2172 -1 2527 11 2527 7 0 74 -13 147 -30z m-5368 -3230 c2377 -529
4332 -964 4345 -967 l22 -5 0 -315 0 -315 -22 5 c-13 3 -1965 445 -4338 983
-2373 537 -4319 981 -4325 986 -10 9 -21 588 -11 588 4 0 1951 -432 4329 -960z
m10972 196 c405 -64 775 -221 1111 -472 489 -365 836 -931 964 -1574 45 -227
54 -325 54 -585 -1 -503 -99 -929 -319 -1380 -173 -356 -372 -631 -652 -906
-350 -344 -728 -576 -1180 -725 -285 -95 -546 -137 -848 -137 -293 0 -523 36
-787 123 -633 209 -1147 661 -1448 1275 -97 197 -147 336 -199 547 -208 842
-39 1739 469 2498 162 241 430 534 645 705 430 343 958 574 1450 634 50 6 101
13 115 15 67 11 521 -2 625 -18z m-10791 -1704 l4310 -978 294 -1328 c161
-730 291 -1330 289 -1332 -5 -5 -8613 1889 -8621 1897 -2 2 -138 600 -301
1329 -163 729 -300 1340 -305 1358 -7 27 -6 32 8 32 9 -1 1956 -441 4326 -978z"/>
<path d="M84930 45884 c-565 -26 -968 -71 -1350 -149 -545 -112 -904 -278
-976 -451 -148 -354 761 -669 2151 -745 280 -15 1055 -6 1310 15 1036 88 1767
309 1886 569 42 93 15 183 -82 270 -256 232 -993 412 -1954 477 -153 11 -849
20 -985 14z"/>
<path d="M92090 44464 c-1352 -55 -2283 -304 -2371 -636 -21 -77 0 -129 86
-214 60 -59 91 -80 196 -132 245 -121 579 -213 1024 -281 725 -112 1712 -126
2490 -35 854 98 1453 305 1561 539 13 27 24 61 24 74 0 84 -80 188 -205 266
-316 197 -1030 351 -1875 405 -172 11 -783 20 -930 14z"/>
<path d="M75545 43933 c-1097 -43 -1980 -247 -2229 -513 -56 -60 -76 -103 -76
-165 0 -112 97 -211 306 -311 384 -186 1044 -311 1879 -355 251 -13 1001 -7
1215 11 782 62 1333 177 1687 350 192 94 292 200 293 309 1 291 -746 554
-1840 645 -366 31 -885 43 -1235 29z"/>
<path d="M83620 43883 c-1307 -55 -2291 -246 -2696 -521 -298 -202 -213 -427
232 -617 442 -189 1180 -321 2159 -386 263 -17 1078 -23 1390 -10 1365 58
2421 287 2723 591 59 60 86 114 86 175 0 66 -27 116 -100 186 -313 297 -1350
520 -2694 579 -198 9 -924 11 -1100 3z"/>
<path d="M86055 41780 c-1047 -50 -1875 -241 -2144 -494 -131 -125 -128 -248
10 -369 254 -223 931 -393 1854 -467 214 -18 1025 -24 1265 -11 837 47 1481
172 1869 363 105 52 136 73 196 132 92 92 115 159 81 241 -121 288 -916 519
-2046 595 -214 14 -867 20 -1085 10z"/>
<path d="M61503 17408 c-130 -177 -443 -617 -443 -622 0 -3 60 -46 133 -95
736 -492 1565 -776 2457 -842 183 -13 650 -7 815 11 773 84 1438 306 2033 678
73 46 120 82 118 89 -3 7 -103 155 -222 330 -120 175 -222 325 -228 335 -10
14 -24 8 -121 -54 -116 -73 -330 -185 -468 -244 -545 -235 -1196 -350 -1796
-315 -592 33 -1088 160 -1600 407 -221 106 -307 157 -613 358 l-26 17 -39 -53z"/>
<path d="M102650 17224 c-19 -2 -91 -9 -160 -14 -684 -59 -1389 -281 -2020
-637 -168 -96 -451 -284 -443 -296 10 -17 465 -651 473 -660 4 -5 72 34 151
86 570 376 1201 603 1869 671 754 77 1499 -46 2155 -358 120 -57 297 -156 387
-217 l56 -39 236 345 235 345 -57 38 c-188 127 -532 306 -770 400 -414 164
-820 263 -1302 318 -127 15 -722 28 -810 18z"/>
<path d="M23105 16974 c-146 -10 -411 -37 -535 -55 -496 -72 -920 -190 -1463
-409 -491 -197 -776 -294 -1095 -374 -518 -130 -1007 -163 -1491 -100 -282 36
-650 128 -931 233 -74 28 -139 51 -145 51 -7 0 -248 -586 -313 -760 -8 -22
469 -180 748 -249 577 -142 1128 -176 1700 -105 542 67 1038 211 1840 532 507
202 827 291 1283 356 260 38 425 49 717 49 609 0 1126 -87 1708 -290 861 -298
1154 -390 1507 -473 489 -114 873 -157 1320 -147 609 14 1135 143 1670 409
122 61 371 204 380 218 3 5 -420 678 -441 699 -2 2 -45 -21 -96 -51 -630 -372
-1267 -504 -2028 -422 -522 56 -976 178 -1957 528 -522 186 -968 287 -1503
341 -148 15 -736 28 -875 19z"/>
<path d="M4080 16571 c-129 -181 -235 -335 -235 -342 0 -15 189 -144 361 -246
620 -370 1293 -593 2049 -680 190 -22 775 -25 965 -5 575 61 1062 188 1539
404 220 99 531 272 616 343 l24 20 -229 335 c-126 184 -233 336 -238 338 -5 1
-53 -25 -106 -58 -788 -496 -1850 -681 -2836 -494 -560 106 -1109 334 -1581
655 -47 33 -88 59 -90 59 -2 0 -110 -149 -239 -329z"/>
<path d="M49610 16544 c-319 -23 -625 -70 -925 -143 -390 -96 -716 -207 -1305
-444 -273 -110 -426 -161 -664 -222 -446 -114 -798 -158 -1276 -158 -423 -1
-738 33 -1123 119 -247 55 -406 104 -862 264 -908 320 -1420 449 -2025 512
-166 17 -679 17 -835 0 -508 -56 -983 -198 -1410 -421 -121 -64 -335 -188
-335 -196 0 -8 442 -690 449 -693 4 -1 45 21 92 49 704 426 1508 544 2440 359
413 -82 696 -168 1619 -490 715 -249 1348 -351 2105 -337 766 14 1410 148
2145 444 751 303 1190 433 1690 500 170 23 739 26 890 5 384 -54 743 -144
1052 -266 49 -19 90 -31 92 -28 2 4 70 174 151 377 81 204 149 375 152 381 6
15 -279 120 -512 189 -458 135 -838 194 -1290 199 -143 2 -285 2 -315 0z"/>
<path d="M76200 10533 c-927 -40 -1804 -324 -2577 -836 -84 -55 -153 -104
-153 -109 0 -7 376 -538 457 -644 l23 -31 138 91 c561 372 1150 587 1842 673
206 25 724 25 930 0 262 -33 519 -87 755 -159 260 -79 612 -239 838 -382 60
-37 110 -66 111 -64 2 1 108 156 235 343 l232 339 -23 18 c-61 46 -340 206
-483 277 -690 342 -1535 518 -2325 484z"/>
<path d="M30890 10379 c-873 -55 -1746 -353 -2479 -847 -63 -42 -119 -80 -124
-83 -9 -6 452 -661 474 -675 5 -3 49 21 97 54 456 311 980 532 1522 642 305
62 441 74 820 75 222 0 382 -5 450 -13 668 -82 1143 -249 1716 -605 7 -4 97
118 243 332 127 186 231 342 231 345 0 4 -44 35 -97 69 -795 512 -1835 769
-2853 706z"/>
<path d="M94025 9974 c-695 -45 -1287 -180 -1935 -441 -554 -223 -870 -331
-1213 -413 -798 -190 -1534 -146 -2335 140 -93 33 -171 60 -174 60 -12 0 -310
-762 -302 -770 15 -14 330 -125 495 -174 292 -87 578 -145 894 -183 211 -24
737 -25 950 0 615 72 1153 223 1959 552 243 99 376 146 561 200 924 267 1923
267 2852 -1 83 -24 290 -93 460 -153 982 -348 1466 -473 2103 -543 183 -20
742 -17 915 5 579 75 1089 251 1577 544 l107 64 -43 67 c-23 37 -120 189 -215
337 -95 149 -179 276 -185 283 -10 10 -32 2 -114 -47 -650 -386 -1349 -513
-2171 -395 -403 58 -822 167 -1392 365 -819 284 -957 325 -1304 394 -392 78
-669 105 -1100 109 -181 2 -357 2 -390 0z"/>
<path d="M59155 9409 c-576 -44 -1080 -156 -1690 -374 -898 -322 -1407 -457
-1935 -510 -225 -23 -655 -16 -845 13 -421 66 -770 191 -1126 402 -56 33 -104
60 -109 60 -13 0 -452 -692 -443 -701 21 -21 283 -168 408 -229 902 -440 1890
-514 3045 -226 329 81 509 139 1445 460 257 88 425 135 646 180 861 177 1779
127 2602 -141 95 -30 288 -102 429 -159 579 -234 965 -361 1356 -448 965 -215
1848 -149 2817 211 66 24 121 46 122 47 2 1 -67 175 -152 387 -103 258 -158
383 -167 381 -7 -2 -71 -25 -143 -52 -304 -113 -634 -194 -955 -236 -170 -22
-583 -30 -763 -14 -524 44 -1008 177 -1777 487 -157 63 -364 141 -460 173
-473 158 -947 252 -1465 290 -162 12 -679 11 -840 -1z"/>
<path d="M14770 8853 c-582 -30 -1091 -122 -1595 -288 -104 -34 -344 -124
-533 -199 -698 -279 -1166 -409 -1677 -468 -167 -19 -608 -16 -785 6 -354 43
-752 142 -1069 268 -41 16 -77 25 -82 21 -8 -8 -296 -727 -301 -752 -6 -27
420 -173 732 -251 393 -99 726 -140 1135 -140 739 0 1351 141 2365 545 448
178 627 237 930 304 382 85 716 121 1125 121 455 0 828 -46 1265 -155 187 -47
321 -91 859 -279 626 -220 1048 -335 1498 -410 1061 -178 1991 -17 2850 492
62 37 111 72 109 78 -3 8 -431 679 -441 692 -1 1 -48 -25 -103 -58 -724 -429
-1502 -540 -2457 -349 -382 76 -751 186 -1420 424 -438 156 -665 221 -980 284
-469 94 -1001 137 -1425 114z"/>
<path d="M45881 8782 c-379 -262 -842 -472 -1306 -592 -323 -84 -586 -119
-946 -127 -550 -12 -1029 66 -1516 247 -173 65 -483 216 -632 309 -63 39 -115
70 -117 68 -2 -1 -107 -155 -234 -342 l-232 -339 23 -17 c104 -78 398 -243
596 -333 1417 -649 3130 -562 4503 228 205 118 441 278 435 294 -6 16 -452
641 -469 658 -8 8 -37 -7 -105 -54z"/>
<path d="M86055 2623 c-653 -34 -1337 -213 -1930 -503 -257 -126 -434 -231
-728 -431 -7 -5 426 -624 468 -668 12 -12 27 -5 102 46 599 409 1297 655 2019
714 191 15 676 6 834 -15 636 -88 1188 -286 1641 -589 l26 -18 228 333 c125
183 230 340 232 348 8 29 -382 254 -639 369 -694 309 -1486 455 -2253 414z"/>
<path d="M71785 2400 c-632 -29 -1190 -143 -1845 -377 -827 -296 -1281 -424
-1750 -492 -437 -64 -902 -53 -1275 30 -304 68 -625 197 -910 367 -55 33 -101
59 -102 58 -9 -9 -443 -692 -443 -697 0 -21 349 -213 540 -297 901 -398 1840
-444 2995 -147 239 61 450 127 825 255 179 62 429 147 555 191 955 327 1976
368 2944 118 235 -60 406 -119 771 -264 382 -152 575 -222 828 -300 966 -297
1808 -329 2707 -100 271 68 705 216 705 239 0 6 -68 181 -151 389 -126 315
-154 377 -168 371 -9 -3 -82 -30 -162 -60 -652 -238 -1295 -308 -1944 -213
-449 65 -888 197 -1540 462 -278 113 -431 167 -649 231 -615 182 -1291 264
-1931 236z"/>
<path d="M19928 1976 c-131 -183 -238 -335 -238 -338 0 -9 204 -145 357 -236
623 -375 1323 -607 2073 -689 204 -22 748 -25 940 -5 687 71 1259 240 1823
540 120 63 297 170 343 207 l25 20 -222 325 c-122 179 -227 333 -233 342 -11
16 -19 13 -87 -30 -890 -569 -2068 -736 -3166 -447 -430 113 -851 303 -1238
559 -71 47 -132 86 -135 86 -3 -1 -112 -151 -242 -334z"/>
<path d="M6355 2253 c-139 -5 -443 -33 -589 -54 -469 -68 -776 -147 -1345
-349 -1040 -368 -1564 -491 -2151 -507 -664 -18 -1213 128 -1776 472 l-41 25
-219 -342 c-120 -188 -220 -346 -222 -353 -4 -15 215 -144 393 -233 775 -385
1624 -496 2570 -337 469 79 917 205 1629 457 187 66 397 139 466 160 291 92
667 168 1000 205 206 22 805 25 1000 5 431 -45 852 -137 1210 -265 69 -25 221
-84 339 -132 756 -307 1285 -457 1871 -531 198 -25 714 -30 928 -10 417 40
836 135 1244 280 208 75 218 79 218 90 0 12 -291 749 -300 759 -4 4 -47 -8
-96 -26 -341 -130 -688 -217 -1049 -263 -197 -25 -642 -26 -845 -1 -508 63
-953 190 -1655 474 -292 118 -507 193 -735 258 -586 166 -1217 241 -1845 218z"/>
<path d="M34120 1863 c-538 -29 -1036 -139 -1602 -353 -32 -12 -58 -27 -58
-33 0 -7 68 -182 151 -389 l151 -377 51 20 c317 126 715 229 1067 276 193 26
707 26 900 0 517 -70 922 -188 1650 -480 533 -214 932 -328 1410 -401 296 -46
449 -57 815 -63 499 -7 833 23 1294 117 341 69 419 93 1251 380 650 224 1081
333 1550 392 68 8 218 13 430 13 287 -1 342 -4 470 -23 415 -65 755 -187 1128
-405 88 -50 106 -58 117 -46 24 26 428 663 429 677 2 30 -364 232 -609 335
-660 277 -1362 364 -2140 266 -485 -61 -1019 -200 -1705 -441 -157 -55 -375
-131 -486 -169 -977 -331 -2061 -356 -3052 -70 -190 55 -312 99 -557 198 -497
201 -831 317 -1180 408 -507 132 -1033 192 -1475 168z"/>
<path d="M100345 1844 c-266 -15 -628 -61 -888 -114 -321 -65 -559 -134 -978
-284 -788 -281 -1254 -410 -1719 -475 -613 -85 -1184 -29 -1677 165 -137 53
-370 169 -493 243 -66 40 -87 48 -96 38 -6 -6 -101 -151 -209 -322 -109 -171
-206 -322 -217 -337 l-18 -27 92 -57 c460 -284 1017 -478 1583 -551 201 -26
775 -26 990 0 594 72 1071 196 1945 504 478 169 599 206 852 263 365 81 616
110 1027 117 342 6 516 -3 786 -38 448 -59 804 -157 1315 -361 842 -337 1312
-470 1930 -545 208 -25 774 -25 980 0 425 53 833 152 1228 298 76 28 141 55
146 59 10 10 -291 770 -305 770 -5 0 -41 -13 -81 -29 -111 -43 -372 -127 -499
-160 -664 -170 -1280 -171 -1964 -2 -335 83 -607 175 -1120 381 -647 259
-1143 384 -1775 445 -158 16 -680 27 -835 19z"/>
<path d="M53340 1293 c-129 -180 -236 -333 -238 -339 -2 -6 50 -47 115 -91
1009 -682 2230 -975 3428 -823 704 90 1378 329 1932 686 59 38 81 58 76 68
-19 31 -438 643 -450 657 -13 15 -22 12 -107 -41 -472 -297 -997 -475 -1626
-552 -170 -21 -771 -17 -940 5 -690 93 -1246 298 -1811 668 -74 49 -138 89
-140 89 -3 0 -110 -147 -239 -327z"/>
</g>
</svg>
