<?xml version="1.0" standalone="no"?>
<!DOCTYPE svg PUBLIC "-//W3C//DTD SVG 20010904//EN"
 "http://www.w3.org/TR/2001/REC-SVG-20010904/DTD/svg10.dtd">
<svg version="1.0" xmlns="http://www.w3.org/2000/svg"
 width="1920.000000pt" height="1280.000000pt" viewBox="0 0 1920.000000 1280.000000"
 preserveAspectRatio="xMidYMid meet">

<g transform="translate(0.000000,1280.000000) scale(0.100000,-0.100000)"
fill="#000000" stroke="none">
<path d="M1927 10301 c-117 -39 -181 -118 -181 -226 0 -126 76 -199 276 -264
124 -41 178 -103 165 -188 -8 -50 -31 -79 -80 -105 -58 -30 -177 -29 -262 1
-33 12 -67 24 -75 27 -16 5 -40 -43 -40 -79 0 -22 56 -45 159 -64 183 -35 345
27 402 152 24 53 24 147 0 200 -33 74 -91 113 -261 176 -111 42 -160 87 -160
149 0 23 8 55 17 71 45 77 197 92 335 34 13 -5 20 0 28 19 26 69 25 72 -27 91
-75 26 -225 30 -296 6z"/>
<path d="M2563 10303 l-43 -4 0 -282 c0 -753 -37 -4032 -49 -4368 -7 -188 -9
-209 -29 -236 -33 -47 -41 -105 -42 -294 l0 -177 -23 -6 c-37 -9 -76 -44 -99
-89 -11 -23 -22 -44 -24 -46 -1 -2 -17 13 -34 33 -18 20 -36 36 -40 36 -22 0
-16 -37 13 -88 l32 -57 3 -296 3 -296 -45 -17 c-54 -21 -101 -71 -115 -123 -6
-21 -11 -133 -11 -250 l0 -213 -585 0 -585 0 0 -100 0 -100 50 0 50 0 0 -120
0 -120 -355 0 -355 0 0 -30 0 -30 2595 0 2595 0 0 30 0 30 -200 0 -200 0 0
120 0 120 50 0 50 0 0 100 0 100 -605 0 -605 0 0 203 c0 287 -18 359 -101 415
-32 22 -34 27 -40 99 -5 53 -3 82 6 100 17 33 3 76 -34 102 -25 18 -29 31 -45
138 -10 65 -22 124 -26 131 -3 8 -16 -46 -28 -118 -21 -126 -24 -132 -57 -161
-37 -33 -46 -71 -22 -103 10 -13 10 -34 2 -92 -9 -68 -13 -76 -41 -93 -71 -43
-93 -104 -101 -283 l-6 -128 -182 0 -182 0 -7 77 c-3 42 -6 96 -6 121 0 87
-61 168 -143 188 l-28 7 3 286 c3 273 4 288 26 336 12 27 29 57 38 66 15 17
10 49 -8 49 -6 0 -25 -17 -44 -37 l-34 -36 -14 34 c-19 46 -59 88 -96 101
l-30 10 0 151 c0 182 -13 270 -45 317 -24 35 -24 38 -35 435 -12 475 -27 1669
-36 2971 l-7 942 104 0 c138 1 218 25 287 87 61 55 84 108 84 195 1 125 -64
211 -187 249 -55 17 -91 21 -194 19 -69 -1 -145 -3 -168 -5z m335 -115 c63
-31 92 -76 92 -144 0 -29 -4 -63 -9 -76 -12 -32 -60 -78 -99 -95 -43 -18 -139
-27 -196 -19 l-46 7 0 174 0 174 33 4 c71 11 178 -1 225 -25z m-298 -3268 c6
-520 15 -1075 21 -1235 9 -267 11 -291 29 -305 32 -25 37 -57 45 -282 l7 -218
30 0 c38 0 91 -51 108 -105 9 -27 14 -145 17 -372 l5 -333 26 0 c15 0 45 -9
68 -19 61 -28 74 -64 74 -204 0 -63 3 -129 6 -146 l7 -31 242 0 243 0 6 31 c3
17 6 86 6 153 0 66 5 138 11 158 14 52 48 88 89 97 l35 7 5 88 c4 70 9 91 22
100 33 20 51 -14 56 -108 l4 -84 34 -6 c38 -8 69 -42 85 -95 6 -20 13 -136 16
-258 l6 -223 -893 0 -893 0 6 220 c7 236 12 263 62 296 14 9 45 19 70 21 l44
5 4 337 c2 230 7 348 16 373 19 58 50 88 97 95 l42 5 4 217 c5 216 15 281 43
281 8 0 16 16 19 38 13 83 26 741 38 2020 15 1504 14 1511 38 -518z m1159
-2529 c20 -13 -3 -41 -34 -41 -56 0 -72 27 -33 54 21 15 28 13 67 -13z m-1921
-993 l3 -68 50 0 50 0 -3 -117 -3 -118 -440 0 -440 0 -3 147 -3 147 -47 3
c-41 3 -47 6 -50 26 -8 55 -28 52 445 50 l438 -3 3 -67z m1160 -120 l2 -188
-500 0 -500 0 0 155 0 155 -50 0 c-48 0 -50 1 -50 28 0 16 3 32 7 35 3 4 250
6 547 5 l541 -3 3 -187z m1160 155 l3 -33 -50 0 -51 0 0 -155 0 -155 -500 0
-500 0 0 183 c0 101 3 187 7 190 3 4 250 6 547 5 l541 -3 3 -32z m947 -3 c0
-35 0 -35 -47 -38 l-47 -3 -3 -147 -3 -147 -440 0 -440 0 -3 118 -3 117 51 0
50 0 0 63 c0 35 3 67 7 70 3 4 203 6 442 5 l436 -3 0 -35z"/>
<path d="M2510 4575 l0 -155 75 0 75 0 0 155 0 155 -75 0 -75 0 0 -155z m80 0
c0 -57 -4 -95 -10 -95 -6 0 -10 38 -10 95 0 57 4 95 10 95 6 0 10 -38 10 -95z"/>
<path d="M2510 3965 l0 -155 75 0 75 0 0 155 0 155 -75 0 -75 0 0 -155z m80
-5 c0 -53 -4 -90 -10 -90 -6 0 -10 37 -10 90 0 53 4 90 10 90 6 0 10 -37 10
-90z"/>
<path d="M3680 3840 l0 -140 35 0 35 0 0 140 0 140 -35 0 -35 0 0 -140z"/>
<path d="M3310 9943 c0 -203 -3 -405 -7 -450 l-6 -83 52 0 c49 0 51 1 51 28 0
15 3 37 6 49 5 20 8 19 41 -17 44 -50 108 -74 193 -74 56 0 79 6 134 33 119
58 172 161 164 315 -5 90 -28 147 -82 204 -56 60 -100 77 -201 77 -101 0 -134
-12 -197 -73 l-38 -36 0 197 0 197 -55 0 -55 0 0 -367z m387 -14 c124 -46 169
-237 87 -362 -61 -93 -240 -105 -316 -20 -66 73 -63 257 5 332 48 52 155 77
224 50z"/>
<path d="M7897 10303 c-4 -3 -7 -86 -7 -184 l0 -177 -30 28 c-96 90 -280 77
-383 -27 -62 -62 -90 -134 -91 -233 -1 -137 53 -233 161 -286 106 -52 252 -28
323 52 16 19 32 34 35 34 3 0 5 -22 5 -50 l0 -50 50 0 50 0 0 450 0 450 -53 0
c-30 0 -57 -3 -60 -7z m-80 -395 c58 -38 73 -78 73 -190 0 -108 -14 -145 -73
-192 -29 -23 -50 -31 -96 -34 -77 -6 -122 10 -165 58 -95 105 -66 304 54 368
61 32 150 28 207 -10z"/>
<path d="M4130 10014 c0 -317 8 -380 60 -471 68 -120 222 -174 390 -139 127
27 202 90 251 213 23 56 24 71 27 371 l3 312 -60 0 -61 0 0 -268 c0 -277 -8
-359 -41 -423 -63 -123 -250 -159 -355 -67 -81 71 -94 139 -94 490 l0 268 -60
0 -60 0 0 -286z"/>
<path d="M5902 10244 c-47 -32 -16 -124 42 -124 37 0 76 37 76 71 0 58 -67 89
-118 53z"/>
<path d="M6298 10178 l-38 -10 0 -74 0 -74 -50 0 -50 0 0 -45 0 -45 49 0 50 0
3 -207 c3 -187 5 -212 24 -247 35 -67 130 -98 227 -73 26 7 28 11 25 49 l-3
42 -52 -3 c-100 -5 -117 38 -111 294 l3 140 88 3 88 3 -3 42 -3 42 -87 3 -88
3 0 84 c0 94 2 93 -72 73z"/>
<path d="M5348 10020 c-43 -13 -95 -48 -123 -83 l-25 -32 0 58 0 57 -50 0 -50
0 0 -305 0 -305 60 0 60 0 0 200 c0 214 3 232 52 277 93 87 235 54 267 -62 6
-23 11 -122 11 -227 l0 -188 55 0 55 0 0 211 c0 139 -4 226 -12 253 -17 55
-91 131 -143 145 -46 13 -118 13 -157 1z"/>
<path d="M6890 10021 c-84 -26 -149 -81 -192 -164 -17 -32 -23 -64 -26 -138
-4 -82 -1 -102 18 -147 25 -58 92 -126 147 -149 87 -36 235 -37 341 -2 32 11
33 13 27 48 -4 20 -8 38 -10 40 -2 2 -28 -3 -57 -10 -88 -21 -196 -17 -252 11
-57 27 -106 95 -106 147 l0 33 235 0 235 0 0 53 c0 90 -25 153 -83 211 -33 33
-67 56 -93 64 -45 13 -145 15 -184 3z m178 -97 c31 -23 72 -97 72 -131 l0 -23
-180 0 c-206 0 -201 -3 -150 86 39 69 92 97 173 91 37 -2 67 -10 85 -23z"/>
<path d="M5890 9715 l0 -306 58 3 57 3 0 300 0 300 -57 3 -58 3 0 -306z"/>
<path d="M17967 6338 c-78 -443 -104 -624 -136 -943 -40 -388 -71 -939 -71
-1247 0 -109 -3 -148 -12 -148 -7 0 -77 21 -155 47 l-143 48 -255 -85 -255
-85 0 -52 0 -52 -72 -3 -73 -3 -3 -257 -2 -258 -60 0 c-58 0 -60 -1 -60 -25 0
-26 -1 -26 -67 -23 l-68 3 -3 83 -3 82 -53 0 c-52 0 -54 1 -60 31 -3 17 -6 98
-6 179 l0 148 30 12 c66 27 130 136 130 221 l0 28 -62 -29 c-35 -17 -70 -30
-79 -30 -21 0 -29 80 -29 291 l0 156 50 21 c32 13 50 27 50 38 0 14 -8 15 -62
10 l-63 -7 -1 43 c0 29 -14 71 -44 132 l-44 89 -44 -94 c-33 -72 -43 -103 -40
-133 l4 -38 -69 7 c-63 6 -68 5 -65 -12 2 -10 21 -24 48 -34 43 -16 45 -19 48
-60 2 -24 1 -126 -3 -226 -8 -210 -2 -201 -104 -153 l-64 30 7 -51 c4 -29 13
-67 20 -84 19 -44 70 -100 106 -115 l30 -12 0 -103 c0 -56 -3 -136 -6 -178
l-7 -77 -58 0 -59 0 0 -85 0 -85 -78 0 -78 0 -39 68 c-151 259 -485 711 -772
1043 -46 53 -83 98 -83 101 0 2 47 42 105 88 98 78 104 85 92 104 -8 11 -18
21 -23 23 -5 2 -60 -37 -121 -87 -68 -54 -134 -98 -165 -110 l-53 -20 38 32
c42 37 45 48 20 71 -17 14 -26 9 -123 -70 -58 -47 -119 -94 -137 -105 l-32
-19 98 -132 c281 -378 489 -734 632 -1082 l58 -140 145 0 c80 0 884 1 1786 3
l1640 2 0 30 c0 28 -3 30 -35 30 l-35 0 0 175 0 175 -59 0 -59 0 -4 168 c-4
155 -3 168 14 182 99 77 121 112 134 208 l7 54 -61 -31 c-104 -53 -102 -56
-102 117 0 82 -3 183 -6 225 l-7 75 52 22 c29 13 51 29 51 37 0 13 -11 14 -64
8 l-65 -6 6 33 c4 27 -5 55 -42 132 l-48 98 -40 -84 c-29 -60 -41 -96 -41
-131 l-1 -48 -64 3 c-82 4 -91 -14 -22 -39 l51 -18 0 -227 0 -228 -22 0 c-13
0 -51 13 -85 30 -35 16 -63 28 -63 26 0 -27 26 -129 40 -157 21 -39 68 -84
100 -94 19 -6 20 -15 20 -181 l0 -174 -60 0 -59 0 -3 -87 -3 -88 -53 0 -53 0
1 340 c1 917 -72 1724 -232 2558 -23 119 -45 217 -49 217 -3 0 -9 -15 -12 -32z
m13 -830 c20 -479 0 -1538 -29 -1571 -4 -4 -36 3 -71 14 l-63 22 7 241 c17
599 57 1147 118 1586 17 123 23 78 38 -292z m104 -103 c79 -593 128 -1466 111
-1927 l-7 -178 -34 0 -34 0 0 260 0 260 -56 0 -56 0 6 63 c13 135 26 367 37
672 10 288 9 455 -6 980 -5 184 1 166 39 -130z m-1774 -869 c0 -28 -15 -50
-29 -42 -12 8 -15 55 -4 82 6 16 7 16 20 -2 7 -10 13 -27 13 -38z m2326 30 c8
-33 2 -69 -13 -73 -16 -5 -27 39 -19 72 8 32 24 32 32 1z m-3524 -362 c236
-283 491 -632 643 -882 l80 -131 133 -1 132 0 0 85 0 85 58 0 59 0 6 263 c4
144 7 345 7 447 0 102 3 222 7 268 l6 82 48 0 49 0 0 -153 c0 -85 3 -323 7
-530 l6 -377 59 0 58 0 0 -85 0 -85 100 0 100 0 0 -55 0 -55 -630 2 -631 3
-39 98 c-125 309 -362 721 -604 1045 -42 56 -76 105 -76 110 0 4 51 26 113 49
l112 42 43 -47 c24 -26 93 -106 154 -178z m3561 -46 c4 -145 7 -362 7 -484 0
-122 3 -242 6 -268 l7 -46 53 0 54 0 0 -140 0 -140 -280 0 -280 0 0 55 0 55
95 0 95 0 0 85 0 85 58 0 59 0 6 227 c4 124 7 322 7 438 0 117 3 253 6 303 l7
92 47 0 47 0 6 -262z m-773 -310 l0 -28 -149 0 -149 0 -19 37 c-28 58 -76 86
-141 81 -59 -5 -95 -31 -118 -85 l-14 -33 -155 0 -155 0 0 28 c0 27 4 29 226
102 l225 75 225 -75 c219 -73 224 -76 224 -102z m-1762 66 c16 -5 22 -14 22
-35 0 -35 -10 -37 -37 -6 -41 46 -38 55 15 41z m330 -16 c-8 -12 -24 -28 -36
-36 -21 -14 -22 -13 -22 16 0 31 10 38 54 41 17 1 17 -1 4 -21z m2000 16 c17
-5 22 -14 22 -36 0 -29 -1 -30 -22 -16 -12 8 -28 24 -36 36 -16 24 -9 27 36
16z m336 -6 c-12 -22 -47 -58 -56 -58 -4 0 -8 13 -8 29 0 29 10 37 53 40 12 1
16 -3 11 -11z m-1296 -55 l27 -28 -74 -3 c-40 -2 -76 0 -80 3 -11 11 49 55 75
55 14 0 37 -12 52 -27z m542 -123 c0 -20 -7 -20 -595 -20 -588 0 -595 0 -595
20 0 20 7 20 595 20 588 0 595 0 595 -20z m-1120 -255 l0 -175 -35 0 -35 0 0
175 0 175 35 0 35 0 0 -175z m138 3 l-3 -173 -32 -3 -33 -3 0 175 0 176 35 0
35 0 -2 -172z m137 -3 l0 -170 -35 0 -35 0 -3 160 c-1 87 0 165 3 173 3 8 17
12 37 10 l33 -3 0 -170z m135 -1 l0 -175 -32 3 -33 3 -3 173 -2 172 35 0 35 0
0 -176z m160 0 l0 -175 -47 3 -48 3 -3 160 c-1 87 0 165 2 172 3 8 23 13 51
13 l45 0 0 -176z m140 1 l0 -175 -35 0 -35 0 0 175 0 175 35 0 35 0 0 -175z
m135 0 l0 -170 -35 0 -35 0 -3 160 c-1 87 0 165 3 173 3 8 17 12 37 10 l33 -3
0 -170z m135 -1 l0 -175 -32 3 -33 3 -3 160 c-1 87 0 165 2 172 3 7 19 13 36
13 l30 0 0 -176z m140 0 l0 -175 -37 3 -38 3 -3 160 c-1 87 0 165 2 172 3 7
21 13 41 13 l35 0 0 -176z m-1050 -314 l0 -80 -130 0 -130 0 0 80 0 80 130 0
130 0 0 -80z m848 58 l-3 -23 -392 -3 -393 -2 0 25 0 25 396 0 395 0 -3 -22z
m322 -58 l0 -80 -130 0 -130 0 0 80 0 80 130 0 130 0 0 -80z m-322 -52 l-3
-23 -392 -3 -393 -2 0 25 0 25 396 0 395 0 -3 -22z"/>
<path d="M14862 4312 l-23 -18 66 -87 c36 -48 69 -87 73 -87 14 1 44 29 41 38
-6 15 -124 171 -129 171 -3 1 -15 -7 -28 -17z"/>
<path d="M16250 4190 l0 -70 35 0 35 0 0 70 0 70 -35 0 -35 0 0 -70z"/>
<path d="M15101 4000 l-25 -18 54 -81 c29 -45 57 -84 61 -87 11 -7 49 14 49
27 0 8 -90 149 -109 171 -3 4 -17 -1 -30 -12z"/>
<path d="M15323 3677 c-13 -5 -23 -14 -23 -20 0 -11 99 -177 106 -177 14 0 44
22 44 32 0 12 -88 166 -98 172 -4 2 -17 -1 -29 -7z"/>
<path d="M16250 3600 l0 -90 35 0 35 0 0 90 0 90 -35 0 -35 0 0 -90z"/>
<path d="M15507 3343 l-28 -14 24 -42 c13 -23 32 -57 41 -75 16 -32 17 -32 46
-17 l30 15 -32 58 c-53 95 -49 92 -81 75z"/>
<path d="M18590 4190 l0 -70 30 0 30 0 0 70 0 70 -30 0 -30 0 0 -70z"/>
<path d="M18582 3603 l3 -88 33 -3 32 -3 0 90 0 91 -35 0 -36 0 3 -87z"/>
<path d="M12264 5905 c-5 -35 -12 -49 -30 -57 -35 -16 -54 -67 -54 -145 l0
-68 -48 -17 c-168 -60 -274 -226 -289 -453 l-6 -94 -76 -3 -76 -3 -3 -117 -3
-118 46 0 45 0 0 -295 0 -295 -40 0 -39 0 -3 -72 -3 -73 -57 -3 -58 -3 0 133
c0 73 -4 149 -10 167 -12 43 -50 84 -100 106 -28 13 -41 25 -45 46 -8 37 -32
37 -40 0 -4 -20 -16 -33 -37 -42 -37 -15 -84 -54 -101 -83 -7 -13 -14 -80 -17
-171 l-5 -150 -57 -3 -58 -3 0 -209 c0 -133 -4 -210 -10 -210 -6 0 -10 38 -10
95 l0 95 -140 0 -140 0 0 260 0 260 -35 0 c-32 0 -35 3 -41 38 -12 69 -51 120
-106 141 -25 9 -28 15 -28 58 0 27 -9 275 -20 553 -11 278 -20 531 -20 563 l0
57 -35 0 -35 0 0 -52 c0 -29 -9 -294 -20 -588 -11 -294 -20 -546 -20 -560 -1
-19 -10 -30 -43 -45 -46 -22 -87 -86 -87 -137 0 -26 -3 -28 -40 -28 l-40 0 0
-260 0 -260 -140 0 -140 0 0 -95 0 -95 -212 0 -211 0 -222 86 -223 87 -6 45
c-3 25 -6 65 -6 89 0 37 -3 44 -17 41 -15 -3 -19 -19 -26 -88 -4 -46 -12 -87
-17 -90 -5 -3 -113 -46 -240 -95 l-230 -89 0 -288 0 -288 -80 0 -80 0 0 -30 0
-30 2621 2 2621 3 52 155 c116 340 292 727 537 1181 43 81 79 149 79 153 0 4
-13 5 -29 1 -26 -5 -44 4 -144 79 -108 80 -116 84 -131 67 -9 -10 -16 -22 -16
-28 0 -6 41 -41 91 -78 49 -38 87 -71 82 -76 -15 -14 -206 -69 -217 -62 -6 4
-60 42 -120 85 -60 43 -114 77 -119 75 -6 -2 -16 -12 -24 -23 -12 -19 -5 -25
97 -98 60 -42 112 -81 115 -86 3 -5 -42 -73 -101 -152 -58 -79 -145 -201 -192
-272 l-87 -128 -3 141 -3 141 -69 0 -70 0 0 129 c0 70 -5 143 -11 162 -15 45
-64 96 -105 109 -27 9 -35 18 -40 46 -8 43 -31 44 -39 1 -5 -27 -14 -35 -51
-51 -88 -36 -113 -100 -114 -283 l0 -113 -55 0 -55 0 0 70 0 70 -40 0 -40 0 0
295 0 295 40 0 40 0 0 120 0 120 -73 0 -74 0 -11 105 c-19 176 -66 282 -164
370 -29 26 -74 53 -108 66 l-58 21 -4 85 c-3 85 -3 85 -42 119 -28 24 -41 45
-45 71 -9 54 -28 53 -37 -2z m44 -118 c6 -7 13 -55 14 -107 l3 -93 50 -17 c81
-28 129 -56 168 -99 73 -81 116 -207 117 -338 l0 -63 -381 0 -381 0 7 83 c21
232 101 354 273 412 l67 22 3 94 c3 91 12 119 37 119 7 0 17 -6 23 -13z m512
-842 l0 -55 -535 0 -535 0 0 55 0 55 535 0 535 0 0 -55z m-2285 -432 c2 -7 18
-13 34 -13 41 0 80 -37 88 -82 l6 -38 -147 0 c-80 0 -146 3 -146 8 0 4 5 24
10 44 13 44 43 68 86 68 l31 0 6 83 c4 45 8 127 8 182 2 87 3 78 11 -70 5 -93
11 -176 13 -182z m1365 21 l0 -295 -32 3 -33 3 -3 280 c-1 154 0 285 3 292 2
7 18 13 35 13 l30 0 0 -296z m138 4 l-3 -293 -32 -3 -33 -3 0 295 0 296 35 0
35 0 -2 -292z m140 0 l-3 -293 -35 0 -35 0 -3 280 c-1 154 0 285 3 292 2 7 20
13 40 13 l35 0 -2 -292z m150 0 l-3 -293 -40 0 -40 0 -3 280 c-1 154 0 285 3
292 2 8 21 13 45 13 l40 0 -2 -292z m140 0 l-3 -293 -35 0 -35 0 -3 293 -2
292 40 0 40 0 -2 -292z m132 -4 l0 -295 -32 3 -33 3 -3 293 -2 292 35 0 35 0
0 -296z m130 1 l0 -295 -30 0 -30 0 0 295 0 295 30 0 30 0 0 -295z m-1279
-108 c19 -13 39 -38 46 -57 12 -36 18 -236 7 -264 -5 -13 -25 -16 -116 -16
l-109 0 3 144 c3 158 9 174 73 202 42 19 57 17 96 -9z m1769 8 c54 -28 60 -46
60 -197 l0 -138 -110 0 -110 0 0 130 c0 148 9 177 62 203 41 21 61 21 98 2z
m938 -32 c-1 -5 -51 -100 -110 -213 -182 -350 -323 -666 -423 -955 l-53 -150
-211 -3 c-116 -1 -211 0 -211 3 0 10 72 149 148 285 142 254 338 554 543 830
l107 145 94 32 c97 33 122 38 116 26z m-3808 -313 l0 -230 -25 0 -25 0 0 230
0 230 25 0 25 0 0 -230z m130 0 l0 -230 -30 0 -30 0 0 230 0 230 30 0 30 0 0
-230z m130 0 l0 -230 -30 0 -30 0 0 230 0 230 30 0 30 0 0 -230z m130 0 l0
-230 -30 0 -30 0 0 230 0 230 30 0 30 0 0 -230z m2080 15 l0 -75 305 0 305 0
0 -155 0 -154 -97 -163 c-54 -90 -123 -211 -153 -270 l-55 -106 -35 5 c-19 3
-41 6 -48 9 -10 3 -12 62 -10 271 l3 268 23 3 c20 3 22 9 22 55 l0 52 -394
118 -393 117 -161 -48 c-156 -48 -161 -48 -164 -28 -4 31 -32 26 -36 -6 -3
-22 -11 -29 -50 -41 -26 -8 -120 -35 -209 -62 l-161 -48 -4 -54 c-3 -52 -2
-53 25 -53 20 0 27 -5 27 -19 0 -36 -70 -51 -243 -51 l-157 0 0 180 0 180 295
0 295 0 0 75 0 75 535 0 535 0 0 -75z m-174 -197 l344 -103 -447 -3 c-437 -2
-449 -2 -505 19 -57 21 -58 22 -58 60 l0 38 88 26 c48 15 114 35 147 45 33 10
66 19 74 19 7 1 168 -45 357 -101z m-726 -37 c0 -26 -6 -31 -58 -50 -48 -18
-75 -21 -161 -19 l-103 3 154 47 c84 26 156 47 161 47 4 1 7 -12 7 -28z m-900
-431 l0 -360 -150 0 -150 0 0 165 c0 143 -3 171 -19 203 -38 73 -104 112 -191
112 -89 0 -157 -41 -191 -115 -16 -34 -19 -66 -19 -202 l0 -163 -140 0 -140 0
0 360 0 360 500 0 500 0 0 -360z m-1780 273 l175 -68 -182 -3 c-101 -1 -265
-1 -364 0 l-182 3 169 66 c93 37 178 67 189 68 11 0 99 -29 195 -66z m2905 -3
c98 -38 180 -72 183 -75 3 -3 -170 -5 -384 -5 l-389 1 140 55 c77 30 160 63
185 73 25 11 54 20 66 20 11 1 101 -30 199 -69z m295 -5 c0 -41 -8 -42 -67
-15 -65 29 -57 50 19 50 l48 0 0 -35z m175 -240 l0 -270 -55 0 -55 0 -3 260
c-1 143 0 266 3 273 3 9 21 12 57 10 l53 -3 0 -270z m175 0 l0 -275 -55 0 -55
0 0 275 0 275 55 0 55 0 0 -275z m180 0 l0 -276 -57 3 -58 3 -3 260 c-1 143 0
265 3 272 3 8 24 13 60 13 l55 0 0 -275z m-3020 -125 l0 -260 -190 0 -190 0 0
260 0 260 190 0 190 0 0 -260z m1490 0 l0 -260 -180 0 -180 0 0 260 0 260 180
0 180 0 0 -260z m-2660 -15 l0 -245 -90 0 -90 0 0 245 0 245 90 0 90 0 0 -245z
m470 0 l0 -245 -25 0 -25 0 0 163 c0 197 -12 235 -82 267 -53 24 -85 25 -138
4 -72 -29 -80 -54 -80 -258 l0 -176 -25 0 -25 0 0 245 0 245 200 0 200 0 0
-245z m250 0 l0 -245 -95 0 -95 0 0 245 0 245 95 0 95 0 0 -245z m2195 0 l0
-240 -97 -3 -98 -3 0 246 0 246 98 -3 97 -3 0 -240z m465 0 l0 -245 -25 0 -25
0 0 174 c0 163 -1 175 -23 207 -33 50 -81 71 -142 65 -58 -7 -93 -29 -117 -77
-15 -28 -18 -62 -18 -201 l0 -168 -25 0 -25 0 0 245 0 245 200 0 200 0 0 -245z
m240 0 l0 -245 -85 0 -85 0 0 245 0 245 85 0 85 0 0 -245z m-1802 148 c53 -39
62 -73 62 -240 l0 -153 -144 0 -143 0 -5 33 c-2 17 -4 92 -3 165 2 148 10 170
76 205 43 23 119 18 157 -10z m-1488 -33 c18 -18 20 -33 20 -190 l0 -170 -85
0 -85 0 0 164 c0 150 2 165 21 190 27 34 98 37 129 6z m2915 -5 c25 -24 25
-27 25 -190 l0 -166 -87 3 -88 3 0 168 c0 165 0 169 24 188 34 28 96 25 126
-6z m1059 -314 c4 -5 3 -16 0 -25 -5 -14 -42 -16 -315 -16 l-309 0 0 25 0 25
309 0 c175 0 312 -4 315 -9z"/>
<path d="M9660 3420 l0 -70 30 0 30 0 0 70 0 70 -30 0 -30 0 0 -70z"/>
<path d="M9810 3420 l0 -70 30 0 30 0 0 70 0 70 -30 0 -30 0 0 -70z"/>
<path d="M11160 3420 l0 -70 30 0 30 0 0 70 0 70 -30 0 -30 0 0 -70z"/>
<path d="M11300 3420 l0 -70 35 0 35 0 0 70 0 70 -35 0 -35 0 0 -70z"/>
<path d="M6685 4804 c-16 -2 -73 -9 -125 -15 -218 -25 -475 -112 -564 -190
-76 -66 -76 -64 -76 -511 l0 -397 28 -3 c27 -3 27 -3 30 -91 2 -60 -2 -102
-13 -134 -34 -101 -12 -455 31 -504 8 -9 38 -21 67 -27 28 -6 216 -48 415 -92
200 -44 377 -80 393 -80 20 0 35 9 51 30 27 37 58 39 102 5 105 -80 252 -69
360 27 l47 40 42 -16 c41 -15 47 -15 121 4 85 23 177 62 242 102 l40 26 12
323 c7 178 12 532 12 787 0 508 2 494 -61 546 -96 81 -307 141 -579 166 -105
9 -504 12 -575 4z m665 -79 c219 -28 412 -91 460 -152 39 -49 38 -73 -5 -110
-103 -89 -435 -166 -775 -179 l-155 -6 -435 97 c-239 53 -439 101 -444 105
-16 15 23 59 86 101 109 70 348 133 598 158 132 13 520 5 670 -14z m-927 -411
l397 -88 1 -296 c0 -162 3 -307 5 -323 3 -18 0 -29 -10 -33 -9 -3 -149 23
-313 59 -164 36 -346 76 -405 89 l-108 23 0 333 c0 313 1 333 18 328 9 -2 196
-44 415 -92z m1413 -401 c-3 -269 -9 -581 -12 -694 l-6 -206 -71 -36 c-76 -37
-157 -67 -183 -67 -13 0 -14 6 -7 33 4 17 8 77 8 132 -1 116 -21 172 -90 240
-87 88 -177 108 -392 89 -129 -12 -150 -12 -170 1 l-23 15 0 399 0 398 168 6
c299 11 589 71 724 150 24 14 47 25 51 26 5 1 6 -218 3 -486z m-1416 -328
c163 -36 299 -65 303 -65 9 0 9 -280 0 -280 -5 0 -158 32 -340 72 l-333 73 0
141 0 142 38 -9 c20 -5 170 -38 332 -74z m410 -144 c5 -44 11 -58 39 -83 l34
-31 116 9 c64 5 157 9 206 9 81 0 96 -3 143 -29 85 -48 131 -121 138 -224 5
-70 -14 -174 -31 -172 -11 1 -11 2 4 81 25 126 -43 257 -158 307 -53 23 -156
20 -212 -5 -113 -51 -184 -157 -184 -278 0 -38 4 -84 8 -102 7 -27 5 -32 -13
-38 -11 -3 -27 -20 -36 -37 -21 -41 -25 -33 -58 116 -23 108 -26 140 -26 329
0 162 3 208 13 205 6 -3 14 -28 17 -57z m-421 -201 c173 -39 316 -70 318 -70
2 0 3 -11 3 -25 0 -14 -2 -25 -4 -25 -4 0 -155 34 -490 109 -99 23 -181 41
-183 41 -2 0 -3 11 -3 25 0 21 4 25 23 20 12 -3 163 -37 336 -75z m899 1 c73
-37 112 -104 112 -188 -2 -195 -212 -316 -358 -206 -125 94 -90 318 62 389 63
29 133 31 184 5z m-1012 -91 c120 -27 268 -60 327 -74 60 -13 112 -27 115 -31
4 -4 17 -52 28 -107 l22 -100 -22 5 c-11 3 -160 35 -331 73 -170 37 -315 72
-321 78 -7 6 -19 47 -29 91 -9 44 -19 88 -21 98 -3 9 -1 17 4 17 4 0 107 -22
228 -50z"/>
<path d="M6921 4729 c-76 -9 -125 -31 -118 -52 2 -7 17 -19 33 -27 42 -21 306
-21 349 0 61 31 35 62 -61 75 -96 12 -130 12 -203 4z"/>
<path d="M7423 4609 c-82 -19 -80 -57 5 -79 50 -12 235 -16 274 -5 96 27 106
56 26 80 -58 17 -235 19 -305 4z"/>
<path d="M6143 4570 c-124 -26 -103 -71 43 -90 106 -14 255 2 291 32 18 14 5
35 -30 48 -41 15 -249 22 -304 10z"/>
<path d="M6820 4574 c-84 -11 -139 -26 -155 -44 -16 -17 -15 -19 7 -34 39 -25
117 -38 243 -38 132 -1 223 14 256 41 20 16 20 18 5 33 -8 9 -39 21 -67 27
-58 13 -235 22 -289 15z"/>
<path d="M6985 4404 c-65 -17 -85 -27 -85 -43 0 -71 395 -74 418 -3 8 26 -68
45 -193 48 -66 2 -129 1 -140 -2z"/>
<path d="M15396 2629 c-21 -5 -60 -21 -87 -35 -47 -26 -47 -27 -32 -50 18 -28
26 -29 56 -10 12 8 49 22 82 31 70 18 137 13 205 -16 l44 -20 18 23 c17 22 16
24 -5 40 -53 40 -189 58 -281 37z"/>
<path d="M11830 2615 c-59 -17 -111 -44 -117 -60 -2 -6 3 -19 11 -30 13 -18
15 -18 74 8 75 34 175 37 253 7 56 -21 63 -20 79 11 10 18 5 22 -45 45 -71 33
-177 40 -255 19z"/>
<path d="M16825 2590 c-22 -5 -73 -21 -114 -35 -96 -34 -156 -41 -221 -25 -44
10 -54 10 -61 -1 -29 -46 15 -69 134 -69 51 0 94 9 173 35 138 46 206 47 335
3 115 -38 226 -44 302 -15 49 19 55 30 33 60 -12 16 -16 16 -52 1 -59 -25
-145 -20 -258 15 -107 34 -208 45 -271 31z"/>
<path d="M2625 2557 c-27 -8 -76 -23 -108 -35 -80 -30 -151 -37 -210 -19 -48
15 -48 15 -58 -9 -14 -39 -12 -41 42 -54 74 -18 170 -7 274 30 125 44 204 44
340 -1 125 -41 224 -45 298 -11 44 19 47 23 37 42 -16 30 -31 33 -73 15 -57
-24 -135 -19 -244 16 -112 36 -222 45 -298 26z"/>
<path d="M1206 2539 c-20 -29 -10 -40 57 -70 99 -43 272 -35 341 16 18 13 18
16 3 39 l-17 25 -47 -22 c-38 -17 -66 -22 -128 -21 -75 1 -106 9 -187 52 -3 1
-13 -7 -22 -19z"/>
<path d="M13995 2518 c-110 -37 -230 -44 -282 -15 l-32 17 -15 -29 -15 -29 49
-21 c75 -32 167 -29 287 11 125 42 235 44 328 9 112 -43 189 -56 262 -44 79
14 91 23 74 59 -8 19 -16 24 -29 18 -9 -4 -49 -9 -89 -12 -64 -4 -85 0 -177
32 -140 48 -229 49 -361 4z"/>
<path d="M4750 2530 c-25 -4 -76 -20 -115 -35 -46 -18 -97 -29 -150 -32 -71
-4 -91 -2 -175 26 -130 44 -226 50 -302 21 -32 -12 -58 -23 -58 -25 0 -2 5
-16 12 -30 8 -18 16 -24 27 -19 100 42 150 40 300 -8 139 -44 223 -43 364 6
112 38 186 46 246 25 35 -12 45 -7 55 27 5 17 0 22 -31 32 -58 16 -123 21
-173 12z"/>
<path d="M9550 2502 c-74 -36 -181 -37 -254 -4 -46 21 -49 21 -62 5 -23 -30
-16 -43 34 -65 100 -44 256 -34 349 24 32 19 32 20 17 44 -19 29 -15 29 -84
-4z"/>
<path d="M10565 2499 c-22 -5 -74 -21 -115 -36 -77 -28 -162 -36 -231 -20 -32
8 -36 6 -47 -18 -11 -23 -10 -26 16 -36 15 -7 59 -14 97 -16 72 -5 124 5 237
46 87 32 182 28 304 -10 121 -39 224 -44 297 -15 50 20 56 30 33 61 -13 17
-15 18 -55 2 -64 -26 -147 -22 -257 14 -105 33 -213 45 -279 28z"/>
<path d="M13050 2481 c-40 -23 -56 -26 -145 -26 -78 0 -107 4 -133 18 -32 18
-35 18 -53 1 -10 -9 -19 -21 -19 -26 0 -17 106 -58 166 -64 70 -7 151 8 213
39 52 27 56 35 33 63 l-17 21 -45 -26z"/>
<path d="M18670 2432 c-63 -37 -183 -43 -259 -13 -58 22 -65 21 -81 -10 -10
-17 -5 -22 43 -44 100 -46 226 -43 326 8 52 27 58 37 34 64 -18 20 -18 20 -63
-5z"/>
<path d="M3240 2035 c-59 -17 -111 -44 -117 -60 -2 -6 3 -19 11 -30 13 -18 15
-18 77 10 81 36 180 39 254 6 50 -22 59 -21 75 10 10 18 5 22 -45 45 -71 33
-177 40 -255 19z"/>
<path d="M6814 2022 c-56 -20 -104 -48 -104 -61 0 -4 9 -16 19 -25 17 -16 22
-16 43 -3 76 50 200 57 292 17 l46 -19 15 22 c8 12 15 24 15 28 0 4 -24 17
-52 29 -73 32 -203 38 -274 12z"/>
<path d="M8220 2006 c-30 -7 -79 -22 -108 -34 -71 -29 -148 -37 -212 -22 -44
10 -54 10 -61 -1 -29 -46 15 -69 133 -69 51 0 94 9 172 35 140 47 209 47 343
3 118 -39 220 -44 296 -15 49 20 56 31 33 62 -13 18 -15 18 -49 2 -56 -27
-151 -22 -262 14 -112 35 -208 44 -285 25z"/>
<path d="M16185 2007 c-55 -15 -135 -53 -135 -65 0 -4 7 -17 15 -28 l14 -21
53 26 c73 36 181 41 258 12 54 -20 55 -20 74 -2 25 25 16 36 -51 61 -71 27
-163 33 -228 17z"/>
<path d="M15065 1994 c-11 -3 -62 -19 -113 -35 -104 -33 -183 -37 -239 -14
-42 18 -57 15 -73 -15 -10 -18 -6 -22 37 -42 75 -33 182 -28 303 12 134 46
208 45 352 -4 113 -38 170 -44 258 -25 51 11 60 23 40 58 -9 17 -13 17 -62 4
-67 -18 -126 -11 -231 28 -62 24 -103 32 -167 35 -47 1 -94 1 -105 -2z"/>
<path d="M9905 1979 c-22 -5 -75 -21 -118 -34 -91 -29 -179 -32 -237 -9 -39
16 -42 16 -55 -2 -20 -26 -15 -36 31 -58 64 -32 176 -28 297 12 137 45 208 44
353 -4 95 -32 117 -35 184 -32 41 3 87 10 102 16 26 11 27 14 16 38 -10 21
-17 24 -37 20 -93 -22 -135 -19 -246 19 -119 40 -220 52 -290 34z"/>
<path d="M11044 1964 c-20 -29 -23 -24 46 -60 97 -49 280 -43 353 11 17 12 18
15 2 38 l-16 25 -47 -21 c-72 -33 -188 -31 -265 5 l-57 27 -16 -25z"/>
<path d="M5405 1939 c-110 -38 -220 -44 -274 -16 -19 9 -36 17 -37 17 -2 0
-10 -13 -19 -29 l-15 -30 55 -20 c83 -31 164 -28 282 11 83 28 112 33 188 32
76 -1 103 -6 175 -34 96 -37 205 -45 273 -22 39 14 45 27 24 56 -10 14 -17 15
-40 7 -55 -21 -141 -13 -251 24 -141 47 -231 48 -361 4z"/>
<path d="M12130 1953 c-14 -2 -42 -9 -62 -14 -36 -9 -37 -10 -26 -40 9 -25 14
-29 32 -24 11 4 51 9 88 12 59 5 82 0 177 -31 148 -49 230 -49 368 -4 116 38
217 44 270 15 32 -17 33 -17 49 7 21 33 14 41 -47 61 -71 24 -181 16 -279 -19
-43 -16 -107 -29 -150 -33 -68 -5 -85 -2 -180 30 -104 35 -192 50 -240 40z"/>
<path d="M17340 1950 c-30 -4 -89 -19 -130 -33 -112 -39 -164 -43 -235 -19
-55 19 -60 19 -72 4 -20 -28 -15 -38 29 -58 70 -31 180 -26 312 15 97 30 117
33 185 28 49 -4 106 -17 161 -37 96 -36 184 -43 262 -21 46 13 46 13 36 43 -9
24 -15 28 -32 23 -11 -3 -50 -9 -86 -12 -56 -4 -79 0 -170 30 -116 38 -177 47
-260 37z"/>
<path d="M13676 1915 c-9 -14 -16 -27 -16 -29 0 -12 99 -55 155 -66 74 -15
154 -7 222 25 57 26 60 30 38 59 -14 18 -15 18 -66 -4 -74 -31 -193 -26 -266
12 l-52 26 -15 -23z"/>
<path d="M1985 1924 c-11 -3 -60 -19 -109 -36 -93 -33 -164 -40 -242 -25 -37
8 -41 6 -52 -18 -11 -23 -10 -26 16 -37 15 -6 61 -13 102 -15 67 -5 87 -1 185
32 147 49 213 50 350 5 124 -41 236 -46 299 -14 46 22 52 33 33 58 -13 18 -15
18 -60 1 -62 -23 -155 -16 -262 20 -77 26 -211 41 -260 29z"/>
<path d="M4460 1902 c-58 -34 -182 -42 -250 -17 -63 23 -70 23 -87 -2 -15 -22
-14 -24 43 -50 50 -24 72 -28 149 -28 81 0 97 3 158 32 37 18 67 36 67 41 0 6
-8 19 -17 30 -18 19 -18 19 -63 -6z"/>
<path d="M7590 1427 c-52 -15 -118 -46 -126 -58 -2 -5 2 -19 11 -33 l16 -24
46 26 c61 34 185 42 253 17 63 -23 70 -23 87 2 15 22 14 24 -41 49 -68 31
-179 40 -246 21z"/>
<path d="M6395 1389 c-120 -40 -210 -48 -271 -24 l-47 18 -18 -24 -19 -24 52
-24 c76 -36 164 -32 293 10 137 45 225 45 345 0 100 -38 187 -48 259 -31 57
13 69 27 52 59 -10 18 -15 19 -39 10 -46 -19 -151 -14 -217 11 -167 61 -252
65 -390 19z"/>
<path d="M1295 1396 c-27 -7 -70 -21 -95 -30 -71 -27 -181 -32 -235 -11 -45
16 -47 16 -60 -1 -22 -29 -19 -33 33 -57 72 -32 171 -28 297 13 140 46 205 45
349 -5 99 -34 117 -37 185 -32 42 2 88 9 103 15 25 10 26 14 17 40 l-10 29
-52 -14 c-66 -18 -126 -11 -236 28 -102 36 -219 46 -296 25z"/>
<path d="M2486 1368 c-20 -28 -14 -35 53 -66 48 -22 70 -26 156 -26 85 -1 108
3 153 23 54 24 60 34 38 64 -13 16 -16 16 -62 -5 -73 -33 -180 -31 -258 5 -32
15 -60 27 -62 27 -1 0 -10 -10 -18 -22z"/>
<path d="M14445 1367 c-8 -12 -15 -24 -15 -28 0 -3 28 -19 63 -35 104 -48 280
-43 351 9 19 14 19 16 3 41 l-18 26 -42 -22 c-65 -34 -192 -32 -269 4 l-58 27
-15 -22z"/>
<path d="M3525 1374 c-81 -21 -84 -23 -73 -55 8 -22 15 -28 27 -23 9 3 51 9
93 12 70 4 87 1 170 -29 82 -30 104 -34 193 -34 84 0 114 5 190 30 106 35 209
41 263 13 32 -16 33 -16 49 9 16 24 16 26 -2 39 -61 45 -189 46 -322 2 -135
-45 -222 -44 -348 1 -86 31 -194 47 -240 35z"/>
<path d="M8733 1370 c-23 -5 -79 -21 -125 -35 -99 -31 -187 -34 -241 -9 -36
17 -38 17 -52 -2 -23 -31 -18 -41 33 -61 74 -28 185 -23 301 16 131 43 198 42
339 -5 97 -33 115 -36 192 -32 47 2 95 10 107 16 20 11 21 15 11 38 -10 21
-17 24 -37 20 -92 -22 -135 -19 -243 18 -115 38 -215 51 -285 36z"/>
<path d="M5085 1334 c-16 -24 -15 -26 2 -40 27 -20 112 -50 165 -58 57 -8 158
8 210 35 42 21 44 27 25 53 -13 18 -16 17 -75 -4 -83 -30 -184 -25 -259 13
l-51 26 -17 -25z"/>
<path d="M11275 1316 c-106 -37 -197 -46 -252 -25 -23 8 -30 7 -40 -7 -21 -29
-15 -42 25 -56 67 -23 176 -15 272 22 72 28 99 33 175 34 76 1 103 -4 175 -29
107 -37 239 -42 308 -11 23 10 42 21 42 23 0 2 -7 14 -15 27 l-15 23 -58 -20
c-69 -23 -133 -18 -236 19 -54 20 -97 27 -176 30 -100 4 -110 3 -205 -30z"/>
<path d="M9935 1318 c-14 -21 -14 -24 2 -35 80 -59 250 -75 356 -34 59 23 66
34 43 66 -13 18 -15 18 -66 -4 -70 -30 -192 -27 -261 7 -56 27 -54 27 -74 0z"/>
<path d="M15850 1294 c-93 -32 -113 -36 -175 -31 -38 2 -78 8 -87 12 -13 5
-20 0 -28 -21 -13 -33 -6 -39 70 -55 68 -15 156 -2 250 37 39 15 93 28 136 31
64 5 86 1 194 -32 107 -33 130 -37 198 -33 64 4 125 22 150 43 2 2 -4 14 -12
28 l-16 24 -58 -20 c-70 -23 -131 -18 -241 20 -57 20 -101 27 -176 30 -94 3
-107 1 -205 -33z"/>
<path d="M12810 1313 c-42 -7 -119 -34 -125 -43 -3 -5 1 -20 10 -34 l16 -24
42 19 c62 28 131 24 244 -13 87 -29 110 -33 203 -32 94 0 114 4 190 33 67 26
100 33 155 33 39 0 82 -4 96 -10 23 -9 28 -8 38 14 15 33 10 39 -43 53 -78 19
-140 13 -254 -25 -143 -48 -219 -50 -352 -7 -96 31 -174 44 -220 36z"/>
<path d="M17585 1313 c-11 -3 -52 -16 -91 -29 -107 -36 -168 -40 -237 -16
l-58 19 -14 -21 c-21 -29 -20 -31 27 -52 71 -32 200 -26 321 14 129 43 179 42
315 -4 118 -40 224 -49 295 -25 32 11 37 16 31 34 -10 34 -17 38 -54 27 -67
-19 -142 -12 -246 25 -85 30 -111 34 -184 34 -47 -1 -94 -4 -105 -6z"/>
<path d="M12512 704 c-53 -14 -112 -40 -112 -50 0 -3 8 -15 17 -27 l17 -23 40
21 c32 16 60 20 131 20 77 0 98 -4 143 -26 l53 -26 14 21 c8 11 15 24 15 28 0
13 -93 55 -148 67 -67 14 -104 13 -170 -5z"/>
<path d="M16090 711 c-23 -7 -90 -39 -98 -47 -2 -1 4 -13 14 -26 l18 -24 60
24 c80 32 176 28 255 -12 51 -25 54 -25 67 -9 23 31 16 43 -43 71 -48 21 -75
27 -153 29 -52 1 -106 -1 -120 -6z"/>
<path d="M3142 671 c-73 -26 -86 -39 -64 -69 l17 -22 45 22 c68 34 185 32 264
-5 55 -26 59 -26 72 -10 23 30 16 39 -48 69 -84 37 -207 44 -286 15z"/>
<path d="M11080 669 c-184 -57 -227 -61 -299 -29 -24 11 -45 19 -46 18 -12
-16 -25 -50 -20 -57 3 -5 28 -17 57 -27 71 -23 188 -15 288 22 61 22 91 27
165 27 77 0 102 -5 175 -33 69 -27 100 -33 165 -34 44 0 96 5 116 12 36 12 37
14 26 43 -8 21 -16 27 -27 22 -8 -3 -51 -8 -95 -11 -71 -3 -89 0 -165 28 -113
43 -242 50 -340 19z"/>
<path d="M18730 651 c-74 -35 -191 -37 -263 -4 l-47 22 -17 -25 c-19 -30 -17
-33 67 -65 81 -30 202 -24 288 15 65 30 73 43 45 68 -16 14 -23 13 -73 -11z"/>
<path d="M4200 635 c-100 -36 -174 -44 -240 -25 -29 8 -37 7 -47 -7 -21 -28
-15 -41 25 -54 68 -23 167 -16 267 20 57 21 117 34 165 38 66 4 87 1 170 -26
122 -41 227 -50 298 -27 65 22 76 35 53 65 -18 23 -18 23 -52 5 -54 -29 -154
-24 -267 15 -78 26 -106 31 -185 30 -78 0 -106 -6 -187 -34z"/>
<path d="M8421 638 c-47 -24 -66 -28 -135 -28 -59 0 -93 6 -125 20 -46 21 -55
20 -71 -11 -10 -17 -5 -22 43 -44 100 -46 226 -43 326 8 52 27 57 35 33 62
l-17 21 -54 -28z"/>
<path d="M9360 624 c-94 -32 -113 -35 -180 -31 -41 2 -82 8 -91 11 -12 5 -19
-1 -27 -23 -10 -29 -9 -30 26 -43 20 -7 73 -12 117 -12 65 1 96 8 165 34 74
29 97 34 175 33 73 0 104 -5 165 -27 100 -37 217 -45 288 -22 61 21 66 26 50
61 -8 18 -16 24 -27 19 -99 -42 -163 -42 -284 2 -53 19 -98 27 -172 30 -95 4
-105 3 -205 -32z"/>
<path d="M13865 639 c-21 -5 -70 -21 -108 -34 -92 -33 -160 -40 -220 -22 -48
15 -48 15 -58 -9 -14 -39 -12 -41 42 -54 76 -18 179 -7 279 30 118 44 200 44
330 -1 122 -41 229 -45 303 -11 43 19 47 24 37 41 -16 30 -26 33 -66 16 -58
-24 -140 -19 -250 16 -108 33 -223 45 -289 28z"/>
<path d="M930 602 c-74 -35 -181 -37 -255 -4 l-49 23 -17 -23 c-22 -29 -13
-41 49 -65 34 -13 74 -18 142 -18 84 0 102 3 158 29 64 30 71 39 48 69 -16 20
-8 21 -76 -11z"/>
<path d="M1975 600 c-148 -52 -213 -57 -296 -25 -10 4 -18 -5 -26 -25 l-11
-30 56 -16 c75 -22 155 -14 272 27 129 45 207 45 345 0 123 -40 217 -44 289
-13 49 22 53 28 33 56 -12 17 -16 17 -60 2 -71 -24 -135 -20 -239 15 -66 21
-119 32 -183 35 -82 4 -98 2 -180 -26z"/>
<path d="M6585 617 c-49 -17 -85 -35 -85 -45 0 -4 7 -15 15 -26 13 -18 16 -18
55 -2 64 25 146 20 257 -16 140 -46 241 -45 373 2 94 34 148 40 264 28 22 -2
30 2 37 20 7 19 4 24 -19 34 -15 6 -61 13 -102 15 -67 5 -87 1 -184 -31 -143
-47 -214 -48 -352 -5 -117 36 -203 44 -259 26z"/>
<path d="M5785 581 c-68 -35 -186 -37 -258 -4 l-47 22 -17 -25 c-19 -30 -17
-33 65 -64 94 -36 235 -22 320 30 32 19 33 22 20 42 -20 29 -25 29 -83 -1z"/>
<path d="M15017 582 c-9 -10 -17 -23 -17 -29 0 -6 28 -23 63 -39 55 -26 73
-29 162 -29 84 0 109 4 153 24 28 13 52 26 52 30 0 4 -7 16 -15 28 l-15 22
-48 -22 c-36 -17 -66 -22 -127 -22 -75 0 -113 11 -186 52 -3 2 -13 -5 -22 -15z"/>
<path d="M17295 570 c-143 -48 -195 -49 -296 -6 -11 5 -19 -1 -28 -20 -6 -15
-10 -28 -9 -29 26 -22 87 -39 148 -43 64 -3 88 1 170 27 55 19 127 34 170 38
69 5 84 2 185 -32 120 -42 213 -50 292 -27 41 12 42 13 31 43 -9 27 -13 30
-37 22 -14 -4 -62 -8 -106 -8 -66 0 -92 5 -150 29 -59 25 -86 30 -175 33 -95
3 -113 1 -195 -27z"/>
</g>
</svg>
