<?xml version="1.0" encoding="UTF-8"?>
<svg version="1.1" xmlns="http://www.w3.org/2000/svg" width="1795" height="362">
<path d="M0 0 C3.72855938 1.60319253 7.07981737 3.63734523 10.5 5.8125 C11.4583374 6.4005542 12.4166748 6.9886084 13.40405273 7.59448242 C16.28517087 9.37250967 19.14558362 11.17947069 22 13 C22.81227051 13.51691406 23.62454102 14.03382812 24.46142578 14.56640625 C28.04085185 16.85357946 31.60192651 19.16607165 35.1484375 21.50390625 C38.21310311 23.51398893 41.33350888 25.39809345 44.49462891 27.25146484 C51.7451278 31.52815081 57.41900484 35.75347814 60 44 C60.29948941 47.44453198 60.27398039 50.87966481 60.26069641 54.33538818 C60.26452196 55.38686672 60.26834751 56.43834527 60.27228898 57.52168679 C60.28262079 61.0506413 60.2786264 64.57943315 60.2746582 68.10839844 C60.27900463 70.63637442 60.28418755 73.16434908 60.29014587 75.69232178 C60.30216264 81.85024225 60.30468608 88.0081026 60.30234561 94.16603252 C60.30056222 99.17299238 60.30231256 104.179939 60.30657005 109.18689728 C60.30716524 109.89966452 60.30776043 110.61243177 60.30837366 111.34679802 C60.30958542 112.79484477 60.31079956 114.24289152 60.31201603 115.69093826 C60.32289333 129.27219984 60.32072851 142.85343659 60.31463119 156.43469957 C60.30946497 168.85053028 60.32070931 181.26628246 60.33972941 193.68209764 C60.35911841 206.43675679 60.36736175 219.19137881 60.36360615 231.94605279 C60.36169532 239.10429737 60.36416992 246.26247516 60.37832069 253.4207077 C60.39149777 260.15450492 60.38895997 266.88811982 60.37590981 273.62192535 C60.3735431 276.09181267 60.37628205 278.56171102 60.38453293 281.03158569 C60.39499396 284.40679836 60.38690418 287.78148343 60.3742218 291.15667725 C60.38159609 292.13091573 60.38897037 293.10515422 60.39656812 294.10891509 C60.32724213 302.897164 58.57742326 310.4809595 52.33178711 316.90771484 C49.76245809 319.21314356 47.13962337 320.90894018 44.18359375 322.69140625 C43.62031876 323.03241364 43.05704376 323.37342102 42.47669983 323.72476196 C40.65532623 324.82368623 38.82864164 325.91321729 37 327 C36.38906494 327.36356598 35.77812988 327.72713196 35.14868164 328.10171509 C31.39027403 330.33414852 27.62236591 332.55000355 23.84887695 334.75683594 C21.90650567 335.89313182 19.96588504 337.03237746 18.02539062 338.171875 C16.776143 338.9038188 15.52679778 339.63559608 14.27734375 340.3671875 C13.16609131 341.01800293 12.05483887 341.66881836 10.90991211 342.33935547 C5.07394335 345.66985799 1.65072919 346.19560968 -5 346 C-5.75895373 338.77739208 -6.14780849 331.65237079 -6.14476013 324.391922 C-6.14828698 323.38361397 -6.15181382 322.37530594 -6.15544754 321.33644313 C-6.16604166 317.98967145 -6.1697991 314.64292833 -6.17358398 311.29614258 C-6.17989619 308.8838845 -6.18666272 306.47162758 -6.19384766 304.05937195 C-6.20846751 298.88068191 -6.22021211 293.70199622 -6.22979546 288.52329445 C-6.24373138 281.02722303 -6.26492673 273.53118458 -6.28822399 266.03513702 C-6.3260546 253.85912577 -6.36104227 241.68310862 -6.39282227 229.50708008 C-6.39472276 228.77970784 -6.39662325 228.05233561 -6.39858133 227.30292179 C-6.42543642 216.9715265 -6.4493118 206.64012646 -6.47196633 196.30872121 C-6.47436229 195.2162985 -6.47436229 195.2162985 -6.47680664 194.10180664 C-6.47919684 193.01072505 -6.47919684 193.01072505 -6.48163532 191.8976014 C-6.50842015 179.76085658 -6.54281997 167.62414753 -6.58346039 155.48744124 C-6.60819112 148.01128112 -6.62654242 140.53515937 -6.636616 133.05896487 C-6.64489347 127.33207052 -6.66340112 121.60524469 -6.68567657 115.87838936 C-6.69314748 113.53225285 -6.69723286 111.18610274 -6.69767189 108.83995438 C-6.69875572 105.63557344 -6.71201522 102.4314619 -6.72825623 99.22712708 C-6.72563937 98.30075984 -6.72302252 97.37439261 -6.72032636 96.41995364 C-6.7635715 90.95141695 -7.46327127 86.25387669 -9 81 C-14.46551164 80.66662109 -17.79536604 81.47071769 -22.625 84.01171875 C-23.22836182 84.32703049 -23.83172363 84.64234222 -24.45336914 84.96720886 C-30.788691 88.32403863 -36.90639491 92.03852844 -43 95.8125 C-44.82372602 96.93290315 -46.64876598 98.05114369 -48.47393799 99.16918945 C-49.73468642 99.94153102 -50.99506045 100.71448406 -52.25506592 101.48803711 C-58.59058584 105.37390377 -64.97094729 109.18346304 -71.35296631 112.99227905 C-85.87077877 121.66088118 -100.23233209 130.56419825 -114.52685547 139.59667969 C-116.08312214 140.57988407 -117.64004442 141.56205184 -119.19775391 142.54296875 C-120.55738069 143.39936724 -121.91527948 144.25851863 -123.27099609 145.12109375 C-130.10397236 149.42521268 -136.0195931 150.11890241 -144 149 C-148.94045972 147.33722417 -153.45962054 144.72700562 -157.97363281 142.15429688 C-159.91393709 141.04902475 -161.87011417 139.98093837 -163.8359375 138.921875 C-172.18167393 134.38059331 -180.24131989 129.40685932 -188.29418945 124.36938477 C-197.92903462 118.36821318 -207.73405995 112.6657193 -217.5372467 106.94595337 C-218.13854904 106.59511688 -218.73985138 106.2442804 -219.359375 105.8828125 C-219.94911606 105.53882416 -220.53885712 105.19483582 -221.14646912 104.84042358 C-225.49343234 102.3024278 -229.81789701 99.72991645 -234.125 97.125 C-239.64784898 93.80094335 -245.18759519 90.50749893 -250.75 87.25 C-251.50684082 86.80156738 -252.26368164 86.35313477 -253.04345703 85.89111328 C-258.93030635 82.46105091 -264.71158485 79.85837052 -271 77 C-271.33 165.44 -271.66 253.88 -272 345 C-280.44910135 343.46379975 -285.59173902 342.17598489 -292.625 338.0625 C-293.47747314 337.57813477 -294.32994629 337.09376953 -295.20825195 336.59472656 C-303.07287865 332.07397074 -310.75177413 327.277573 -318.24951172 322.17236328 C-319.76632617 321.15649954 -321.31987489 320.19589712 -322.87890625 319.24609375 C-329.22904707 315.07194847 -331.67755915 309.52610283 -333.54046822 302.35886216 C-335.28065436 293.42616286 -334.6683971 284.01585557 -334.61523438 274.96166992 C-334.61874009 272.44221626 -334.62440374 269.92276482 -334.63204956 267.40332031 C-334.64476918 261.30064009 -334.63443057 255.19838262 -334.61293632 249.09573891 C-334.58879652 241.97810709 -334.59064846 234.86055001 -334.59324223 227.74288634 C-334.59692278 215.04051709 -334.57618657 202.33830493 -334.54199219 189.63598633 C-334.508872 177.32800328 -334.49474092 165.02018491 -334.50097656 152.7121582 C-334.50774781 139.2810396 -334.50526218 125.84998971 -334.48561716 112.41888124 C-334.48457768 111.70810218 -334.48353819 110.99732311 -334.4824672 110.26500529 C-334.48037644 108.83774626 -334.47826547 107.41048726 -334.47613403 105.98322829 C-334.46925495 101.02848271 -334.46856631 96.07375837 -334.47001648 91.11900902 C-334.47161034 84.44826176 -334.45665594 77.77773841 -334.43078995 71.10703278 C-334.42363647 68.6613364 -334.42154057 66.21561914 -334.42490768 63.76991463 C-334.42863073 60.42799677 -334.41384569 57.08664887 -334.39440918 53.74479675 C-334.39973711 52.78058829 -334.40506503 51.81637983 -334.41055441 50.82295293 C-334.34109014 43.88531327 -333.74881198 36.79536257 -328.69335938 31.65429688 C-325.79470547 29.87390539 -322.89624341 28.15501551 -319.90625 26.53125 C-319.32587982 26.21390396 -318.74550964 25.89655792 -318.14755249 25.56959534 C-316.26728417 24.54221112 -314.38364149 23.52118414 -312.5 22.5 C-309.88653372 21.07432743 -307.27510442 19.64495069 -304.6640625 18.21484375 C-304.01390167 17.85917831 -303.36374084 17.50351288 -302.69387817 17.1370697 C-295.82549045 13.37180045 -289.03219178 9.47795572 -282.25976562 5.54296875 C-281.47021484 5.08664063 -280.68066406 4.6303125 -279.8671875 4.16015625 C-279.18769043 3.76449463 -278.50819336 3.36883301 -277.80810547 2.96118164 C-273.65501535 0.75341553 -269.59456154 0.20872773 -265 1 C-262.64868164 2.06079102 -262.64868164 2.06079102 -260.09765625 3.50390625 C-259.12908691 4.05071045 -258.16051758 4.59751465 -257.16259766 5.16088867 C-251.39120833 8.5170625 -245.65466092 11.92764251 -239.9375 15.375 C-238.61150763 16.1724725 -237.2854982 16.96991665 -235.95947266 17.76733398 C-226.50850439 23.45756522 -217.10198179 29.21766833 -207.71533203 35.01342773 C-196.18210434 42.13293364 -184.5961538 49.16430077 -173 56.18066406 C-170.40168808 57.75639815 -167.80871408 59.34028881 -165.21875 60.9296875 C-161.83856905 62.99940079 -158.43580778 65.02348692 -155 67 C-154.1853125 67.46921875 -153.370625 67.9384375 -152.53125 68.421875 C-145.66913652 71.94958122 -138.53677551 72.28387661 -131.12890625 70.1875 C-117.33683408 64.79792499 -104.72917253 56.28191853 -92.296875 48.36328125 C-75.93317281 37.95086467 -59.40894214 27.89460922 -42.41015625 18.55078125 C-38.44189768 16.36925844 -34.50381816 14.14591326 -30.59129333 11.86665344 C-28.15771794 10.45060465 -25.71582089 9.0492652 -23.27316284 7.6489563 C-21.54769153 6.65254064 -19.8333411 5.63694462 -18.11938477 4.62084961 C-6.82381362 -1.8186816 -6.82381362 -1.8186816 0 0 Z " fill="#002333" transform="translate(1452,12)"/>
<path d="M0 0 C1.85221069 1.23097844 3.69074919 2.48275691 5.515625 3.75390625 C7.34042124 4.76988266 9.17924309 5.76107828 11.03125 6.7265625 C22.04980637 12.6602195 33.00270001 18.68954727 43.87695312 24.88378906 C50.62037468 28.71392415 57.4272282 32.40914282 64.265625 36.06640625 C74.34795384 41.46922574 84.19695769 47.21004605 93.99316406 53.1105957 C100.46174731 57.01175953 100.46174731 57.01175953 107.10009766 60.61035156 C108.26460449 61.20686523 109.42911133 61.80337891 110.62890625 62.41796875 C112.21312378 63.20228271 112.21312378 63.20228271 113.8293457 64.00244141 C116.79024143 65.93295726 117.96554648 67.6163093 119.515625 70.75390625 C104.57149057 79.36120204 89.55877077 87.84567263 74.42773438 96.12060547 C72.57068277 97.16216107 70.73512507 98.24370978 68.93164062 99.37548828 C68.16013672 99.85228027 67.38863281 100.32907227 66.59375 100.8203125 C65.9430957 101.2438501 65.29244141 101.6673877 64.62207031 102.10375977 C59.71616529 103.61794904 54.34771074 99.79320524 50.03515625 97.62890625 C49.4287178 97.32563919 48.82227936 97.02237213 48.19746399 96.70991516 C46.23887961 95.72877247 44.28341665 94.74159239 42.328125 93.75390625 C40.97581826 93.07432446 39.62344152 92.39488193 38.27099609 91.71557617 C29.25938415 87.18034039 20.2997489 82.55318216 11.3984375 77.8046875 C10.75551758 77.46775879 10.11259766 77.13083008 9.45019531 76.78369141 C8.10364184 76.06691168 6.7703285 75.3249295 5.44824219 74.56396484 C2.33025156 72.83985608 0.1912916 71.7701439 -3.41015625 71.68359375 C-7.83143268 73.22289456 -11.66209507 75.48334916 -15.671875 77.87890625 C-17.53413108 78.96790084 -19.39746925 80.05504648 -21.26171875 81.140625 C-22.25800293 81.72247559 -23.25428711 82.30432617 -24.28076172 82.90380859 C-30.05748298 86.23988493 -35.89767854 89.46189416 -41.734375 92.69140625 C-42.86383545 93.31740723 -43.9932959 93.9434082 -45.15698242 94.58837891 C-46.23955322 95.18827637 -47.32212402 95.78817383 -48.4375 96.40625 C-49.46552734 96.97714355 -50.49355469 97.54803711 -51.55273438 98.13623047 C-53.44399519 99.17982592 -55.34079203 100.21348036 -57.24414062 101.23486328 C-58.06076172 101.67556152 -58.87738281 102.11625977 -59.71875 102.5703125 C-60.42741211 102.94744385 -61.13607422 103.3245752 -61.86621094 103.71313477 C-63.65441335 104.6686979 -63.65441335 104.6686979 -64.484375 106.75390625 C-63.77603516 107.02090332 -63.06769531 107.28790039 -62.33789062 107.56298828 C-59.36925645 108.80195111 -56.63741612 110.2422322 -53.828125 111.80859375 C-52.73443604 112.41695068 -51.64074707 113.02530762 -50.51391602 113.65209961 C-49.33731041 114.31087098 -48.16079903 114.96981067 -46.984375 115.62890625 C-45.76040111 116.31204828 -44.5363606 116.99507097 -43.31225586 117.67797852 C-33.60911693 123.0978038 -23.9504239 128.59383643 -14.31347656 134.13037109 C-9.44671572 136.92325681 -4.57343743 139.70474044 0.29907227 142.48757935 C2.07527684 143.50227917 3.85116521 144.51753017 5.62695312 145.53295898 C11.14182909 148.68615303 16.65813592 151.83673578 22.18074036 154.97637939 C24.67386779 156.39395996 27.16605011 157.81319762 29.65817261 159.23254395 C31.38456884 160.21489648 33.11230135 161.19489951 34.84008789 162.17480469 C40.53981846 165.42205306 46.21083884 168.71628222 51.83203125 172.09765625 C52.9207251 172.74927734 54.00941895 173.40089844 55.13110352 174.07226562 C55.91799561 174.62720703 56.7048877 175.18214844 57.515625 175.75390625 C57.515625 176.41390625 57.515625 177.07390625 57.515625 177.75390625 C55.44267254 179.28150799 53.37016677 180.68251141 51.203125 182.06640625 C49.8156073 182.97143254 48.4289272 183.87774392 47.04296875 184.78515625 C45.93477783 185.50832031 45.93477783 185.50832031 44.80419922 186.24609375 C40.92372769 188.80271762 37.09576201 191.43521699 33.265625 194.06640625 C31.66538529 195.16409269 30.0651246 196.26174854 28.46484375 197.359375 C27.65837402 197.91286621 26.8519043 198.46635742 26.02099609 199.03662109 C23.42382576 200.81682925 20.82365819 202.59258287 18.22265625 204.3671875 C17.36124023 204.9552417 16.49982422 205.5432959 15.61230469 206.14916992 C13.96103971 207.27626167 12.309367 208.40275637 10.65722656 209.52856445 C9.91053711 210.03863037 9.16384766 210.54869629 8.39453125 211.07421875 C7.7404126 211.52039551 7.08629395 211.96657227 6.41235352 212.42626953 C4.4511132 213.73496557 4.4511132 213.73496557 2.64819336 215.48388672 C0.515625 216.75390625 0.515625 216.75390625 -2.08813477 216.75805664 C-6.97899101 215.31200016 -11.31029588 213.03801852 -15.82421875 210.6875 C-16.82336807 210.17518326 -17.8225174 209.66286652 -18.85194397 209.13502502 C-22.04591747 207.49478906 -25.233847 205.84316303 -28.421875 204.19140625 C-30.53152814 203.1066963 -32.64155077 202.02270468 -34.75195312 200.93945312 C-45.71360451 195.30184542 -56.6065478 189.55541409 -67.484375 183.75390625 C-67.154375 205.20390625 -66.824375 226.65390625 -66.484375 248.75390625 C-64.504375 249.41390625 -62.524375 250.07390625 -60.484375 250.75390625 C-58.61252114 251.69008417 -56.76508143 252.67624877 -54.94140625 253.703125 C-53.87986328 254.29722168 -52.81832031 254.89131836 -51.72460938 255.50341797 C-50.02788086 256.46272217 -50.02788086 256.46272217 -48.296875 257.44140625 C-47.1116465 258.10619945 -45.92609407 258.77041542 -44.74023438 259.43408203 C-42.25988133 260.82297018 -39.78096182 262.21436435 -37.30322266 263.60791016 C-31.63379277 266.79552171 -25.95534125 269.96689833 -20.27304077 273.13150024 C-18.50726953 274.11613967 -16.74343873 275.10419011 -14.97973633 276.0925293 C-13.37328247 276.98838745 -13.37328247 276.98838745 -11.734375 277.90234375 C-10.79078125 278.43005371 -9.8471875 278.95776367 -8.875 279.50146484 C-6.44424049 280.85625051 -6.44424049 280.85625051 -3.484375 281.75390625 C-1.39153468 280.98622933 -1.39153468 280.98622933 0.8125 279.68359375 C1.67657471 279.20615723 2.54064941 278.7287207 3.4309082 278.23681641 C4.36636475 277.70620605 5.30182129 277.1755957 6.265625 276.62890625 C7.73358521 275.81172119 7.73358521 275.81172119 9.23120117 274.97802734 C12.33228935 273.24758997 15.42464249 271.50232107 18.515625 269.75390625 C20.41266918 268.68603582 22.30980216 267.61832313 24.20703125 266.55078125 C28.00904147 264.40774582 31.80639825 262.25669527 35.6015625 260.1015625 C40.65690602 257.23383767 45.72989648 254.39881214 50.80712891 251.57006836 C60.07381957 246.40456789 69.29496229 241.17212758 78.453125 235.81640625 C79.905979 234.97045898 79.905979 234.97045898 81.38818359 234.10742188 C86.20053974 231.30041236 90.99689298 228.47083914 95.76274109 225.58570862 C98.12141107 224.16177386 100.48885324 222.75284684 102.85769653 221.34591675 C104.53885802 220.33990375 106.20797062 219.3138419 107.87670898 218.28735352 C116.40427137 213.23906335 116.40427137 213.23906335 120.69921875 213.78125 C123.515625 214.75390625 123.515625 214.75390625 124.515625 215.75390625 C124.61407372 217.24387478 124.64361106 218.73847266 124.64501953 220.23168945 C124.64817169 221.18811844 124.65132385 222.14454742 124.65457153 223.12995911 C124.65153519 224.70144966 124.65153519 224.70144966 124.6484375 226.3046875 C124.64987259 227.92941231 124.64987259 227.92941231 124.65133667 229.58695984 C124.65201978 231.8980617 124.65015649 234.20916545 124.64599609 236.52026367 C124.64074745 239.98556105 124.64588468 243.45072286 124.65234375 246.91601562 C124.65797736 252.48197412 124.60403919 258.04559147 124.5319519 263.61102295 C124.51631729 266.62064211 124.57387775 269.62080827 124.64672852 272.62939453 C124.77770004 285.00872382 124.77770004 285.00872382 121.63476562 289.35473633 C118.91903693 291.3811165 116.31867138 292.67568421 113.203125 294.00390625 C111.00029691 295.10997955 108.79851534 296.21813897 106.59765625 297.328125 C105.43830566 297.88032715 104.27895508 298.4325293 103.08447266 299.00146484 C97.63137864 301.67914365 92.41170764 304.73057052 87.16464233 307.78704834 C84.79407943 309.16254655 82.41154014 310.51656112 80.02912903 311.87139893 C73.43280413 315.62533351 66.90292837 319.4816857 60.390625 323.37890625 C52.49234643 328.10196445 44.45805572 332.50558914 36.328125 336.81640625 C26.69104612 341.92852039 17.39130563 347.38316394 8.24609375 353.328125 C7.5917334 353.75013184 6.93737305 354.17213867 6.26318359 354.60693359 C4.80042525 355.56698371 3.36692613 356.57141728 1.94140625 357.5859375 C-1.43058671 359.20948967 -3.77575739 359.14639494 -7.484375 358.75390625 C-9.9476251 357.81635716 -12.06157494 356.86725983 -14.359375 355.62890625 C-15.03226563 355.27908691 -15.70515625 354.92926758 -16.3984375 354.56884766 C-18.77329207 353.31983837 -21.13005839 352.04121067 -23.484375 350.75390625 C-24.40637695 350.24988281 -25.32837891 349.74585938 -26.27832031 349.2265625 C-38.78637637 342.35228326 -51.14752253 335.23344901 -63.45629883 328.00976562 C-71.6845666 323.19138031 -79.98800325 318.51652316 -88.31787109 313.87646484 C-95.9778503 309.60781658 -103.59710593 305.27298804 -111.19116211 300.88818359 C-115.11723418 298.63213711 -119.0533887 296.43178715 -123.0859375 294.37109375 C-123.79089355 294.00935059 -124.49584961 293.64760742 -125.22216797 293.27490234 C-126.51948644 292.6166415 -127.82288655 291.97016771 -129.13330078 291.33837891 C-133.31229911 289.22323074 -133.31229911 289.22323074 -134.14231873 286.95941257 C-134.52086002 284.5186586 -134.60416613 282.21784982 -134.59790039 279.74705505 C-134.5978299 278.73722061 -134.5977594 277.72738617 -134.59768677 276.68695068 C-134.59252045 275.58425842 -134.58735413 274.48156616 -134.58203125 273.34545898 C-134.58057098 272.17880203 -134.57911072 271.01214508 -134.5776062 269.81013489 C-134.57279957 266.6061612 -134.56360856 263.40223334 -134.55283737 260.19827533 C-134.54281507 256.81831096 -134.53933171 253.43834087 -134.53540039 250.05836487 C-134.52336533 240.71200245 -134.50156103 231.36566771 -134.47917175 222.01932526 C-134.45882177 213.5101199 -134.44074976 205.00092564 -134.43095684 196.49170071 C-134.42530108 191.86646413 -134.41178377 187.24129109 -134.39672852 182.61607361 C-134.36802333 168.28863656 -134.6647201 154.01252189 -135.25506592 139.69758606 C-135.5462722 132.51905117 -135.62975328 125.35265487 -135.6171875 118.16796875 C-135.61814423 116.88626801 -135.61910095 115.60456726 -135.62008667 114.2840271 C-135.62075408 111.64166208 -135.61900321 108.99929527 -135.61474609 106.35693359 C-135.61019038 102.98280848 -135.61243285 99.60883332 -135.61831856 96.23472023 C-135.62278851 92.96246689 -135.61967086 89.69022309 -135.6171875 86.41796875 C-135.61921173 85.21604889 -135.62123596 84.01412903 -135.62332153 82.77578735 C-135.62016937 81.66206757 -135.61701721 80.54834778 -135.61376953 79.40087891 C-135.61297394 78.42752594 -135.61217834 77.45417297 -135.61135864 76.45132446 C-135.48311777 73.72719992 -135.2945754 71.36230758 -134.484375 68.75390625 C-131.7846954 67.19842075 -129.28131713 66.00078718 -126.421875 64.81640625 C-118.64224787 61.36686503 -111.29664993 57.48035678 -103.984375 53.12890625 C-95.32724423 47.99070127 -86.61090322 42.99358142 -77.796875 38.12890625 C-69.82653393 33.72584474 -61.87824178 29.29274538 -53.984375 24.75390625 C-45.81425737 20.05959811 -37.59768247 15.45209985 -29.359375 10.87890625 C-28.24498047 10.26015625 -27.13058594 9.64140625 -25.98242188 9.00390625 C-23.84282344 7.81795007 -21.69614129 6.64466824 -19.54199219 5.48535156 C-16.45975627 3.80186321 -16.45975627 3.80186321 -13.62207031 1.76464844 C-8.39863925 -1.7071464 -5.74260376 -3.11903004 0 0 Z " fill="#002333" transform="translate(1670.484375,2.24609375)"/>
<path d="M0 0 C0.01213028 1.83163445 0.01213028 1.83163445 0.02450562 3.70027161 C0.10189954 15.19274064 0.18962165 26.6850903 0.28752708 38.17740345 C0.33753062 44.08609978 0.38386031 49.99477787 0.421875 55.90356445 C0.4586765 61.60298013 0.50502245 67.30224472 0.55806351 73.0015316 C0.57663479 75.17886398 0.59173257 77.35622877 0.60334396 79.53360939 C0.6201596 82.57700793 0.64918335 85.62005837 0.68115234 88.66333008 C0.68331253 89.56891663 0.68547272 90.47450317 0.68769836 91.40753174 C0.69886185 92.23624283 0.71002533 93.06495392 0.7215271 93.91877747 C0.72705786 94.63869779 0.73258862 95.35861811 0.73828697 96.10035419 C0.90473325 98.32938047 0.90473325 98.32938047 3 101 C7.05676455 99.74885179 10.62482505 98.25475619 14.31640625 96.1640625 C15.81929199 95.31775269 15.81929199 95.31775269 17.35253906 94.4543457 C18.41182617 93.85066162 19.47111328 93.24697754 20.5625 92.625 C21.65916992 92.00520264 22.75583984 91.38540527 23.88574219 90.74682617 C27.26054822 88.8371145 30.6307819 86.91955013 34 85 C35.03560059 84.41138184 36.07120117 83.82276367 37.13818359 83.21630859 C41.69481017 80.62598399 46.24878691 78.03107201 50.796875 75.42578125 C51.54388672 75.00377441 52.29089844 74.58176758 53.06054688 74.14697266 C55.13833819 72.96495412 55.13833819 72.96495412 57.453125 71.16796875 C62.35509312 68.9199803 67.44280689 69.06105424 72.48144531 70.91113281 C75.10342402 72.21121025 77.60863395 73.6307843 80.125 75.125 C81.07093018 75.66342529 82.01686035 76.20185059 82.99145508 76.7565918 C86.00806241 78.4817474 89.00505131 80.23755246 92 82 C93.938411 83.12957763 95.87721039 84.25848905 97.81640625 85.38671875 C100.77521601 87.11116629 103.73204124 88.83869347 106.68408203 90.57470703 C114.22535139 95.00228672 121.8428867 99.27640318 129.5 103.5 C139.16928418 108.8334927 148.74065358 114.30657008 158.24902344 119.92163086 C163.20086832 122.83235551 168.17873066 125.66175101 173.24609375 128.3671875 C174.25438232 128.90577393 175.2626709 129.44436035 176.30151367 129.99926758 C178.21163242 131.01197689 180.12689625 132.01506447 182.0480957 133.0065918 C190.37001701 137.41166945 190.37001701 137.41166945 193 142 C193.81915451 145.95202237 194.1349467 149.73863844 194.17408752 153.76831055 C194.19349144 155.45892105 194.19349144 155.45892105 194.21328735 157.1836853 C194.22226044 158.40568634 194.23123352 159.62768738 194.24047852 160.88671875 C194.25347488 162.18493561 194.26647125 163.48315247 194.27986145 164.82070923 C194.39532885 176.745455 194.45232364 188.67100674 194.49662876 200.59620667 C194.52991289 209.40451472 194.58960112 218.21179897 194.68413979 227.01966763 C194.74846639 233.22278963 194.7821635 239.42563228 194.79337829 245.62907505 C194.80093426 249.33083845 194.82207451 253.03136036 194.87640572 256.73275757 C194.936287 260.86024513 194.9328943 264.98536875 194.92407227 269.11328125 C194.95126343 270.33528229 194.97845459 271.55728333 195.00646973 272.8163147 C194.91709165 280.91242715 194.91709165 280.91242715 192.25618553 284.06797791 C190.23223038 285.61530558 188.26423007 286.8403359 186 288 C185.06865234 288.54527344 184.13730469 289.09054687 183.17773438 289.65234375 C182.32501953 290.07644531 181.47230469 290.50054687 180.59375 290.9375 C179.6155127 291.43233887 178.63727539 291.92717773 177.62939453 292.43701172 C176.59669434 292.95279785 175.56399414 293.46858398 174.5 294 C165.88917815 298.38707509 157.44285037 302.95475766 149.125 307.875 C137.33074285 314.84835333 125.3741092 321.50086586 113.38134766 328.12548828 C108.90131258 330.6090774 104.43531697 333.11723828 99.97070312 335.62841797 C96.8424047 337.38559591 93.70892532 339.133192 90.57421875 340.87890625 C87.18084406 342.76972193 83.80822204 344.6878526 80.45703125 346.65234375 C68.81390041 353.38849454 68.81390041 353.38849454 62.6484375 352.75 C56.92247447 351.12848834 51.84504364 348.33672998 46.6640625 345.47265625 C43.60979332 343.78429924 40.53931577 342.12727807 37.46875 340.46875 C19.18543608 330.55027571 1.27365291 320.04354681 -16.515625 309.265625 C-22.86187853 305.44643132 -29.26245261 301.82990707 -35.859375 298.45703125 C-36.46612061 298.14620605 -37.07286621 297.83538086 -37.69799805 297.51513672 C-40.73318317 295.96331275 -43.77425271 294.4265905 -46.82617188 292.90771484 C-47.94056641 292.34391113 -49.05496094 291.78010742 -50.203125 291.19921875 C-51.19989258 290.70252686 -52.19666016 290.20583496 -53.22363281 289.6940918 C-56.43989386 287.73158429 -58.5872741 285.9090314 -61 283 C-61.61803246 279.62746716 -61.61803246 279.62746716 -61.60800171 275.69218445 C-61.6129794 274.96536069 -61.61795709 274.23853694 -61.62308562 273.48968822 C-61.63365297 271.05591375 -61.60851032 268.623835 -61.58349609 266.19018555 C-61.58372293 264.44109441 -61.58613948 262.69200239 -61.59057617 260.94291687 C-61.59629968 256.17436351 -61.57088273 251.40641864 -61.53990126 246.63798118 C-61.51217184 241.58304311 -61.51234728 236.52810102 -61.50918579 231.47309875 C-61.49995665 222.92068183 -61.47242618 214.36848681 -61.43212891 205.81616211 C-61.39140695 197.16934565 -61.36273292 188.52263685 -61.35009766 179.87573242 C-61.34854951 178.82704101 -61.34700136 177.77834961 -61.34540629 176.69787967 C-61.34238092 174.58697246 -61.33940303 172.47606519 -61.33647299 170.36515784 C-61.31746966 156.8619295 -61.28983197 143.35910361 -61.19403076 129.85617065 C-61.18697105 128.8505261 -61.17991134 127.84488154 -61.1726377 126.80876291 C-61.14441229 122.81615478 -61.11611795 118.82354791 -61.08628225 114.83095145 C-61.00121128 103.11785611 -61.0092618 91.41317473 -61.17887688 79.70094967 C-61.25533969 74.37321653 -61.28797767 69.04555316 -61.30607903 63.7173267 C-61.32072439 60.28781548 -61.35975426 56.86279332 -61.46235275 53.4346981 C-61.9943144 33.85187095 -61.9943144 33.85187095 -58.6626358 29.08756828 C-54.94002264 25.53408216 -50.74949154 23.82434393 -46 22 C-43.86754384 20.81146288 -41.749502 19.59614221 -39.65625 18.33984375 C-37.60689534 17.20080584 -35.5547876 16.0667076 -33.5 14.9375 C-24.94710101 10.24355952 -24.94710101 10.24355952 -16.5234375 5.32421875 C-15.89115234 4.94467041 -15.25886719 4.56512207 -14.60742188 4.17407227 C-13.0205402 3.21313222 -11.44333825 2.23625413 -9.8671875 1.2578125 C-6.40599029 -0.26058737 -3.74335128 -0.08861631 0 0 Z M58.1796875 142.5703125 C57.18074463 143.13041016 56.18180176 143.69050781 55.15258789 144.26757812 C54.07098389 144.88052734 52.98937988 145.49347656 51.875 146.125 C50.76439209 146.75083984 49.65378418 147.37667969 48.50952148 148.02148438 C36.93779724 154.56248584 25.44432795 161.23868182 14 168 C12.59403564 168.82564453 12.59403564 168.82564453 11.15966797 169.66796875 C10.26006348 170.20035156 9.36045898 170.73273438 8.43359375 171.28125 C7.2259436 171.9937793 7.2259436 171.9937793 5.99389648 172.72070312 C3.88242999 173.97537347 3.88242999 173.97537347 2 176 C1.5457752 178.93199157 1.5457752 178.93199157 1.40795898 182.43066406 C1.3707222 183.09121796 1.33348541 183.75177185 1.29512024 184.43234253 C0.97065386 190.55694474 0.78731171 196.6882342 0.64405727 202.81949234 C0.54680032 206.93475563 0.40607404 211.03748925 0.1550293 215.14648438 C-1.53698442 232.78937029 -1.53698442 232.78937029 4.11663818 248.79589844 C9.48562003 253.48517876 15.57145169 256.30461653 22.17044067 258.87536621 C25.8642121 260.34348887 29.1185202 262.21178789 32.546875 264.21875 C34.61098711 265.31927169 36.67852019 266.41340982 38.75 267.5 C40.8490915 268.61433252 42.94805117 269.7289134 45.046875 270.84375 C46.03623047 271.36195313 47.02558594 271.88015625 48.04492188 272.4140625 C50.06158598 273.49637 52.05739374 274.6182315 54.03320312 275.7734375 C54.99677734 276.33289063 55.96035156 276.89234375 56.953125 277.46875 C57.80551758 277.97857422 58.65791016 278.48839844 59.53613281 279.01367188 C62.57962644 280.23203437 63.90911791 280.00964383 67 279 C68.69679039 278.22281426 70.36301274 277.3767879 72 276.48046875 C72.9590625 275.9587207 73.918125 275.43697266 74.90625 274.89941406 C75.9271875 274.33448242 76.948125 273.76955078 78 273.1875 C79.59328125 272.31496582 79.59328125 272.31496582 81.21875 271.42480469 C89.76313189 266.72793762 98.24236141 261.91954403 106.6875 257.046875 C113.76641856 252.986907 120.88747216 249.00079691 128 245 C128 222.23 128 199.46 128 176 C119.09 171.05 110.18 166.1 101 161 C88.0625 153.5 88.0625 153.5 82.47265625 150.21875 C81.58980957 149.70054687 80.70696289 149.18234375 79.79736328 148.6484375 C77.76607416 147.45143417 75.73893855 146.24737364 73.71435547 145.0390625 C72.6317041 144.39710938 71.54905273 143.75515625 70.43359375 143.09375 C68.9475061 142.20719727 68.9475061 142.20719727 67.43139648 141.30273438 C63.42044606 139.15368011 61.9672069 140.43944456 58.1796875 142.5703125 Z " fill="#002333" transform="translate(514,6)"/>
<path d="M0 0 C2.22168306 1.1320843 4.35814717 2.35669976 6.5 3.63330078 C7.29043701 4.08850098 8.08087402 4.54370117 8.89526367 5.01269531 C11.27431942 6.38957771 13.63921813 7.78785543 16 9.19580078 C16.64533691 9.57978027 17.29067383 9.96375977 17.95556641 10.359375 C20.35020107 11.78842077 22.74057198 13.22422441 25.12548828 14.66943359 C38.02210137 22.47270928 51.2220486 29.77420208 64.375 37.13330078 C65.94072754 38.0100647 65.94072754 38.0100647 67.53808594 38.90454102 C72.74452458 41.81900609 77.95477608 44.72624176 83.171875 47.62158203 C91.82562325 52.4413112 100.44968903 57.28300191 108.75 62.69580078 C109.35215332 63.0809082 109.95430664 63.46601563 110.57470703 63.86279297 C115.39584416 67.09957877 117.87491955 70.53573112 119 76.19580078 C119.09007048 78.01359726 119.12627125 79.83437725 119.12698364 81.65440369 C119.12980347 82.76334488 119.13262329 83.87228607 119.13552856 85.01483154 C119.13249222 86.83292328 119.13249222 86.83292328 119.12939453 88.68774414 C119.13202301 90.60778008 119.13202301 90.60778008 119.13470459 92.56660461 C119.13926222 96.07486568 119.13749609 99.58309732 119.1343255 103.0913589 C119.13179275 106.76456579 119.13414205 110.43777018 119.13571167 114.11097717 C119.13753091 120.28045097 119.13513371 126.44991279 119.13037109 132.61938477 C119.12493135 139.74824577 119.12669002 146.87707816 119.1321975 154.00593847 C119.13673847 160.12919132 119.13737428 166.25243557 119.13475883 172.37568957 C119.13320117 176.03164772 119.13298826 179.68759244 119.13629532 183.34354973 C119.13972559 187.42053796 119.13496819 191.49747703 119.12939453 195.57446289 C119.13141876 196.78449982 119.13344299 197.99453674 119.13552856 199.24124146 C119.13270874 200.35300247 119.12988892 201.46476349 119.12698364 202.61021423 C119.1264181 204.05562796 119.1264181 204.05562796 119.12584114 205.53024197 C118.99938693 208.20878671 118.70857034 210.60886799 118 213.19580078 C116.01660156 214.76635742 116.01660156 214.76635742 113.390625 216.10595703 C112.41955811 216.61433105 111.44849121 217.12270508 110.44799805 217.64648438 C109.39265869 218.17838379 108.33731934 218.7102832 107.25 219.25830078 C105.0314206 220.41629181 102.81399102 221.57648816 100.59765625 222.73876953 C99.48148926 223.31933105 98.36532227 223.89989258 97.21533203 224.49804688 C92.64148368 226.91312216 88.16195512 229.47746104 83.6875 232.07080078 C75.7088666 236.66920271 67.6808507 241.17159011 59.625 245.63330078 C51.18837537 250.3069974 42.76731116 255.00547514 34.375 259.75830078 C33.4586377 260.27545654 32.54227539 260.7926123 31.59814453 261.32543945 C26.47073255 264.22075573 21.35841278 267.14020058 16.2578125 270.08251953 C14.00529495 271.37043146 11.75269268 272.65819521 9.5 273.94580078 C8.45505371 274.55496338 7.41010742 275.16412598 6.33349609 275.79174805 C-3.45967485 281.3632834 -3.45967485 281.3632834 -9 281.19580078 C-11.62850454 280.2134304 -13.77138565 279.23713122 -16.1875 277.88330078 C-17.6048667 277.12956339 -19.02286521 276.37701322 -20.44140625 275.62548828 C-21.18406738 275.22555664 -21.92672852 274.825625 -22.69189453 274.41357422 C-25.01147879 273.18974449 -27.35339289 272.03185929 -29.71484375 270.89111328 C-39.60310873 266.10643689 -49.09886015 260.88527775 -58.51074219 255.22216797 C-65.2033351 251.21035502 -71.99362042 247.43578786 -78.875 243.75830078 C-90.19405666 237.69797164 -101.29272734 231.30384101 -112.33837891 224.76025391 C-114.77978379 223.32523992 -117.23473779 221.91881455 -119.69921875 220.52392578 C-120.74130493 219.92499512 -120.74130493 219.92499512 -121.80444336 219.31396484 C-123.58940518 218.28809897 -125.38035804 217.27267568 -127.171875 216.25830078 C-130.38047654 213.91832618 -132.50141991 211.86071417 -134 208.19580078 C-134.580563 204.11485513 -134.52584113 200.07112408 -134.48583984 195.95507812 C-134.48963654 194.72502045 -134.49343323 193.49496277 -134.49734497 192.22763062 C-134.50347473 188.86328281 -134.49176491 185.49992271 -134.47143888 182.13569212 C-134.45380086 178.60191223 -134.45739444 175.06814721 -134.4581604 171.53433228 C-134.45628885 165.59441275 -134.43895385 159.65469784 -134.41162109 153.71484375 C-134.38025872 146.87460036 -134.36962208 140.03458158 -134.3710922 133.19427145 C-134.37245069 125.88307724 -134.35851693 118.57196819 -134.34019899 111.26079988 C-134.3359629 109.16927922 -134.33452022 107.07777257 -134.33372116 104.98624802 C-134.33131103 101.06171703 -134.31177689 97.13736668 -134.29052734 93.21289062 C-134.29143372 92.06856567 -134.29234009 90.92424072 -134.29327393 89.74523926 C-134.17309373 74.46078673 -134.17309373 74.46078673 -132 68.19580078 C-128.82449558 65.19640149 -125.42832171 63.43989381 -121.5 61.57080078 C-120.46061279 61.03140869 -119.42122559 60.4920166 -118.3503418 59.9362793 C-116.23853491 58.8409263 -114.11828581 57.76169002 -111.98974609 56.69921875 C-107.86474055 54.6249264 -103.83860111 52.39184531 -99.8125 50.13330078 C-99.09650635 49.73812256 -98.3805127 49.34294434 -97.64282227 48.93579102 C-91.990139 45.80426647 -86.46051567 42.48706863 -80.9375 39.13330078 C-74.25909977 35.07885441 -67.51491598 31.28271045 -60.57397461 27.69946289 C-54.58591268 24.57752954 -48.79431795 21.16192889 -43 17.69580078 C-33.82122248 12.20909448 -24.52133844 7.06179454 -15 2.19580078 C-13.9996875 1.62087891 -12.999375 1.04595703 -11.96875 0.45361328 C-7.74999528 -1.33380648 -4.34175554 -1.74581821 0 0 Z M-17.375 74.82080078 C-18.19154053 75.21468994 -19.00808105 75.6085791 -19.84936523 76.0144043 C-28.7085394 80.38634579 -37.18215649 85.41224518 -45.66015625 90.47314453 C-53.6681896 95.23282615 -61.84127327 99.7012804 -70 104.19580078 C-70.23214892 113.2013364 -70.40959919 122.2058361 -70.51812172 131.21371555 C-70.57022107 135.39705454 -70.64081846 139.57834073 -70.75439453 143.76049805 C-70.8634091 147.80017525 -70.92291076 151.83788464 -70.94877243 155.8789196 C-70.96718909 157.41692022 -71.00315895 158.95481809 -71.05730057 160.49197578 C-71.5618475 169.15155545 -71.5618475 169.15155545 -67.89343262 176.63426208 C-65.33004717 178.46351152 -62.84261737 179.84974406 -60 181.19580078 C-58.23046684 182.1980464 -56.464325 183.20632673 -54.703125 184.22314453 C-52.88842422 185.19881133 -51.0706389 186.16876016 -49.25 187.13330078 C-47.31328476 188.17530859 -45.37708639 189.21827763 -43.44140625 190.26220703 C-42.51086426 190.76252441 -41.58032227 191.2628418 -40.62158203 191.77832031 C-33.24570038 195.76643438 -25.9146045 199.81629587 -19 204.57080078 C-13.27434193 208.42642741 -8.80920077 209.67996687 -1.94995117 208.92114258 C4.10581438 207.43213493 9.18851119 203.72471095 14.375 200.38330078 C15.60971246 199.60696093 16.84564891 198.83256457 18.08276367 198.06005859 C20.55874169 196.51220081 23.02935281 194.95629112 25.49658203 193.39453125 C31.15777453 189.82438719 36.93086274 186.44089052 42.69482422 183.0402832 C43.43104004 182.60176025 44.16725586 182.1632373 44.92578125 181.71142578 C45.54880127 181.34307617 46.17182129 180.97472656 46.8137207 180.59521484 C47.53519287 180.1334082 48.25666504 179.67160156 49 179.19580078 C49.57995224 178.95188095 50.15990448 178.70796112 50.75743103 178.45664978 C53.08412907 177.2638327 54.38755836 176.27445872 56 174.19580078 C57.27772333 169.21503824 57.40320654 164.2192655 57.52734375 159.10595703 C57.55087984 158.3667697 57.57441593 157.62758236 57.59866524 156.86599541 C57.7210321 152.94650631 57.80090477 149.02877139 57.84643555 145.10766602 C57.89049866 141.88367442 58.00805736 138.67609649 58.19506836 135.45727539 C59.75851301 118.06442743 59.75851301 118.06442743 53.79602051 102.45828247 C48.1547932 97.7981519 41.78954172 95.01936932 35.00552368 92.40567017 C30.89587962 90.75133865 27.26356774 88.5653828 23.5234375 86.21533203 C22.30966105 85.49582511 21.09357372 84.78019958 19.875 84.06884766 C18.09092441 83.0189072 16.30724253 81.96831672 14.52441406 80.91625977 C12.7126327 79.84749898 10.89941432 78.78121273 9.0859375 77.71533203 C8.0551709 77.10794189 7.0244043 76.50055176 5.96240234 75.87475586 C-3.29797761 70.62639317 -7.94727482 70.18507951 -17.375 74.82080078 Z " fill="#002333" transform="translate(296,76.80419921875)"/>
<path d="M0 0 C2.71887966 0.99398334 5.17309352 2.32330981 7.6875 3.75 C8.78553955 4.35183105 8.78553955 4.35183105 9.90576172 4.96582031 C16.41452444 8.57341693 22.78326969 12.41890356 29.14453125 16.27880859 C41.30640205 23.64662888 53.75311259 30.51886452 66.171875 37.44140625 C76.8015486 43.36936581 87.40640574 49.33571558 97.9375 55.4375 C98.90163818 55.99236084 99.86577637 56.54722168 100.85913086 57.11889648 C105.50633778 59.82614534 110.0839639 62.62461594 114.56640625 65.59765625 C115.37150635 66.13011963 116.17660645 66.66258301 117.00610352 67.21118164 C120.86817777 70.67603018 121.28528042 75.05577852 122 80 C122.08713624 81.83041403 122.13038172 83.66335047 122.13371277 85.49583435 C122.14011024 87.0959285 122.14011024 87.0959285 122.14663696 88.72834778 C122.14618378 89.8833226 122.14573059 91.03829742 122.14526367 92.22827148 C122.14862228 93.45660706 122.1519809 94.68494263 122.15544128 95.95050049 C122.16329699 99.30796511 122.16661785 102.66536788 122.16725707 106.0228374 C122.16796945 108.12316383 122.1701073 110.22348384 122.17275429 112.32380867 C122.18199492 119.65866633 122.18609066 126.99350585 122.18530273 134.32836914 C122.18470185 141.15392343 122.19525901 147.97939871 122.2110464 154.80493301 C122.2241399 160.67603152 122.22948589 166.54710425 122.22884732 172.41821724 C122.22859293 175.91997279 122.23141202 179.42165803 122.24202538 182.92339897 C122.25354294 186.82974182 122.24894845 190.73597694 122.24291992 194.64233398 C122.24853943 195.79528458 122.25415894 196.94823517 122.25994873 198.13612366 C122.23774287 203.7983785 122.04955068 208.6894909 120 214 C118.27368164 215.65820312 118.27368164 215.65820312 116.16015625 216.78125 C115.35852051 217.22267334 114.55688477 217.66409668 113.73095703 218.11889648 C112.85036621 218.57466064 111.96977539 219.0304248 111.0625 219.5 C109.67587158 220.25422241 109.67587158 220.25422241 108.26123047 221.02368164 C106.24768576 222.11836136 104.22921634 223.2040192 102.20654297 224.28173828 C97.78898498 226.64893587 93.41502189 229.09174063 89.03833008 231.53344727 C85.59680577 233.45322755 82.15033765 235.36389356 78.703125 237.2734375 C72.57671003 240.67329973 66.47108973 244.10861282 60.375 247.5625 C50.40344411 253.21212633 40.40998145 258.82162259 30.40625 264.4140625 C26.51361287 266.59070749 22.62427391 268.77301574 18.73916626 270.96305847 C16.99241071 271.94760135 15.24498909 272.93096219 13.49755859 273.91430664 C11.29099996 275.15623464 9.08554968 276.40013445 6.88134766 277.64624023 C5.89183105 278.20255127 4.90231445 278.7588623 3.8828125 279.33203125 C2.57401123 280.07030151 2.57401123 280.07030151 1.23876953 280.82348633 C-3.27320019 283.1946076 -3.27320019 283.1946076 -6.14453125 282.42578125 C-17.20170747 277.81187902 -27.54761043 271.82421708 -38 266 C-39.61944669 265.10354319 -41.23921849 264.20767332 -42.859375 263.3125 C-50.54279707 259.06216614 -58.20143305 254.76859593 -65.84594727 250.44873047 C-69.3811548 248.45583753 -72.92836535 246.4888239 -76.49609375 244.5546875 C-89.85604027 237.30316573 -102.94914899 229.63750773 -115.97363281 221.80224609 C-117.95513543 220.62223219 -119.94905499 219.46276652 -121.95605469 218.32666016 C-122.85485352 217.81280762 -123.75365234 217.29895508 -124.6796875 216.76953125 C-125.46843262 216.32843018 -126.25717773 215.8873291 -127.06982422 215.43286133 C-129.34644978 213.74281384 -129.95652059 212.6224923 -131 210 C-131.25168228 207.47145557 -131.25168228 207.47145557 -131.25396729 204.5683136 C-131.25960693 203.46515305 -131.26524658 202.36199249 -131.27105713 201.22540283 C-131.26700867 200.01962585 -131.26296021 198.81384888 -131.25878906 197.5715332 C-131.2622937 196.29793442 -131.26579834 195.02433563 -131.26940918 193.71214294 C-131.27852667 190.22011263 -131.27499038 186.72820052 -131.26865101 183.23616815 C-131.26358225 179.57550761 -131.2682854 175.9148571 -131.27142334 172.25419617 C-131.27506273 166.10149321 -131.270267 159.94883825 -131.26074219 153.79614258 C-131.24988184 146.69914169 -131.25336565 139.60225595 -131.264395 132.5052579 C-131.27349757 126.40231704 -131.27473795 120.29941067 -131.26951766 114.19646519 C-131.26641113 110.55601474 -131.2659517 106.9156182 -131.27259064 103.27517128 C-131.27948827 99.2085258 -131.26990301 95.1420756 -131.25878906 91.07543945 C-131.26283752 89.87978363 -131.26688599 88.68412781 -131.27105713 87.45223999 C-131.2042357 74.2143777 -131.2042357 74.2143777 -129 69 C-126.72177952 66.88558838 -124.30928104 65.67715995 -121.5 64.375 C-119.86660799 63.54405292 -118.23521709 62.70916467 -116.60546875 61.87109375 C-115.71263184 61.4210498 -114.81979492 60.97100586 -113.89990234 60.50732422 C-108.43487065 57.66668558 -103.13552196 54.53364516 -97.8125 51.4375 C-96.12205566 50.46115601 -96.12205566 50.46115601 -94.39746094 49.46508789 C-88.64493904 46.1389632 -82.92300831 42.77220306 -77.25 39.3125 C-70.43493963 35.16203335 -63.42804471 31.38222842 -56.40893555 27.59008789 C-50.23165472 24.24421595 -44.12617344 20.79727377 -38.0625 17.25 C-31.22275761 13.24946318 -24.31604107 9.43023418 -17.296875 5.75390625 C-15.59472317 4.84837761 -13.89386804 3.93185369 -12.27148438 2.89013672 C-7.95762946 0.15618918 -5.06783688 -0.6928465 0 0 Z M-15.375 76.125 C-16.28475586 76.56585938 -17.19451172 77.00671875 -18.13183594 77.4609375 C-28.265896 82.47118927 -38.18765152 88.03525884 -47.69360352 94.15820312 C-50.39341955 95.6621101 -52.54666041 96.54056242 -55.44506836 97.45117188 C-60.63656962 99.32893376 -64.84192647 101.31813138 -68 106 C-70.88498309 115.54552559 -70.41561963 125.81202942 -70.16137695 135.68505859 C-70.05878081 139.69873797 -70.10570813 143.69469678 -70.19280434 147.70815277 C-70.97407778 163.11829628 -70.97407778 163.11829628 -66.51629639 177.35913086 C-62.92580799 180.93611981 -58.81869191 182.73702513 -54.05270386 184.29516602 C-51.07001798 185.3193266 -48.46630908 186.88196621 -45.75 188.46875 C-43.83554642 189.48335359 -41.91888281 190.49379837 -40 191.5 C-32.10763846 195.69771894 -24.3969208 200.04473935 -16.90820312 204.9296875 C-11.08753071 208.70700094 -7.04884915 210.57840666 0 210 C10.43302565 206.27391941 19.97146943 199.43687612 29.29296875 193.57421875 C36.40973786 189.09864764 43.60597122 184.75498995 50.80053711 180.40600586 C51.72745361 179.84405518 52.65437012 179.28210449 53.609375 178.703125 C54.43405273 178.20458008 55.25873047 177.70603516 56.10839844 177.19238281 C57.93587226 176.13783236 57.93587226 176.13783236 59 175 C59.14157154 172.91622225 59.21252587 170.82762356 59.25634766 168.73950195 C59.27095032 168.08575089 59.28555298 167.43199982 59.30059814 166.75843811 C59.42676152 160.71656511 59.49538172 154.67335987 59.54844093 148.63044453 C59.58419065 144.56946556 59.63744069 140.51046981 59.73388672 136.45043945 C59.82682935 132.52628821 59.87537922 128.60389094 59.89283371 124.6787014 C59.90691215 123.18461665 59.93651863 121.69059239 59.98213577 120.19713783 C60.48115395 111.98617466 60.48115395 111.98617466 57.16470337 104.85121155 C54.84243999 103.27390231 52.56990466 102.12060928 50 101 C48.88383301 100.31784424 47.76766602 99.63568848 46.61767578 98.93286133 C45.5707959 98.3220874 44.52391602 97.71131348 43.4453125 97.08203125 C42.86508835 96.74253952 42.2848642 96.40304779 41.6870575 96.05326843 C39.8345962 94.97031746 37.97988049 93.89130111 36.125 92.8125 C34.83801809 92.0613978 33.55115387 91.3100939 32.2644043 90.55859375 C28.51193617 88.36837658 24.75629054 86.18365307 21 84 C19.95505371 83.3920459 18.91010742 82.7840918 17.83349609 82.15771484 C1.93474496 72.01332089 1.93474496 72.01332089 -15.375 76.125 Z " fill="#002333" transform="translate(873,75)"/>
<path d="M0 0 C1.71411183 1.18418427 3.42458489 2.37631393 5.07861328 3.64306641 C8.35354544 6.01467679 11.8715645 7.9411046 15.38061523 9.94287109 C18.47923498 11.71131904 21.55292262 13.51792383 24.625 15.33203125 C32.41349291 19.90265934 40.29627316 24.29715986 48.19067383 28.68188477 C49.18607178 29.23545654 50.18146973 29.78902832 51.20703125 30.359375 C52.08593018 30.84631836 52.9648291 31.33326172 53.87036133 31.83496094 C55.66405343 32.8612597 57.40552815 33.97868544 59.125 35.125 C60.15053458 39.25019184 60.25968742 43.28950629 60.28613281 47.52587891 C60.29574036 48.77382233 60.3053479 50.02176575 60.31524658 51.30752563 C60.32009286 52.65553605 60.32437211 54.0035486 60.328125 55.3515625 C60.33236607 56.37839708 60.33236607 56.37839708 60.33669281 57.4259758 C60.35162214 61.04212575 60.36089354 64.65823638 60.36523438 68.27441406 C60.37073823 72.00470363 60.39482371 75.73463173 60.42320633 79.46480751 C60.4418298 82.34043439 60.44703794 85.21597364 60.44857025 88.09165573 C60.45159336 89.46716686 60.45961042 90.84267657 60.47275543 92.2181282 C60.4898226 94.13964858 60.48608988 96.0613196 60.48144531 97.98291016 C60.48691376 99.62122299 60.48691376 99.62122299 60.49249268 101.29263306 C60.08370585 104.44326538 59.24321774 105.80839893 57.125 108.125 C53.06647527 107.52612575 50.1029746 106.21243096 46.5390625 104.203125 C45.45383301 103.5956543 44.36860352 102.98818359 43.25048828 102.36230469 C42.08356184 101.7000407 40.91673458 101.03760193 39.75 100.375 C38.54833938 99.69896614 37.34634969 99.02351692 36.14404297 98.34863281 C33.06799457 96.61984532 29.9965836 94.88298914 26.92626953 93.14404297 C24.08907835 91.53894186 21.24746172 89.94172044 18.40625 88.34375 C14.50054362 86.14425566 10.59580114 83.94311114 6.6953125 81.734375 C5.92977051 81.30092773 5.16422852 80.86748047 4.37548828 80.42089844 C1.94025811 79.0186201 -0.46692523 77.57331474 -2.875 76.125 C-2.87831015 77.2045184 -2.88162029 78.28403681 -2.88503075 79.39626789 C-2.96593984 105.63468014 -3.0582291 131.87303342 -3.16252708 158.11136341 C-3.21269944 170.79989727 -3.25914177 183.48842451 -3.296875 196.17700195 C-3.32976358 207.23330809 -3.36957732 218.2895636 -3.41779006 229.34581393 C-3.44308627 235.20276251 -3.46485828 241.05967736 -3.47834396 246.91666603 C-3.49113603 252.42496158 -3.5131594 257.93314168 -3.54238319 263.44137383 C-3.55148137 265.46708557 -3.55715439 267.49281593 -3.55921364 269.51854706 C-3.5625204 272.27643861 -3.57795454 275.03399965 -3.5965271 277.79182434 C-3.59459237 278.60018496 -3.59265763 279.40854558 -3.59066427 280.24140197 C-3.629374 284.06538154 -3.70236851 285.86605276 -5.875 289.125 C-13.37522755 287.24743165 -19.60820276 284.35043254 -26.25 280.4375 C-28.25386424 279.2798752 -30.25777264 278.12232683 -32.26171875 276.96484375 C-33.32052246 276.34851074 -34.37932617 275.73217773 -35.47021484 275.09716797 C-39.12085079 272.98259482 -42.78646267 270.8960957 -46.45703125 268.81640625 C-48.36682548 267.73272028 -50.27647507 266.64877981 -52.18609619 265.56478882 C-53.43025615 264.85877468 -54.67467888 264.15322339 -55.91937256 263.44815063 C-57.67046269 262.45515548 -59.41926056 261.45812138 -61.16796875 260.4609375 C-62.1736792 259.88907715 -63.17938965 259.3172168 -64.21557617 258.72802734 C-70.64105956 254.85492315 -70.64105956 254.85492315 -71.47043103 252.2671814 C-72.13886491 248.72784266 -72.08266377 245.15325653 -72.12983704 241.5625 C-72.14480278 240.68958533 -72.15976852 239.81667067 -72.17518777 238.91730404 C-72.22373925 235.98659207 -72.26501868 233.05582825 -72.3059082 230.125 C-72.33836273 228.02567832 -72.37096417 225.92635891 -72.40370178 223.82704163 C-72.69204341 204.65926494 -72.85951455 185.49007591 -72.99337482 166.32066345 C-73.08547018 153.43520707 -73.21529118 140.55236485 -73.4387207 127.66845703 C-73.63369616 116.42340312 -73.75806324 105.180182 -73.79744023 93.93346596 C-73.82060999 87.98300999 -73.87825248 82.03753047 -74.0201664 76.08862305 C-74.15256138 70.48561071 -74.18969497 64.88982336 -74.15544701 59.285429 C-74.1593362 57.23569996 -74.1972215 55.18569371 -74.27256775 53.13734627 C-74.71336986 40.51328293 -74.71336986 40.51328293 -71.875 35.125 C-66.90850598 30.09571654 -60.58647948 27.08694347 -54.21549642 24.20183754 C-51.23229371 22.82929766 -48.47578213 21.22414584 -45.6640625 19.53125 C-42.9981601 18.02071341 -40.32386106 16.52783857 -37.64086914 15.04785156 C-32.66508422 12.29752145 -27.80029508 9.46962555 -23.01953125 6.390625 C-7.27924605 -3.50319217 -7.27924605 -3.50319217 0 0 Z " fill="#002333" transform="translate(71.875,72.875)"/>
<path d="M0 0 C2.5703125 1.17993164 2.5703125 1.17993164 5.125 2.66015625 C6.07141357 3.2022876 7.01782715 3.74441895 7.99291992 4.30297852 C8.98525635 4.88362061 9.97759277 5.4642627 11 6.0625 C12.03165283 6.65667725 13.06330566 7.25085449 14.1262207 7.86303711 C16.17425966 9.04314585 18.22030027 10.22673063 20.26416016 11.4140625 C22.47503683 12.69568439 24.69141121 13.96469106 26.91796875 15.21875 C29.08062421 16.43831198 31.23080969 17.68028289 33.3671875 18.9453125 C36.26283832 20.63709691 39.23899833 22.09514715 42.2578125 23.5546875 C44.10988981 24.51463239 45.96145374 25.47556845 47.8125 26.4375 C48.70412842 26.83654541 49.59575684 27.23559082 50.5144043 27.64672852 C53.37003335 29.18488871 54.97548816 30.45270998 57 33 C57.60614586 36.22191525 57.60614586 36.22191525 57.74642944 40.17185974 C57.7752544 40.91045146 57.80407935 41.64904319 57.83377779 42.41001648 C58.20182352 53.35161383 58.09182171 64.30857948 58.03759766 75.25415039 C58.02907261 77.76315161 58.02100348 80.27215441 58.01335144 82.78115845 C57.99357552 88.85559951 57.96888117 94.93000178 57.9417484 101.0044129 C57.9197319 105.9612274 57.89992526 110.91804641 57.88163376 115.87487602 C57.87770057 116.94065158 57.87770057 116.94065158 57.87368792 118.02795796 C57.86836897 119.4724796 57.86305619 120.91700127 57.85774951 122.36152297 C57.81071258 135.10651399 57.75832921 147.85147753 57.703125 160.59643555 C57.64998055 172.86595199 57.6013793 185.13547578 57.55761719 197.4050293 C57.50969307 210.84011878 57.45897088 224.2751928 57.40379179 237.71025461 C57.39785857 239.15595686 57.39192723 240.60165911 57.38599777 242.04736137 C57.38307939 242.75815088 57.380161 243.46894038 57.37715418 244.20126896 C57.35713065 249.11893162 57.33895754 254.03659898 57.32149124 258.95427132 C57.13946446 309.52809809 57.13946446 309.52809809 56.71312785 331.90843856 C56.68184481 333.62813831 56.65522158 335.34793031 56.63367963 337.06777966 C56.60320123 339.3733701 56.554194 341.67777345 56.49935913 343.9828949 C56.46343942 345.8884775 56.46343942 345.8884775 56.42679405 347.83255672 C55.97738246 351.16785564 55.27621909 352.58021313 53 355 C49.40374264 353.64439137 46.13737533 352.03871198 42.80859375 350.12109375 C41.79418213 349.53739014 40.77977051 348.95368652 39.73461914 348.35229492 C38.64656982 347.7204126 37.55852051 347.08853027 36.4375 346.4375 C34.74451782 345.45777222 34.74451782 345.45777222 33.01733398 344.45825195 C3.39721177 327.26480785 3.39721177 327.26480785 -9 319 C-9.32004091 316.54261346 -9.4373815 314.33187633 -9.43237305 311.8684082 C-9.44256186 311.11359633 -9.45275068 310.35878447 -9.46324825 309.58109951 C-9.49410187 306.98758835 -9.5028407 304.39445527 -9.51171875 301.80078125 C-9.52880861 299.88160214 -9.54702667 297.96243281 -9.56625366 296.04327393 C-9.61583026 290.62401746 -9.64463994 285.20480721 -9.66975784 279.78538895 C-9.68748702 276.31504028 -9.7109901 272.84478057 -9.73654175 269.3744812 C-10.39264189 179.92035143 -10.08549442 90.45574149 -10 1 C-6.19929412 -1.11916037 -4.2648849 -1.09911673 0 0 Z " fill="#002333" transform="translate(1035,5)"/>
</svg>
