<?xml version="1.0" encoding="UTF-8"?>
<svg version="1.1" xmlns="http://www.w3.org/2000/svg" width="1795" height="361">
<path d="M0 0 C2.35645776 1.25971533 4.56623048 2.64490836 6.79614258 4.11694336 C8.05068237 4.90705811 8.05068237 4.90705811 9.33056641 5.71313477 C11.15603889 6.86772987 12.9747335 8.03309422 14.78735352 9.20776367 C17.93605088 11.24810287 21.10265402 13.2583952 24.27270508 15.26538086 C30.44676997 19.18479307 36.60099355 23.13305888 42.73364258 27.11694336 C43.60778809 27.67712158 44.48193359 28.2372998 45.38256836 28.81445312 C46.18549316 29.33579834 46.98841797 29.85714355 47.81567383 30.39428711 C48.51539307 30.84537842 49.2151123 31.29646973 49.93603516 31.76123047 C53.56044699 34.49467592 55.30548137 37.83245972 56.73364258 42.11694336 C56.82931245 43.53827267 56.87086043 44.96361641 56.8778944 46.38814449 C56.88795616 47.70272716 56.88795616 47.70272716 56.89822119 49.04386705 C56.90056354 50.00746206 56.90290589 50.97105707 56.90531921 51.96385193 C56.91484288 53.49857945 56.91484288 53.49857945 56.92455894 55.06431156 C56.94467721 58.50950052 56.95768055 61.95467977 56.97070312 65.39990234 C56.9835517 67.86360378 56.99680597 70.32730313 57.01043701 72.79100037 C57.04239898 78.80044425 57.06959556 84.809892 57.09423979 90.81936895 C57.11430238 95.70764571 57.13589917 100.59591324 57.15857887 105.48417854 C57.22272229 119.35070663 57.282631 133.21724397 57.33726098 147.08381283 C57.34020802 147.83168682 57.34315506 148.57956081 57.34619141 149.35009766 C57.34914114 150.09888835 57.35209087 150.84767904 57.35512999 151.61916036 C57.40312089 163.73564668 57.46120406 175.85206076 57.52388909 187.96847915 C57.58817215 200.41682008 57.64476602 212.86517581 57.69345695 225.31358773 C57.7209395 232.29926056 57.7515595 239.28488652 57.79047203 246.27050591 C57.82704396 252.84743918 57.85293367 259.42435552 57.87174988 266.00136757 C57.88029788 268.41034328 57.89231686 270.81930966 57.90813637 273.2282486 C57.92925301 276.52793883 57.93760663 279.82743368 57.94291687 283.12718201 C57.95646864 284.54245978 57.95646864 284.54245978 57.97029418 285.98632902 C57.95589621 297.60200587 56.7242374 308.20589605 48.73364258 317.11694336 C46.39681477 318.67964279 44.12042356 320.0714727 41.67114258 321.42944336 C40.16387623 322.28879593 38.65742629 323.14958135 37.15161133 324.01147461 C36.30775879 324.49181152 35.46390625 324.97214844 34.59448242 325.46704102 C31.30519819 327.36403563 28.04290365 329.30446021 24.78442383 331.25366211 C24.18335312 331.61269119 23.58228241 331.97172028 22.96299744 332.34162903 C20.53484101 333.79217731 18.10683442 335.24294805 15.68161011 336.69839478 C13.96659871 337.72670319 12.2486035 338.7500301 10.53051758 339.77319336 C9.03536621 340.66748047 9.03536621 340.66748047 7.51000977 341.57983398 C1.81866391 344.73079367 -1.85016387 345.1996539 -8.26635742 345.11694336 C-8.27132264 343.18265944 -8.27132264 343.18265944 -8.27638817 341.20929909 C-8.35545528 310.57871564 -8.44469392 279.94818052 -8.54640903 249.31766454 C-8.55892747 245.54519132 -8.57136031 241.77271782 -8.58374023 238.00024414 C-8.58743923 236.87372641 -8.58743923 236.87372641 -8.59121294 235.72445075 C-8.63090523 223.57414872 -8.66366817 211.42383744 -8.69385724 199.2735085 C-8.72500314 186.80035557 -8.76362591 174.32724184 -8.80914748 161.85413301 C-8.83698815 154.16144371 -8.85904029 146.46878298 -8.87361993 138.77605693 C-8.88543708 132.87106179 -8.90767153 126.96613426 -8.93374062 121.06118393 C-8.9427967 118.64333371 -8.94850202 116.22546822 -8.95057106 113.80760193 C-8.95390746 110.50042177 -8.96942248 107.19350851 -8.98788452 103.88638306 C-8.98498242 102.45929722 -8.98498242 102.45929722 -8.98202169 101.00338137 C-9.0417961 93.81550317 -9.18936853 86.23242669 -13.26635742 80.11694336 C-21.62486128 80.32525498 -27.01950158 83.33094433 -34.07885742 87.61694336 C-35.77196045 88.61975342 -35.77196045 88.61975342 -37.49926758 89.64282227 C-40.49922847 91.42179627 -43.48621913 93.22137489 -46.46917725 95.02868652 C-48.22940905 96.0945698 -49.99185917 97.15667731 -51.75512695 98.2175293 C-58.16444669 102.07554939 -64.55631213 105.96143342 -70.93812561 109.86476135 C-75.11249015 112.41653177 -79.29628293 114.9522709 -83.48510742 117.48022461 C-95.47595522 124.72185463 -107.42152938 132.01453723 -119.16625977 139.65283203 C-133.16541519 148.69423912 -133.16541519 148.69423912 -140.14135742 148.61694336 C-141.0669043 148.62725586 -141.99245117 148.63756836 -142.94604492 148.64819336 C-152.07029398 147.18831351 -159.94559492 142.22263566 -167.76635742 137.55444336 C-168.82532227 136.92948975 -169.88428711 136.30453613 -170.9753418 135.66064453 C-177.63822403 131.71702844 -184.25924669 127.70764014 -190.85009766 123.64501953 C-199.83835686 118.11871466 -208.93018851 112.76544252 -218.01049805 107.39233398 C-224.46654812 103.57041202 -230.91499204 99.73844788 -237.32495117 95.83959961 C-248.42927071 89.09386159 -259.49693119 82.63437202 -271.26635742 77.11694336 C-271.92635742 76.78694336 -272.58635742 76.45694336 -273.26635742 76.11694336 C-273.59635742 164.55694336 -273.92635742 252.99694336 -274.26635742 344.11694336 C-287.77321047 341.86580118 -287.77321047 341.86580118 -292.56323242 339.02709961 C-293.61687988 338.41261963 -294.67052734 337.79813965 -295.75610352 337.16503906 C-296.8319873 336.50979248 -297.90787109 335.8545459 -299.01635742 335.17944336 C-300.14509277 334.50937256 -301.27382812 333.83930176 -302.43676758 333.14892578 C-332.17437209 315.3212425 -332.17437209 315.3212425 -336.26635742 302.11694336 C-336.7829183 298.67372529 -336.81935609 295.30798192 -336.79206848 291.83049011 C-336.8002753 290.84445952 -336.80848212 289.85842893 -336.81693763 288.84251863 C-336.839436 285.56424081 -336.83380734 282.28664145 -336.828125 279.00830078 C-336.83850542 276.64683241 -336.85061543 274.2853711 -336.86431885 271.92391968 C-336.89642119 265.52450847 -336.90396706 259.1252798 -336.90679383 252.72579741 C-336.91114119 246.68981604 -336.93685892 240.65390059 -336.96033951 234.61797027 C-337.00625507 222.64376552 -337.03373724 210.6695909 -337.05029297 198.6953125 C-337.0663213 187.12103878 -337.09353843 175.54687006 -337.13427734 163.97265625 C-337.13677885 163.26131703 -337.13928035 162.5499778 -337.14185766 161.81708284 C-337.15193892 158.95627095 -337.16203101 156.09545909 -337.17215388 153.23464734 C-337.21102693 142.15068733 -337.24131749 131.06670147 -337.27003363 119.98271104 C-337.28210312 115.33321468 -337.29549858 110.68372323 -337.3091526 106.03423119 C-337.32691391 99.74443044 -337.33874843 93.45464271 -337.34623718 87.16482162 C-337.34970921 84.87251132 -337.35488788 82.58020277 -337.36202049 80.28790092 C-337.39481109 69.34087489 -337.34381491 58.39966154 -336.9485321 47.45869446 C-336.92638887 46.60148495 -336.90424564 45.74427544 -336.8814314 44.86108989 C-336.66502007 39.92260744 -335.94660906 36.41498232 -333.26635742 32.11694336 C-331.43969727 30.45361328 -331.43969727 30.45361328 -329.35229492 29.15991211 C-328.55404297 28.66410645 -327.75579102 28.16830078 -326.93334961 27.6574707 C-321.9804575 24.79654529 -316.9514793 22.09516691 -311.89135742 19.42944336 C-302.80614475 14.59858665 -293.82016889 9.64838901 -284.96606445 4.40527344 C-284.2517627 3.9839917 -283.53746094 3.56270996 -282.80151367 3.12866211 C-282.18671143 2.76216553 -281.57190918 2.39566895 -280.93847656 2.01806641 C-276.52197485 -0.36203402 -272.15071928 -0.41578478 -267.26635742 0.11694336 C-264.60749896 1.21655878 -262.53615632 2.24141296 -260.14135742 3.74194336 C-259.47088379 4.14018311 -258.80041016 4.53842285 -258.10961914 4.94873047 C-255.81624415 6.31872162 -253.54193804 7.71761866 -251.26635742 9.11694336 C-249.52240205 10.169112 -247.77757228 11.21983237 -246.03198242 12.26928711 C-234.74743814 19.07733436 -223.54479836 26.02065938 -212.32495117 32.93457031 C-200.7545566 40.05896537 -189.14268581 47.1140782 -177.51635742 54.14672852 C-174.42842209 56.01869653 -171.34664652 57.90039701 -168.26635742 59.78491211 C-166.47479819 60.87493247 -164.6831385 61.96478771 -162.89135742 63.05444336 C-162.09552246 63.54460937 -161.2996875 64.03477539 -160.47973633 64.53979492 C-152.42046299 69.4200447 -145.20803315 71.66199042 -135.80932617 69.57006836 C-120.01305447 64.42596759 -105.65842992 53.94740092 -91.73120117 45.17553711 C-73.59175407 33.76242009 -55.26377573 22.7899671 -36.44995117 12.52319336 C-32.56541539 10.40207559 -28.72691716 8.22898948 -24.92651367 5.96069336 C-24.11907715 5.48623779 -23.31164063 5.01178223 -22.47973633 4.52294922 C-21.03279007 3.66878217 -19.59496123 2.79882842 -18.17016602 1.90820312 C-12.36297863 -1.47944472 -6.4062532 -2.49611309 0 0 Z " fill="#B4BEC9" transform="translate(1455.266357421875,12.883056640625)"/>
<path d="M0 0 C0.83402344 0.44093994 1.66804688 0.88187988 2.52734375 1.33618164 C3.39117676 1.78695068 4.25500977 2.23771973 5.14501953 2.70214844 C6.07813965 3.22462158 7.01125977 3.74709473 7.97265625 4.28540039 C9.03532715 4.87828857 10.09799805 5.47117676 11.19287109 6.08203125 C12.90531006 7.04314819 12.90531006 7.04314819 14.65234375 8.02368164 C15.86131079 8.69921564 17.07046131 9.37442137 18.27978516 10.04931641 C20.78946682 11.45027775 23.29835633 12.85264192 25.80664062 14.25610352 C31.49890463 17.43996225 37.2007782 20.60651994 42.90234375 23.77368164 C44.00553955 24.38735596 45.10873535 25.00103027 46.24536133 25.63330078 C52.12040929 28.89910257 58.00317673 32.15003049 63.8984375 35.37915039 C76.1129202 42.0744898 88.27232064 48.82404968 100.21411133 56.00073242 C105.41895252 59.12498783 110.68337181 62.05264455 116.07763672 64.83959961 C118.63702103 66.403186 120.49974297 68.13877887 122.52734375 70.33618164 C121.32668955 73.93814425 120.67467897 74.09143084 117.42578125 75.79711914 C116.55421387 76.26230957 115.68264648 76.7275 114.78466797 77.20678711 C113.83350098 77.7032373 112.88233398 78.1996875 111.90234375 78.71118164 C109.89096956 79.78230218 107.88058425 80.85528133 105.87109375 81.92993164 C104.82695313 82.48680664 103.7828125 83.04368164 102.70703125 83.61743164 C96.62727446 86.90378666 90.63832323 90.35214153 84.64599609 93.79467773 C82.8555749 94.8158713 81.0486719 95.80870151 79.2265625 96.7722168 C76.45291054 98.27596896 76.45291054 98.27596896 74.015625 100.44311523 C70.66250291 102.90609811 68.69589825 103.85861909 64.52734375 104.33618164 C56.06775326 102.1802104 48.37298611 97.37575264 40.77734375 93.21118164 C38.6572796 92.0908726 36.53489538 90.97494249 34.41015625 89.86352539 C17.55355603 80.99997711 17.55355603 80.99997711 11.90209961 77.52807617 C5.028677 73.2817756 5.028677 73.2817756 -2.82666016 72.90698242 C-6.31794314 74.45743448 -9.26563337 76.29395209 -12.41015625 78.46118164 C-13.55558612 79.18313538 -14.70527253 79.89837517 -15.85888672 80.60717773 C-18.23631912 82.07595473 -20.59160083 83.57314988 -22.93603516 85.09399414 C-28.4955042 88.66518551 -34.30757536 91.78229669 -40.09765625 94.96118164 C-42.09098638 96.07632914 -44.08323587 97.19341126 -46.07421875 98.31274414 C-50.86687561 100.99956244 -55.66714235 103.67243429 -60.47265625 106.33618164 C-57.2399865 109.02699644 -54.04488428 111.27502972 -50.359375 113.29711914 C-49.37130859 113.84368164 -48.38324219 114.39024414 -47.36523438 114.95336914 C-45.7787207 115.82348633 -45.7787207 115.82348633 -44.16015625 116.71118164 C-35.53675216 121.48691212 -26.97006968 126.33969689 -18.47265625 131.33618164 C-10.29399175 136.13766697 -2.06774445 140.84122633 6.21484375 145.46118164 C24.80615856 155.83148567 43.23068636 166.45408108 61.52734375 177.33618164 C58.7030034 180.32980162 55.81989792 182.62438851 52.37890625 184.87524414 C51.38052734 185.53306885 50.38214844 186.19089355 49.35351562 186.86865234 C48.29712891 187.55918701 47.24074219 188.24972168 46.15234375 188.96118164 C35.99036178 195.66018068 35.99036178 195.66018068 26.02734375 202.64868164 C24.97675781 203.40407227 23.92617187 204.15946289 22.84375 204.93774414 C21.05128977 206.23086439 19.26330831 207.52950117 17.47998047 208.83520508 C15.3181729 210.4122813 13.14280553 211.96901814 10.96484375 213.52368164 C9.96324219 214.26581909 9.96324219 214.26581909 8.94140625 215.02294922 C8.30847656 215.47049561 7.67554688 215.91804199 7.0234375 216.37915039 C6.19090454 216.98279419 6.19090454 216.98279419 5.34155273 217.59863281 C2.70154847 218.6719006 1.23954503 218.1573272 -1.47265625 217.33618164 C-3.62724216 216.38603887 -5.75283858 215.3690068 -7.85546875 214.30883789 C-8.76684097 213.85201881 -8.76684097 213.85201881 -9.69662476 213.38597107 C-11.6667427 212.3962429 -13.63224852 211.39772613 -15.59765625 210.39868164 C-16.95881365 209.71214512 -18.32014283 209.0259491 -19.68164062 208.34008789 C-27.83345824 204.22475953 -35.95708965 200.05607535 -44.00830078 195.74658203 C-50.76012519 192.13773436 -57.6170009 188.74220688 -64.47265625 185.33618164 C-64.76940534 193.45862976 -64.93293402 201.56897129 -64.93384552 209.69631481 C-64.93830172 213.47289916 -64.98586724 217.23795686 -65.13769531 221.01171875 C-66.29515481 237.47059205 -66.29515481 237.47059205 -60.19094849 251.91934204 C-54.44265025 256.28084652 -48.07383051 258.89453321 -41.31109619 261.29354858 C-37.79041805 262.58678554 -34.82721867 264.22508317 -31.625 266.16821289 C-28.93630248 267.70695931 -26.24729571 269.23834271 -23.53344727 270.73242188 C-19.30890052 273.06742711 -15.28491673 275.38279308 -11.47265625 278.35180664 C-7.88580777 281.01811936 -4.9929603 282.66650697 -0.47265625 283.33618164 C6.546063 281.44394293 12.61300509 277.13608418 18.63037109 273.19702148 C23.24486729 270.2329485 28.04478888 267.61883081 32.83984375 264.96118164 C34.76546323 263.87074497 36.68993104 262.77827221 38.61328125 261.68383789 C43.66862477 258.81611306 48.74161523 255.98108753 53.81884766 253.15234375 C63.08551613 247.98685565 72.30721354 242.75528772 81.46484375 237.39868164 C82.43268799 236.8339917 83.40053223 236.26930176 84.39770508 235.6875 C89.21043291 232.87587671 94.01380675 230.04986202 98.80024719 227.19377136 C101.17048715 225.78262216 103.54686451 224.38202883 105.92434692 222.98312378 C107.61389194 221.98392215 109.29522125 220.97086981 110.97631836 219.95751953 C112.52138062 219.05054321 112.52138062 219.05054321 114.09765625 218.12524414 C115.00273926 217.58593262 115.90782227 217.04662109 116.84033203 216.4909668 C119.9749545 215.14381395 122.14813149 214.97308662 125.52734375 215.33618164 C127.52734375 217.33618164 127.52734375 217.33618164 127.76785278 220.27212524 C127.76341156 221.52899139 127.75897034 222.78585754 127.75439453 224.08081055 C127.75468658 224.77360611 127.75497864 225.46640167 127.75527954 226.18019104 C127.75388406 228.47450198 127.73831294 230.7684898 127.72265625 233.06274414 C127.71892689 234.65172142 127.71607955 236.240701 127.71408081 237.8296814 C127.70643828 242.01532318 127.68678456 246.20082654 127.66467285 250.38641357 C127.64422771 254.65610888 127.63508195 258.92582651 127.625 263.19555664 C127.60353918 271.57582855 127.56939586 279.95598789 127.52734375 288.33618164 C126.51060577 288.87602188 125.4938678 289.41586212 124.44631958 289.97206116 C123.09195657 290.69243035 121.73761828 291.41284603 120.38330078 292.13330078 C119.71559158 292.48766457 119.04788239 292.84202835 118.35993958 293.20713043 C112.62542941 296.25968096 106.9978883 299.47332447 101.40234375 302.77368164 C99.89897461 303.65431274 99.89897461 303.65431274 98.36523438 304.55273438 C93.30232979 307.52017623 88.24723946 310.50071992 83.19618225 313.48826599 C80.14146479 315.29439074 77.08497458 317.09749382 74.02734375 318.89868164 C73.11017075 319.43904556 73.11017075 319.43904556 72.17446899 319.99032593 C62.94424606 325.41968084 53.60661572 330.60314495 44.16137695 335.65136719 C37.25575242 339.35749257 30.46052231 343.22150624 23.71484375 347.21118164 C22.79558105 347.75307129 21.87631836 348.29496094 20.92919922 348.85327148 C17.22440281 351.05595747 13.55503156 353.26374452 10.02734375 355.74243164 C9.09921875 356.39211914 8.17109375 357.04180664 7.21484375 357.71118164 C6.49683594 358.25516602 5.77882813 358.79915039 5.0390625 359.35961914 C0.35718923 361.17994312 -4.18023715 360.22917437 -8.77905273 358.43774414 C-11.24863055 357.25396669 -13.64022764 355.97698665 -16.03515625 354.64868164 C-16.93935303 354.16101318 -17.8435498 353.67334473 -18.77514648 353.17089844 C-27.66687144 348.33061733 -36.39656438 343.2067396 -45.1171875 338.06665039 C-51.78580345 334.13984196 -58.49937136 330.2932874 -65.22265625 326.46118164 C-65.80461761 326.12941925 -66.38657898 325.79765686 -66.98617554 325.45584106 C-69.35497044 324.10554335 -71.72379109 322.75529118 -74.09291077 321.40556335 C-78.29978931 319.00790202 -82.50064395 316.59991114 -86.69921875 314.18774414 C-89.08173037 312.82003179 -91.46461249 311.45296658 -93.84765625 310.08618164 C-94.42548859 309.75457031 -95.00332092 309.42295898 -95.59866333 309.08129883 C-104.64861473 303.89234813 -113.7680321 298.84544215 -122.98779297 293.96411133 C-123.83229004 293.51197266 -124.67678711 293.05983398 -125.546875 292.59399414 C-126.28510498 292.20356934 -127.02333496 291.81314453 -127.78393555 291.41088867 C-129.47265625 290.33618164 -129.47265625 290.33618164 -130.47265625 288.33618164 C-130.57526585 286.68382946 -130.6148329 285.02739611 -130.62414551 283.37188721 C-130.63248917 282.31967987 -130.64083282 281.26747253 -130.64942932 280.18338013 C-130.65361374 279.02240814 -130.65779816 277.86143616 -130.66210938 276.6652832 C-130.67040268 275.4447525 -130.67869598 274.2242218 -130.6872406 272.96670532 C-130.70470162 270.29745474 -130.72035549 267.62826306 -130.73301697 264.958992 C-130.75341796 260.67613526 -130.78108147 256.39334332 -130.80969238 252.11053467 C-130.86483524 243.70689108 -130.912598 235.3032131 -130.95963287 226.89952087 C-131.02687629 214.95508859 -131.09882365 203.01068649 -131.17695618 191.06632042 C-131.18660124 189.58818814 -131.19615301 188.11005525 -131.20561218 186.63192177 C-131.35221539 163.77429398 -131.64159689 140.92423918 -132.14245605 118.07110596 C-132.24956598 113.15649322 -132.34254756 108.24184299 -132.42202759 103.32670593 C-132.45726381 101.24537929 -132.49722942 99.16412957 -132.54086304 97.08296204 C-132.60604844 93.81095785 -132.65003159 90.53925066 -132.68945312 87.2668457 C-132.7128199 86.27357143 -132.73618668 85.28029716 -132.76026154 84.25692368 C-132.8046343 78.49829877 -132.36151 74.3751892 -129.47265625 69.33618164 C-126.9982477 67.8198055 -124.94649326 66.80699751 -122.28515625 65.77368164 C-114.89394441 62.59926119 -108.00837965 58.88685612 -101.09765625 54.77368164 C-92.39835567 49.61613957 -83.63927753 44.5985713 -74.78515625 39.71118164 C-66.81483973 35.30807463 -58.86652383 30.87502124 -50.97265625 26.33618164 C-42.80253862 21.6418735 -34.58596372 17.03437524 -26.34765625 12.46118164 C-25.23326172 11.84243164 -24.11886719 11.22368164 -22.97070312 10.58618164 C-20.83490478 9.40233181 -18.69599678 8.22407122 -16.55371094 7.05200195 C-14.48255008 5.89858527 -12.43087875 4.70952615 -10.39941406 3.48754883 C-9.43616211 2.91939453 -8.47291016 2.35124023 -7.48046875 1.76586914 C-6.63371582 1.25008301 -5.78696289 0.73429687 -4.91455078 0.20288086 C-2.47265625 -0.66381836 -2.47265625 -0.66381836 0 0 Z " fill="#B4BEC9" transform="translate(1667.47265625,0.663818359375)"/>
<path d="M0 0 C0.33 33 0.66 66 1 100 C3.8539567 101.30779554 3.8539567 101.30779554 6.02685547 100.20239258 C7.18531982 99.55500122 7.18531982 99.55500122 8.3671875 98.89453125 C9.24262207 98.41137451 10.11805664 97.92821777 11.02001953 97.43041992 C11.96216309 96.89650635 12.90430664 96.36259277 13.875 95.8125 C14.84937012 95.27020752 15.82374023 94.72791504 16.82763672 94.16918945 C19.89211147 92.45828565 22.94713308 90.73152049 26 89 C26.95583984 88.45956055 27.91167969 87.91912109 28.89648438 87.36230469 C31.64171524 85.80820218 34.38396584 84.24899077 37.125 82.6875 C38.00188477 82.18935791 38.87876953 81.69121582 39.78222656 81.17797852 C43.43839109 79.08958793 47.06664576 76.99235415 50.59375 74.69140625 C51.5940625 74.05074219 52.594375 73.41007812 53.625 72.75 C54.42164063 72.20859375 55.21828125 71.6671875 56.0390625 71.109375 C61.6896036 68.99228572 67.18616857 68.91389199 72.84375 71.09765625 C75.87322064 72.66005082 78.77637533 74.35192814 81.6875 76.125 C82.7698291 76.75736572 83.8521582 77.38973145 84.96728516 78.04125977 C88.32407507 80.00705946 91.66189604 82.00267887 95 84 C97.97871517 85.74991783 100.96252231 87.49085787 103.94726562 89.23046875 C105.90985879 90.37476924 107.87078224 91.52193796 109.83007812 92.671875 C118.5201751 97.76235581 127.31359998 102.65610611 136.12866211 107.52612305 C143.9493233 111.84938771 151.72435861 116.24394812 159.46557617 120.70776367 C163.80270217 123.20107094 168.16032941 125.64204466 172.56640625 128.01171875 C173.47720947 128.50317383 174.3880127 128.99462891 175.32641602 129.50097656 C177.05316915 130.42876539 178.78388586 131.34923189 180.51928711 132.26074219 C188.99616437 136.81852426 188.99616437 136.81852426 192 141 C194.20859621 148.85394019 194.31149588 156.89703368 194.33813477 164.99536133 C194.34967087 166.24554047 194.36120697 167.4957196 194.37309265 168.78378296 C194.40130328 172.17810998 194.42053235 175.57219488 194.43330884 178.96659684 C194.44144278 181.09157367 194.45162372 183.21653208 194.46232414 185.34149742 C194.49493023 192.00391766 194.51888164 198.66629195 194.531138 205.32878095 C194.54543455 212.99699503 194.5894881 220.66429539 194.65863949 228.33220655 C194.7104246 234.28068101 194.73531038 240.22889508 194.73996013 246.1775915 C194.74335286 249.72263964 194.75812802 253.26675694 194.80124092 256.81156349 C194.84842306 260.75854671 194.83988108 264.70434632 194.82641602 268.65161133 C194.85945328 270.40269951 194.85945328 270.40269951 194.89315796 272.18916321 C194.80339813 279.92042795 194.80339813 279.92042795 192.48792744 283.03185844 C190.72644967 284.5773689 189.01743983 285.81450445 187 287 C186.04552979 287.57556641 185.09105957 288.15113281 184.10766602 288.74414062 C182.69505493 289.44313477 182.69505493 289.44313477 181.25390625 290.15625 C180.18205078 290.69628662 179.11019531 291.23632324 178.00585938 291.79272461 C176.30139648 292.63782593 176.30139648 292.63782593 174.5625 293.5 C172.12181638 294.73217326 169.68676808 295.97511765 167.25390625 297.22265625 C166.64084625 297.53691055 166.02778625 297.85116486 165.39614868 298.17494202 C159.47966348 301.2297903 153.72826874 304.54368375 148 307.9375 C136.24950119 314.8941076 124.3336817 321.5231974 112.38134766 328.12548828 C107.90125098 330.60911155 103.43521372 333.11734532 98.97045898 335.62841797 C95.84327658 337.38510219 92.71135191 339.13303108 89.578125 340.87890625 C86.1754657 342.77521587 82.78986299 344.69520864 79.421875 346.65234375 C67.74178316 353.357816 67.74178316 353.357816 62.4453125 352.76171875 C56.7824634 350.99773221 51.64117952 348.17105822 46.45654297 345.33935547 C43.80598046 343.89421674 41.140471 342.47942623 38.47265625 341.06640625 C22.11418745 332.35427412 6.04098324 323.13898699 -9.78027344 313.4855957 C-17.5880717 308.72709515 -25.58964156 304.36142336 -33.6484375 300.04272461 C-39.93116853 296.67537311 -46.17651828 293.24754248 -52.4050293 289.78100586 C-53.23430687 289.31986137 -54.06358444 288.85871689 -54.91799164 288.38359833 C-56.94551599 287.25607004 -58.97284733 286.12819633 -61 285 C-61.3195108 252.79535158 -61.56720189 220.59115478 -61.71491461 188.38529131 C-61.7324241 184.58148392 -61.75054465 180.77767966 -61.76904297 176.97387695 C-61.77271531 176.21662159 -61.77638766 175.45936624 -61.78017129 174.67916375 C-61.84105886 162.42422054 -61.95142313 150.17019857 -62.08013915 137.91580153 C-62.21115197 125.33764755 -62.28884123 112.75997534 -62.31723893 100.18116707 C-62.33643209 92.42131163 -62.39699295 84.66405983 -62.51083054 76.90500622 C-62.5937239 70.95107073 -62.60235154 64.99846462 -62.58350754 59.04393578 C-62.58735704 56.60452888 -62.615183 54.16502286 -62.66887665 51.72620392 C-63.04451722 33.78303652 -63.04451722 33.78303652 -59.65080881 29.16345477 C-55.90703221 25.69841738 -51.6819666 23.89789654 -47 22 C-44.89321689 20.81914216 -42.79902201 19.61510963 -40.7265625 18.375 C-38.69553315 17.24490816 -36.66164665 16.1199367 -34.625 15 C-32.45405897 13.80144777 -30.28348614 12.60222838 -28.11328125 11.40234375 C-26.552146 10.53971924 -26.552146 10.53971924 -24.95947266 9.65966797 C-22.29596134 8.16597469 -19.66425096 6.63266981 -17.04296875 5.06640625 C-16.31706543 4.63779297 -15.59116211 4.20917969 -14.84326172 3.76757812 C-13.53608291 2.9918827 -12.23618391 2.20371572 -10.94580078 1.40039062 C-6.43513013 -1.24951755 -5.67527903 -0.94587984 0 0 Z M57.1796875 142.5703125 C56.18074463 143.13041016 55.18180176 143.69050781 54.15258789 144.26757812 C53.07098389 144.88052734 51.98937988 145.49347656 50.875 146.125 C49.76439209 146.75083984 48.65378418 147.37667969 47.50952148 148.02148438 C34.03815981 155.63626974 20.6646684 163.42276918 7.37109375 171.34375 C6.14604126 172.07368164 6.14604126 172.07368164 4.89624023 172.81835938 C3.06327094 173.86134333 3.06327094 173.86134333 2 175 C1.80563278 177.14254597 1.68177375 179.29150907 1.58496094 181.44067383 C1.55429535 182.11404785 1.52362976 182.78742188 1.49203491 183.48120117 C1.22262291 189.72908451 1.06124098 195.97990187 0.93343735 202.23213673 C0.84579141 206.430562 0.72256787 210.62099207 0.51171875 214.81518555 C-1.10284257 232.35679324 -1.10284257 232.35679324 3.7149353 248.62188721 C8.0275897 252.78668375 12.99749773 255.0606949 18.58062744 257.09164429 C21.98238577 258.36883767 24.9170451 260.11580928 28.05078125 261.953125 C30.13416589 263.05937404 32.22135596 264.15848954 34.3125 265.25 C46.91968135 271.90304837 46.91968135 271.90304837 51.59375 274.69921875 C52.23916748 275.0849707 52.88458496 275.47072266 53.54956055 275.86816406 C55.16184728 276.84611945 56.76317563 277.84208263 58.36328125 278.83984375 C61.57054714 280.25104074 62.6711053 279.91778655 66 279 C67.69679039 278.22281426 69.36301274 277.3767879 71 276.48046875 C71.9590625 275.9587207 72.918125 275.43697266 73.90625 274.89941406 C74.9271875 274.33448242 75.948125 273.76955078 77 273.1875 C78.59328125 272.31496582 78.59328125 272.31496582 80.21875 271.42480469 C88.76313189 266.72793762 97.24236141 261.91954403 105.6875 257.046875 C112.76641856 252.986907 119.88747216 249.00079691 127 245 C127 222.23 127 199.46 127 176 C106.48639317 164.15648585 106.48639317 164.15648585 85.9375 152.375 C84.79474609 151.72144531 83.65199219 151.06789062 82.47460938 150.39453125 C79.31895935 148.59182293 76.15986998 146.7952972 73 145 C72.09781738 144.48211914 71.19563477 143.96423828 70.26611328 143.43066406 C69.45770996 142.97143555 68.64930664 142.51220703 67.81640625 142.0390625 C67.1210376 141.64154785 66.42566895 141.2440332 65.70922852 140.83447266 C62.23032717 139.13601746 60.3416178 140.79140256 57.1796875 142.5703125 Z " fill="#B4BEC9" transform="translate(515,6)"/>
<path d="M0 0 C3.27349077 1.27838737 6.22845637 2.96496592 9.25 4.75 C10.55481323 5.49382935 10.55481323 5.49382935 11.88598633 6.25268555 C18.70508998 10.16536652 25.43472342 14.23299525 32.15649414 18.31005859 C41.8835776 24.1892816 51.82404928 29.68280283 61.75927734 35.20019531 C92.34727617 52.18789513 92.34727617 52.18789513 105.2265625 59.95214844 C106.92225855 60.95406576 108.64821582 61.90422951 110.375 62.8515625 C111.365 63.41617188 112.355 63.98078125 113.375 64.5625 C114.20773437 65.01753906 115.04046875 65.47257812 115.8984375 65.94140625 C120.49571955 70.44469183 121.17687336 76.85661392 121.3742218 83.05987549 C121.38888884 85.39306108 121.38724995 87.72638642 121.37231445 90.05957031 C121.37596512 91.3403244 121.37961578 92.62107849 121.38337708 93.94064331 C121.39271956 97.42804022 121.38341922 100.91515322 121.37004495 104.40252781 C121.35866693 108.06235824 121.36284259 111.72217599 121.36479187 115.38201904 C121.3656724 121.52165324 121.35464134 127.66117651 121.33618164 133.80078125 C121.31497994 140.89285995 121.31151358 147.98477671 121.3177436 155.07688069 C121.32344126 161.913954 121.31778928 168.75097047 121.30657005 175.58803558 C121.30193324 178.4922262 121.30104618 181.39638195 121.3031559 184.30057526 C121.3053922 188.35313885 121.29091908 192.40547627 121.2746582 196.45800781 C121.27713562 197.66018951 121.27961304 198.86237122 121.28216553 200.10098267 C121.27508072 201.20551788 121.26799591 202.3100531 121.26069641 203.44805908 C121.25761711 204.88373167 121.25761711 204.88373167 121.25447559 206.34840775 C120.90179344 210.02329557 120.17412266 213.0266289 117.27368164 215.43115234 C116.57621826 215.81223145 115.87875488 216.19331055 115.16015625 216.5859375 C113.95770264 217.25774048 113.95770264 217.25774048 112.73095703 217.94311523 C111.85036621 218.41563721 110.96977539 218.88815918 110.0625 219.375 C109.13808105 219.88683838 108.21366211 220.39867676 107.26123047 220.92602539 C105.24641675 222.04005378 103.22801601 223.14761322 101.20654297 224.24951172 C96.80290809 226.65350609 92.42157335 229.0969234 88.03833008 231.5378418 C84.59556343 233.45388266 81.14948921 235.3638766 77.703125 237.2734375 C71.57671003 240.67329973 65.47108973 244.10861282 59.375 247.5625 C50.43743964 252.62629113 41.49273191 257.67698392 32.51342773 262.66650391 C27.60121535 265.39972991 22.70833528 268.15532539 17.86810303 271.01463318 C16.16313781 272.02027526 14.45244048 273.01617842 12.74169922 274.01196289 C10.59143584 275.26503865 8.45049429 276.53429595 6.32080078 277.82202148 C-2.66748388 283.0184433 -2.66748388 283.0184433 -7.90551758 281.78930664 C-12.66335773 279.99631244 -17.09763799 277.66884298 -21.5625 275.25 C-22.65804199 274.66798828 -23.75358398 274.08597656 -24.88232422 273.48632812 C-35.06743506 268.04294083 -45.12350002 262.37312536 -55.14404297 256.63378906 C-59.98316586 253.865503 -64.83502988 251.11980285 -69.6875 248.375 C-70.6470459 247.83141846 -71.6065918 247.28783691 -72.59521484 246.7277832 C-77.82464811 243.77137823 -83.0741566 240.85805948 -88.35302734 237.9909668 C-96.89114148 233.34796503 -105.3383683 228.5545791 -113.72253418 223.63955688 C-114.9399003 222.92694986 -116.15887598 222.21708472 -117.3795166 221.51010132 C-119.09255392 220.5164489 -120.79837961 219.51039563 -122.50390625 218.50390625 C-123.49205322 217.92455322 -124.4802002 217.3452002 -125.49829102 216.74829102 C-129.05576834 214.26218825 -130.63408848 212.09773456 -132 208 C-132.09421136 206.30155182 -132.13060807 204.59963107 -132.13371277 202.89857483 C-132.13797775 201.84319519 -132.14224274 200.78781555 -132.14663696 199.70045471 C-132.14595718 197.96359657 -132.14595718 197.96359657 -132.14526367 196.19165039 C-132.15030159 194.36185135 -132.15030159 194.36185135 -132.15544128 192.49508667 C-132.16332429 189.14537287 -132.16661968 185.79572107 -132.16725707 182.44600224 C-132.16796824 180.34917069 -132.17010397 178.25234561 -132.17275429 176.15551567 C-132.18201327 168.82787541 -132.18608909 161.50025334 -132.18530273 154.17260742 C-132.184704 147.36482407 -132.1952141 140.55712048 -132.2110464 133.74935728 C-132.22418028 127.89097985 -132.22948409 122.03262826 -132.22884732 116.17423624 C-132.22859375 112.68177804 -132.23136549 109.18939051 -132.24202538 105.6969471 C-132.25362659 101.78890083 -132.24892399 97.88096099 -132.24291992 93.97290039 C-132.24853943 92.83321304 -132.25415894 91.6935257 -132.25994873 90.51930237 C-132.18563116 71.37052918 -132.18563116 71.37052918 -128.44374371 67.31208897 C-126.53500965 65.99850732 -124.62876918 65.10201202 -122.5 64.1875 C-120.86626577 63.38471825 -119.23489511 62.57711486 -117.60546875 61.765625 C-116.71263184 61.33443359 -115.81979492 60.90324219 -114.89990234 60.45898438 C-109.40308908 57.69345515 -104.12513986 54.53794376 -98.8125 51.4375 C-97.68553711 50.7863623 -96.55857422 50.13522461 -95.39746094 49.46435547 C-89.64448681 46.13923425 -83.9229076 42.77214164 -78.25 39.3125 C-71.43493963 35.16203335 -64.42804471 31.38222842 -57.40893555 27.59008789 C-51.23165472 24.24421595 -45.12617344 20.79727377 -39.0625 17.25 C-32.22275761 13.24946318 -25.31604107 9.43023418 -18.296875 5.75390625 C-16.60370419 4.85315543 -14.91067152 3.94145224 -13.30664062 2.89013672 C-8.91517591 0.06297624 -5.11675882 -1.04801084 0 0 Z M-16.4375 76.125 C-17.79427856 76.78520142 -17.79427856 76.78520142 -19.1784668 77.45874023 C-28.34383525 82.00896199 -37.14535623 87.16470754 -45.92578125 92.41015625 C-53.20194866 96.75135697 -60.60286993 100.86969699 -68 105 C-68.23214892 114.00553562 -68.40959919 123.01003532 -68.51812172 132.01791477 C-68.57022107 136.20125375 -68.64081846 140.38253995 -68.75439453 144.56469727 C-68.8634091 148.60437447 -68.92291076 152.64208386 -68.94877243 156.68311882 C-68.96718909 158.22111944 -69.00315895 159.75901731 -69.05730057 161.296175 C-69.55915915 169.93848354 -69.55915915 169.93848354 -65.9254303 177.42308044 C-63.36207067 179.25802971 -60.8491813 180.65999526 -58 182 C-56.90582764 182.64445068 -55.81165527 183.28890137 -54.68432617 183.95288086 C-53.25310425 184.70130249 -53.25310425 184.70130249 -51.79296875 185.46484375 C-50.71781006 186.03340088 -49.64265137 186.60195801 -48.53491211 187.18774414 C-47.43026611 187.76516357 -46.32562012 188.34258301 -45.1875 188.9375 C-36.24405016 193.67728387 -27.5416023 198.56801329 -19 204 C-13.3104195 207.61156785 -7.95216057 211.00693851 -1 210 C9.46626935 206.24715442 18.93715125 199.46036258 28.29296875 193.57421875 C35.40973786 189.09864764 42.60597122 184.75498995 49.80053711 180.40600586 C50.72745361 179.84405518 51.65437012 179.28210449 52.609375 178.703125 C53.43405273 178.20458008 54.25873047 177.70603516 55.10839844 177.19238281 C56.93587226 176.13783236 56.93587226 176.13783236 58 175 C59.04188941 166.32736697 59.29171263 157.53408605 59.58468437 148.80922699 C59.72404292 144.7654971 59.91640605 140.74082798 60.24267578 136.70751953 C62.11969437 119.82636107 62.11969437 119.82636107 56.76545334 104.4041748 C50.10352266 97.75215618 41.05097707 94.0437246 32.48339844 90.49194336 C28.16900224 88.64408275 24.28352931 86.38580859 20.33203125 83.875 C19.21634766 83.21242188 18.10066406 82.54984375 16.95117188 81.8671875 C15.91541016 81.25101563 14.87964844 80.63484375 13.8125 80 C11.56949087 78.66585396 9.32591224 77.33268066 7.08203125 76 C6.14593018 75.443125 5.2098291 74.88625 4.24536133 74.3125 C-3.27954429 69.91390344 -9.19277776 72.5208417 -16.4375 76.125 Z " fill="#B4BEC9" transform="translate(874,75)"/>
<path d="M0 0 C8.3086009 3.51912615 16.01543202 8.28990936 23.6875 13 C35.29949433 20.04745982 47.08819222 26.7257132 58.96533203 33.31347656 C71.98192676 40.54747788 84.92467673 47.91420609 97.8125 55.375 C98.78453369 55.93380859 99.75656738 56.49261719 100.75805664 57.06835938 C105.42975365 59.78567393 110.04939074 62.58304692 114.57421875 65.5390625 C115.37819092 66.05936035 116.18216309 66.5796582 117.01049805 67.11572266 C120.15016802 70.08933572 120.87680731 73.59653162 121.24888897 77.83545876 C121.2483442 78.82026915 121.24779943 79.80507954 121.24723816 80.81973267 C121.25143265 81.95811081 121.25562714 83.09648895 121.25994873 84.2693634 C121.25432922 85.50385727 121.24870972 86.73835114 121.24291992 88.01025391 C121.24481827 89.32143692 121.24671661 90.63261993 121.24867249 91.98353577 C121.25350529 95.56809222 121.24588536 99.15252351 121.23571944 102.73706484 C121.22691535 106.49213798 121.22869683 110.24720746 121.2290802 114.00228882 C121.22814476 120.30525804 121.21947601 126.60817901 121.20581055 132.91113281 C121.1900727 140.19683629 121.18481299 147.48248699 121.1855461 154.76820624 C121.18622162 162.5300498 121.17928158 170.29187303 121.1700995 178.05371046 C121.16796899 180.28881501 121.16725844 182.52391628 121.16686058 184.75902176 C121.16566922 188.92221821 121.1559563 193.08535228 121.14526367 197.24853516 C121.14571686 198.48707748 121.14617004 199.72561981 121.14663696 201.00169373 C121.14237198 202.13443222 121.13810699 203.26717072 121.13371277 204.43423462 C121.13203692 205.41829096 121.13036108 206.4023473 121.12863445 207.41622353 C121.01027866 209.79354094 120.7915527 211.75856736 120 214 C118.01660156 215.45703125 118.01660156 215.45703125 115.390625 216.8125 C114.41955811 217.32409668 113.44849121 217.83569336 112.44799805 218.36279297 C111.39265869 218.90307129 110.33731934 219.44334961 109.25 220 C107.03144809 221.16717479 104.81401812 222.33648436 102.59765625 223.5078125 C100.92340576 224.38808105 100.92340576 224.38808105 99.21533203 225.28613281 C94.64952059 227.71984551 90.16521383 230.28372636 85.6875 232.875 C77.70852967 237.47282993 69.6808625 241.9757828 61.625 246.4375 C53.18837537 251.11119662 44.76731116 255.80967436 36.375 260.5625 C35.4586377 261.07965576 34.54227539 261.59681152 33.59814453 262.12963867 C28.47073255 265.02495495 23.35841278 267.9443998 18.2578125 270.88671875 C16.00529495 272.17463068 13.75269268 273.46239443 11.5 274.75 C10.45505371 275.3591626 9.41010742 275.9683252 8.33349609 276.59594727 C-1.43816528 282.15524539 -1.43816528 282.15524539 -7 282 C-9.57295658 281.06194291 -11.64123786 280.12944208 -14 278.8125 C-14.671521 278.45663818 -15.34304199 278.10077637 -16.03491211 277.73413086 C-17.53324465 276.93957329 -19.02777159 276.13781062 -20.51904297 275.33007812 C-23.2059398 273.8895926 -25.91405512 272.49642464 -28.62890625 271.109375 C-37.68748614 266.46858906 -46.64754206 261.76255285 -55.31347656 256.4206543 C-60.54611879 253.21462948 -65.91202082 250.28761799 -71.3125 247.375 C-82.96190737 241.0779131 -94.43686775 234.49933509 -105.86865234 227.81640625 C-108.89503037 226.06088991 -111.93858228 224.33960065 -114.98828125 222.625 C-116.8050424 221.58395243 -118.62146847 220.54231981 -120.4375 219.5 C-121.68007568 218.81647461 -121.68007568 218.81647461 -122.94775391 218.11914062 C-124.08543213 217.45688477 -124.08543213 217.45688477 -125.24609375 216.78125 C-125.90279053 216.41064453 -126.5594873 216.04003906 -127.23608398 215.65820312 C-130.60698767 212.48932038 -131.83093452 208.77687061 -132.25956821 204.27194977 C-132.34333083 200.91022898 -132.32821111 197.56167607 -132.28051758 194.19921875 C-132.27441467 192.9219693 -132.26831177 191.64471985 -132.26202393 190.32876587 C-132.2447588 186.84100551 -132.20846076 183.35368342 -132.16811585 179.8661232 C-132.12850731 176.20729189 -132.10475869 172.54835303 -132.07878113 168.8894043 C-132.03273454 162.74612768 -131.97460701 156.60305732 -131.90893555 150.45996094 C-131.83325064 143.36921515 -131.77518165 136.27849605 -131.72690278 129.18751431 C-131.68007422 122.35145005 -131.62216126 115.51552524 -131.55875206 108.67959595 C-131.53193616 105.77708501 -131.50870577 102.87457859 -131.48835182 99.97201538 C-131.4591838 95.91476729 -131.41367095 91.85785943 -131.36645508 87.80078125 C-131.35958176 86.60264801 -131.35270844 85.40451477 -131.34562683 84.17007446 C-131.26568532 78.44394591 -131.13534506 73.35434738 -129 68 C-126.64697266 66.09814453 -126.64697266 66.09814453 -123.6640625 64.6328125 C-122.5510376 64.06594727 -121.4380127 63.49908203 -120.29125977 62.91503906 C-119.69483673 62.62407349 -119.0984137 62.33310791 -118.48391724 62.0333252 C-115.27704148 60.46634524 -112.11100326 58.82043051 -108.94140625 57.1796875 C-108.28383835 56.84130859 -107.62627045 56.50292969 -106.94877625 56.15429688 C-99.9472083 52.51849018 -93.26030701 48.41127279 -86.5625 44.25 C-77.74310595 38.7931975 -68.84399248 33.66692075 -59.59692383 28.96435547 C-52.20589543 25.18296593 -45.10244268 20.98608128 -37.98510742 16.71630859 C-30.92250213 12.49639717 -23.74144497 8.58059545 -16.43359375 4.8046875 C-14.33737015 3.7029181 -12.26823365 2.54447024 -10.2578125 1.29296875 C-6.79476789 -0.69019348 -3.81117207 -0.77883581 0 0 Z M-15.4375 75.625 C-16.24952881 76.01888916 -17.06155762 76.41277832 -17.89819336 76.81860352 C-26.73313262 81.20156491 -35.19657732 86.22461431 -43.66015625 91.27734375 C-51.6681896 96.03702537 -59.84127327 100.50547962 -68 105 C-68.37215082 113.95303315 -68.65567252 122.9033763 -68.82899475 131.86247826 C-68.91222806 136.02390533 -69.0248592 140.18001464 -69.20703125 144.33837891 C-70.74223406 161.38714098 -70.74223406 161.38714098 -66.5894165 177.40390015 C-63.03802169 181.04608333 -58.90926686 182.77469895 -54.1192627 184.28857422 C-50.92915615 185.35947687 -48.14680811 187.04154229 -45.2421875 188.72265625 C-43.12206276 189.8402565 -40.99966436 190.95355429 -38.875 192.0625 C-30.5497881 196.46403257 -22.48954883 200.98388604 -14.734375 206.328125 C-9.9971263 209.2246142 -5.80082008 210.57169463 -0.23291016 209.65917969 C9.34828658 206.83070481 18.19630307 199.94003177 26.6875 194.75 C27.92482715 193.99599706 29.1622137 193.24209158 30.3996582 192.48828125 C37.17980737 188.35397458 43.94873354 184.20149168 50.6875 180 C51.33356201 179.59749023 51.97962402 179.19498047 52.64526367 178.78027344 C55.47333799 177.08783719 55.47333799 177.08783719 58 175 C58.19945032 172.91890229 58.3287255 170.83105469 58.4309082 168.74291992 C58.46318008 168.08905304 58.49545197 167.43518616 58.52870178 166.76150513 C58.81242975 160.69378119 58.98309523 154.62284685 59.11837482 148.55016613 C59.2112171 144.47224229 59.34141967 140.40341111 59.5637207 136.33032227 C61.19285433 119.19961723 61.19285433 119.19961723 56.21389771 103.44827271 C51.62948551 99.30645265 46.35763672 97.07993134 40.60037231 94.99862671 C36.78479205 93.53332101 33.46749595 91.45346924 30.01953125 89.28515625 C28.80669452 88.56775281 27.59123123 87.85476929 26.37304688 87.14648438 C23.95533599 85.73158724 21.53871981 84.31485821 19.12304688 82.89648438 C16.79033077 81.5274218 14.45289059 80.16785268 12.11181641 78.81298828 C10.18948491 77.69301074 8.2777176 76.55438803 6.38427734 75.38623047 C-1.72924474 70.50371147 -7.25139071 71.55510452 -15.4375 75.625 Z " fill="#B4BEC9" transform="translate(294,76)"/>
<path d="M0 0 C1.03600342 0.57073242 2.07200684 1.14146484 3.1394043 1.72949219 C3.71134521 2.0440184 4.28328613 2.35854462 4.87255859 2.68260193 C6.73818285 3.7103942 8.60108004 4.74300287 10.46362305 5.77636719 C11.1017392 6.1292984 11.73985535 6.48222961 12.39730835 6.84585571 C24.26868521 13.41443107 36.06344257 20.1173132 47.7121582 27.07470703 C49.3164091 28.02954946 50.93058132 28.96794938 52.55493164 29.88818359 C53.64475342 30.52312744 53.64475342 30.52312744 54.7565918 31.17089844 C55.70828247 31.71194214 55.70828247 31.71194214 56.67919922 32.26391602 C58.63813979 33.94407553 58.69344354 34.98830809 59.15112305 37.52636719 C59.25290043 39.64374368 59.29948971 41.76400632 59.31225586 43.88378906 C59.3218634 45.17192505 59.33147095 46.46006104 59.34136963 47.78723145 C59.34621665 49.18985822 59.35049571 50.59248706 59.35424805 51.99511719 C59.36000299 53.4371338 59.36576068 54.8791504 59.371521 56.32116699 C59.38201102 59.34057978 59.38786737 62.35996609 59.39135742 65.37939453 C59.39685119 69.24649905 59.42090603 73.11325309 59.44932938 76.9802475 C59.46795579 79.95710272 59.47316125 82.93387329 59.4746933 85.91078186 C59.47771818 87.33653183 59.48574125 88.76228037 59.49887848 90.18797302 C59.51594402 92.18155952 59.51221317 94.17529119 59.50756836 96.16894531 C59.5130368 97.86960144 59.5130368 97.86960144 59.51861572 99.60461426 C59.1149534 102.81393419 58.31673474 104.1776566 56.15112305 106.52636719 C51.77130176 105.1931468 47.95850453 103.47526264 43.9597168 101.25292969 C43.38076157 100.93279907 42.80180634 100.61266846 42.20530701 100.28283691 C40.33020579 99.24409322 38.45933615 98.1979897 36.58862305 97.15136719 C35.29272028 96.43086731 33.9966577 95.71065481 32.70043945 94.99072266 C3.38790335 78.68422072 3.38790335 78.68422072 -2.84887695 74.52636719 C-2.85310889 75.57035423 -2.85734083 76.61434128 -2.86170101 77.68996429 C-2.96490687 103.0955889 -3.07365695 128.50118516 -3.18821621 153.90676117 C-3.24348796 166.19271402 -3.29695999 178.47866978 -3.34619141 190.76464844 C-3.38910737 201.4734288 -3.43540397 212.1821883 -3.4857555 222.89093637 C-3.51229675 228.56080367 -3.53714823 234.23066698 -3.55795097 239.90055847 C-3.57759082 245.23893438 -3.60175625 250.57727082 -3.62936783 255.91561127 C-3.63869945 257.8731133 -3.64638854 259.83062398 -3.65229607 261.78813934 C-3.66062368 264.46536991 -3.67491831 267.14250635 -3.69065857 269.81970215 C-3.69163668 270.59015287 -3.69261478 271.36060359 -3.69362253 272.1544013 C-3.73029971 277.02201547 -4.16519852 281.70566921 -4.84887695 286.52636719 C-13.63416815 286.40421875 -20.00019882 282.61602195 -27.41137695 278.33886719 C-28.68601003 277.6181063 -29.96132921 276.89855751 -31.23730469 276.18017578 C-35.12143538 273.98562958 -38.98730479 271.76031706 -42.84887695 269.52636719 C-43.45425293 269.17656799 -44.05962891 268.8267688 -44.68334961 268.46636963 C-51.35957599 264.60642023 -58.01809544 260.71722024 -64.65185547 256.78466797 C-66.78602014 255.4807398 -66.78602014 255.4807398 -69.01269531 254.73291016 C-71.84680942 252.87063228 -71.99981998 250.77092499 -72.84887695 247.52636719 C-73.1540159 244.60479048 -73.19553087 241.69723534 -73.22396851 238.76132202 C-73.23978867 237.89078206 -73.25560884 237.02024209 -73.2719084 236.12332213 C-73.32194425 233.21265249 -73.35782208 230.30199409 -73.39331055 227.39111328 C-73.42549651 225.30134222 -73.45825627 223.21157993 -73.49154663 221.12182617 C-73.78049632 202.06562525 -73.93099354 183.00685951 -74.04938316 163.9489193 C-74.13855559 149.86824497 -74.29291672 135.79146186 -74.53255212 121.71252763 C-74.69551764 111.80324412 -74.78168011 101.89502575 -74.81198752 91.98445952 C-74.8322958 86.06873268 -74.88664162 80.15791446 -75.02460861 74.24366379 C-75.15309045 68.67501526 -75.186125 63.11372726 -75.14761734 57.54380798 C-75.14991639 55.50700321 -75.18618446 53.46989312 -75.25990295 51.43442154 C-75.69051664 38.89165157 -75.69051664 38.89165157 -72.84887695 33.52636719 C-67.8769064 28.50615064 -61.556171 25.49469916 -55.18910909 22.60520005 C-52.20723372 21.23057354 -49.44971534 19.62482065 -46.63793945 17.93261719 C-42.03782054 15.33047322 -37.42112963 12.75777343 -32.80395508 10.18603516 C-29.74793217 8.46967332 -26.71216976 6.72071227 -23.67700195 4.96777344 C-21.69299456 3.84082394 -19.70863186 2.71449966 -17.72387695 1.58886719 C-16.80558105 1.05003906 -15.88728516 0.51121094 -14.94116211 -0.04394531 C-14.08312988 -0.52476563 -13.22509766 -1.00558594 -12.34106445 -1.50097656 C-11.59195801 -1.93144287 -10.84285156 -2.36190918 -10.07104492 -2.80541992 C-6.15146936 -3.98404861 -3.46440911 -1.79202788 0 0 Z " fill="#B4BEC9" transform="translate(72.848876953125,74.4736328125)"/>
<path d="M0 0 C2.61332956 1.21975359 5.01843245 2.48866446 7.5 3.9375 C8.25611572 4.36844971 9.01223145 4.79939941 9.79125977 5.2434082 C12.53558124 6.81531471 15.26791912 8.40691376 18 10 C19.16634704 10.67670273 20.332859 11.35312128 21.49951172 12.02929688 C25.31586602 14.24238488 29.12776916 16.46303159 32.9375 18.6875 C33.55270508 19.04649384 34.16791016 19.40548767 34.80175781 19.77536011 C56.39454457 32.39454457 56.39454457 32.39454457 59 35 C59.10014218 37.74751672 59.13439136 40.46996308 59.12698364 43.21800232 C59.12932363 44.52763186 59.12932363 44.52763186 59.13171089 45.86371857 C59.13572707 48.81598211 59.13252811 51.76819498 59.12939453 54.72045898 C59.13074894 56.83024119 59.13252909 58.94002317 59.13470459 61.04980469 C59.13929233 66.82052771 59.13747918 72.59123299 59.1343255 78.36195636 C59.13178739 84.45835082 59.13414546 90.55474379 59.13571167 96.65113831 C59.13753809 106.96086903 59.13512408 117.27059263 59.13037109 127.58032227 C59.12560513 138.03540517 59.1254831 148.49047379 59.13037109 158.94555664 C59.17583164 258.85994264 59.17583164 258.85994264 58.5546875 298.66015625 C58.53527225 299.93095976 58.51585701 301.20176327 58.49585342 302.51107597 C58.38837593 309.25033093 58.2507249 315.98794896 58.07704926 322.72581863 C57.99400646 326.25469359 57.93925793 329.78356324 57.88287354 333.31295776 C57.82822242 335.694913 57.77241298 338.07684199 57.71533203 340.45874023 C57.69734715 342.11152151 57.69734715 342.11152151 57.67899895 343.7976923 C57.6495878 344.8158575 57.62017666 345.83402269 57.58987427 346.88304138 C57.57245745 347.77734076 57.55504063 348.67164015 57.53709602 349.59303951 C56.84146323 352.7104721 55.38686005 353.95715375 53 356 C39.22785325 348.00921958 25.50065851 339.94613678 11.8125 331.8125 C11.1110083 331.39567963 10.4095166 330.97885925 9.68676758 330.54940796 C5.45647331 328.03523843 1.22689268 325.51988468 -3 323 C-4.31438065 322.40616485 -4.31438065 322.40616485 -5.65531445 321.80033302 C-8 320 -8 320 -8.63085651 317.03951073 C-8.63362189 315.81607271 -8.63638727 314.5926347 -8.63923645 313.3321228 C-8.65177023 312.30734163 -8.65177023 312.30734163 -8.66455722 311.26185781 C-8.68658334 308.95970435 -8.67284247 306.65913374 -8.65942383 304.35693359 C-8.66788035 302.70132652 -8.67852434 301.04572939 -8.69118404 299.39014912 C-8.71954942 294.8495435 -8.71678762 290.30940729 -8.70888615 285.76873946 C-8.70575684 280.92639086 -8.73104243 276.08418567 -8.75299072 271.24189758 C-8.7910264 261.86514635 -8.80279553 252.48853999 -8.80572832 243.11171931 C-8.81024821 232.32863514 -8.8426096 221.54569043 -8.87646568 210.76266515 C-8.94937307 187.16204069 -8.97796935 163.56146755 -8.99347454 139.96074516 C-8.99974244 130.63237059 -9.01060546 121.30400425 -9.02221906 111.97563505 C-9.06737487 75.31699595 -9.06803977 38.65862291 -9 2 C-5.70753654 0.26851389 -3.76332293 -0.51367195 0 0 Z " fill="#B4BEC9" transform="translate(1034,4)"/>
</svg>
