<?xml version="1.0" encoding="UTF-8"?>
<svg id="Camada_1" data-name="Camada 1" xmlns="http://www.w3.org/2000/svg" viewBox="0 0 600 600">
  <defs>
    <style>
      .cls-1 {
        fill: #533c90;
      }

      .cls-1, .cls-2, .cls-3, .cls-4, .cls-5, .cls-6 {
        fill-rule: evenodd;
      }

      .cls-2 {
        fill: #61b558;
      }

      .cls-3 {
        fill: #8170b1;
      }

      .cls-4 {
        fill: #58575f;
      }

      .cls-5 {
        fill: #838187;
      }

      .cls-7 {
        fill: none;
      }

      .cls-6 {
        fill: #17a638;
      }
    </style>
  </defs>
  <polygon class="cls-6" points="293.47 310.94 196.95 258.76 196.95 366.06 290.74 422.49 388.62 369.65 388.62 258.76 293.47 310.94"/>
  <polygon class="cls-2" points="196.95 258.76 293.47 310.94 290.74 422.49 196.95 366.06 196.95 258.76"/>
  <path class="cls-4" d="M101.1,200.89V462.73c0,6.83,3.69,13.13,9.69,16.55l57.1,32.51c12.92,7.35,29.06-1.84,29.06-16.55V255.46l-95.85-54.57Z"/>
  <path class="cls-4" d="M480.98,198.91l-178.52-101.64c-5.99-3.41-13.38-3.41-19.38,0l-86.15,49.06-66.79-38.03c-12.92-7.35-29.06,1.84-29.06,16.55v76.05l95.85,54.57,95.83-54.57,93.12,53.02,95.08-55.01Z"/>
  <path class="cls-5" d="M495.91,190.27l-179.29-102.08c-5.99-3.41-13.38-3.41-19.38,0l-100.31,58.14-66.79-38.03c-12.92-7.35-29.06,1.84-29.06,16.55v76.05l95.85,54.57,95.83-54.57,93.12,53.02,110.01-63.65Z"/>
  <g>
    <path class="cls-3" d="M495.58,190.46l-178.68-101.74c-6-3.41-13.38-3.41-19.38,0l-14.43,8.54c5.99-3.41,13.38-3.41,19.38,0l178.52,101.64,14.59-8.44Z"/>
    <path class="cls-1" d="M484.48,203.13V462.73c0,6.83-3.69,13.13-9.69,16.55l14.43-7.11c5.99-3.41,9.69-9.72,9.69-16.55l-.46-260.56-13.97,8.08Z"/>
  </g>
  <path class="cls-4" d="M388.62,258.59v236.65c0,14.71,16.14,23.9,29.06,16.55l57.1-32.51c5.99-3.41,9.69-9.72,9.69-16.55V203.13l-95.85,55.46Z"/>
  <line class="cls-7" x1="196.95" y1="255.46" x2="101.1" y2="200.89"/>
</svg>