<?xml version="1.0" encoding="UTF-8" standalone="no"?>
<svg
   version="1.0"
   width="1536pt"
   height="512pt"
   viewBox="0 0 1536 512"
   preserveAspectRatio="xMidYMid"
   id="svg22"
   xmlns="http://www.w3.org/2000/svg"
   xmlns:svg="http://www.w3.org/2000/svg">
  <defs
     id="defs22" />
  <g
     id="g24">
    <path
       style="fill:#ffffff;stroke-width:0.75"
       d="m 123.54347,217.75648 -15.10963,-23.10885 14.22083,-25.77525 -16.88723,-67.54896 5.3328,-7.99921 13.33203,10.66562 30.21927,33.77447 7.11042,-3.55521 0.8888,-49.772905 10.66562,-0.888803 c 0,0 29.33047,18.664848 32.88568,25.775258 3.55521,7.11042 20.44244,36.44089 23.10885,44.4401 2.66641,7.99922 5.33281,-18.66484 5.33281,-18.66484 l -3.55521,-26.66406 7.99922,-39.996088 7.11042,-0.888802 6.22161,16.887235 47.9953,45.328905 39.99609,1.7776 59.54974,-61.327334 h 5.33281 l 7.11042,13.332026 3.5552,36.440888 14.22083,-5.33282 23.10885,-1.7776 20.44245,2.66641 14.22084,9.77682 6.22161,0.8888 36.44088,-38.218485 7.11042,1.777605 -7.99923,71.99296 12.44323,7.99922 13.33203,22.22005 -5.33281,17.77604 6.22161,10.66562 -7.99921,23.10885 17.77604,26.66406 -3.55521,15.99844 -9.77682,8.88802 -22.22005,2.6664 -5.33281,12.44323 -7.99922,12.44323 -17.77604,10.66562 -24.88645,-39.10729 -0.88881,35.55208 -6.22161,18.66485 -9.77682,17.77603 h -19.55364 l -7.11042,6.22162 -10.66563,1.7776 -5.33281,21.33125 -22.22005,6.22161 0.8888,-9.77682 -47.1065,31.10807 -18.66484,13.33203 -13.33203,-1.7776 -17.77604,-19.55365 -47.99531,-26.66405 5.33281,13.33202 -22.22004,-8.88802 -12.44323,-35.55208 -16.88724,-8.88801 -2.66641,11.55442 -15.99843,-17.77604 -7.11042,0.8888 -5.33281,-13.33203 6.22161,-15.99844 -9.77682,-7.11041 7.99922,-8.88802 -20.44244,3.55521 -11.55443,-7.11042 v -17.77604 l -0.8888,-6.22161 -15.99844,11.55443 -15.99844,-1.77761 -7.99921,-14.22083 -8.888018,-9.77682 -0.888802,-10.66562 18.66484,-16.88724 z"
       id="path23" />
    <path
       style="fill:#ffffff;stroke-width:0.75"
       d="m 599.94133,183.09321 4.44402,39.10729 -24.88646,87.10259 v 32.88567 l 331.52311,-23.10885 114.6555,1.77761 403.5161,13.33202 -1.7776,-34.66327 -26.6641,-116.43306 -382.1849,-23.10886 z"
       id="path24" />
  </g>
  <g
     transform="matrix(0.1,0,0,-0.1,-7.1104158,506.66719)"
     fill="#000000"
     stroke="none"
     id="g22">
    <path
       d="m 2435,4398 c -46,-67 -85,-294 -85,-503 0,-74 -4,-135 -9,-135 -4,0 -44,51 -89,113 -109,152 -255,292 -387,371 -74,45 -138,49 -181,12 -27,-23 -28,-27 -36,-162 -4,-77 -8,-181 -8,-231 -1,-57 -6,-93 -12,-93 -6,0 -38,28 -72,63 -33,34 -90,87 -126,118 -36,31 -93,92 -126,135 -39,51 -68,80 -83,82 -40,6 -71,-8 -91,-40 -31,-52 -34,-106 -12,-210 11,-51 28,-133 37,-181 9,-48 23,-107 31,-130 9,-23 22,-76 29,-117 7,-41 19,-90 26,-108 13,-30 11,-36 -19,-91 -17,-32 -32,-66 -32,-76 0,-9 -11,-30 -25,-47 -45,-53 -35,-97 46,-207 l 22,-30 -32,-26 c -30,-26 -245,-314 -270,-363 -7,-13 -10,-36 -6,-51 7,-34 217,-245 259,-261 16,-6 61,-13 102,-17 88,-7 125,6 153,53 24,39 58,48 46,12 -15,-49 -22,-124 -13,-155 10,-38 63,-87 113,-103 20,-7 66,-10 101,-8 l 64,4 v -39 c 0,-21 5,-48 11,-59 8,-15 8,-32 -2,-67 -39,-138 13,-271 106,-271 30,0 39,-7 74,-58 50,-73 65,-86 106,-86 36,0 72,25 84,58 6,16 14,13 67,-31 38,-32 64,-63 71,-84 97,-291 114,-316 229,-342 38,-9 91,-18 118,-21 47,-6 48,-5 42,18 -6,24 -6,24 27,8 17,-9 40,-26 49,-37 9,-12 50,-39 90,-60 40,-21 98,-52 128,-71 30,-18 67,-35 82,-39 15,-4 44,-29 70,-62 60,-76 77,-83 208,-83 131,0 146,6 213,84 27,31 55,56 64,56 9,0 43,17 77,39 34,21 93,55 132,74 39,20 82,49 96,65 13,16 36,32 52,36 24,6 26,5 17,-12 -14,-25 -5,-33 26,-21 13,5 40,9 58,9 48,0 161,39 189,65 13,12 33,48 45,81 56,153 50,144 81,144 18,0 42,11 63,29 36,32 81,39 160,25 51,-9 83,14 97,68 8,29 25,54 51,78 34,30 47,54 84,156 24,67 47,145 51,173 8,58 26,80 49,61 8,-7 15,-23 15,-36 0,-13 9,-33 20,-44 11,-11 20,-33 20,-50 0,-40 39,-80 79,-80 18,0 47,13 73,32 45,34 75,51 120,67 27,10 108,131 108,162 0,26 39,93 63,106 12,7 38,12 58,13 19,0 44,6 54,14 12,8 34,11 61,8 38,-4 46,-1 89,39 65,60 92,111 100,191 l 7,68 -81,135 c -78,129 -81,136 -66,157 8,13 15,43 15,70 0,29 8,63 21,87 25,48 19,87 -18,131 -25,30 -25,31 -9,77 19,55 20,119 3,149 -7,12 -26,33 -42,47 -19,15 -35,42 -42,69 -7,28 -34,70 -73,117 l -62,73 12,44 c 11,37 10,50 -4,84 -23,59 -20,116 21,396 22,150 8,194 -60,194 -37,0 -61,-18 -107,-80 -40,-55 -164,-175 -242,-236 -32,-25 -58,-49 -58,-55 0,-18 -40,-8 -67,17 -15,15 -46,35 -69,45 -22,10 -48,27 -58,38 -26,29 -70,36 -107,17 -24,-12 -36,-13 -52,-5 -11,6 -70,12 -131,13 -107,1 -113,0 -154,-28 -25,-17 -46,-25 -52,-20 -4,5 -14,54 -20,108 -22,183 -71,327 -125,362 -13,9 -40,16 -59,16 -33,0 -86,-26 -86,-43 0,-16 -117,-134 -210,-211 -118,-99 -281,-258 -326,-319 l -33,-46 -161,2 c -123,2 -165,6 -178,17 -9,8 -78,69 -152,135 -229,204 -350,343 -350,400 0,13 -11,35 -25,48 -34,35 -116,36 -140,3 z m 1695,-109 c 50,-96 64,-190 65,-409 0,-213 -4,-239 -47,-302 -26,-37 -43,-36 -23,1 9,18 11,32 5,36 -6,4 -4,20 5,43 17,44 35,229 35,357 0,94 -19,189 -43,212 -11,12 -18,6 -42,-39 -15,-29 -41,-73 -57,-97 l -29,-43 26,6 c 14,4 25,4 25,1 0,-2 -24,-23 -52,-46 -42,-33 -47,-41 -27,-36 43,11 42,-4 -3,-50 l -42,-43 h 32 c 18,0 32,-3 32,-7 -1,-5 -21,-21 -45,-36 -52,-33 -56,-44 -17,-49 24,-3 20,-7 -40,-38 -37,-18 -65,-37 -63,-40 3,-4 36,-2 75,5 38,7 70,9 70,6 0,-3 -28,-32 -62,-63 l -63,-57 35,-1 c 19,0 49,4 67,9 17,5 34,7 37,4 3,-3 -6,-28 -20,-55 -20,-40 -23,-52 -13,-64 17,-21 64,-44 89,-44 35,0 22,-15 -31,-35 -28,-11 -53,-23 -55,-27 -2,-3 35,-39 83,-79 160,-131 371,-259 430,-259 l 28,-1 -35,-30 c -48,-41 -145,-87 -202,-95 -27,-3 -48,-9 -48,-13 0,-13 65,-69 114,-96 66,-38 43,-50 -62,-30 -108,21 -173,44 -288,104 -87,46 -102,51 -162,51 -115,0 -157,-33 -242,-187 -27,-49 -32,-51 -60,-23 -14,14 -20,34 -21,68 0,41 -2,44 -11,24 -15,-30 4,-91 37,-122 14,-13 26,-22 28,-19 2,2 25,36 52,74 97,141 137,165 236,144 29,-6 74,-20 99,-31 l 45,-20 -27,-23 c -32,-27 -98,-41 -127,-26 -28,16 -60,13 -106,-8 -56,-25 -94,-67 -122,-131 -13,-30 -32,-72 -42,-92 -19,-37 -19,-38 0,-38 12,0 28,14 39,33 25,43 57,57 125,57 h 54 l 56,70 c 43,53 64,72 95,81 45,14 61,6 86,-43 17,-33 44,-175 44,-237 0,-55 -19,-172 -31,-187 -5,-6 -30,-17 -54,-24 -32,-9 -54,-24 -76,-51 -16,-21 -46,-48 -67,-60 -20,-12 -39,-24 -40,-25 -2,-1 -12,-45 -22,-97 -24,-125 -74,-240 -126,-293 -30,-30 -43,-53 -48,-84 -7,-44 -38,-114 -56,-125 -6,-4 -10,12 -10,44 0,27 -3,57 -6,66 -6,14 -10,12 -30,-12 l -22,-28 -26,24 -26,25 -22,-22 -22,-22 -28,33 -28,32 -24,-29 c -23,-28 -24,-28 -50,-11 -26,17 -27,17 -51,-5 -25,-23 -25,-23 -40,-4 -8,10 -15,22 -15,27 0,4 -4,7 -9,7 -5,0 -18,-23 -29,-52 -18,-49 -20,-51 -31,-29 -7,12 -15,48 -18,79 -5,46 -13,67 -45,109 -44,58 -90,166 -114,269 l -15,66 26,38 c 49,70 57,75 108,55 40,-15 47,-15 82,-1 20,9 44,16 51,16 13,0 63,-88 78,-136 5,-18 2,-23 -20,-28 -38,-10 -74,-50 -74,-84 0,-50 31,-130 66,-171 65,-75 140,-90 215,-42 54,34 81,74 104,154 14,49 15,64 4,88 -20,49 -48,61 -164,67 l -106,5 -35,68 c -35,71 -40,89 -25,89 6,0 22,-27 37,-60 19,-42 32,-60 45,-60 17,0 19,9 19,78 0,42 3,106 6,142 l 5,65 -57,70 c -81,100 -88,121 -69,197 9,34 14,70 12,80 -3,11 4,30 18,46 l 23,27 40,-45 41,-45 89,89 90,88 11,112 c 5,61 13,147 16,191 3,44 10,115 16,157 l 11,78 -31,35 c -27,31 -31,43 -31,95 0,141 94,273 339,478 154,129 217,188 253,240 16,23 33,42 38,42 5,0 19,-18 30,-41 z m -1589,-29 c 17,-33 74,-104 128,-161 122,-130 376,-358 419,-376 31,-13 32,-15 32,-76 0,-60 -2,-65 -40,-102 -24,-23 -40,-48 -40,-62 0,-41 -16,-25 -49,51 -24,56 -50,92 -108,152 -93,97 -142,166 -269,379 -54,91 -103,164 -108,162 -15,-5 -23,-62 -31,-222 -7,-148 3,-271 31,-357 16,-50 62,-98 95,-98 22,0 23,-4 7,-29 -9,-15 -9,-25 0,-46 16,-34 15,-57 -2,-89 -12,-23 -15,-24 -26,-11 -16,19 -29,19 -50,0 -18,-17 -18,-17 -65,186 -22,96 -34,336 -24,454 14,150 46,305 63,305 3,0 19,-27 37,-60 z m -684,-112 c 44,-30 130,-105 198,-173 95,-96 129,-138 162,-201 60,-114 95,-224 87,-274 -7,-44 9,-95 35,-110 13,-7 14,-11 4,-21 -24,-24 -13,-36 32,-42 50,-5 85,-30 85,-58 0,-15 -12,-19 -70,-25 -38,-3 -70,-9 -70,-12 0,-2 29,-43 65,-90 l 66,-85 -53,-29 c -29,-16 -66,-42 -83,-58 l -29,-30 27,-28 c 15,-15 27,-31 27,-34 0,-4 -24,-12 -54,-19 -49,-11 -54,-14 -53,-38 2,-20 -5,-29 -33,-42 -62,-30 -118,-118 -271,-421 -96,-189 -122,-222 -203,-253 -55,-21 -122,-14 -155,16 -23,22 -24,23 -15,67 6,32 38,49 59,32 15,-12 75,25 75,46 0,14 7,16 40,11 56,-7 75,17 27,36 -31,14 -67,50 -67,69 0,5 24,8 53,8 29,0 67,8 87,18 33,16 35,20 45,90 8,59 15,77 34,91 18,14 22,24 18,41 -4,16 1,28 16,41 l 22,17 -29,31 c -47,49 -95,56 -168,26 -10,-4 -30,-28 -46,-53 -21,-34 -38,-50 -63,-57 -24,-7 -39,-20 -49,-43 -10,-21 -25,-35 -44,-40 -16,-4 -34,-15 -39,-23 -14,-22 -1,-66 29,-96 20,-20 23,-28 12,-34 -18,-12 -111,-11 -144,1 -32,13 -42,6 -24,-15 15,-18 15,-17 -25,-31 -23,-8 -29,-16 -28,-32 3,-21 -1,-22 -59,-22 -51,0 -69,5 -100,26 -21,15 -38,29 -38,33 0,3 9,30 20,59 19,49 27,122 14,134 -6,6 -43,-1 -122,-25 -62,-19 -69,-34 68,156 86,118 114,150 155,174 71,41 70,60 -5,153 -33,41 -59,82 -58,90 2,8 14,17 28,20 22,5 25,11 25,50 0,29 10,63 27,95 23,45 39,84 55,138 4,12 0,17 -15,17 -28,0 -42,28 -42,83 0,24 -9,64 -20,89 -22,51 -90,378 -90,437 0,22 4,42 8,45 4,2 29,-24 55,-59 26,-35 77,-90 114,-122 85,-74 160,-149 198,-198 l 30,-38 35,18 c 19,10 47,18 62,19 l 28,1 6,235 c 3,129 7,243 10,253 9,28 38,20 121,-35 z m 3557,-15 c -3,-16 -14,-62 -25,-103 -11,-41 -26,-111 -34,-155 -18,-97 -20,-282 -4,-287 9,-3 8,-17 -1,-55 l -13,-51 66,-79 c 48,-55 72,-93 83,-130 11,-38 26,-62 55,-86 45,-39 48,-61 20,-123 -18,-40 -126,-155 -136,-146 -3,3 -5,16 -5,30 0,13 -7,36 -15,50 -28,51 -46,107 -36,110 5,2 15,18 21,37 9,27 8,40 -4,64 -30,58 -39,50 -52,-44 -8,-60 -18,-75 -51,-75 -27,0 -133,93 -133,118 0,8 -21,33 -46,57 -42,38 -47,47 -48,88 -1,44 0,46 24,40 14,-3 27,-6 30,-6 3,-1 26,2 53,7 40,6 53,4 84,-15 46,-29 67,-50 87,-86 12,-23 15,-24 16,-8 0,10 -13,33 -29,50 -15,16 -36,53 -46,80 -10,28 -21,53 -24,57 -8,9 -205,-17 -249,-33 -30,-10 -39,-9 -80,14 -26,13 -92,44 -147,68 -71,31 -116,58 -155,94 -30,28 -69,56 -86,63 -19,8 -39,28 -50,50 -22,43 -63,92 -78,92 -5,0 -19,-9 -31,-20 l -22,-20 -18,20 c -10,11 -16,22 -14,23 31,26 102,67 122,72 27,7 43,-5 84,-60 12,-17 24,-27 27,-24 4,3 -3,18 -15,33 -18,23 -20,30 -8,37 23,15 62,10 109,-15 36,-18 51,-34 73,-79 16,-32 33,-55 38,-51 6,3 -3,29 -21,60 -34,60 -37,82 -15,90 20,8 45,-14 62,-53 14,-34 33,-44 33,-18 0,30 34,14 80,-36 46,-50 48,-51 71,-36 21,15 25,15 46,2 18,-12 28,-13 44,-4 17,9 23,7 35,-9 7,-11 26,-23 41,-27 15,-3 37,-16 49,-28 12,-12 33,-30 48,-40 20,-14 26,-26 26,-57 0,-30 6,-43 26,-59 41,-33 46,-25 20,32 -14,28 -30,66 -36,83 -6,17 -23,37 -38,45 -15,8 -37,24 -49,36 -12,13 -31,23 -42,23 -11,0 -22,9 -26,20 -7,22 -26,25 -56,9 -39,-20 10,39 60,73 72,51 120,97 184,183 69,91 107,135 119,135 5,0 6,-12 2,-27 z m -942,-444 c 40,-23 88,-54 107,-68 29,-22 31,-26 15,-32 -11,-4 -35,-8 -54,-8 -56,-2 -62,-10 -43,-62 16,-43 16,-49 -1,-93 -10,-25 -21,-46 -25,-46 -4,0 -15,13 -24,30 -15,25 -16,35 -6,69 10,33 9,43 -5,62 -9,13 -16,33 -16,46 0,18 -5,21 -27,20 -28,-2 -30,3 -17,37 6,17 4,18 -20,12 -37,-9 -51,2 -31,24 16,18 15,21 -19,50 -28,25 -36,40 -36,66 v 33 l 65,-49 c 35,-27 97,-68 137,-91 z m -1065,9 c 6,-7 13,-47 17,-88 6,-65 11,-80 42,-120 l 36,-45 -7,-95 c -4,-52 -13,-168 -19,-256 -8,-106 -16,-167 -25,-178 -8,-9 -15,-15 -18,-13 -2,2 -13,42 -24,88 -30,119 -30,119 -92,119 -29,0 -60,-6 -68,-12 -9,-7 -28,-46 -44,-86 -33,-84 -34,-82 47,-171 l 46,-51 56,51 c 31,29 59,50 61,47 7,-7 -106,-128 -118,-127 -7,0 -32,25 -57,54 -50,60 -63,67 -54,30 4,-16 0,-34 -9,-49 -9,-13 -19,-48 -22,-77 -4,-30 -12,-64 -18,-77 -9,-18 -7,-33 7,-70 25,-62 31,-109 17,-126 -10,-12 -16,-10 -38,10 -22,21 -28,39 -40,126 -18,130 -31,160 -85,195 -53,35 -55,36 -74,100 -8,28 -21,57 -29,63 -19,16 -19,2 -1,-41 31,-77 31,-77 -16,-68 -24,4 -47,8 -51,9 -4,0 -19,12 -32,26 -29,31 -31,23 -14,-56 12,-58 1,-83 -35,-78 -17,2 -20,9 -17,33 2,17 5,57 5,89 1,60 1,60 -44,94 -103,77 -178,144 -208,185 l -31,44 50,7 c 34,5 59,15 75,31 19,19 31,23 54,18 28,-5 31,-2 51,43 18,43 28,81 45,172 4,18 11,22 39,22 18,0 37,5 40,10 12,19 37,10 93,-34 32,-25 74,-52 95,-61 29,-12 43,-26 58,-60 34,-77 43,-68 35,36 l -7,95 51,58 c 49,56 50,59 50,120 0,34 3,66 7,69 12,13 210,8 220,-5 z m 1455,-251 c 100,-47 118,-60 155,-108 23,-30 58,-69 77,-88 32,-31 35,-39 30,-72 -6,-34 -4,-38 37,-66 24,-17 49,-28 54,-26 6,2 19,-19 29,-46 14,-40 15,-54 6,-71 -7,-12 -9,-37 -6,-55 4,-18 2,-44 -3,-58 -9,-23 -5,-33 22,-69 41,-53 79,-66 131,-44 21,9 40,25 43,36 6,24 11,25 35,3 17,-15 20,-15 34,-1 9,9 19,38 21,64 3,27 11,55 17,63 8,11 8,15 -1,18 -7,3 -13,16 -13,30 0,26 1,25 35,-13 38,-43 42,-60 20,-88 -9,-12 -15,-42 -15,-72 0,-48 -3,-54 -27,-66 -15,-7 -29,-20 -31,-29 -1,-9 28,-65 66,-125 37,-60 80,-130 95,-156 l 27,-46 -48,-12 c -44,-10 -52,-9 -106,16 -52,24 -59,25 -73,11 -23,-23 -9,-62 44,-118 38,-41 44,-51 33,-64 -18,-21 -43,-19 -150,15 -88,27 -99,34 -150,87 -98,103 -105,112 -92,125 7,7 12,38 12,70 0,80 18,155 41,172 17,11 18,17 9,42 -6,16 -17,36 -24,44 -7,8 -18,34 -25,57 -6,24 -22,53 -34,66 -20,22 -109,57 -142,57 -8,0 -28,25 -45,55 -25,43 -37,55 -56,55 -13,0 -24,-3 -24,-6 0,-3 16,-26 35,-51 19,-25 35,-49 35,-53 0,-19 -93,-19 -148,0 -31,10 -99,29 -149,40 -51,12 -93,25 -93,28 0,3 21,27 46,53 53,54 53,53 -61,64 -56,5 -127,24 -153,41 -2,1 14,18 35,38 31,29 46,36 80,36 41,0 44,2 69,53 18,35 29,74 32,120 l 5,67 h 41 c 22,0 50,7 60,15 11,8 26,15 33,15 7,0 63,-24 125,-53 z m -677,-124 c 28,-37 52,-71 54,-77 4,-9 -42,23 -117,83 -40,32 -42,36 -26,48 10,7 23,13 28,13 6,0 34,-30 61,-67 z M 2580,2954 c 101,-48 103,-50 85,-85 -26,-50 -19,-83 26,-124 35,-31 46,-36 74,-31 36,7 44,0 65,-54 25,-66 63,-92 170,-114 54,-12 55,-12 58,-50 4,-51 -34,-146 -58,-146 -10,0 -22,9 -25,20 -16,49 -104,120 -150,120 -9,0 -42,25 -74,55 -32,30 -65,55 -74,55 -23,0 -37,-31 -37,-83 v -44 l -45,45 c -45,44 -45,45 -100,39 -61,-6 -60,-9 -13,60 15,23 28,46 28,52 0,15 -28,28 -77,36 -24,4 -43,12 -43,19 0,6 23,34 50,61 l 50,49 -52,53 c -28,29 -49,55 -46,58 11,11 84,44 98,45 9,0 49,-16 90,-36 z m 1960,-35 50,-11 v -42 c 0,-23 -5,-47 -12,-54 -9,-9 -8,-13 3,-17 116,-42 134,-43 189,-15 l 39,20 33,-41 c 45,-56 101,-79 194,-79 68,0 74,2 74,20 0,19 2,20 29,5 17,-8 32,-18 35,-23 7,-11 -27,-146 -39,-154 -19,-14 -52,-8 -71,13 -39,43 -72,52 -171,47 -75,-4 -95,-2 -105,10 -17,20 -71,42 -102,42 -29,0 -41,-18 -51,-78 l -7,-43 -41,8 c -23,4 -71,8 -107,8 h -65 l 18,54 c 10,29 16,58 14,64 -2,6 -25,18 -53,28 -49,17 -48,21 7,33 23,5 27,12 33,56 8,60 6,65 -42,89 l -36,19 49,25 c 57,30 66,31 135,16 z m 207,-26 c 8,-21 22,-45 30,-54 13,-15 11,-19 -15,-38 -37,-26 -48,-26 -90,-1 -29,18 -33,25 -28,48 16,65 27,82 58,82 24,0 32,-6 45,-37 z m -377,-290 c 0,-7 -18,-31 -39,-52 l -39,-39 25,-24 c 28,-26 53,-69 53,-92 0,-13 -5,-13 -41,-1 -23,8 -43,15 -45,15 -11,0 0,-33 33,-100 21,-41 39,-78 41,-82 2,-5 -35,-8 -82,-8 -62,0 -86,-3 -86,-12 0,-21 46,-112 63,-127 33,-27 18,-33 -63,-26 l -80,7 v -53 c 0,-37 7,-65 21,-88 31,-51 16,-58 -88,-39 -49,9 -96,19 -105,23 -16,6 -18,1 -18,-39 0,-26 7,-63 15,-83 17,-39 14,-49 -10,-39 -25,9 -64,105 -70,176 -8,92 -1,98 72,61 33,-16 73,-31 89,-33 25,-3 28,0 24,17 -7,29 -6,202 1,210 4,3 22,-3 40,-14 67,-41 79,-27 58,67 -18,75 -11,85 48,67 26,-8 56,-12 65,-9 16,5 16,8 -6,37 -30,41 -76,121 -76,133 0,5 18,8 40,6 29,-3 40,0 40,9 0,20 -10,31 -52,63 -42,31 -42,41 2,51 26,6 43,25 23,25 -5,0 -28,18 -53,39 l -45,39 123,-36 c 73,-22 122,-41 122,-49 z m -2165,-15 c -9,-24 -12,-58 -8,-118 l 6,-85 -34,-15 c -48,-22 -95,-89 -110,-157 l -12,-58 -15,35 c -8,19 -17,78 -20,130 l -5,95 20,-24 20,-25 43,75 c 41,71 116,179 125,179 2,0 -2,-15 -10,-32 z m 135,30 c 0,-2 -7,-25 -15,-52 -18,-58 -20,-174 -4,-246 8,-40 23,-63 64,-108 69,-75 130,-108 243,-129 77,-14 92,-20 92,-36 0,-13 -5,-17 -17,-13 -10,3 -40,8 -68,11 -88,11 -178,43 -230,82 -39,29 -59,56 -90,118 -39,77 -40,81 -40,185 0,120 17,190 47,190 10,0 18,-1 18,-2 z m 2430,-86 c 28,-22 30,-70 4,-89 -23,-17 -23,-17 -61,7 -33,20 -41,47 -27,84 8,22 56,20 84,-2 z M 2840,2371 c 0,-42 -4,-83 -10,-91 -16,-25 -22,-4 -10,39 10,38 7,83 -7,136 -5,17 -4,18 11,6 12,-10 16,-31 16,-90 z m -60,31 c 18,-52 6,-77 -36,-77 -24,0 -32,7 -48,38 -15,31 -16,43 -7,63 9,21 17,25 44,22 28,-3 34,-9 47,-46 z m 457,16 c 28,-26 31,-68 5,-68 -27,0 -42,20 -42,57 0,39 6,41 37,11 z m -104,-36 c 54,-76 59,-88 42,-105 -7,-8 -35,-18 -61,-22 -42,-6 -49,-4 -74,20 l -29,27 26,39 c 14,22 30,39 34,39 5,0 19,-16 31,-35 23,-34 38,-45 38,-25 0,6 -13,29 -30,52 -16,22 -30,45 -30,50 0,20 21,4 53,-40 z m -253,-19 c 0,-37 -8,-72 -20,-98 -12,-22 -18,-29 -14,-15 3,14 8,58 11,98 6,86 23,97 23,15 z m 2325,-46 c 99,-103 101,-104 180,-127 44,-12 85,-27 90,-33 7,-6 2,-8 -15,-4 -156,38 -179,41 -220,22 -22,-10 -43,-15 -46,-12 -4,3 -1,29 6,57 7,28 10,53 8,55 -2,3 -19,1 -36,-4 -31,-9 -32,-8 -32,19 0,52 -8,61 -51,54 l -39,-7 v 42 c 0,38 2,41 27,41 21,0 49,-22 128,-103 z m -2708,66 c -27,-53 -28,-79 -6,-108 29,-35 59,-46 153,-54 54,-4 81,-10 84,-20 4,-11 -10,-13 -74,-9 -98,6 -189,43 -204,84 -12,31 1,87 26,115 25,28 37,23 21,-8 z m 2259,-31 c 1,-38 23,-73 68,-107 20,-15 38,-37 42,-48 3,-12 18,-37 31,-55 20,-26 31,-33 50,-29 20,4 31,-5 64,-49 21,-29 48,-58 58,-64 11,-5 58,-10 105,-10 47,0 88,-5 91,-10 9,-15 -46,-112 -61,-106 -7,3 -18,-2 -25,-10 -6,-8 -17,-13 -23,-11 -6,3 -31,-14 -55,-37 -29,-27 -41,-34 -36,-21 12,35 16,89 7,104 -8,11 -14,10 -35,-4 -25,-16 -25,-16 -20,4 7,29 -5,73 -20,68 -7,-2 -17,10 -23,27 -6,18 -28,43 -52,59 -33,22 -44,37 -56,81 -13,43 -23,59 -51,76 -60,37 -85,75 -85,132 0,35 4,48 13,46 6,-3 12,-19 13,-36 z m -226,-12 c 13,-22 50,-59 82,-82 32,-24 58,-43 58,-43 0,0 -9,-18 -20,-40 -11,-22 -20,-45 -20,-52 0,-17 4,-18 -82,21 -64,30 -79,42 -106,86 -18,28 -32,53 -32,56 0,2 12,1 26,-2 25,-6 27,-5 21,22 -4,21 0,35 16,52 11,12 23,22 26,22 3,0 17,-18 31,-40 z m -2850,-5 c 0,-8 -12,-25 -27,-39 -20,-19 -31,-23 -44,-15 -19,10 -49,48 -49,61 0,5 27,8 60,8 46,0 60,-3 60,-15 z m 1260,-16 c 0,-18 -45,-137 -57,-149 -2,-2 -8,2 -12,9 -6,9 0,33 15,65 13,28 24,60 24,72 0,11 3,24 6,27 11,11 24,-3 24,-24 z m 304,-5 c 9,-3 16,-17 16,-30 0,-19 -5,-24 -24,-24 -16,0 -27,7 -31,20 -11,33 5,47 39,34 z m 2413,-81 c -15,-21 -36,-44 -47,-51 -17,-11 -21,-10 -27,5 -4,11 1,22 17,32 14,9 36,26 50,38 35,30 38,20 7,-24 z m -727,0 c 0,-33 1,-34 30,-28 30,7 31,6 28,-27 -3,-50 8,-61 52,-54 l 38,6 -11,-30 c -9,-25 -9,-33 1,-39 21,-13 165,-22 175,-12 6,6 -1,23 -18,45 -15,20 -26,38 -24,40 2,2 20,6 40,9 37,5 37,5 37,-31 0,-20 2,-48 4,-62 l 3,-25 -107,-3 -107,-3 -42,53 c -23,29 -59,68 -81,87 -21,18 -47,50 -58,71 l -20,39 30,-1 c 27,-1 30,-4 30,-35 z m 221,13 c 8,4 9,-1 4,-15 -4,-13 -1,-28 5,-36 7,-8 9,-15 4,-15 -9,0 -64,64 -64,75 0,3 9,1 20,-5 11,-6 25,-8 31,-4 z m -2884,-73 c 21,-31 42,-62 48,-69 5,-7 6,-17 2,-21 -5,-4 -12,-1 -17,6 -10,17 -43,-18 -87,-91 -15,-26 -31,-48 -35,-48 -14,0 -8,132 7,199 24,102 30,103 82,24 z m 993,10 -1,-38 -19,24 c -26,30 -25,51 0,51 17,0 20,-7 20,-37 z m 2130,-43 c 0,-6 -44,-30 -55,-30 -7,0 -6,35 0,42 8,7 55,-3 55,-12 z m -856,-29 79,-27 v -59 c 0,-70 -1,-70 -108,-56 -52,6 -64,11 -47,16 20,7 16,12 -50,62 -79,58 -86,67 -69,87 16,19 99,9 195,-23 z m -2570,-13 c 18,-115 44,-143 103,-108 57,34 63,25 64,-97 0,-107 13,-173 35,-180 7,-2 15,13 19,34 8,47 61,156 85,178 17,15 19,15 25,-7 11,-35 36,-58 63,-58 25,0 150,-45 165,-60 15,-14 -65,-60 -104,-60 -30,0 -42,-6 -66,-36 -15,-19 -47,-55 -70,-79 -24,-24 -43,-51 -43,-60 0,-28 -23,-16 -77,40 -29,30 -58,55 -63,55 -16,0 -39,-43 -46,-87 -4,-24 -10,-43 -14,-43 -4,0 -26,28 -49,63 -28,44 -41,74 -41,99 0,19 -3,37 -6,41 -11,11 -35,-5 -58,-39 -20,-30 -25,-33 -36,-19 -28,34 -24,109 11,214 18,55 30,103 26,107 -3,4 -18,-1 -32,-10 -29,-19 -30,-17 -10,32 15,34 91,122 106,122 3,0 9,-19 13,-42 z m 461,-119 c 94,-62 210,-71 305,-21 55,28 60,29 74,13 9,-10 16,-20 16,-23 0,-4 -30,-21 -67,-39 -59,-29 -79,-33 -148,-33 -71,-1 -88,3 -145,32 -36,17 -78,43 -94,56 -25,21 -28,27 -17,40 7,9 18,13 25,9 6,-4 29,-19 51,-34 z m 1950,-24 c 37,-9 108,-19 159,-23 l 91,-7 12,-60 c 15,-78 5,-99 -45,-91 -20,3 -80,11 -132,16 -52,6 -110,13 -127,16 l -33,6 v 79 c 0,44 2,79 4,79 3,0 35,-7 71,-15 z m 369,-238 c -33,-99 -43,-117 -84,-158 -29,-27 -51,-59 -55,-78 -14,-65 -14,-22 0,59 21,118 31,145 68,173 19,14 46,54 67,97 30,62 35,69 38,46 2,-15 -13,-77 -34,-139 z m -715,71 c -9,-17 -13,-18 -20,-7 -15,24 -10,37 11,32 16,-4 18,-9 9,-25 z m 107,-19 c 4,-8 1,-8 -14,0 -12,6 -24,16 -28,22 -4,8 -1,8 14,0 12,-6 24,-16 28,-22 z m 377,-25 c 121,-7 118,-4 88,-89 l -18,-50 -83,-7 c -46,-4 -87,-5 -91,-2 -8,4 -89,152 -89,161 0,3 19,3 43,0 23,-4 90,-9 150,-13 z m -2027,-133 -65,-90 69,-203 c 38,-111 68,-204 66,-205 -1,-2 -27,5 -56,15 l -53,17 -25,70 c -14,39 -45,121 -68,183 -24,63 -44,124 -44,136 0,16 22,36 88,79 48,31 101,68 117,81 50,40 40,13 -29,-83 z m 1731,12 c 57,-37 103,-73 103,-78 0,-17 -131,-378 -142,-392 -11,-13 -99,-45 -106,-38 -2,2 26,96 64,208 l 67,203 -66,89 c -70,92 -83,118 -44,92 12,-9 68,-47 124,-84 z m 134,0 c 13,-15 12,-15 -8,-4 -24,12 -29,21 -14,21 5,0 15,-7 22,-17 z m -292,-82 21,-29 -30,-123 c -16,-68 -30,-135 -30,-148 0,-27 -88,-118 -100,-104 -4,4 -2,46 6,93 7,47 13,98 13,113 1,24 -1,26 -18,18 -10,-6 -20,-8 -23,-6 -3,3 15,129 22,151 0,1 18,20 41,43 46,46 61,44 98,-8 z m -1387,1 c 20,-22 38,-54 41,-73 21,-123 21,-122 -1,-110 -12,6 -23,7 -26,3 -3,-5 2,-53 10,-107 8,-55 13,-105 12,-113 -2,-9 -18,0 -49,27 -39,34 -47,47 -53,88 -3,26 -18,96 -32,156 l -26,109 28,29 c 37,38 55,37 96,-9 z m 1908,-12 c 0,-44 -28,-66 -95,-75 -32,-4 -64,-9 -72,-12 -9,-4 -13,5 -13,34 0,68 7,72 153,81 24,2 27,-2 27,-28 z m -1044,-46 c 8,-18 14,-59 14,-91 -1,-122 -80,-222 -196,-247 -47,-10 -158,12 -194,39 -46,34 -60,58 -81,138 -19,75 -13,143 15,183 12,16 15,6 26,-74 7,-51 17,-95 21,-98 5,-3 17,0 28,5 17,9 20,6 26,-27 10,-53 14,-56 42,-30 27,25 25,27 67,-36 11,-18 14,-17 34,18 21,35 23,36 45,21 29,-19 37,-12 37,33 0,26 3,33 15,28 8,-3 21,-8 28,-11 19,-8 37,58 37,134 0,68 12,73 36,15 z m 835,-50 c -3,-21 -9,-36 -13,-35 -11,2 -11,8 1,41 14,41 19,38 12,-6 z M 2886,1245 c 61,-33 105,-63 109,-75 9,-28 44,-234 40,-238 -2,-2 -21,8 -42,21 -21,14 -68,39 -103,57 -97,48 -97,49 -105,148 -3,48 -9,99 -11,115 -3,15 -2,27 2,27 4,0 53,-25 110,-55 z m 971,33 c -3,-13 -8,-57 -12,-98 -10,-120 -5,-113 -113,-171 -53,-29 -105,-59 -115,-67 -9,-8 -20,-13 -23,-10 -4,5 16,154 32,230 4,22 24,37 107,82 115,62 132,67 124,34 z m -372,-215 c 4,-10 9,-54 12,-98 l 5,-80 -43,-52 -43,-53 h -102 -103 l -45,56 c -50,61 -52,72 -35,170 13,75 1,70 205,73 127,1 143,-1 149,-16 z"
       id="path1" />
    <path
       d="m 1753,3983 c 6,-141 15,-228 33,-315 5,-23 10,-27 29,-22 l 22,6 -13,-53 c -8,-30 -14,-59 -14,-66 0,-27 21,-11 43,34 l 24,46 6,-31 c 8,-41 23,-41 36,1 6,17 22,45 35,62 l 23,29 -4,-49 c -3,-35 0,-56 11,-70 20,-27 38,-9 45,47 l 6,43 20,-32 c 22,-37 37,-34 29,5 -3,15 -1,38 4,52 l 9,25 7,-23 c 14,-41 36,-18 36,37 0,20 -28,60 -106,151 -193,226 -245,280 -266,280 -21,0 -21,-3 -15,-157 z"
       id="path2" />
    <path
       d="m 1613,3383 c 14,-72 -3,-117 -77,-206 -81,-98 -94,-128 -72,-163 10,-14 18,-37 19,-52 2,-27 4,-27 81,-30 88,-3 172,16 200,47 17,19 44,146 33,157 -13,13 -47,-19 -58,-56 -14,-46 -33,-66 -73,-76 -29,-7 -29,-7 -9,13 25,25 39,103 21,115 -21,13 -41,9 -88,-18 l -45,-26 25,27 c 14,14 62,45 108,67 50,25 78,44 71,49 -8,4 9,17 42,34 55,28 104,67 120,97 10,18 -7,68 -24,68 -5,0 -46,-35 -92,-77 -45,-43 -96,-86 -114,-96 l -32,-19 31,56 c 21,36 29,62 25,75 -8,27 -53,61 -80,61 -20,0 -21,-2 -12,-47 z"
       id="path3" />
    <path
       d="m 2010,3288 c -60,-63 -71,-94 -21,-59 l 28,20 11,-23 c 9,-19 6,-30 -14,-59 -35,-52 -32,-63 19,-58 28,3 19,-16 -18,-38 -51,-30 -75,-75 -75,-143 0,-32 4,-58 8,-58 4,0 32,25 62,55 46,46 51,55 33,55 -61,0 -28,45 90,123 71,47 102,85 60,73 -10,-2 -45,-7 -78,-11 l -60,-7 19,21 c 10,11 42,35 70,53 58,38 43,49 -25,19 -50,-23 -59,-14 -40,41 27,77 7,76 -69,-4 z"
       id="path4" />
    <path
       d="m 1867,3129 c -28,-23 -37,-38 -37,-61 0,-55 -27,-94 -80,-117 -59,-26 -155,-51 -191,-51 -36,0 -60,-10 -53,-21 3,-5 45,-9 94,-9 112,0 184,25 246,84 34,33 44,50 44,74 0,40 16,81 42,110 l 21,22 h -24 c -13,0 -41,-14 -62,-31 z"
       id="path5" />
    <path
       d="m 4640,3765 c 7,-9 15,-13 17,-11 7,7 -7,26 -19,26 -6,0 -6,-6 2,-15 z"
       id="path6" />
    <path
       d="m 5164,3335 c -14,-22 -15,-32 -5,-65 13,-44 62,-90 95,-90 37,0 76,37 76,72 0,46 -66,108 -114,108 -27,0 -39,-6 -52,-25 z m 107,-24 c 30,-31 38,-68 17,-89 -34,-34 -98,13 -98,72 0,53 37,61 81,17 z"
       id="path7" />
    <path
       d="m 5445,3251 c -3,-5 -1,-12 5,-16 5,-3 10,1 10,9 0,18 -6,21 -15,7 z"
       id="path8" />
    <path
       d="m 5436,3094 c -9,-23 -2,-28 13,-10 7,8 8,17 3,20 -6,3 -13,-1 -16,-10 z"
       id="path9" />
    <path
       d="m 3246,3505 -47,-55 10,-76 c 6,-41 11,-98 11,-125 0,-44 3,-51 26,-59 14,-6 49,-10 79,-10 h 53 l 6,38 c 3,20 8,64 11,97 3,33 8,77 11,97 5,35 2,42 -47,93 -28,30 -55,55 -59,55 -3,0 -28,-25 -54,-55 z"
       id="path10" />
    <path
       d="m 2906,3341 c -8,-13 3,-38 19,-45 18,-6 39,20 31,39 -6,16 -41,21 -50,6 z"
       id="path11" />
    <path
       d="m 2964,3117 c -11,-29 0,-62 21,-62 28,0 31,36 6,59 -18,17 -21,17 -27,3 z"
       id="path12" />
    <path
       d="m 2990,2897 c 0,-38 18,-87 32,-87 11,0 10,31 -3,71 -17,51 -29,58 -29,16 z"
       id="path13" />
    <path
       d="m 4864,3385 c -7,-18 13,-45 33,-45 19,0 28,27 13,45 -16,19 -39,19 -46,0 z"
       id="path14" />
    <path
       d="m 4947,3203 c -11,-11 -8,-22 13,-43 22,-22 50,-17 50,9 0,31 -43,55 -63,34 z"
       id="path15" />
    <path
       d="m 5010,3042 c 0,-15 11,-44 25,-65 50,-72 63,-30 15,46 -16,26 -32,47 -35,47 -3,0 -5,-12 -5,-28 z"
       id="path16" />
    <path
       d="m 5135,3050 c 10,-11 25,-20 33,-20 12,0 12,4 -3,20 -10,11 -25,20 -33,20 -12,0 -12,-4 3,-20 z"
       id="path17" />
    <path
       d="m 9190,3499 c -1009,-22 -1949,-73 -2930,-160 -129,-11 -236,-22 -237,-23 -1,-1 3,-96 9,-211 l 11,-210 -125,-440 -126,-440 -5,-202 c -3,-112 -2,-205 2,-207 3,-2 233,13 511,35 734,57 2017,123 2600,133 1729,32 2957,7 4435,-89 360,-24 928,-68 1043,-81 l 52,-5 v 216 217 l -114,381 c -63,210 -121,406 -130,436 -14,47 -14,79 -4,257 6,112 9,206 7,209 -3,2 -138,16 -300,30 -1606,137 -3165,188 -4699,154 z m 768,-207 c 18,-55 22,-92 22,-193 v -125 l -75,-102 c -41,-56 -75,-104 -75,-107 0,-3 35,-5 78,-5 h 77 l 23,-62 c 20,-58 22,-80 22,-286 0,-175 3,-230 15,-259 9,-22 15,-68 15,-123 v -87 l -322,-6 c -178,-4 -403,-7 -501,-7 h -178 l 6,58 c 7,70 42,621 50,792 9,171 8,170 55,118 l 39,-43 -25,80 c -45,143 -114,384 -114,400 0,17 63,19 566,23 l 300,2 z m 919,56 c 26,-35 61,-142 68,-207 l 7,-73 -241,7 -241,7 v -99 c 0,-55 3,-128 6,-162 l 7,-61 h 188 187 l 6,-87 c 4,-49 9,-114 12,-146 l 5,-58 -195,7 -195,7 -3,-103 -3,-104 -52,-21 c -28,-11 -55,-24 -59,-28 -4,-4 121,-7 278,-7 157,0 312,-3 346,-6 l 60,-7 6,-56 c 3,-31 8,-93 12,-138 l 6,-83 -228,1 c -126,1 -323,5 -438,8 l -208,6 -51,125 -51,125 -4,373 c -2,204 -1,372 2,372 4,0 21,-16 38,-35 17,-20 33,-34 35,-31 3,2 -34,110 -81,240 -47,130 -86,239 -86,241 0,3 193,5 429,5 331,0 431,-3 438,-12 z m -1885,-98 27,-95 -26,-340 c -14,-187 -28,-342 -30,-345 -2,-2 -24,-7 -48,-10 l -43,-5 63,-204 c 55,-180 62,-211 58,-262 l -6,-57 -81,-7 c -44,-4 -112,-5 -151,-3 l -70,3 -75,262 -75,263 h -71 -72 l -5,-32 c -3,-18 -18,-139 -33,-268 -15,-129 -29,-237 -31,-240 -4,-5 -385,-22 -389,-17 -5,6 141,1007 148,1007 4,0 19,-17 33,-37 15,-23 25,-31 25,-21 0,9 -18,97 -39,195 -63,287 -61,272 -42,277 9,3 174,10 366,16 193,6 382,12 420,14 129,5 116,13 147,-94 z m 2520,89 c 247,-7 356,-14 364,-22 7,-7 32,-57 57,-112 47,-106 49,-116 112,-592 8,-56 17,-118 21,-137 l 6,-36 h -46 c -25,0 -46,-2 -46,-5 0,-3 49,-104 110,-223 82,-162 111,-230 115,-267 l 5,-50 -142,3 c -90,2 -147,8 -155,15 -7,7 -71,130 -142,274 l -130,261 -54,7 c -72,9 -93,4 -90,-20 1,-11 12,-114 23,-230 11,-115 23,-228 25,-249 l 6,-39 -198,7 c -108,4 -198,8 -199,9 -1,1 -11,135 -23,297 -12,162 -29,368 -37,458 -8,90 -14,176 -12,193 l 3,30 35,-30 c 19,-17 38,-30 42,-31 3,0 -41,109 -98,241 -57,133 -104,246 -104,250 0,12 123,11 552,-2 z m 861,-38 c 51,-6 51,-7 59,-46 7,-38 87,-484 149,-835 16,-91 31,-175 34,-186 4,-19 -4,-25 -58,-45 l -62,-24 40,-3 c 145,-10 311,-19 313,-16 2,1 -12,83 -32,181 -19,98 -58,297 -86,443 -28,146 -62,321 -76,389 -13,69 -24,126 -24,127 0,8 257,-10 267,-19 32,-24 111,-195 127,-272 9,-44 30,-138 46,-210 141,-626 148,-663 139,-770 -4,-55 -8,-117 -9,-139 v -38 l -67,6 c -38,4 -243,15 -457,26 -214,11 -390,21 -391,23 -1,1 -28,173 -59,382 -32,209 -66,430 -76,490 -10,61 -17,111 -16,113 2,1 20,-11 41,-28 21,-17 40,-28 42,-26 2,2 -50,112 -117,245 -66,132 -120,244 -120,247 0,7 312,-5 393,-15 z m -4391,-66 c 11,-56 13,-90 5,-137 -5,-35 -10,-64 -12,-66 -1,-2 -109,-9 -239,-16 -130,-8 -238,-15 -240,-17 -8,-8 -58,-301 -53,-306 3,-3 87,-1 187,3 100,5 183,7 185,4 1,-3 -7,-66 -19,-140 l -21,-135 -105,-7 c -58,-4 -146,-10 -197,-14 l -92,-6 -18,-99 -18,-99 -62,-27 c -35,-15 -63,-30 -63,-33 0,-3 48,-2 108,1 244,16 563,31 567,27 5,-5 -34,-270 -41,-277 -3,-3 -157,-13 -342,-22 -185,-10 -378,-20 -429,-24 -107,-8 -93,-26 -122,149 l -18,108 33,157 c 18,86 54,252 79,369 25,117 45,215 45,217 0,16 20,0 36,-30 10,-19 21,-35 25,-35 3,0 -9,100 -27,223 -19,122 -34,229 -34,238 0,20 35,24 325,40 110,6 256,14 325,18 69,5 146,9 171,10 l 46,1 z m 5523,-5 c 525,-40 545,-42 549,-49 2,-3 0,-64 -5,-134 -6,-102 -5,-136 7,-169 26,-75 29,-73 -117,-92 -72,-9 -133,-16 -134,-14 -2,2 -24,38 -50,80 -30,51 -54,80 -68,82 -49,10 -187,17 -187,9 0,-4 12,-54 26,-110 25,-97 26,-104 10,-128 -13,-19 -14,-26 -4,-29 7,-3 110,-12 228,-21 118,-9 250,-19 292,-22 59,-5 79,-10 82,-22 3,-9 41,-140 85,-292 l 81,-277 v -141 c 0,-164 19,-148 -151,-131 -57,6 -249,21 -427,34 -177,12 -324,25 -327,27 -9,9 -86,361 -82,373 5,13 261,51 276,42 5,-3 28,-37 51,-76 23,-39 47,-73 52,-76 11,-7 209,-26 215,-20 2,2 -8,50 -23,107 -14,57 -27,110 -28,117 0,7 23,24 53,36 l 54,23 -34,6 c -19,3 -177,16 -351,28 -266,19 -319,26 -322,38 -15,50 -87,384 -83,387 2,2 19,-7 37,-21 19,-14 35,-25 37,-25 5,0 -5,19 -143,266 -68,122 -124,225 -124,229 0,3 30,3 68,0 37,-3 243,-19 457,-35 z m -6472,-55 c 7,-56 5,-89 -13,-175 -12,-58 -27,-114 -33,-125 -17,-33 -251,-288 -254,-278 -2,6 15,88 37,183 22,95 39,174 38,175 -3,2 -272,-16 -275,-19 -1,-1 -48,-182 -104,-404 l -103,-402 -70,-35 -71,-35 55,6 c 131,11 566,44 596,44 32,0 32,-1 36,-52 3,-44 -24,-214 -37,-226 -2,-2 -151,-15 -332,-28 -180,-13 -377,-28 -438,-34 -60,-5 -118,-10 -128,-10 -18,0 -19,10 -15,153 5,149 6,155 60,342 31,105 77,267 103,360 26,94 49,172 51,173 1,2 14,-18 29,-45 l 25,-48 -5,60 c -8,89 -25,355 -25,396 v 36 l 218,17 c 119,10 287,23 372,31 85,7 182,12 215,11 l 60,-1 z"
       id="path18" />
    <path
       d="m 9506,3071 c -2,-3 -7,-92 -11,-196 l -7,-190 141,188 c 78,103 141,192 141,198 0,11 -257,11 -264,0 z"
       id="path19" />
    <path
       d="m 9545,2395 c -66,-86 -121,-160 -123,-165 -2,-6 48,-10 131,-10 h 134 l 7,124 c 5,88 4,136 -5,165 -7,23 -15,41 -18,41 -3,0 -60,-70 -126,-155 z"
       id="path20" />
    <path
       d="m 8460,3048 c 0,-2 -9,-73 -19,-158 -11,-85 -18,-156 -17,-157 1,-2 79,1 172,5 134,7 164,10 144,19 -14,6 -41,17 -61,26 l -35,14 7,74 c 4,41 9,98 12,127 l 4,52 h -103 c -57,0 -104,-1 -104,-2 z"
       id="path21" />
    <path
       d="m 11433,3034 c 4,-16 12,-87 18,-158 7,-71 17,-129 23,-131 6,-2 83,-6 171,-8 l 160,-5 -66,31 -66,31 -13,117 c -7,65 -16,122 -19,127 -3,6 -53,13 -110,17 l -103,8 z"
       id="path22" />
  </g>
</svg>
