<svg width="3059" height="1384" viewBox="0 0 3059 1384" fill="none" xmlns="http://www.w3.org/2000/svg">
<g clip-path="url(#clip0_55_604)">
<path d="M1114.73 595.559C1112.91 591.876 1111.32 588.961 1109.96 586.634C1110.8 589.37 1111.93 592.771 1113.5 596.939C1114.7 600.187 1115.98 603.358 1117.24 606.58C1117.83 605.71 1118.39 604.867 1119.01 603.997C1117.57 601.21 1116.11 598.397 1114.7 595.559H1114.73Z" fill="#5D5D5D"/>
<path d="M1339.74 811.842L1345.23 811.893C1339.87 809.924 1334.46 807.776 1329.05 805.474L1339.74 811.842Z" fill="#5D5D5D"/>
<path d="M1272.81 811.228L1331.34 811.765L1183.13 723.39C1209.15 757.272 1239.32 786.705 1272.81 811.228Z" fill="#6B76D2"/>
<path d="M1278.81 815.524C1324.41 847.718 1375.95 870.912 1431.55 883.646L1431.48 883.033C1436.68 882.317 1441.6 881.422 1446.32 880.322L1338.54 816.087L1278.78 815.524H1278.81Z" fill="#5564A0"/>
<path d="M1121.24 608.216C1120.52 609.239 1119.83 610.288 1119.14 611.336C1134.49 648.952 1153.82 683.473 1176.51 714.517L1241.07 753.002C1196 717.637 1153.87 669.665 1121.24 608.216Z" fill="#793EA3"/>
<path d="M1529.08 797.88C1520.41 807.571 1508.67 815.192 1494.34 820.408C1478.85 826.648 1460.11 829.997 1438.78 829.997C1413.94 829.997 1386.41 825.471 1357.82 816.24L1346.95 816.138L1452.14 878.864C1455.5 877.944 1458.73 876.947 1461.83 875.847C1501.31 860.606 1520.59 830.355 1529.08 797.88Z" fill="#2D899E"/>
<path d="M1774.43 487.391L1690.9 622.536C1690.95 623.866 1691 625.17 1691.05 626.474L1773.35 646.906C1773.56 645.167 1773.79 643.428 1773.97 641.689C1780.55 578.119 1779.45 527.539 1774.45 487.391H1774.43Z" fill="#3AAACC"/>
<path d="M1603.25 842.706C1581.86 863.624 1557.28 881.319 1530.31 894.974C1531.33 894.974 1532.36 895 1533.38 895C1534.77 895 1536.15 895 1537.56 895C1552.82 894.872 1571.53 891.292 1591.71 884.081C1602.86 879.913 1614.4 874.671 1626.04 868.252L1603.27 842.732L1603.25 842.706Z" fill="#5564A0"/>
<path d="M1629.78 866.104C1693.28 829.895 1758.33 760.085 1772.81 651.151L1691.11 630.873C1691.11 632.023 1691.13 633.149 1691.13 634.299C1691.13 714.312 1658.67 786.884 1606.25 839.689L1629.78 866.079V866.104Z" fill="#2D899E"/>
<path d="M1523.26 893.721C1551.92 879.913 1577.99 861.553 1600.45 839.536L1574.66 810.589L1523.28 893.721H1523.26Z" fill="#2D899E"/>
<path d="M1546.74 779.289C1540.77 819.539 1521.03 866.616 1464.42 886.178L1472.47 890.985C1487.31 892.954 1502.39 894.207 1517.67 894.719L1571.71 807.316L1546.74 779.289Z" fill="#5564A0"/>
<path d="M1543.69 698.1L1544.2 697.998C1544.41 698.867 1549.05 719.426 1549.05 747.299C1549.05 755.329 1548.64 764.304 1547.48 773.766L1574.02 803.556L1682.13 628.674L1682.29 628.443L1467.16 552.957C1467.16 552.957 1467.34 553.187 1467.44 553.289C1508.64 603.69 1534.33 652.711 1543.72 698.1H1543.69Z" fill="#2D899E"/>
<path d="M1686.59 621.411C1680.03 473.813 1561.53 354.778 1413.91 346.851C1408.71 358.307 1405.22 370.325 1403.56 382.958C1394.99 447.807 1434.35 511.096 1462.16 546.692L1684.57 624.736L1686.62 621.411H1686.59Z" fill="#3AAACC"/>
<path d="M1457.11 888.684C1458.57 888.94 1460.06 889.144 1461.52 889.374L1459.24 888.019C1458.55 888.249 1457.83 888.454 1457.11 888.684Z" fill="#5D5D5D"/>
<path d="M1686.85 629.799L1686.46 629.696L1576.97 806.804L1603.43 836.518C1654.98 784.48 1686.9 713.034 1686.9 634.274C1686.9 632.765 1686.87 631.282 1686.85 629.773V629.799Z" fill="#3AAACC"/>
<path d="M1738.05 177.824C1710.49 137.242 1670.85 105.636 1624.32 87.9146L1632.11 160.128C1657.24 165.345 1683.47 174.141 1708.87 185.828L1738.05 177.849V177.824Z" fill="#27C46A"/>
<path d="M1862.54 318.288C1862.39 317.878 1862.26 317.444 1862.11 317.035C1861.62 315.603 1861.11 314.196 1860.62 312.79C1859.95 310.846 1859.26 308.928 1858.57 307.011C1858.03 305.553 1857.52 304.095 1856.98 302.663C1856.29 300.822 1855.62 298.981 1854.93 297.14C1854.39 295.682 1853.83 294.25 1853.29 292.793C1852.59 290.977 1851.9 289.187 1851.18 287.397C1850.65 285.965 1850.08 284.559 1849.52 283.152C1848.8 281.337 1848.08 279.547 1847.34 277.757C1846.78 276.402 1846.24 275.021 1845.67 273.665C1844.9 271.799 1844.11 269.932 1843.31 268.091C1842.8 266.838 1842.26 265.61 1841.72 264.357C1840.75 262.107 1839.78 259.882 1838.8 257.658C1838.44 256.839 1838.08 256.021 1837.73 255.228C1836.39 252.262 1835.06 249.347 1833.7 246.432C1833.16 245.307 1832.65 244.182 1832.11 243.056C1831.26 241.241 1830.39 239.425 1829.52 237.635C1828.91 236.357 1828.29 235.104 1827.68 233.851C1827.24 232.956 1826.8 232.086 1826.37 231.191C1826.06 230.578 1825.73 229.938 1825.42 229.325C1824.62 227.765 1823.83 226.23 1823.04 224.696C1822.37 223.418 1821.68 222.113 1821.01 220.835C1820.21 219.326 1819.39 217.843 1818.6 216.334C1817.91 215.056 1817.22 213.803 1816.52 212.524C1815.7 211.041 1814.88 209.583 1814.06 208.1C1813.37 206.873 1812.68 205.62 1811.96 204.392C1811.11 202.909 1810.24 201.426 1809.37 199.969C1808.68 198.792 1808.01 197.616 1807.32 196.465C1806.37 194.88 1805.42 193.294 1804.45 191.735C1803.83 190.712 1803.22 189.689 1802.6 188.692C1801.06 186.211 1799.5 183.731 1797.94 181.276C1797.37 180.406 1796.81 179.537 1796.24 178.668C1795.19 177.057 1794.14 175.42 1793.06 173.835C1792.35 172.761 1791.63 171.712 1790.91 170.664C1790.35 169.82 1789.78 169.002 1789.22 168.183L1744.69 180.381C1752.22 192.016 1758.71 204.239 1764.15 216.922C1796.14 238.684 1833.83 271.569 1862.59 318.288H1862.54Z" fill="#1AAD71"/>
<path d="M1714.77 188.589C1729.51 195.673 1743.92 203.728 1757.61 212.626C1752.66 201.81 1746.94 191.428 1740.51 181.557L1714.77 188.589Z" fill="#52CC52"/>
<path d="M1932.56 665.778C1936.38 658.669 1939.53 652.915 1942.58 648.773C1964.25 594.638 1976.01 538.943 1978.12 483.581L1934.92 409.092L1932.56 665.778Z" fill="#7FD0EA"/>
<path d="M1803.78 805.858C1798.78 810.896 1796.27 814.91 1795.12 817.774C1796.99 817.212 1799.78 815.984 1803.55 813.223C1869.72 764.969 1901.97 719.35 1920.41 687.795L1888.1 679.765C1870.36 725.231 1842.55 766.81 1803.78 805.858Z" fill="#7FD0EA"/>
<path d="M1838.57 231.319C1841.49 237.277 1844.39 243.287 1847.21 249.475L1880.77 307.317L1921.69 241.087C1914.07 227.177 1905.77 213.496 1896.69 200.122C1811.73 74.822 1679.82 0 1543.87 0C1612.42 7.10886 1673.39 33.1917 1725.48 77.8139C1769.76 115.711 1807.55 167.058 1838.57 231.294V231.319Z" fill="#00F5DA"/>
<path d="M1924.02 245.409L1883.18 311.46L1930.81 393.57L1932.02 261.11C1931.28 259.55 1930.46 257.99 1929.69 256.43C1927.84 252.748 1925.94 249.066 1924 245.409H1924.02Z" fill="#40BDED"/>
<path d="M1978.37 475.577C1979.86 405.128 1965.66 335.369 1936.17 270.188L1934.97 400.781L1978.37 475.577Z" fill="#00F5DA"/>
<path d="M1880.64 315.551L1876.08 322.942C1884.9 349.024 1892.9 376.642 1900.02 405.767L1902.38 415.459L1902.18 415.382C1904.77 427.094 1906.69 439.01 1907.92 450.927C1913.25 502.862 1917.41 570.78 1901.87 635.757C1898.59 649.438 1894.46 662.76 1889.59 675.776L1922.58 683.959C1924.64 680.353 1926.51 676.952 1928.23 673.782L1930.71 401.881L1880.62 315.551H1880.64Z" fill="#A4F4E7"/>
<path d="M1874.31 317.751L1878.23 311.409L1860.8 281.362C1865.49 293.125 1869.98 305.272 1874.28 317.751H1874.31Z" fill="#5D5D5D"/>
<path d="M1309.8 305.118C1301.03 297.345 1292.52 291.847 1283.8 288.343C1275.73 285.096 1267.37 283.536 1258.27 283.536C1244.02 283.536 1227.84 287.346 1207.4 295.478C1204.25 296.756 1201.07 297.83 1197.89 298.777C1189.95 301.129 1181.95 302.484 1173.67 302.868C1172 302.945 1170.36 302.996 1168.67 302.996C1154.34 302.996 1141.16 300.132 1129.54 297.626L1125.78 296.808C1124.93 296.629 1124.06 296.373 1123.21 296.066C1122.93 295.964 1122.65 295.836 1122.37 295.734C1121.78 295.503 1121.19 295.299 1120.62 295.018C1120.29 294.864 1119.96 294.711 1119.62 294.532C1119.08 294.25 1118.57 293.969 1118.03 293.688C1117.7 293.483 1117.37 293.279 1117.03 293.074C1116.52 292.767 1116.01 292.435 1115.52 292.077C1115.21 291.847 1114.88 291.617 1114.57 291.386C1114.06 291.003 1113.6 290.619 1113.11 290.21C1112.83 289.98 1112.55 289.75 1112.26 289.494C1111.73 289.008 1111.21 288.497 1110.7 287.985C1110.52 287.781 1110.29 287.602 1110.11 287.397C1109.44 286.707 1108.83 285.991 1108.24 285.224C1100.91 302.254 1094.99 318.364 1090.45 333.605C1102.83 372.78 1154.41 402.264 1215.99 402.264C1271.37 402.264 1318.65 378.457 1336.64 345.189C1330.67 329.411 1321.59 315.628 1309.75 305.144L1309.8 305.118Z" fill="#F805D1"/>
<path d="M1304.13 495.779L1302.49 495.216L1298.26 493.733C1298.26 493.733 1298.26 493.733 1298.32 493.682L1080.5 417.249C1082.29 431.978 1086.42 445.147 1092.96 456.629C1118.9 502.121 1165.67 530.403 1215.04 530.403C1232.12 530.403 1249.32 527.129 1266.14 520.634C1269.45 519.356 1272.65 517.924 1275.81 516.338C1275.88 516.262 1275.96 516.21 1276.01 516.134C1281.65 513.27 1287.01 509.92 1292.09 506.135C1296.32 502.99 1300.34 499.512 1304.13 495.779Z" fill="#8F239B"/>
<path d="M1341.72 351.454C1321.72 384.364 1274.34 407.557 1219.22 407.557C1158.72 407.557 1107.57 379.608 1091.7 341.532C1084.27 368.612 1081.42 392.675 1083.22 413.669L1304.62 491.381L1308.98 492.889L1310.77 493.529C1316.72 487.187 1322.06 480.129 1326.72 472.458C1330.23 466.679 1333.36 460.567 1336.08 454.149C1340.36 443.997 1343.62 433.103 1345.72 421.596C1350.23 396.817 1348.62 372.55 1341.72 351.479V351.454Z" fill="#DA26DD"/>
<path d="M1577.79 237.277C1561.64 226.128 1545.2 215.542 1528.54 205.697C1518.85 199.969 1509.03 194.778 1499.11 190.047C1487.95 198.025 1478.9 207.18 1469.65 216.539C1461.27 225.029 1452.6 233.8 1442.27 241.522C1429.5 251.06 1415.84 257.709 1400.02 262.056C1411.32 263.923 1423.09 266.582 1435.35 269.983C1436.99 269.472 1438.63 268.935 1440.27 268.449C1455.68 263.897 1471.85 260.471 1489.72 257.99C1489.9 257.965 1490.08 257.939 1490.29 257.913C1516.67 244.105 1543.38 237.073 1570.05 237.073C1572.63 237.073 1575.2 237.124 1577.76 237.277H1577.79Z" fill="#9948C9"/>
<path d="M1300.24 269.421C1305.54 267.4 1309.08 265.457 1315.13 264.639C1316.39 264.281 1317.67 263.923 1318.95 263.59C1315.67 260.624 1312.11 257.837 1308.31 255.177C1306.65 254.41 1305.01 253.643 1303.37 252.799C1302.72 255.382 1300.93 262.67 1300.24 269.395V269.421Z" fill="#B127BB"/>
<path d="M1272.78 237.635L1253.14 273.128C1254.89 273.026 1256.58 272.949 1258.27 272.949C1259.53 272.949 1260.76 272.975 1262.01 273.026C1262.4 273.026 1262.81 273.077 1263.19 273.103C1264.01 273.154 1264.83 273.205 1265.68 273.282C1266.17 273.333 1266.63 273.384 1267.09 273.435C1267.83 273.512 1268.55 273.589 1269.29 273.691C1269.78 273.768 1270.27 273.844 1270.78 273.921C1271.47 274.023 1272.16 274.151 1272.86 274.254C1273.34 274.356 1273.86 274.458 1274.34 274.535C1275.04 274.663 1275.7 274.816 1276.37 274.97C1276.86 275.072 1277.37 275.2 1277.86 275.328C1278.52 275.481 1279.19 275.66 1279.86 275.865C1280.34 276.018 1280.83 276.146 1281.32 276.299C1281.98 276.504 1282.65 276.708 1283.32 276.939C1283.8 277.092 1284.27 277.245 1284.73 277.424C1284.91 277.476 1285.09 277.527 1285.24 277.603C1293.06 272.924 1293.24 272.489 1294.57 271.696C1294.57 271.696 1297.39 256.788 1299.42 250.779C1295.16 248.452 1291.03 245.92 1287.06 243.235C1282.5 241.19 1277.73 239.297 1272.78 237.661V237.635Z" fill="#793EA3"/>
<path d="M1113.57 271.748L1114.11 271.952C1113.78 273.256 1114.26 275.072 1115.49 277.092C1118.16 281.414 1123.67 285.531 1128.03 286.477L1131.83 287.295C1142 289.494 1152.49 291.77 1163.8 292.307C1165.41 292.384 1167.03 292.409 1168.69 292.409C1180.72 292.409 1192.1 290.185 1203.48 285.658C1220.63 278.831 1235.07 274.893 1248.09 273.538L1268.68 236.306C1252.6 231.421 1234.81 228.66 1216.07 228.66C1178.9 228.66 1145.39 239.4 1121.93 256.507C1119.16 260.598 1116.78 264.664 1114.93 268.653C1114.44 269.676 1114.01 270.699 1113.6 271.748H1113.57Z" fill="#B127BB"/>
<path d="M1461.63 275.711C1467.65 271.364 1473.7 267.426 1479.78 263.82C1466.73 265.994 1454.52 268.756 1442.81 272.131C1448.22 273.742 1453.73 275.532 1459.32 277.424C1460.09 276.862 1460.83 276.274 1461.6 275.711H1461.63Z" fill="#8F239B"/>
<path d="M1788.12 482.149C1797.42 491.048 1806.47 500.075 1815.19 509.255C1817.91 512.119 1820.75 515.213 1823.57 518.307C1830.98 526.388 1843.19 539.711 1847.83 541.066C1848.49 540.324 1848.65 539.327 1847.54 535.824C1845.47 529.354 1839.6 518.256 1828.47 499.819C1818.63 483.505 1807.96 467.369 1796.63 451.489L1786.14 468.443C1786.86 472.867 1787.5 477.444 1788.12 482.149Z" fill="#5564A0"/>
<path d="M1243.68 174.627C1243.55 174.678 1243.43 174.704 1243.3 174.755C1243.94 176.289 1244.6 177.798 1245.32 179.332C1246.01 180.816 1246.76 182.273 1247.55 183.756C1247.53 183.705 1247.48 183.628 1247.45 183.577C1246.04 180.585 1244.81 177.594 1243.68 174.627Z" fill="#5D5D5D"/>
<path d="M1235.73 183.859C1234.89 182.043 1234.09 180.227 1233.35 178.412C1219.28 183.807 1206.99 189.587 1196.74 195.033C1168.51 210.069 1144.95 228.327 1129.52 246.534C1152.75 232.777 1183 224.415 1216.04 224.415C1235.53 224.415 1254.04 227.33 1270.73 232.547L1271.55 231.063C1255.83 217.05 1243.6 200.403 1235.73 183.833V183.859Z" fill="#793EA3"/>
<path d="M1793.94 447.756C1788.35 440.033 1782.58 432.387 1776.66 424.793C1779.76 435.942 1782.63 448.318 1785.07 462.127L1793.94 447.756Z" fill="#8F239B"/>
<path d="M1771.32 466.525C1765.86 434.842 1757.99 410.703 1750.22 392.394C1742.64 374.519 1735.15 362.219 1730.1 353.934C1709.82 320.64 1662.26 267.682 1599.76 252.953C1595.07 251.853 1590.3 250.958 1585.43 250.319C1579.51 250.293 1550.59 245.128 1512.72 259.218C1498.9 264.741 1485.13 272.31 1471.44 281.797C1470.24 282.641 1469.01 283.459 1467.78 284.354C1444.04 301.436 1426.68 320.998 1415.81 342.785C1562.76 351.53 1680.88 468.827 1690.44 615.172L1773.48 480.82C1772.81 475.91 1772.07 471.154 1771.27 466.576L1771.32 466.525Z" fill="#7FD0EA"/>
<path d="M1610.96 28.6656C1609.58 28.2309 1608.19 27.7706 1606.81 27.3614C1605.76 27.029 1604.71 26.7221 1603.63 26.3897C1602.22 25.9806 1600.78 25.5714 1599.35 25.1623C1598.32 24.881 1597.27 24.5741 1596.25 24.2929C1594.73 23.8837 1593.2 23.5001 1591.68 23.1166C1590.71 22.8609 1589.76 22.6051 1588.81 22.375C1586.99 21.9403 1585.17 21.5311 1583.38 21.0964C1582.68 20.943 1581.99 20.7896 1581.3 20.6106C1578.79 20.0736 1576.28 19.5366 1573.74 19.0507C1573.1 18.9229 1572.43 18.8206 1571.79 18.6927C1569.89 18.3347 1567.99 17.9767 1566.07 17.6699C1565.12 17.5164 1564.15 17.363 1563.2 17.2096C1561.59 16.9539 1559.94 16.6981 1558.33 16.468C1557.28 16.3146 1556.2 16.1611 1555.15 16.0333C1553.59 15.8287 1552.05 15.6241 1550.51 15.4196C1549.41 15.2917 1548.31 15.1639 1547.18 15.036C1545.64 14.857 1544.1 14.7036 1542.56 14.5501C1541.43 14.4479 1540.33 14.3456 1539.2 14.2433C1537.64 14.1154 1536.08 13.9876 1534.51 13.8597C1533.41 13.783 1532.31 13.7063 1531.2 13.6296C1529.56 13.5273 1527.92 13.425 1526.28 13.3483C1525.23 13.2971 1524.18 13.2204 1523.1 13.1949C1521.31 13.1181 1519.49 13.067 1517.67 13.0159C1516.77 12.9903 1515.87 12.9391 1514.98 12.9391C1512.26 12.888 1509.52 12.8369 1506.77 12.8369C1504.03 12.8369 1501.44 12.8624 1498.8 12.9136C1497.67 12.9136 1496.54 12.9903 1495.42 13.0159C1493.9 13.067 1492.39 13.0926 1490.88 13.1437C1489.9 13.1949 1488.95 13.246 1488.01 13.2971C1486.34 13.3739 1484.67 13.4506 1483.01 13.5529C1482.06 13.604 1481.14 13.6807 1480.19 13.7574C1478.52 13.8597 1476.85 13.962 1475.19 14.0899C1474.01 14.1921 1472.83 14.2944 1471.65 14.3967C1470.24 14.5246 1468.83 14.6269 1467.42 14.7547C1466.19 14.8826 1464.96 15.0104 1463.75 15.1383C1462.42 15.2661 1461.06 15.394 1459.73 15.5474C1458.55 15.6753 1457.37 15.8287 1456.19 15.9821C1454.81 16.1356 1453.45 16.3146 1452.09 16.4936C1450.96 16.647 1449.83 16.8004 1448.7 16.9539C1447.32 17.1584 1445.91 17.3374 1444.55 17.542C1443.45 17.6954 1442.37 17.8744 1441.27 18.0534C1439.88 18.2836 1438.47 18.4881 1437.09 18.7183C1435.96 18.9229 1434.83 19.1019 1433.71 19.3064C1432.37 19.5366 1431.04 19.7411 1429.73 19.9969C1428.6 20.2014 1427.5 20.406 1426.4 20.6361C1425.07 20.8919 1423.73 21.122 1422.4 21.3777C1421.35 21.5823 1420.32 21.8124 1419.27 22.017C1417.91 22.2983 1416.55 22.5796 1415.17 22.8609C1414.2 23.0654 1413.22 23.2956 1412.25 23.5001C1410.86 23.807 1409.45 24.1139 1408.04 24.4207C1407.09 24.6253 1406.17 24.8554 1405.22 25.0856C1403.81 25.418 1402.4 25.7249 1401.02 26.0829C1400.04 26.313 1399.1 26.5687 1398.15 26.7989C1396.79 27.1313 1395.43 27.4637 1394.1 27.8217C1393.12 28.0774 1392.17 28.3331 1391.2 28.5889C1390.15 28.8701 1389.1 29.1514 1388.05 29.4327L1316.75 158.338L1280.11 224.568C1286.96 230.501 1294.47 235.896 1302.6 240.474C1312.18 209.788 1327.82 181.148 1348.44 156.395C1359 143.711 1370.84 132.025 1383.84 121.643C1427.89 86.4314 1481.08 67.8154 1537.67 67.8154C1565.89 67.8154 1593.48 72.5717 1619.45 81.6751L1613.65 29.5606C1612.78 29.2793 1611.91 28.998 1611.04 28.6911L1610.96 28.6656Z" fill="#29E57E"/>
<path d="M1785.76 163.299C1784.84 161.995 1783.94 160.716 1783.02 159.463C1782.22 158.364 1781.43 157.264 1780.63 156.19C1779.73 154.937 1778.81 153.71 1777.89 152.482C1777.07 151.408 1776.27 150.334 1775.45 149.26C1774.53 148.059 1773.58 146.857 1772.66 145.655C1771.84 144.606 1771.02 143.584 1770.2 142.535C1769.25 141.333 1768.27 140.157 1767.3 138.981C1766.48 137.983 1765.68 136.986 1764.86 135.989C1763.84 134.761 1762.81 133.534 1761.76 132.332C1760.99 131.437 1760.22 130.517 1759.45 129.622C1758.17 128.164 1756.89 126.706 1755.61 125.249C1754.84 124.405 1754.1 123.536 1753.33 122.692C1751.74 120.953 1750.15 119.214 1748.56 117.526C1747.79 116.708 1747.02 115.915 1746.25 115.123C1745.15 113.946 1744.02 112.796 1742.92 111.645C1742.07 110.775 1741.23 109.932 1740.35 109.088C1739.3 108.039 1738.25 106.965 1737.18 105.942C1736.3 105.073 1735.41 104.229 1734.51 103.385C1733.46 102.388 1732.41 101.391 1731.36 100.393C1730.46 99.5496 1729.54 98.7057 1728.64 97.8874C1727.59 96.9157 1726.51 95.9696 1725.43 94.9979C1724.51 94.1796 1723.61 93.3613 1722.69 92.543C1721.59 91.5969 1720.51 90.6507 1719.41 89.7301C1718.51 88.963 1717.59 88.1703 1716.69 87.4031C1715.54 86.457 1714.41 85.5109 1713.23 84.5647C1712.36 83.8487 1711.49 83.1327 1710.59 82.4167C1709.31 81.3939 1708 80.3966 1706.69 79.3737C1705.95 78.7856 1705.21 78.1974 1704.44 77.6349C1702.41 76.1006 1700.39 74.5919 1698.33 73.1087C1697.64 72.5973 1696.95 72.137 1696.26 71.6256C1694.85 70.6283 1693.44 69.6054 1692.03 68.6337C1691.13 68.02 1690.23 67.4319 1689.36 66.8437C1688.11 65.9999 1686.88 65.156 1685.62 64.3633C1684.67 63.7496 1683.72 63.1359 1682.77 62.5221C1681.57 61.755 1680.36 60.9879 1679.13 60.2207C1678.16 59.607 1677.16 59.0189 1676.18 58.4051C1674.98 57.6891 1673.77 56.9731 1672.57 56.2571C1671.57 55.669 1670.57 55.1064 1669.57 54.5183C1668.34 53.8023 1667.11 53.1374 1665.88 52.4214C1664.88 51.8844 1663.9 51.3219 1662.9 50.7849C1661.62 50.0944 1660.34 49.4296 1659.06 48.7391C1658.08 48.2277 1657.14 47.7419 1656.16 47.2304C1654.78 46.5144 1653.37 45.824 1651.96 45.1336C1651.09 44.6989 1650.24 44.2641 1649.37 43.855C1647.44 42.9344 1645.52 42.0394 1643.6 41.17C1643.14 40.9654 1642.68 40.7353 1642.19 40.5307C1640.01 39.559 1637.81 38.6129 1635.6 37.6667C1634.75 37.3087 1633.91 36.9763 1633.06 36.6439C1631.55 36.0301 1630.06 35.4164 1628.55 34.8283C1627.58 34.4447 1626.6 34.0867 1625.63 33.7031C1624.24 33.1661 1622.83 32.6547 1621.42 32.1433C1620.4 31.7853 1619.37 31.4273 1618.35 31.0693L1623.88 83.1839C1654.93 94.7421 1683.54 112.591 1708.05 136.04C1721.02 148.442 1732.46 162.046 1742.28 176.622L1786.71 164.475C1786.42 164.066 1786.14 163.657 1785.86 163.274L1785.76 163.299Z" fill="#52CC52"/>
<path d="M1380.46 31.4529C1379.61 31.683 1378.77 31.9387 1377.89 32.1944C1376.53 32.578 1375.18 32.9871 1373.82 33.3707C1373.02 33.6009 1372.23 33.8566 1371.43 34.1123C1370.05 34.5214 1368.66 34.9561 1367.31 35.3909C1366.48 35.6466 1365.69 35.9023 1364.9 36.158C1363.56 36.5927 1362.23 37.0019 1360.9 37.4366C1360.18 37.6667 1359.46 37.8969 1358.74 38.1526C1357.36 38.6129 1355.97 39.0731 1354.61 39.5334C1353.95 39.7636 1353.31 39.9937 1352.64 40.1983C1351.23 40.6841 1349.82 41.17 1348.46 41.6559C1347.85 41.8604 1347.26 42.0906 1346.64 42.3207C1345.23 42.8066 1343.8 43.318 1342.41 43.8294C1341.85 44.034 1341.28 44.2386 1340.72 44.4687C1339.31 44.9801 1337.9 45.4916 1336.51 46.0286C1335.95 46.2331 1335.41 46.4633 1334.87 46.6679C1333.49 47.2049 1332.11 47.7163 1330.75 48.2533C1330.26 48.4323 1329.8 48.6369 1329.34 48.8159C1327.93 49.3784 1326.49 49.9154 1325.11 50.5036C1324.77 50.6314 1324.41 50.7849 1324.06 50.9383C1322.57 51.552 1321.08 52.1401 1319.59 52.7539C1319.31 52.8561 1319.03 52.984 1318.72 53.1119C1317.21 53.7511 1315.7 54.3649 1314.21 55.0041C1314.01 55.0809 1313.83 55.1831 1313.62 55.2599C1312.06 55.9247 1310.52 56.5896 1308.98 57.2544C1308.9 57.28 1308.85 57.3056 1308.78 57.3311C1303.83 59.4791 1299.08 61.6271 1294.57 63.7496C1293.8 64.2354 1293.06 64.7213 1292.32 65.2071C1291.75 65.5651 1291.14 65.9487 1290.57 66.3323C1289.68 66.9204 1288.8 67.5086 1287.93 68.0711C1287.47 68.378 1287.01 68.6849 1286.55 68.9917C1285.6 69.631 1284.68 70.2703 1283.73 70.9096C1283.39 71.1397 1283.04 71.3699 1282.7 71.6256C1281.7 72.2904 1280.75 72.9809 1279.8 73.6457C1279.52 73.8247 1279.27 74.0293 1278.98 74.2083C1277.96 74.9243 1276.96 75.6403 1275.96 76.3563C1275.78 76.4841 1275.57 76.612 1275.4 76.7399C1274.4 77.4559 1273.42 78.1463 1272.45 78.8623C1272.29 78.9902 1272.11 79.0924 1271.96 79.2203C1270.91 79.9619 1269.91 80.729 1268.88 81.445C1268.81 81.4961 1268.73 81.5473 1268.65 81.624C1267.58 82.4167 1266.52 83.1839 1265.5 83.9254C1260.5 87.5821 1256.04 91.8014 1252.24 96.3787C1235.32 116.887 1232.38 145.041 1243.66 174.678C1244.78 177.645 1246.01 180.611 1247.42 183.628C1247.42 183.68 1247.5 183.756 1247.53 183.807C1254.48 197.105 1264.4 210.248 1276.75 221.653L1311.44 158.926L1382.2 30.9926C1381.61 31.146 1381 31.325 1380.41 31.504L1380.46 31.4529Z" fill="#5CEA5C"/>
<path d="M1619.86 86.2524C1594.17 77.0467 1566.46 72.0091 1537.59 72.0091C1464.57 72.0091 1398.25 104.05 1353.51 156.318C1332.44 180.943 1316.18 210.069 1306.26 242.468C1323.03 251.239 1342.23 256.686 1363.2 256.686C1370.41 256.686 1377.69 256.021 1384.87 254.691C1404.84 251.035 1421.04 244.156 1435.89 233.058C1445.58 225.821 1453.57 217.715 1462.06 209.123C1470.16 200.915 1478.37 192.63 1488.13 185.035C1504.8 172.07 1526.03 161.126 1559.1 156.216C1566.28 155.142 1574.12 154.605 1582.35 154.605C1596.68 154.605 1611.96 156.216 1627.76 159.233L1619.86 86.2524Z" fill="#22F4A8"/>
</g>
<path d="M434.688 1042.6C428.021 1039.93 421.221 1038.07 414.288 1037C407.354 1035.67 400.554 1035 393.888 1035C382.154 1035 372.154 1036.73 363.888 1040.2C355.621 1043.4 349.354 1048.73 345.088 1056.2C340.821 1063.4 338.688 1073.13 338.688 1085.4V1216.6C338.688 1228.6 340.554 1238.33 344.288 1245.8C348.021 1253.27 353.754 1258.73 361.488 1262.2C369.221 1265.4 378.821 1267 390.288 1267C396.688 1267 403.221 1266.47 409.888 1265.4C416.554 1264.07 423.221 1262.6 429.888 1261C436.554 1259.13 442.554 1257.27 447.888 1255.4L453.088 1281.8C441.888 1286.07 430.821 1289.4 419.888 1291.8C409.221 1294.2 398.821 1295.4 388.688 1295.4C371.888 1295.4 357.488 1292.6 345.488 1287C333.488 1281.13 324.288 1272.47 317.888 1261C311.754 1249.53 308.688 1235 308.688 1217.4V1087C308.688 1068.6 312.021 1053.53 318.688 1041.8C325.621 1029.8 334.954 1021 346.688 1015.4C358.421 1009.53 371.621 1006.6 386.288 1006.6C396.421 1006.6 406.288 1007.8 415.888 1010.2C425.488 1012.33 434.688 1015.67 443.488 1020.2L434.688 1042.6ZM600.981 1153C600.981 1143.93 599.648 1136.47 596.981 1130.6C594.315 1124.73 590.448 1120.33 585.381 1117.4C580.315 1114.2 574.448 1112.07 567.781 1111C561.115 1109.67 553.781 1109 545.781 1109L547.381 1087.4C563.381 1087.4 576.715 1088.87 587.381 1091.8C598.048 1094.73 606.448 1099.53 612.581 1106.2C618.981 1112.6 623.515 1121.4 626.181 1132.6C629.115 1143.53 630.581 1157.13 630.581 1173.4V1291C629.515 1291.27 627.115 1291.53 623.381 1291.8C619.915 1292.07 615.781 1292.33 610.981 1292.6C606.181 1293.13 600.981 1293.53 595.381 1293.8C590.048 1294.33 584.715 1294.6 579.381 1294.6C574.048 1294.87 569.115 1295 564.581 1295C552.315 1295.27 540.848 1294.33 530.181 1292.2C519.515 1290.33 510.181 1286.87 502.181 1281.8C494.181 1276.47 487.915 1269.27 483.381 1260.2C478.848 1250.87 476.581 1239.13 476.581 1225V1190.2C476.581 1179.27 478.181 1170.07 481.381 1162.6C484.581 1154.87 488.981 1148.6 494.581 1143.8C500.181 1139 506.448 1135.53 513.381 1133.4C520.581 1131.27 528.048 1130.2 535.781 1130.2C543.781 1130.2 551.781 1131.27 559.781 1133.4C567.781 1135.27 575.248 1137.93 582.181 1141.4C589.381 1144.6 595.648 1148.47 600.981 1153ZM600.981 1176.6C595.915 1173.67 589.915 1170.87 582.981 1168.2C576.315 1165.27 569.115 1162.87 561.381 1161C553.915 1158.87 546.315 1157.8 538.581 1157.8C535.381 1157.8 531.915 1158.33 528.181 1159.4C524.448 1160.2 520.848 1161.8 517.381 1164.2C514.181 1166.6 511.515 1170.07 509.381 1174.6C507.248 1179.13 506.181 1185.13 506.181 1192.6V1221C506.181 1229 506.981 1236.07 508.581 1242.2C510.181 1248.33 513.115 1253.53 517.381 1257.8C521.648 1261.8 527.648 1264.73 535.381 1266.6C543.115 1268.47 552.848 1269.13 564.581 1268.6C568.581 1268.6 572.315 1268.47 575.781 1268.2C579.515 1267.93 582.848 1267.67 585.781 1267.4C588.981 1267.13 591.648 1267 593.781 1267C596.181 1266.73 597.915 1266.6 598.981 1266.6C600.315 1266.33 600.981 1266.2 600.981 1266.2V1176.6ZM775.375 1113.4C775.375 1113.4 773.642 1113.13 770.175 1112.6C766.975 1112.07 762.575 1111.93 756.975 1112.2C751.908 1112.47 746.442 1113.13 740.575 1114.2C734.975 1115 729.375 1116.2 723.775 1117.8C718.175 1119.4 712.842 1121.27 707.775 1123.4C702.975 1125.53 698.575 1127.8 694.575 1130.2V1291H664.575V1090.6H694.575V1102.2C703.375 1097.67 712.708 1093.93 722.575 1091C732.442 1088.07 743.508 1086.33 755.775 1085.8C761.108 1085.53 765.775 1085.8 769.775 1086.6C774.042 1087.4 776.975 1088.07 778.575 1088.6L775.375 1113.4ZM920.297 1113.4C920.297 1113.4 918.564 1113.13 915.097 1112.6C911.897 1112.07 907.497 1111.93 901.897 1112.2C896.83 1112.47 891.364 1113.13 885.497 1114.2C879.897 1115 874.297 1116.2 868.697 1117.8C863.097 1119.4 857.764 1121.27 852.697 1123.4C847.897 1125.53 843.497 1127.8 839.497 1130.2V1291H809.497V1090.6H839.497V1102.2C848.297 1097.67 857.63 1093.93 867.497 1091C877.364 1088.07 888.43 1086.33 900.697 1085.8C906.03 1085.53 910.697 1085.8 914.697 1086.6C918.964 1087.4 921.897 1088.07 923.497 1088.6L920.297 1113.4ZM1091.8 1217C1091.8 1240.47 1085.8 1259.4 1073.8 1273.8C1061.8 1287.93 1043.53 1295 1019 1295C1002.2 1295 988.197 1291.4 976.997 1284.2C965.797 1277 957.397 1267.53 951.797 1255.8C946.464 1244.07 943.797 1231.13 943.797 1217V1164.6C943.797 1147.53 946.597 1133.27 952.197 1121.8C958.064 1110.07 966.597 1101.27 977.797 1095.4C988.997 1089.27 1002.6 1086.2 1018.6 1086.2C1042.06 1086.2 1060.06 1093.13 1072.6 1107C1085.4 1120.87 1091.8 1140.07 1091.8 1164.6V1217ZM1061.8 1163.8C1061.8 1153.13 1060.2 1144.2 1057 1137C1054.06 1129.53 1049.4 1123.93 1043 1120.2C1036.86 1116.2 1028.86 1114.2 1019 1114.2C1009.13 1114.2 1000.73 1116.07 993.797 1119.8C987.13 1123.53 982.064 1129.13 978.597 1136.6C975.13 1143.8 973.397 1152.87 973.397 1163.8V1220.6C973.397 1229.67 975.13 1237.67 978.597 1244.6C982.33 1251.53 987.664 1257 994.597 1261C1001.53 1265 1009.66 1267 1019 1267C1028.6 1267 1036.6 1265.13 1043 1261.4C1049.4 1257.67 1054.06 1252.33 1057 1245.4C1060.2 1238.2 1061.8 1229.93 1061.8 1220.6V1163.8ZM1233.23 1122.6C1230.03 1120.47 1226.3 1118.73 1222.03 1117.4C1218.03 1115.8 1213.77 1114.73 1209.23 1114.2C1204.7 1113.4 1200.17 1113 1195.63 1113C1191.37 1113 1186.83 1113.4 1182.03 1114.2C1177.23 1115 1172.7 1116.47 1168.43 1118.6C1164.43 1120.47 1161.1 1123.13 1158.43 1126.6C1156.03 1129.8 1154.83 1133.67 1154.83 1138.2C1154.83 1144.07 1156.7 1149 1160.43 1153C1164.43 1157 1169.63 1160.6 1176.03 1163.8C1182.43 1167 1189.37 1170.07 1196.83 1173C1204.3 1175.93 1211.77 1179.13 1219.23 1182.6C1226.97 1186.07 1234.03 1190.2 1240.43 1195C1246.83 1199.8 1251.9 1205.67 1255.63 1212.6C1259.63 1219.53 1261.63 1227.93 1261.63 1237.8C1261.63 1247.67 1259.63 1256.33 1255.63 1263.8C1251.63 1271.27 1246.17 1277.53 1239.23 1282.6C1232.57 1287.67 1225.1 1291.4 1216.83 1293.8C1208.57 1296.47 1200.03 1297.8 1191.23 1297.8C1176.83 1297.8 1162.97 1294.73 1149.63 1288.6C1136.3 1282.47 1124.97 1274.07 1115.63 1263.4L1132.83 1245.8C1138.17 1250.87 1143.77 1255.27 1149.63 1259C1155.77 1262.73 1162.17 1265.53 1168.83 1267.4C1175.5 1269.27 1182.43 1270.2 1189.63 1270.2C1194.17 1270.2 1198.83 1269.67 1203.63 1268.6C1208.7 1267.27 1213.37 1265.27 1217.63 1262.6C1221.9 1259.93 1225.37 1256.6 1228.03 1252.6C1230.7 1248.6 1232.03 1243.8 1232.03 1238.2C1232.03 1231.8 1230.03 1226.33 1226.03 1221.8C1222.3 1217 1217.23 1212.87 1210.83 1209.4C1204.7 1205.93 1197.77 1202.73 1190.03 1199.8C1182.57 1196.6 1174.97 1193.4 1167.23 1190.2C1159.77 1186.73 1152.83 1182.73 1146.43 1178.2C1140.3 1173.67 1135.23 1168.33 1131.23 1162.2C1127.5 1155.8 1125.63 1148.07 1125.63 1139C1125.63 1130.2 1127.5 1122.47 1131.23 1115.8C1134.97 1109.13 1140.03 1103.67 1146.43 1099.4C1152.83 1094.87 1159.9 1091.53 1167.63 1089.4C1175.37 1087 1183.37 1085.8 1191.63 1085.8C1196.97 1085.8 1202.57 1086.2 1208.43 1087C1214.3 1087.8 1220.17 1089.27 1226.03 1091.4C1232.17 1093.53 1238.17 1096.47 1244.03 1100.2L1233.23 1122.6ZM1406.28 1122.6C1403.08 1120.47 1399.35 1118.73 1395.08 1117.4C1391.08 1115.8 1386.81 1114.73 1382.28 1114.2C1377.75 1113.4 1373.21 1113 1368.68 1113C1364.41 1113 1359.88 1113.4 1355.08 1114.2C1350.28 1115 1345.75 1116.47 1341.48 1118.6C1337.48 1120.47 1334.15 1123.13 1331.48 1126.6C1329.08 1129.8 1327.88 1133.67 1327.88 1138.2C1327.88 1144.07 1329.75 1149 1333.48 1153C1337.48 1157 1342.68 1160.6 1349.08 1163.8C1355.48 1167 1362.41 1170.07 1369.88 1173C1377.35 1175.93 1384.81 1179.13 1392.28 1182.6C1400.01 1186.07 1407.08 1190.2 1413.48 1195C1419.88 1199.8 1424.95 1205.67 1428.68 1212.6C1432.68 1219.53 1434.68 1227.93 1434.68 1237.8C1434.68 1247.67 1432.68 1256.33 1428.68 1263.8C1424.68 1271.27 1419.21 1277.53 1412.28 1282.6C1405.61 1287.67 1398.15 1291.4 1389.88 1293.8C1381.61 1296.47 1373.08 1297.8 1364.28 1297.8C1349.88 1297.8 1336.01 1294.73 1322.68 1288.6C1309.35 1282.47 1298.01 1274.07 1288.68 1263.4L1305.88 1245.8C1311.21 1250.87 1316.81 1255.27 1322.68 1259C1328.81 1262.73 1335.21 1265.53 1341.88 1267.4C1348.55 1269.27 1355.48 1270.2 1362.68 1270.2C1367.21 1270.2 1371.88 1269.67 1376.68 1268.6C1381.75 1267.27 1386.41 1265.27 1390.68 1262.6C1394.95 1259.93 1398.41 1256.6 1401.08 1252.6C1403.75 1248.6 1405.08 1243.8 1405.08 1238.2C1405.08 1231.8 1403.08 1226.33 1399.08 1221.8C1395.35 1217 1390.28 1212.87 1383.88 1209.4C1377.75 1205.93 1370.81 1202.73 1363.08 1199.8C1355.61 1196.6 1348.01 1193.4 1340.28 1190.2C1332.81 1186.73 1325.88 1182.73 1319.48 1178.2C1313.35 1173.67 1308.28 1168.33 1304.28 1162.2C1300.55 1155.8 1298.68 1148.07 1298.68 1139C1298.68 1130.2 1300.55 1122.47 1304.28 1115.8C1308.01 1109.13 1313.08 1103.67 1319.48 1099.4C1325.88 1094.87 1332.95 1091.53 1340.68 1089.4C1348.41 1087 1356.41 1085.8 1364.68 1085.8C1370.01 1085.8 1375.61 1086.2 1381.48 1087C1387.35 1087.8 1393.21 1089.27 1399.08 1091.4C1405.21 1093.53 1411.21 1096.47 1417.08 1100.2L1406.28 1122.6ZM1495.68 1235.4C1495.68 1241.27 1496.61 1246.33 1498.48 1250.6C1500.35 1254.87 1502.88 1258.47 1506.08 1261.4C1509.55 1264.07 1513.55 1266.07 1518.08 1267.4C1522.88 1268.73 1527.95 1269.4 1533.28 1269.4C1542.35 1269.4 1551.55 1267.8 1560.88 1264.6C1570.48 1261.4 1579.95 1257.4 1589.28 1252.6L1600.48 1277C1590.88 1282.87 1580.08 1287.53 1568.08 1291C1556.35 1294.2 1545.01 1295.8 1534.08 1295.8C1524.21 1295.8 1515.01 1294.73 1506.48 1292.6C1498.21 1290.73 1491.01 1287.53 1484.88 1283C1479.01 1278.2 1474.35 1272.07 1470.88 1264.6C1467.68 1257.13 1466.08 1248.07 1466.08 1237.4V1155.4C1466.08 1140.2 1469.28 1127.53 1475.68 1117.4C1482.08 1107.27 1490.88 1099.67 1502.08 1094.6C1513.28 1089.53 1525.95 1087 1540.08 1087C1554.21 1087 1566.48 1089.53 1576.88 1094.6C1587.55 1099.4 1595.81 1106.87 1601.68 1117C1607.55 1126.87 1610.48 1139.27 1610.48 1154.2V1209.4L1495.68 1215.4V1235.4ZM1580.48 1156.2C1580.48 1147.93 1578.88 1140.6 1575.68 1134.2C1572.48 1127.8 1567.81 1122.73 1561.68 1119C1555.55 1115.27 1548.21 1113.4 1539.68 1113.4C1530.08 1113.67 1521.95 1115.67 1515.28 1119.4C1508.88 1122.87 1503.95 1127.93 1500.48 1134.6C1497.28 1141.27 1495.68 1149.4 1495.68 1159V1187.4L1580.48 1183.4V1156.2ZM1642.34 1291V1011H1671.94V1291H1642.34ZM1941.33 1042.6C1934.66 1039.93 1927.86 1038.07 1920.93 1037C1913.99 1035.67 1907.19 1035 1900.53 1035C1888.79 1035 1878.79 1036.73 1870.53 1040.2C1862.26 1043.4 1855.99 1048.73 1851.73 1056.2C1847.46 1063.4 1845.33 1073.13 1845.33 1085.4V1216.6C1845.33 1228.6 1847.19 1238.33 1850.93 1245.8C1854.66 1253.27 1860.39 1258.73 1868.13 1262.2C1875.86 1265.4 1885.46 1267 1896.93 1267C1903.33 1267 1909.86 1266.47 1916.53 1265.4C1923.19 1264.07 1929.86 1262.6 1936.53 1261C1943.19 1259.13 1949.19 1257.27 1954.53 1255.4L1959.73 1281.8C1948.53 1286.07 1937.46 1289.4 1926.53 1291.8C1915.86 1294.2 1905.46 1295.4 1895.33 1295.4C1878.53 1295.4 1864.13 1292.6 1852.13 1287C1840.13 1281.13 1830.93 1272.47 1824.53 1261C1818.39 1249.53 1815.33 1235 1815.33 1217.4V1087C1815.33 1068.6 1818.66 1053.53 1825.33 1041.8C1832.26 1029.8 1841.59 1021 1853.33 1015.4C1865.06 1009.53 1878.26 1006.6 1892.93 1006.6C1903.06 1006.6 1912.93 1007.8 1922.53 1010.2C1932.13 1012.33 1941.33 1015.67 1950.13 1020.2L1941.33 1042.6ZM2107.62 1153C2107.62 1143.93 2106.29 1136.47 2103.62 1130.6C2100.96 1124.73 2097.09 1120.33 2092.02 1117.4C2086.96 1114.2 2081.09 1112.07 2074.42 1111C2067.76 1109.67 2060.42 1109 2052.42 1109L2054.02 1087.4C2070.02 1087.4 2083.36 1088.87 2094.02 1091.8C2104.69 1094.73 2113.09 1099.53 2119.22 1106.2C2125.62 1112.6 2130.16 1121.4 2132.82 1132.6C2135.76 1143.53 2137.22 1157.13 2137.22 1173.4V1291C2136.16 1291.27 2133.76 1291.53 2130.02 1291.8C2126.56 1292.07 2122.42 1292.33 2117.62 1292.6C2112.82 1293.13 2107.62 1293.53 2102.02 1293.8C2096.69 1294.33 2091.36 1294.6 2086.02 1294.6C2080.69 1294.87 2075.76 1295 2071.22 1295C2058.96 1295.27 2047.49 1294.33 2036.82 1292.2C2026.16 1290.33 2016.82 1286.87 2008.82 1281.8C2000.82 1276.47 1994.56 1269.27 1990.02 1260.2C1985.49 1250.87 1983.22 1239.13 1983.22 1225V1190.2C1983.22 1179.27 1984.82 1170.07 1988.02 1162.6C1991.22 1154.87 1995.62 1148.6 2001.22 1143.8C2006.82 1139 2013.09 1135.53 2020.02 1133.4C2027.22 1131.27 2034.69 1130.2 2042.42 1130.2C2050.42 1130.2 2058.42 1131.27 2066.42 1133.4C2074.42 1135.27 2081.89 1137.93 2088.82 1141.4C2096.02 1144.6 2102.29 1148.47 2107.62 1153ZM2107.62 1176.6C2102.56 1173.67 2096.56 1170.87 2089.62 1168.2C2082.96 1165.27 2075.76 1162.87 2068.02 1161C2060.56 1158.87 2052.96 1157.8 2045.22 1157.8C2042.02 1157.8 2038.56 1158.33 2034.82 1159.4C2031.09 1160.2 2027.49 1161.8 2024.02 1164.2C2020.82 1166.6 2018.16 1170.07 2016.02 1174.6C2013.89 1179.13 2012.82 1185.13 2012.82 1192.6V1221C2012.82 1229 2013.62 1236.07 2015.22 1242.2C2016.82 1248.33 2019.76 1253.53 2024.02 1257.8C2028.29 1261.8 2034.29 1264.73 2042.02 1266.6C2049.76 1268.47 2059.49 1269.13 2071.22 1268.6C2075.22 1268.6 2078.96 1268.47 2082.42 1268.2C2086.16 1267.93 2089.49 1267.67 2092.42 1267.4C2095.62 1267.13 2098.29 1267 2100.42 1267C2102.82 1266.73 2104.56 1266.6 2105.62 1266.6C2106.96 1266.33 2107.62 1266.2 2107.62 1266.2V1176.6ZM2170.06 1291V1090.6H2200.06V1291H2170.06ZM2185.26 1007C2190.06 1007 2194.06 1008.6 2197.26 1011.8C2200.73 1015 2202.46 1019 2202.46 1023.8C2202.46 1028.33 2200.73 1032.33 2197.26 1035.8C2194.06 1039 2190.06 1040.6 2185.26 1040.6C2180.73 1040.6 2176.73 1039 2173.26 1035.8C2169.8 1032.33 2168.06 1028.33 2168.06 1023.8C2168.06 1019 2169.8 1015 2173.26 1011.8C2176.73 1008.6 2180.73 1007 2185.26 1007ZM2380.55 1220.6C2380.55 1244.87 2374.82 1263.53 2363.35 1276.6C2351.89 1289.4 2335.09 1295.8 2312.95 1295.8C2306.02 1295.8 2299.22 1294.73 2292.55 1292.6C2286.15 1290.73 2280.42 1288.07 2275.35 1284.6C2270.29 1281.13 2266.15 1277.27 2262.95 1273V1376.2L2232.55 1366.6V1091H2262.95V1106.2C2267.49 1102.47 2272.55 1099.27 2278.15 1096.6C2283.75 1093.67 2289.62 1091.4 2295.75 1089.8C2302.15 1087.93 2308.42 1087 2314.55 1087C2328.95 1086.47 2340.95 1088.87 2350.55 1094.2C2360.42 1099.27 2367.89 1106.87 2372.95 1117C2378.02 1126.87 2380.55 1138.73 2380.55 1152.6V1220.6ZM2350.95 1154.6C2350.95 1146.6 2349.75 1139.93 2347.35 1134.6C2344.95 1129 2341.62 1124.73 2337.35 1121.8C2333.35 1118.6 2328.82 1116.33 2323.75 1115C2318.69 1113.67 2313.35 1113.13 2307.75 1113.4C2302.42 1113.93 2296.82 1115.13 2290.95 1117C2285.09 1118.87 2279.62 1121.27 2274.55 1124.2C2269.75 1127.13 2265.89 1130.6 2262.95 1134.6V1225.8C2262.95 1232.73 2264.29 1238.87 2266.95 1244.2C2269.62 1249.53 2273.22 1254.07 2277.75 1257.8C2282.55 1261.27 2287.75 1263.93 2293.35 1265.8C2299.22 1267.67 2305.22 1268.6 2311.35 1268.6C2319.89 1268.6 2327.09 1267 2332.95 1263.8C2338.82 1260.33 2343.22 1255.4 2346.15 1249C2349.35 1242.6 2350.95 1234.6 2350.95 1225V1154.6ZM2413.03 1291V1090.6H2443.03V1291H2413.03ZM2428.23 1007C2433.03 1007 2437.03 1008.6 2440.23 1011.8C2443.7 1015 2445.43 1019 2445.43 1023.8C2445.43 1028.33 2443.7 1032.33 2440.23 1035.8C2437.03 1039 2433.03 1040.6 2428.23 1040.6C2423.7 1040.6 2419.7 1039 2416.23 1035.8C2412.76 1032.33 2411.03 1028.33 2411.03 1023.8C2411.03 1019 2412.76 1015 2416.23 1011.8C2419.7 1008.6 2423.7 1007 2428.23 1007ZM2586.31 1113.4C2586.31 1113.4 2584.58 1113.13 2581.11 1112.6C2577.91 1112.07 2573.51 1111.93 2567.91 1112.2C2562.85 1112.47 2557.38 1113.13 2551.51 1114.2C2545.91 1115 2540.31 1116.2 2534.71 1117.8C2529.11 1119.4 2523.78 1121.27 2518.71 1123.4C2513.91 1125.53 2509.51 1127.8 2505.51 1130.2V1291H2475.51V1090.6H2505.51V1102.2C2514.31 1097.67 2523.65 1093.93 2533.51 1091C2543.38 1088.07 2554.45 1086.33 2566.71 1085.8C2572.05 1085.53 2576.71 1085.8 2580.71 1086.6C2584.98 1087.4 2587.91 1088.07 2589.51 1088.6L2586.31 1113.4ZM2720.51 1153C2720.51 1143.93 2719.18 1136.47 2716.51 1130.6C2713.85 1124.73 2709.98 1120.33 2704.91 1117.4C2699.85 1114.2 2693.98 1112.07 2687.31 1111C2680.65 1109.67 2673.31 1109 2665.31 1109L2666.91 1087.4C2682.91 1087.4 2696.25 1088.87 2706.91 1091.8C2717.58 1094.73 2725.98 1099.53 2732.11 1106.2C2738.51 1112.6 2743.05 1121.4 2745.71 1132.6C2748.65 1143.53 2750.11 1157.13 2750.11 1173.4V1291C2749.05 1291.27 2746.65 1291.53 2742.91 1291.8C2739.45 1292.07 2735.31 1292.33 2730.51 1292.6C2725.71 1293.13 2720.51 1293.53 2714.91 1293.8C2709.58 1294.33 2704.25 1294.6 2698.91 1294.6C2693.58 1294.87 2688.65 1295 2684.11 1295C2671.85 1295.27 2660.38 1294.33 2649.71 1292.2C2639.05 1290.33 2629.71 1286.87 2621.71 1281.8C2613.71 1276.47 2607.45 1269.27 2602.91 1260.2C2598.38 1250.87 2596.11 1239.13 2596.11 1225V1190.2C2596.11 1179.27 2597.71 1170.07 2600.91 1162.6C2604.11 1154.87 2608.51 1148.6 2614.11 1143.8C2619.71 1139 2625.98 1135.53 2632.91 1133.4C2640.11 1131.27 2647.58 1130.2 2655.31 1130.2C2663.31 1130.2 2671.31 1131.27 2679.31 1133.4C2687.31 1135.27 2694.78 1137.93 2701.71 1141.4C2708.91 1144.6 2715.18 1148.47 2720.51 1153ZM2720.51 1176.6C2715.45 1173.67 2709.45 1170.87 2702.51 1168.2C2695.85 1165.27 2688.65 1162.87 2680.91 1161C2673.45 1158.87 2665.85 1157.8 2658.11 1157.8C2654.91 1157.8 2651.45 1158.33 2647.71 1159.4C2643.98 1160.2 2640.38 1161.8 2636.91 1164.2C2633.71 1166.6 2631.05 1170.07 2628.91 1174.6C2626.78 1179.13 2625.71 1185.13 2625.71 1192.6V1221C2625.71 1229 2626.51 1236.07 2628.11 1242.2C2629.71 1248.33 2632.65 1253.53 2636.91 1257.8C2641.18 1261.8 2647.18 1264.73 2654.91 1266.6C2662.65 1268.47 2672.38 1269.13 2684.11 1268.6C2688.11 1268.6 2691.85 1268.47 2695.31 1268.2C2699.05 1267.93 2702.38 1267.67 2705.31 1267.4C2708.51 1267.13 2711.18 1267 2713.31 1267C2715.71 1266.73 2717.45 1266.6 2718.51 1266.6C2719.85 1266.33 2720.51 1266.2 2720.51 1266.2V1176.6Z" fill="white"/>
<defs>
<clipPath id="clip0_55_604">
<rect width="898" height="895" fill="white" transform="translate(1080.5)"/>
</clipPath>
</defs>
</svg>
