<svg xmlns="http://www.w3.org/2000/svg" xmlns:xlink="http://www.w3.org/1999/xlink" width="500" zoomAndPan="magnify" viewBox="0 0 375 374.999991" height="500" preserveAspectRatio="xMidYMid meet" version="1.0"><path fill="#393e46" d="M 174.542969 16.105469 C 151.4375 18.367188 130.253906 24.539062 117.710938 32.765625 C 92.546875 49.082031 72.597656 79.109375 66.566406 109.617188 C 64.921875 117.707031 63.550781 130.59375 64.304688 130.59375 C 64.921875 130.59375 119.902344 145.335938 133.683594 149.175781 C 140.46875 151.09375 146.570312 153.148438 147.1875 153.765625 C 147.875 154.453125 152.054688 163.089844 156.648438 173.03125 C 161.175781 183.042969 164.945312 191.269531 165.082031 191.335938 C 165.21875 191.472656 170.292969 193.117188 176.394531 194.96875 L 187.5 198.328125 L 198.605469 194.96875 C 204.707031 193.117188 209.78125 191.472656 209.917969 191.335938 C 210.054688 191.269531 213.824219 183.042969 218.351562 173.03125 C 222.945312 163.089844 227.125 154.453125 227.8125 153.765625 C 228.429688 153.148438 234.53125 151.09375 241.316406 149.175781 C 255.097656 145.335938 310.078125 130.59375 310.695312 130.59375 C 311.449219 130.59375 310.078125 117.707031 308.433594 109.617188 C 302.195312 77.875 281.078125 47.160156 254.546875 31.050781 C 237.339844 20.5625 200.183594 13.636719 174.542969 16.105469 Z M 174.542969 16.105469 " fill-opacity="1" fill-rule="nonzero"/><path fill="#393e46" d="M 63.136719 141.839844 C 63.273438 142.25 71.707031 170.976562 81.921875 205.664062 L 100.363281 268.738281 L 125.523438 293.554688 L 150.683594 318.441406 L 186.128906 318.441406 L 186.128906 204.089844 L 170.910156 199.835938 C 138.34375 190.789062 109.34375 182.5625 102.007812 180.230469 L 94.332031 177.898438 L 86.378906 161.925781 C 77.464844 144.167969 79.25 146.089844 68.417969 142.730469 C 65.058594 141.703125 62.933594 141.359375 63.136719 141.839844 Z M 63.136719 141.839844 " fill-opacity="1" fill-rule="nonzero"/><path fill="#393e46" d="M 304.457031 143.347656 C 300.34375 144.648438 296.847656 145.746094 296.78125 145.882812 C 296.710938 145.953125 293.007812 153.21875 288.621094 161.925781 L 280.667969 177.898438 L 272.992188 180.230469 C 265.65625 182.5625 236.65625 190.789062 204.160156 199.835938 L 188.871094 204.089844 L 188.871094 318.441406 L 224.316406 318.441406 L 249.476562 293.554688 L 274.636719 268.738281 L 293.078125 205.664062 C 303.292969 170.976562 311.726562 142.179688 311.929688 141.703125 C 312.066406 141.289062 312.136719 140.878906 312.066406 140.945312 C 312 140.945312 308.570312 142.042969 304.457031 143.347656 Z M 304.457031 143.347656 " fill-opacity="1" fill-rule="nonzero"/><path fill="#393e46" d="M 62.796875 190.308594 L 62.726562 220.128906 L 99.472656 279.570312 L 136.21875 339.007812 L 238.78125 339.007812 L 275.527344 279.570312 L 312.273438 220.128906 L 312.203125 190.308594 L 312.203125 160.417969 L 295.820312 215.949219 L 279.433594 271.410156 L 253.175781 297.667969 L 226.921875 323.925781 L 148.078125 323.925781 L 121.824219 297.667969 L 95.566406 271.410156 L 79.179688 215.949219 L 62.796875 160.417969 Z M 62.796875 190.308594 " fill-opacity="1" fill-rule="nonzero"/></svg>