<?xml version="1.0" encoding="UTF-8"?>
<svg id="Camada_1" data-name="Camada 1" xmlns="http://www.w3.org/2000/svg" viewBox="0 0 600 600">
  <defs>
    <style>
      .cls-1 {
        fill: #533c90;
      }

      .cls-1, .cls-2, .cls-3, .cls-4, .cls-5, .cls-6 {
        fill-rule: evenodd;
      }

      .cls-2 {
        fill: #61b558;
      }

      .cls-3 {
        fill: #8170b1;
      }

      .cls-4 {
        fill: #58575f;
      }

      .cls-5 {
        fill: #838187;
      }

      .cls-7 {
        fill: none;
      }

      .cls-8 {
        fill: #9a9999;
      }

      .cls-6, .cls-9 {
        fill: #17a638;
      }
    </style>
  </defs>
  <g>
    <polygon class="cls-6" points="102.43 304.14 59.69 281.03 59.69 328.55 101.22 353.54 144.56 330.14 144.56 281.03 102.43 304.14"/>
    <polygon class="cls-2" points="59.69 281.03 102.43 304.14 101.22 353.54 59.69 328.55 59.69 281.03"/>
    <path class="cls-4" d="M17.24,255.41v115.94c0,3.02,1.64,5.82,4.29,7.33l25.29,14.4c5.72,3.26,12.87-.81,12.87-7.33v-106.18l-42.44-24.16Z"/>
    <path class="cls-4" d="M185.46,254.53l-79.05-45.01c-2.65-1.51-5.93-1.51-8.58,0l-38.15,21.72-29.58-16.84c-5.72-3.26-12.87,.81-12.87,7.33v33.68l42.44,24.16,42.44-24.16,41.24,23.48,42.1-24.36Z"/>
    <path class="cls-5" d="M192.07,250.71l-79.39-45.2c-2.65-1.51-5.93-1.51-8.58,0l-44.42,25.74-29.58-16.84c-5.72-3.26-12.87,.81-12.87,7.33v33.68l42.44,24.16,42.44-24.16,41.24,23.48,48.71-28.18Z"/>
    <g>
      <path class="cls-3" d="M191.92,250.79l-79.12-45.05c-2.65-1.51-5.93-1.51-8.58,0l-6.39,3.78c2.65-1.51,5.92-1.51,8.58,0l79.05,45.01,6.46-3.74Z"/>
      <path class="cls-1" d="M187.01,256.4v114.95c0,3.02-1.64,5.82-4.29,7.33l6.39-3.15c2.65-1.51,4.29-4.3,4.29-7.33l-.2-115.38-6.18,3.58Z"/>
    </g>
    <path class="cls-4" d="M144.56,280.96v104.79c0,6.51,7.15,10.58,12.87,7.33l25.29-14.4c2.65-1.51,4.29-4.3,4.29-7.33v-114.95l-42.44,24.56Z"/>
    <line class="cls-7" x1="59.69" y1="279.57" x2="17.24" y2="255.41"/>
  </g>
  <g>
    <g>
      <path class="cls-4" d="M358.36,276l36.95,21.84-19.46,11.5-19.46-11.5-19.46,11.5-19.46-11.5,36.95-21.84c1.22-.72,2.72-.72,3.93,0Z"/>
      <path class="cls-5" d="M358.18,275.89l37.14,21.95-19.46,11.5-19.46-11.5-19.46,11.5-19.46-11.5,37.14-21.95c1.1-.65,2.46-.65,3.56,0Z"/>
      <path class="cls-4" d="M369.96,351.87l-33.02-19.53v-22.99l-19.46-11.5v46.01l36.95,21.84c1.22,.72,2.72,.72,3.93,0l11.6-6.85c2.62-1.55,2.62-5.42,0-6.97Z"/>
      <path class="cls-4" d="M375.86,309.35l-19.46,11.5v12.6c0,3.1,3.28,5.04,5.9,3.49l13.56-8.01,17.49-10.34c1.22-.72,1.97-2.05,1.97-3.49v-17.25l-19.46,11.5Z"/>
    </g>
    <g>
      <g>
        <path class="cls-4" d="M499.58,300.16v55.19c0,1.44,.75,2.77,1.97,3.49l11.59,6.85c2.62,1.55,5.9-.39,5.9-3.49v-50.54l-19.46-11.5Z"/>
        <path class="cls-4" d="M577.42,300.16v55.19c0,1.44-.75,2.77-1.97,3.49l-11.59,6.85c-2.62,1.55-5.9-.39-5.9-3.49v-50.54l19.46-11.5Z"/>
        <path class="cls-4" d="M540.47,278.32l36.95,21.84-19.46,11.5-19.46-11.5-19.46,11.5-19.46-11.5v-16.03c0-3.1,3.28-5.04,5.9-3.49l13.56,8.02,17.49-10.34c1.22-.72,2.72-.72,3.93,0Z"/>
      </g>
      <path class="cls-5" d="M540.47,278.32l36.95,21.84-19.46,11.5-19.46-11.5-19.46,11.5-19.46-11.5v-16.03c0-3.1,3.28-5.04,5.9-3.49l13.56,8.02,17.49-10.34c1.22-.72,2.72-.72,3.93,0Z"/>
    </g>
    <g>
      <g>
        <g>
          <path class="cls-6" d="M486.37,298.47v41.36c0,2.88-1.5,5.54-3.93,6.98l-31.05,18.35c-2.43,1.44-5.43,1.44-7.87,0l-31.05-18.35c-2.43-1.44-3.93-4.1-3.93-6.98v-41.36l19.46,11.5v23s19.46,11.51,19.46,11.51l19.46-11.51v-23l19.46-11.5Z"/>
          <path class="cls-1" d="M451.38,277.79l34.99,20.68-19.46,11.5-19.46-11.5-19.46,11.5-19.46-11.5,34.99-20.68c2.43-1.44,5.43-1.44,7.87,0Z"/>
        </g>
        <path class="cls-3" d="M449.42,276.63l36.95,21.84-19.46,11.5-19.46-11.5-19.46,11.5-19.46-11.5,36.95-21.84c1.22-.72,2.72-.72,3.93,0Z"/>
      </g>
      <path class="cls-6" d="M427.99,332.71v-22.74s-19.46-11.5-19.46-11.5v41.36c0,1.04,.2,2.06,.57,2.99l18.9-10.11Z"/>
      <path class="cls-6" d="M466.91,309.97v23l-19.24,11.37v21.88c1.28-.04,2.56-.39,3.71-1.07l31.05-18.35c2.43-1.44,3.93-4.1,3.93-6.98v-41.36l-19.46,11.5Z"/>
      <path class="cls-1" d="M466.91,309.97v23l-19.24,11.37v21.88c1.28-.04,2.56-.39,3.71-1.07l31.05-18.35c2.43-1.44,3.93-4.1,3.93-6.98v-41.36l-19.46,11.5Z"/>
    </g>
    <g>
      <g>
        <path class="cls-4" d="M226.43,300.16v55.19c0,1.44,.75,2.77,1.97,3.49l11.59,6.85c2.62,1.55,5.9-.39,5.9-3.49v-50.54l-19.46-11.5Z"/>
        <path class="cls-4" d="M304.27,300.16v55.19c0,1.44-.75,2.77-1.97,3.49l-11.59,6.85c-2.62,1.55-5.9-.39-5.9-3.49v-50.54l19.46-11.5Z"/>
        <path class="cls-4" d="M267.31,278.32l36.95,21.84-19.46,11.5-19.46-11.5-19.46,11.5-19.46-11.5v-16.03c0-3.1,3.28-5.04,5.9-3.49l13.56,8.02,17.49-10.34c1.22-.72,2.72-.72,3.93,0Z"/>
      </g>
      <path class="cls-5" d="M267.31,278.32l36.95,21.84-19.46,11.5-19.46-11.5-19.46,11.5-19.46-11.5v-16.03c0-3.1,3.28-5.04,5.9-3.49l13.56,8.02,17.49-10.34c1.22-.72,2.72-.72,3.93,0Z"/>
    </g>
  </g>
  <path class="cls-9" d="M225.49,394.8c118.17-1.1,239.09-1.11,357.26,0-118.17,1.11-239.09,1.11-357.26,0h0Z"/>
  <g>
    <path class="cls-8" d="M231.84,255h-5.41v-27.89h13.51l4.66,4.66v8.81l-4.66,4.66h-8.1v9.76Zm5.49-22.83h-5.49v8.06h5.49l1.86-1.86v-4.34l-1.86-1.86Z"/>
    <path class="cls-8" d="M259.37,255h-5.45v-27.89h13.94l4.66,4.66v8.06l-3.95,3.95,2.96,6.2,2.6,5.02h-5.41l-2.6-5.02-2.65-5.49h-4.11v10.51Zm5.89-22.83h-5.89v7.47h5.89l1.86-1.86v-3.75l-1.86-1.86Z"/>
    <path class="cls-8" d="M300.76,231.78v18.56l-4.62,4.66h-10.27l-4.66-4.66v-18.56l4.66-4.66h10.27l4.62,4.66Zm-5.41,16.35v-14.1l-1.86-1.86h-5.02l-1.86,1.86v14.1l1.86,1.86h5.02l1.86-1.86Z"/>
    <path class="cls-8" d="M319.96,255h-7.23l-4.62-4.66v-4.82h5.21v2.61l1.86,1.86h2.13l1.86-1.86v-21.01h5.41v23.22l-4.62,4.66Z"/>
    <path class="cls-8" d="M352.78,252.55l-2.45,2.45h-14.46v-27.89h14.46l2.45,2.45v2.61h-11.61v6.32h9.99v5.02h-9.99v6.48h11.61v2.57Z"/>
    <path class="cls-8" d="M365.85,255l-4.62-4.66v-18.56l4.62-4.66h9.12l4.62,4.66v5.02h-5.21v-2.76l-1.86-1.86h-4.03l-1.86,1.86v14.1l1.86,1.86h4.03l1.86-1.86v-2.8h5.21v5.02l-4.62,4.66h-9.12Z"/>
    <path class="cls-8" d="M401.08,255h-5.45v-22.83h-9.2v-2.61l2.45-2.45h19l2.41,2.45v2.61h-9.2v22.83Z"/>
  </g>
</svg>