<svg version="1.2" xmlns="http://www.w3.org/2000/svg" viewBox="0 0 1080 1080" width="1080" height="1080">
	<style>
		.s0 { fill: #000000 } 
		.s1 { fill: #ffffff } 
		.s2 { fill: #d91f25;stroke: #000000;paint-order:stroke fill markers;stroke-linejoin: round;stroke-width: 6 } 
	</style>
	<path id="Camada 6" fill-rule="evenodd" class="s0" d="m631 155.74c0.83 0.25 4.42 0.85 8 1.33 3.58 0.47 12.58 0.88 20 0.91 7.42 0.02 19.13 0.69 26 1.48 6.88 0.79 15.88 1.54 20 1.67 4.13 0.12 7.95 0.55 8.5 0.96 0.55 0.41 7.52 1.06 15.5 1.45 7.98 0.4 14.95 1.06 15.5 1.48 0.55 0.43 3.25 1 6 1.28 2.75 0.28 7.48 1.01 10.5 1.63 3.02 0.61 7.52 1.61 10 2.21 2.48 0.6 5.85 1.27 7.5 1.49 1.65 0.22 4.58 0.82 6.5 1.34 1.92 0.51 3.84 0.73 4.25 0.48 0.41-0.25 0.75 0 0.75 0.55 0 0.55 0.9 0.77 2 0.5 1.1-0.28 2-0.05 2 0.5 0 0.55 0.9 0.77 2 0.5 1.1-0.28 2.11-0.03 2.25 0.54 0.14 0.57 1.38 1.15 2.75 1.3 1.38 0.14 3.06 0.57 3.75 0.96 0.69 0.38 1.7 0.47 2.25 0.2 0.55-0.28 1-0.05 1 0.5 0 0.55 0.67 0.77 1.5 0.5 0.83-0.28 1.49-0.16 1.48 0.25-0.01 0.41 2.58 1.4 5.75 2.2 3.17 0.79 8.47 2.47 11.77 3.72 3.3 1.25 6.34 2.06 6.75 1.8 0.41-0.26 0.73-0.13 0.72 0.28-0.02 0.41 1.89 1.52 4.25 2.45 2.35 0.94 4.94 1.84 5.76 2 0.81 0.17 2.05 0.86 2.75 1.55 0.7 0.69 1.72 1.02 2.27 0.75 0.55-0.28 2.24 0.13 3.75 0.9 1.51 0.77 4.66 1.9 7 2.5 2.34 0.61 4.7 0.87 5.25 0.6 0.55-0.28 0.98-0.07 0.96 0.45-0.03 0.53 1.66 1.22 3.75 1.54 2.08 0.31 6.04 1.02 8.79 1.58 2.75 0.55 6.87 1.1 9.15 1.22 2.28 0.11 4.53 0.56 5 0.99 0.47 0.42 3.04 1.1 5.71 1.5 2.68 0.39 5.04 1.06 5.25 1.47 0.22 0.41 1.4 0.74 2.64 0.73 1.24-0.01 2.7 0.43 3.25 0.96 0.55 0.54 3.92 1.91 7.5 3.06 3.58 1.15 8.3 3.13 10.5 4.4 2.25 1.3 7.09 6.21 11.06 11.21 3.89 4.89 9.06 10.46 11.5 12.38 2.44 1.92 4.53 3.72 4.63 4 0.11 0.28 2.36 1.93 5 3.67 2.65 1.73 6.42 5.11 8.39 7.5 1.97 2.39 5.37 7.04 7.55 10.34 2.19 3.3 7.6 13.2 12.03 22 4.43 8.8 9.52 18.48 11.31 21.5 2.92 4.93 3.19 6.04 2.64 10.75-0.33 2.89-3.13 11.89-6.21 20-4.73 12.44-6.21 15.3-9.5 18.25-2.13 1.92-3.55 3.85-3.14 4.28 0.41 0.43-0.05 0.76-1.01 0.75-1.01-0.02-2.63 1.57-3.81 3.72-1.26 2.29-1.86 4.73-1.53 6.25 0.29 1.37 1.24 3.17 2.11 4 0.86 0.82 1.55 1.84 1.52 2.25-0.02 0.41 1.42 2.89 3.21 5.5 1.79 2.62 6.1 11.28 9.58 19.25 3.48 7.98 6.71 15.4 7.17 16.5 0.47 1.1 3.18 8.52 6.04 16.5 2.85 7.98 6.7 20.57 8.56 28 1.86 7.42 3.67 14.17 4.02 15 0.35 0.82 0.72 2.4 0.83 3.5 0.1 1.1 1.03 7.62 2.06 14.5 1.02 6.87 2.34 12.8 2.93 13.16 0.58 0.37 0.76 1.27 0.4 2-0.36 0.74-0.28 12.14 0.18 25.34 0.63 18.12 0.55 24.17-0.34 24.71-0.86 0.51-0.99 3.52-0.49 11 0.38 5.82 0.29 10.72-0.22 11.29-0.5 0.55-1.03 4.93-1.19 9.74-0.15 4.81-0.62 8.74-1.03 8.75-0.41 0.01-0.66 1.7-0.55 3.76 0.11 2.06-0.11 4.31-0.5 5-0.38 0.69-0.87 3.84-1.08 7-0.22 3.16-0.64 6.42-0.96 7.25-0.31 0.83-1.04 4.09-1.61 7.25-0.58 3.16-0.82 6.2-0.55 6.75 0.27 0.55 0.16 1.17-0.25 1.38-0.41 0.21-1.1 2.35-1.52 4.75-0.43 2.4-1.02 5.72-1.31 7.37-0.29 1.65-1.89 8.4-3.56 15-1.66 6.6-5.06 18.98-7.56 27.5-2.58 8.83-7.12 21.09-10.54 28.5-3.31 7.15-8.94 18.62-12.53 25.5-3.58 6.87-7.9 14.75-9.6 17.5-1.7 2.75-3.55 5.51-4.11 6.14-0.56 0.62-1.7 1.97-2.53 3-0.83 1.02-3.65 4.67-6.25 8.11-2.61 3.44-4.74 6.7-4.74 7.25 0 0.55-0.39 1.11-0.86 1.25-0.47 0.14-3.71 4.3-7.2 9.25-3.48 4.95-8.05 10.91-10.14 13.25-2.09 2.34-3.8 4.02-3.8 3.75 0-0.27-2.36 1.4-5.25 3.73-2.89 2.33-9.41 8.4-14.5 13.5-5.09 5.1-9.23 8.93-9.2 8.52 0.02-0.41-2.79 1.95-6.25 5.26-3.47 3.3-8.55 7.55-11.3 9.44-2.75 1.89-5.11 3.8-5.25 4.24-0.14 0.45-0.81 0.81-1.5 0.81-0.69 0-4.51 2.47-8.5 5.5-3.99 3.02-7.7 5.5-8.25 5.5-0.55 0-0.99 0.34-0.97 0.75 0.01 0.41-1.11 1.31-2.5 2-1.39 0.69-2.52 0.91-2.5 0.5 0.02-0.41-1.88-1.65-4.22-2.75-2.34-1.1-7.53-5.26-11.53-9.25-4.2-4.18-7.28-8.1-7.28-9.25 0-1.1-0.34-2.18-0.75-2.39-0.41-0.22-1.09-3.03-1.5-6.25-0.41-3.22-1-6.09-1.3-6.36-0.31-0.27-0.98 0.17-1.49 1-0.51 0.83-0.94 1.16-0.94 0.75-0.01-0.41-2.16 0.18-4.77 1.31-2.61 1.13-5.65 2.22-6.75 2.42-1.1 0.21-2.11 0.4-2.25 0.45-0.14 0.04-0.59 0.21-1 0.38-0.41 0.17-2.66 0.62-5 1-2.34 0.38-4.25 1.03-4.25 1.44 0 0.41-1.8 0.86-4 1-2.2 0.14-4.56 0.56-5.25 0.93-0.69 0.37-2.83 0.84-4.75 1.03-1.92 0.2-6.65 0.59-10.5 0.86-3.85 0.28-25.67 0.6-48.5 0.72-22.83 0.11-50.27-0.11-61-0.51-11.9-0.44-20.77-0.34-22.75 0.25-1.79 0.53-3.24 0.63-3.23 0.22 0.02-0.41-1.9-1.38-4.25-2.15-2.35-0.77-4.94-1.5-5.77-1.61-0.83-0.12-2.17-0.51-3-0.88-0.83-0.37-2.4-0.85-3.5-1.07-1.1-0.21-2-0.46-2-0.54 0-0.08-0.67-0.31-1.5-0.51-0.83-0.19-3.98-1.02-7-1.85-3.02-0.82-6.74-1.98-8.25-2.57-1.51-0.59-3.2-0.84-3.75-0.57-0.55 0.27-1 0.05-1-0.5 0-0.55-1.46-1.32-3.25-1.72-1.79-0.4-3.7-0.78-4.25-0.85-0.55-0.06-2.35-0.66-4-1.31-1.65-0.66-3.56-0.96-4.25-0.66-0.69 0.3-1.24-0.02-1.22-0.71 0.01-0.69-0.32-0.92-0.75-0.51-0.43 0.41-1.23 0.32-1.78-0.19-0.55-0.51-2.58-1.17-4.5-1.45-1.92-0.29-9.13-1.94-16-3.69-7.7-1.95-13.56-2.92-15.25-2.54-1.59 0.37-2.57 1.16-2.32 1.88 0.23 0.69-0.56 1.76-1.75 2.38-1.2 0.62-5.1 1.47-8.68 1.87-4.43 0.51-7.77 0.34-10.5-0.53-2.2-0.71-5.8-2.45-8-3.87-2.2-1.43-4.46-3.05-5.03-3.6-0.57-0.55-3.27-2.1-6-3.43-4.3-2.11-6.24-2.42-14.47-2.28-5.23 0.08-11.52 0.41-14 0.73-2.48 0.31-5.63 0.71-7 0.87-1.38 0.16-2.95 0.42-3.5 0.56-0.55 0.15-2.01 0.22-3.25 0.16-1.24-0.06-2.48 0.34-2.75 0.89-0.27 0.55-1.4 0.77-2.5 0.5-1.1-0.27-2.01-0.16-2.02 0.25-0.01 0.41-1.14 0.64-2.5 0.5-1.36-0.14-2.48 0.09-2.49 0.5 0 0.41-1.91 0.83-4.25 0.92-2.33 0.1-4.35 0.66-4.49 1.25-0.14 0.6-1.38 0.85-2.75 0.58-1.38-0.27-2.5-0.05-2.5 0.5 0 0.55-0.9 0.77-2 0.5-1.1-0.27-2-0.16-2 0.25 0 0.41-1.47 0.81-3.25 0.88-1.79 0.07-3.36 0.64-3.5 1.25-0.14 0.62-0.81 0.87-1.5 0.56-0.69-0.31-3.05 0.16-5.25 1.05-2.2 0.89-6.41 3.28-9.35 5.31-2.95 2.04-10.09 9.1-15.88 15.7-5.79 6.6-13.28 14.92-16.66 18.5-3.37 3.58-7.7 8.34-9.62 10.59-1.92 2.25-4.17 4.98-4.99 6.06-0.82 1.08-2.45 3.29-3.6 4.91-1.16 1.62-3.59 5.86-5.39 9.44-1.81 3.58-5.87 12.35-9.02 19.5-3.15 7.15-7.1 16.15-8.77 20-1.68 3.85-3.39 7.9-3.8 9-0.41 1.1-0.81 2.23-0.88 2.5-0.07 0.27-1.16 3.87-2.42 8-1.26 4.12-3.78 12.23-5.6 18-1.81 5.77-3.87 12.98-4.56 16-0.7 3.02-1.31 6.36-1.36 7.42-0.08 1.53-1.01 1.99-4.6 2.31-4.32 0.37-4.71 0.17-9.58-4.92-2.8-2.92-6.68-7.56-8.63-10.31-1.95-2.75-4.56-7.02-5.8-9.5-1.24-2.48-2.54-4.73-2.87-5-0.34-0.27-2.53-4.44-4.87-9.25-2.34-4.81-7.17-17.64-10.74-28.5-3.58-10.86-6.84-20.84-7.25-22.18-0.42-1.33-0.4-8.53 0.04-16 0.43-7.46 0.54-16.95 0.24-21.07-0.31-4.13-0.14-7.95 0.37-8.5 0.5-0.55 1.07-6.96 1.26-14.25 0.25-10.11 0.03-13.25-0.92-13.25-0.69 0-1.24 0.56-1.22 1.25 0.01 0.69-0.32 0.93-0.75 0.53-0.43-0.39-2.35 0.14-4.28 1.18-1.93 1.04-6.54 4.74-10.25 8.22-3.71 3.48-6.75 6.66-6.75 7.07 0 0.41-2.24 2.89-4.97 5.5-2.73 2.61-4.98 4.64-5 4.5-0.02-0.14-1.04 0.4-2.28 1.18-1.76 1.12-2.8 1.19-4.75 0.32-1.38-0.62-3.07-1.83-3.77-2.69-0.69-0.86-1.26-2.8-1.25-4.31 0.01-1.51 0.44-3.54 0.96-4.5 0.52-0.96 2.12-6.02 3.55-11.25 1.43-5.23 4.21-14 6.17-19.5 1.96-5.5 3.95-10.9 4.41-12 0.47-1.1 2.38-6.05 4.26-11 1.88-4.95 4.36-10.58 5.51-12.5 1.16-1.92 2.78-4.85 3.61-6.5 0.83-1.65 2.08-3.88 2.78-4.96 0.7-1.08 4.08-5.91 7.52-10.75 3.44-4.83 6.25-9.02 6.25-9.29 0-0.27 1.12-2.19 2.48-4.25 1.62-2.44 2.48-5.15 2.47-7.75-0.01-2.2-0.56-4.79-1.23-5.75-1.14-1.64-1.57-1.57-6.72 1.1-3.02 1.56-8.1 3.93-11.27 5.25-3.17 1.32-5.76 2.74-5.75 3.15 0.01 0.41-0.77 0.76-1.73 0.77-0.96 0.01-5.57 2.1-10.25 4.64-4.68 2.55-10.3 5.54-12.5 6.64-2.2 1.1-8.28 4.74-13.5 8.08-5.22 3.34-9.61 6.42-9.75 6.85-0.14 0.42-0.93 0.77-1.75 0.77-0.82 0-1.5 0.45-1.5 1 0 0.55-0.45 1-1 1-0.55 0-3.49 1.69-6.54 3.75-3.04 2.06-5.52 4.09-5.5 4.5 0.02 0.41-0.3 0.57-0.71 0.34-0.41-0.22-5.34 2.59-10.95 6.25-5.61 3.66-11.04 6.66-12.08 6.66-1.04 0-2.66-0.67-3.6-1.5-1.01-0.89-1.7-2.92-1.68-5 0.01-1.92 0.96-6.42 2.1-10 1.14-3.58 2.7-8.98 3.46-12 0.77-3.02 1.91-7.52 2.53-10 0.63-2.48 1.52-5.4 1.99-6.5 0.47-1.1 2.94-7.4 5.49-14 2.56-6.6 6.93-16.27 9.71-21.5 2.79-5.23 6.13-11.08 7.43-13 1.3-1.92 2.35-3.95 2.33-4.5-0.02-0.55 1.12-2.13 2.52-3.5 1.4-1.38 2.53-2.95 2.49-3.5-0.03-0.55 0.89-1.9 2.04-3 1.15-1.1 4.27-5.38 6.92-9.5 2.65-4.13 5.1-8.74 5.44-10.25 0.51-2.28-0.03-3.36-3.14-6.32-2.06-1.96-4.31-3.31-5-3-0.69 0.32-1.25 0.12-1.25-0.43 0-0.55-0.68-0.77-1.5-0.5-0.82 0.27-1.49 0.16-1.47-0.25 0.02-0.41-2.12-1.42-4.75-2.25-2.63-0.83-5.23-1.5-5.78-1.5-0.55 0-1.22-0.32-1.5-0.7-0.28-0.39-1.63-0.92-3-1.18-1.38-0.26-2.5-0.54-2.5-0.62 0-0.09-0.68-0.28-1.5-0.45-0.82-0.16-3.97-0.82-7-1.46-3.03-0.65-7.86-0.93-10.75-0.63-3.19 0.33-5.25 0.15-5.25-0.46 0-0.62-4.17-0.91-11-0.75-6.05 0.14-11-0.09-11-0.5 0-0.41-14.4-0.64-32-0.5-17.6 0.14-32-0.09-32-0.5 0-0.41-6.75-0.64-15-0.5-8.25 0.14-15-0.09-15-0.5 0-0.41-1.35-0.64-2.99-0.5-1.64 0.14-2.99-0.09-3-0.5-0.01-0.41-1.02-0.97-2.26-1.25-1.24-0.27-2.86-1.73-3.6-3.25-0.74-1.51-1.11-3.88-0.81-5.25 0.43-2.04 3.06-3.79 14.31-9.5 7.58-3.85 14.92-7.92 16.31-9.04 1.4-1.12 3.66-2.6 5.04-3.29 1.37-0.69 3.4-1.81 4.5-2.49 1.1-0.68 4.63-3.03 7.85-5.21 3.22-2.18 7.49-4.97 9.5-6.2 2.01-1.23 4.32-2.54 5.15-2.93 0.82-0.38 1.72-0.95 2-1.27 0.28-0.31 1.96-1.58 3.75-2.82 1.79-1.24 3.7-2.25 4.25-2.25 0.55 0 1.22-0.67 1.5-1.5 0.28-0.83 0.95-1.27 1.5-1 0.55 0.27 1.9-0.4 3-1.5 1.1-1.1 2.34-2.01 2.75-2.03 0.41-0.01 3.22-1.67 6.25-3.69 3.03-2.01 5.61-4.03 5.75-4.47 0.14-0.45 0.81-0.81 1.5-0.82 0.69-0.01 5.76-4.62 11.27-10.25 5.51-5.63 11.4-12.04 13.09-14.24 1.69-2.2 5.95-7.77 9.48-12.37 3.53-4.61 7.31-9.61 8.41-11.12 1.1-1.51 3.69-5.28 5.75-8.37 2.06-3.1 5.61-10.25 7.88-15.89 2.27-5.64 4.18-11.26 4.25-12.5 0.07-1.24 0.46-2.25 0.87-2.25 0.41 0 0.57-5.29 0.35-11.75-0.22-6.46-0.71-16.25-1.09-21.75-0.39-5.5-1.22-10.58-1.86-11.29-0.63-0.72-1.49-1.28-1.9-1.25-0.41 0.02-1.54-0.7-2.5-1.61-0.96-0.9-5.95-4.62-11.07-8.25-5.13-3.63-11.43-8.06-14-9.85-2.58-1.78-5.24-3.7-5.93-4.25-0.69-0.55-1.7-1-2.25-1-0.55 0-1.11-0.34-1.25-0.75-0.14-0.41-2.72-2.44-5.75-4.5-3.03-2.06-6.06-3.75-6.75-3.75-0.69 0-1.36-0.34-1.5-0.75-0.14-0.41-2.72-2.38-5.75-4.37-3.03-2-8.65-5.63-12.5-8.07-3.85-2.44-8.58-5.41-10.5-6.59-1.92-1.18-5.08-3.07-7-4.21-1.92-1.13-5.3-3.19-7.5-4.58-2.2-1.39-5.24-3.07-6.76-3.73-1.52-0.66-2.75-1.54-2.75-1.95 0.01-0.41-1.34-0.98-2.99-1.25-2.81-0.47-3-0.78-3-5 0-3.29 0.61-5.14 2.25-6.9 1.24-1.31 5.62-3.66 9.75-5.2 4.12-1.55 7.95-2.92 8.5-3.05 0.55-0.13 7.75-3 16-6.37 8.25-3.38 16.57-6.95 18.5-7.95 1.92-1 10.03-4.99 18-8.87 7.97-3.89 17.43-9.01 21-11.39 3.57-2.37 8.65-5.88 11.27-7.79 2.62-1.91 4.76-3.82 4.75-4.23-0.01-0.41 0.54-0.76 1.23-0.78 0.69-0.02 2.4-1.03 3.79-2.25 1.4-1.22 3.28-3.35 4.18-4.72 1.38-2.11 1.44-3.04 0.41-6-0.67-1.93-2.16-4.63-3.32-6-1.15-1.38-5.89-7.23-10.52-13-4.63-5.77-11.13-14.1-14.44-18.5-3.31-4.4-9.85-14.75-14.54-23-4.68-8.25-11-19.5-14.04-25-3.04-5.5-6.6-12.23-7.9-14.96-1.56-3.27-3.15-5.15-6.93-6.04l2.53-5.25c2.29-4.75 2.82-5.23 5.53-5 1.65 0.14 2.99 0.47 2.98 0.75 0 0.27 2.81 1.39 6.25 2.47 3.45 1.08 6.49 2.02 6.77 2.08 0.28 0.07 1.74 0.64 3.25 1.28 1.51 0.65 6.01 1.5 10 1.91 3.99 0.41 7.93 0.67 8.75 0.58 0.82-0.09 1.72 0.18 2 0.61 0.28 0.43 4.32 1.32 9 1.99 4.68 0.67 11.2 1.61 14.5 2.09 3.3 0.48 7.35 0.74 9 0.56 1.65-0.17 3.22 0.07 3.5 0.53 0.28 0.46 10.96 0.85 23.75 0.87 12.79 0.02 24.04-0.34 25-0.79 0.96-0.45 4.68-0.93 8.25-1.08 3.57-0.14 6.73-0.58 7-0.98 0.27-0.4 3.87-0.84 8-0.99 4.12-0.15 7.61-0.69 7.75-1.2 0.14-0.53 1.75-0.61 3.77-0.18 2.18 0.46 3.51 0.37 3.5-0.25-0.01-0.55 2.35-1.01 5.23-1.02 2.89-0.01 9.98-0.39 15.75-0.84 5.77-0.45 10.84-1 11.25-1.23 0.41-0.22 3.11-0.7 6-1.04 2.89-0.35 6.71-0.58 8.5-0.5 1.79 0.07 3.81-0.2 4.5-0.6 0.69-0.4 2.6-0.81 4.25-0.91 1.65-0.1 5.25-0.42 8-0.7 2.75-0.29 7.48-0.82 10.5-1.19 3.02-0.36 6.06-1.07 6.75-1.57 0.69-0.49 1.59-0.71 2-0.47 0.41 0.24 3.23 0.05 6.25-0.4 3.02-0.46 9.55-1.58 14.5-2.49 4.95-0.9 13.05-2.29 18-3.09 4.95-0.79 10.12-1.67 11.5-1.94 1.37-0.27 4.52-0.75 7-1.06 2.48-0.32 4.95-0.85 5.5-1.19 0.55-0.35 2.8-0.79 5-0.99 2.2-0.21 4.45-0.68 5-1.05 0.55-0.37 1.79-0.57 2.75-0.45 0.96 0.13 1.75-0.11 1.75-0.52 0-0.41 2.36-0.83 5.25-0.92 2.89-0.09 5.36-0.65 5.5-1.25 0.14-0.59 0.7-0.86 1.25-0.58 0.55 0.27 3.59 0.02 6.75-0.57 3.16-0.59 8-1.31 10.75-1.59 2.75-0.29 6.01-0.93 7.25-1.43 1.24-0.5 2.59-0.73 3-0.51 0.41 0.22 4.12-0.25 8.25-1.04 4.12-0.79 11.55-1.69 16.5-1.99 4.95-0.31 9.45-0.9 10-1.31 0.55-0.41 3.48-0.85 6.5-0.98 3.02-0.12 9.33-0.64 14-1.15 4.67-0.51 15.02-1.51 23-2.23 7.98-0.71 14.95-1.58 15.5-1.93 0.55-0.34 9.77-0.93 20.5-1.3 10.73-0.37 22.42-1.02 26-1.43 3.58-0.42 7.17-0.55 8-0.3zm-42.5 18.35c-8.25 0.44-21.75 1.53-30 2.43-8.25 0.9-25.58 3.16-38.5 5.01-12.93 1.86-33.4 4.98-45.5 6.94-12.1 1.97-32.8 5.56-46 8-13.2 2.43-33.9 6.03-46 8-12.1 1.97-25.6 4.45-30 5.5-4.4 1.05-16.32 2.87-26.5 4.04-10.18 1.17-27.73 3.26-39 4.63-14.96 1.82-27.79 2.64-47.5 3.05-16.1 0.33-32.25 0.12-40-0.53-7.15-0.6-19.75-2.19-28-3.54-8.25-1.35-17.33-2.61-20.17-2.79-2.85-0.18-5.44 0.01-5.75 0.42-0.32 0.41 2.87 6.26 7.08 13 4.21 6.74 8.87 14.95 10.35 18.25 1.49 3.3 4.5 8.25 6.69 11 2.19 2.75 4.9 6.8 6.02 9 1.13 2.2 3.98 6.48 6.34 9.5 2.36 3.02 6.99 8.42 10.29 12 3.3 3.57 7.8 8.98 10.01 12 2.2 3.02 4.6 6.96 5.32 8.75 0.78 1.92 1.03 4.37 0.61 6-0.39 1.51-3.21 5.4-6.25 8.64-3.14 3.33-10.96 9.45-18.04 14.11-6.88 4.53-14.76 10.44-17.53 13.12-3.98 3.87-10.25 7.52-30.25 17.63-13.87 7.01-25.22 13.2-25.22 13.75 0 0.55 1.71 2.69 3.81 4.75 2.09 2.06 16.58 12.3 32.2 22.75 17.71 11.84 31.2 21.64 35.82 26 4.26 4.03 8.48 9.12 9.94 12 1.39 2.75 3.13 7.25 3.87 10 0.77 2.87 1.34 10.22 1.35 17.25 0 6.74-0.47 15.74-1.06 20-0.58 4.26-1.98 11.35-3.09 15.75-1.12 4.4-3.79 12.39-5.94 17.75-2.14 5.36-5.74 13.01-7.99 17-2.25 3.99-6.17 10.17-8.71 13.75-2.54 3.58-8.92 10.95-14.16 16.39-5.25 5.44-14.49 13.94-20.54 18.89-6.05 4.96-16.18 12.68-22.5 17.16-6.33 4.49-18.03 12.37-26 17.52-7.97 5.15-14.72 9.52-15 9.7-0.28 0.19-0.28 0.55 0 0.81 0.28 0.26 4.1 0.91 8.5 1.45 4.4 0.54 19.03 1.47 32.5 2.07 13.47 0.59 31.25 1.73 39.5 2.53 8.25 0.8 18.94 2.13 23.75 2.97 4.81 0.83 12.69 2.76 17.5 4.3 5.33 1.7 16.17 6.83 27.75 13.15 10.45 5.69 19.12 10.4 19.26 10.46 0.14 0.05-0.08 0.97-0.5 2.03-0.42 1.05-4.14 4.18-8.26 6.94-4.13 2.76-9.79 7.29-12.59 10.07-2.8 2.78-8.05 9.56-11.66 15.06-3.62 5.5-10.17 16.98-14.56 25.5-4.39 8.52-9.72 20.11-11.84 25.73-2.12 5.63-3.47 10.58-3.01 11 0.45 0.43 3.38-0.61 6.5-2.31 3.11-1.69 13.31-7.95 22.66-13.91 9.35-5.96 22.85-13.66 30-17.11 7.15-3.44 16.37-7.39 20.5-8.78 4.12-1.38 12.79-3.89 19.25-5.57 6.46-1.68 14.23-3.05 17.25-3.05 4.83 0 5.5 0.24 5.5 2 0 1.1-0.96 3.91-2.13 6.25-1.17 2.34-4.47 7.62-7.33 11.75-2.87 4.12-8.4 13.12-12.31 20-3.91 6.87-8 14.98-9.11 18-1.1 3.02-3.2 9.33-4.67 14-1.46 4.67-4.36 11.87-6.45 16-2.08 4.12-4.54 10.2-5.46 13.5-0.92 3.3-1.4 6.23-1.08 6.5 0.33 0.27 4.74-0.8 9.82-2.39 6.68-2.09 10.64-2.78 14.38-2.5 3.77 0.29 5.86 1.06 7.79 2.89 1.45 1.37 3.07 4.19 3.6 6.25 0.6 2.36 0.6 6.07 0.01 10-0.51 3.44-2.13 13-3.58 21.25-2.39 13.56-2.6 16.63-2.11 32 0.35 11.46 1.2 20.18 2.58 26.75 1.13 5.36 5.22 17.96 9.09 28 3.87 10.04 7.7 19.26 8.5 20.5 0.8 1.24 2.19 2.14 3.07 2 1.13-0.17 4.44-7.8 10.97-25.25 6.8-18.18 12.5-31.2 20.89-47.75 6.34-12.51 11.52-23.31 11.5-24-0.01-0.69 1.85-4.17 4.13-7.75 2.28-3.58 5.17-8.52 6.41-11 1.24-2.48 3.22-7.65 4.4-11.5 1.33-4.38 2.12-9.62 2.1-14-0.02-3.85-0.63-9.25-1.36-12-0.73-2.75-3.15-9.27-5.38-14.5-2.23-5.23-6.18-16.25-8.79-24.5-2.6-8.25-6.72-21.75-9.15-30-2.43-8.25-5.08-18.83-5.89-23.5-0.81-4.67-1.75-14.13-2.09-21-0.35-7.22-0.11-17.78 0.57-25 0.65-6.88 2.29-18.01 3.63-24.75 1.35-6.74 2.47-15.06 2.49-18.5 0.03-3.44 0.62-7.83 1.33-9.75 0.7-1.92 3.19-6.42 5.51-10 2.33-3.58 6.4-11 9.04-16.5 2.63-5.5 8.71-16.3 13.5-24 4.79-7.7 11.79-20.3 15.57-28 3.77-7.7 8.52-18.5 10.55-24 2.03-5.5 4.8-14.27 6.16-19.5 2.14-8.26 2.4-11 1.97-21-0.28-6.45-1.68-17.43-3.18-25-1.77-8.88-2.72-16.92-2.77-23.5-0.05-6.85 0.49-11.89 1.71-16 0.97-3.3 2.99-8.7 4.49-12 1.49-3.3 5.36-10.05 8.6-15 3.24-4.95 9.51-12.63 13.94-17.07 4.42-4.44 11.64-10.75 16.04-14.02 4.4-3.27 14.98-9.37 23.5-13.56 8.52-4.19 20.45-9.87 26.5-12.63 6.05-2.76 15.5-6.6 21-8.52 5.5-1.93 12.92-4.85 16.5-6.47 3.58-1.63 14.77-5.84 24.89-9.35 16.86-5.85 18.89-6.82 24.5-11.65 3.36-2.9 7.01-5.25 8.11-5.22 1.1 0.04 3.8 1.75 6 3.81l4 3.74 49 4.68c16.27-3.29 25.27-5.44 30.5-6.89 5.23-1.46 13.55-4.43 18.5-6.62 4.95-2.18 12.37-5.21 16.5-6.74 4.12-1.53 11.1-3.33 15.5-3.99 6.08-0.92 10.04-0.94 16.5-0.08 4.67 0.61 13.23 2.74 19 4.73 5.77 1.98 16.35 6.27 23.5 9.53 7.15 3.26 13.53 6.7 14.18 7.63 0.65 0.93 1.5 3.94 1.88 6.69 0.38 2.75 1.11 6.12 1.62 7.5 0.52 1.37 2.71 5.2 4.87 8.5 2.16 3.3 5.07 9.37 6.47 13.5 1.4 4.12 3.15 11.32 3.89 16 0.75 4.67 2.08 10.19 2.97 12.25 0.9 2.09 3.28 4.86 5.37 6.26 2.47 1.66 6.82 3.06 12.75 4.1 6.89 1.22 13.22 1.48 27 1.1 12.57-0.34 19.81-0.99 24-2.17 3.3-0.93 9.15-3.2 13-5.04 3.85-1.83 9.92-5.56 13.5-8.27 3.58-2.71 8.75-6.07 11.5-7.47 2.75-1.39 8.15-3.51 12-4.7 4.34-1.35 11-2.39 17.5-2.73 6.25-0.34 11.41-1.12 12.75-1.95 1.24-0.76 3.35-3.29 4.7-5.63 1.34-2.34 3.85-8.52 5.56-13.75 1.72-5.23 3.15-10.63 3.2-12 0.05-1.38-1.64-5.2-3.75-8.5-2.11-3.3-6.27-11.4-9.25-18-2.97-6.6-6.71-13.91-8.31-16.25-1.59-2.34-6.05-6.95-9.9-10.25-3.85-3.3-8.19-6.79-9.65-7.75-1.46-0.96-6.24-6.03-10.62-11.25-4.38-5.23-9.6-11-11.6-12.84-1.99-1.83-6.33-4.59-9.63-6.13-3.3-1.54-9.6-3.94-14-5.33-4.4-1.39-12.95-3.24-19-4.1-6.05-0.87-15.05-2.18-20-2.93-6.54-0.98-11.73-2.59-19-5.9-5.5-2.5-14.27-5.91-19.5-7.57-5.23-1.66-12.65-3.67-16.5-4.46-3.85-0.79-8.46-2.18-10.25-3.09-1.79-0.91-7.86-2.78-13.5-4.16-5.64-1.37-16.55-3.42-24.25-4.54-7.7-1.13-21.42-3.36-30.5-4.96-9.08-1.6-21.67-3.6-28-4.43-6.33-0.83-20.27-1.97-31-2.53-10.73-0.56-29.4-0.95-41.5-0.88-12.1 0.08-28.75 0.5-37 0.94zm32.11 157.2c1.04 1.26 11.56 13.5 23.39 27.2 11.83 13.7 25.55 29.37 30.5 34.84 4.95 5.46 10.91 12.34 13.25 15.3l4.25 5.37c-12.01 9.06-16.85 12.4-18.5 13.27-2.96 1.57-3.05 1.54-6.71-2.09-3.34-3.32-3.86-3.54-5.38-2.18-0.92 0.82-2.68 3.75-3.9 6.5-1.32 2.95-4.75 7.46-8.37 11-3.38 3.3-8.28 7.25-10.89 8.77-2.61 1.52-7.9 3.72-11.75 4.88-5.81 1.76-8.78 2.05-17.5 1.67-8.05-0.34-12.25-1.08-18-3.14-4.13-1.48-9.75-4.18-12.5-6-2.75-1.83-7.62-5.99-10.82-9.25-3.82-3.89-7.18-8.69-9.76-13.93-2.71-5.52-4.25-10.33-4.96-15.5-0.7-5.09-0.71-9.59-0.03-14 0.55-3.57 1.72-8.52 2.59-11 0.86-2.48 2.65-6.3 3.97-8.5 1.32-2.2 3.91-5.57 5.76-7.5 1.85-1.93 6.38-6.09 10.06-9.25 3.68-3.16 6.69-6.43 6.69-7.25 0-0.82-2.14-3.19-4.75-5.25-2.61-2.06-6.77-5.74-9.25-8.16l-4.5-4.42c-8.52 2.78-16.63 6.03-23.5 9.02-6.88 2.99-18.58 8.62-26 12.52-7.43 3.9-16.65 9.06-20.5 11.47-3.85 2.4-9.48 6.27-12.51 8.59-3.85 2.95-6.34 5.89-8.24 9.73-1.5 3.02-3.45 8.43-4.35 12-1.48 5.91-1.48 7-0.08 12 1.22 4.35 2.66 6.56 6.86 10.56 2.93 2.79 8.47 6.91 12.32 9.17 3.85 2.25 8.91 5.48 11.25 7.18 2.34 1.7 4.14 3.34 4 3.65-0.14 0.31-6.32-1.47-13.75-3.95-7.43-2.47-15.19-4.75-17.25-5.06-2.06-0.3-3.74-0.21-3.73 0.2 0.01 0.41 1.68 4.12 3.71 8.25 2.69 5.45 5.75 9.55 11.24 15 4.15 4.12 10.46 10.03 14.04 13.13 3.57 3.1 6.26 5.92 5.99 6.27-0.27 0.34-5.45-0.74-11.5-2.42-6.05-1.67-13.25-3.1-16-3.16-2.75-0.06-5.56 0.18-6.25 0.53-0.69 0.36-1.25 1.33-1.25 2.15 0 0.82 1.69 3.35 3.75 5.61 2.06 2.26 6.9 6.06 10.75 8.45 3.85 2.39 12.4 6.9 19 10.03 6.6 3.14 15.83 7.23 20.5 9.1l8.5 3.41c-14.73-0.94-25.52-2.31-33.5-3.66-7.98-1.35-19.23-2.96-25-3.58-5.77-0.63-13.43-0.85-17-0.49-3.97 0.4-8.64 1.72-12 3.39-4.36 2.17-5.97 3.68-7.78 7.24-1.65 3.25-2.31 6.3-2.35 11-0.05 4.96 0.59 8.04 2.7 13 1.51 3.58 3.25 7.03 3.84 7.68 0.63 0.68 8.12 1.85 17.59 2.75 9.07 0.86 20.1 1.57 24.5 1.58 4.4 0.01 11.82-0.69 16.5-1.54 4.68-0.86 10.75-2.27 13.5-3.14 2.75-0.87 9.27-3.35 14.5-5.5 5.23-2.16 9.61-3.68 9.75-3.38 0.14 0.3-2.11 2.41-5 4.68-2.89 2.26-10.65 7.82-17.25 12.35-6.6 4.52-15.82 10.51-20.5 13.3-4.68 2.8-11.38 5.9-14.91 6.9q-6.4 1.82-8.28 4.32c-1.03 1.37-1.86 3.29-1.84 4.25 0.02 1.08 1.08 1.99 2.78 2.36 1.51 0.34 13.1 0.57 25.75 0.5 12.65-0.06 24.12-0.3 25.5-0.53 1.37-0.22 4.75-0.69 7.5-1.04l5-0.63c-10.08 5.73-15.7 8.62-19 10.12-3.3 1.5-11.85 4.76-19 7.24-7.15 2.48-21.1 7.89-31 12.03-9.9 4.14-23.18 9.95-29.5 12.92-6.32 2.97-15.77 7.89-21 10.94-5.92 3.45-10.87 7.19-13.14 9.94-2 2.42-6.22 8-9.38 12.4l-5.73 8c1.32 24.8 1.55 39.42 1.35 48.5-0.34 16.21-0.28 16.71 3.03 28.42 2.49 8.82 4.06 12.59 6.03 14.5 1.47 1.42 6.64 4.83 11.5 7.57l8.84 4.99c34.87 1.27 48.82 1.46 53.5 1.25 8.31-0.38 8.86-0.56 24-8.18 8.52-4.28 18.65-9.59 22.5-11.8 3.85-2.21 12.82-7.45 19.92-11.63 11.27-6.65 14.92-9.52 28.5-22.5 8.57-8.19 19.41-18.12 24.08-22.08 4.67-3.95 12.77-10.52 18-14.59 5.23-4.07 17.37-12.9 27-19.62 12.22-8.53 21.96-16.39 32.26-26.02l14.77-13.81c13.68-27.3 17.03-35.53 19.43-44 1.87-6.6 4.96-15.6 6.87-20 1.9-4.4 4.71-12.5 6.24-18 2.34-8.44 3.35-10.54 6.47-13.5 2.05-1.95 8.7-12.16 14.97-23 6.21-10.73 12.06-21.3 13.01-23.5 0.95-2.2 4.04-7.82 6.88-12.5 2.83-4.68 6.75-12.32 8.71-17 1.95-4.68 5.09-14.13 6.98-21 1.89-6.88 4.79-20.6 6.44-30.5 1.66-9.9 3.29-22.27 3.63-27.5 0.34-5.23 0.33-12.43-0.02-16-0.42-4.22-1.45-7.73-2.93-10-1.26-1.93-3.62-4.15-5.25-4.94-1.63-0.79-5.44-1.62-8.46-1.83-3.18-0.23-12.46 0.76-22 2.35-15.43 2.56-18.45 2.74-46.5 2.73-18.05-0.01-33.98-0.52-40-1.27-5.5-0.7-15.4-2.79-22-4.66-6.6-1.87-12.85-3.39-13.89-3.39-1.84 0.01-1.84 0.06 0 2.3zm323.39 44.92c-2.48 1.26-15.52 10.13-29 19.72-13.48 9.58-33.27 23.73-44 31.43-10.73 7.7-22.2 15.82-25.5 18.05-3.3 2.23-8.35 4.96-11.23 6.07l-5.23 2.02c7.74 12.4 10.53 17.57 11.19 19.5 0.72 2.12 1.19 9.43 1.19 18.5-0.01 8.25-0.18 25.35-0.39 38-0.32 18.81-0.08 24.37 1.28 30.5 0.91 4.12 3.08 11.33 4.81 16 2.56 6.9 3.24 10.47 3.64 19 0.33 7.05-0.05 13.87-1.14 20.75-0.89 5.64-1.62 12.84-1.62 16 0.01 4.29 0.7 7.11 2.75 11.13 1.51 2.97 5.87 9.49 9.68 14.5 3.81 5.02 8.06 11.6 9.45 14.62 2.43 5.31 2.55 6.48 3.27 33.5 0.41 15.4 1.21 30.92 1.79 34.5 0.57 3.58 1.06 11 1.08 16.5 0.03 7.39-0.76 13.78-3 24.5-1.66 7.98-4.18 18.33-5.59 23-1.41 4.67-3.95 12.33-5.63 17-1.69 4.67-3.96 10.3-5.05 12.5-1.09 2.2-3.05 5.46-4.36 7.25-1.36 1.84-2.39 4.66-2.4 6.5 0 1.79 0.67 4.26 1.5 5.5 0.83 1.24 2.86 2.92 4.51 3.75 2.59 1.29 3.38 1.31 5.75 0.11 1.51-0.76 6.35-4.07 10.75-7.34 4.4-3.28 12.27-9.98 17.5-14.89 5.23-4.92 13.12-12.75 17.55-17.41 4.44-4.66 10.97-11.85 14.54-15.97 3.56-4.13 8.09-9.52 10.06-12 1.97-2.48 5.3-6.75 7.4-9.5 2.1-2.75 7.08-9.95 11.05-16 3.98-6.05 10.84-17.98 15.24-26.5 4.4-8.52 10.34-21.13 13.21-28 2.86-6.88 7.41-19.25 10.11-27.5 2.69-8.25 6.67-22.2 8.84-31 2.17-8.8 5.06-22.52 6.43-30.5 1.36-7.98 3.22-21.92 4.13-31 1.28-12.78 1.54-22.71 1.15-44-0.34-18.29-1.06-31.02-2.16-38-0.91-5.77-3.19-17.48-5.07-26-1.89-8.52-6.09-23.38-9.35-33-3.26-9.63-7.99-22.23-10.53-28-2.53-5.77-8.8-18.38-13.92-28l-9.32-17.5c-9.53-0.51-11.96-0.02-15.36 1.71zm-348 1.33c-1.92 0.87-4.96 2.68-6.75 4.02-1.79 1.34-4.38 4.35-5.75 6.69-1.43 2.41-2.77 6.63-3.11 9.75-0.36 3.25-0.1 7.34 0.63 10 0.88 3.22 2.83 6.1 6.86 10.12 4.81 4.82 6.69 5.95 13.12 7.9 5.48 1.66 8.98 2.13 13 1.75 3.02-0.28 7.3-1.41 9.5-2.52 2.2-1.1 5.69-3.86 7.75-6.13 2.06-2.27 4.2-5.81 4.74-7.87 0.55-2.06 1-6.11 1-9 0.01-2.89-0.44-5.25-0.99-5.25-0.55 0-4.71-3.43-9.25-7.62-4.54-4.2-10.05-8.7-12.25-10.01-2.33-1.39-6.29-2.59-9.5-2.9-3.83-0.36-6.56-0.03-9 1.07zm142.12 185.71c-0.46 1.24-1.17 4.05-1.58 6.25-0.4 2.2-1.3 5.12-2 6.5-0.69 1.37-2 2.84-2.9 3.25-0.9 0.41-1.65 1.76-1.65 3-0.01 1.24 0.73 4.5 1.64 7.25 1.25 3.75 1.47 6.38 0.88 10.5-0.43 3.02-0.81 6.85-0.85 8.5-0.04 2.05 1.8 5.86 5.8 12 3.23 4.95 6.88 11.7 8.11 15 1.23 3.3 2.73 9.49 3.34 13.75 0.6 4.26 1.09 12.7 1.09 18.75 0 6.05 0.48 14.49 1.08 18.75 0.66 4.76 2.95 12.57 5.94 20.25 2.68 6.87 7.19 18.8 10.03 26.5 2.84 7.7 7.34 18.27 10.01 23.5 3.9 7.65 6.47 11.1 13.15 17.72 4.56 4.52 11.44 10.72 15.29 13.78 3.85 3.07 11.05 8.28 16 11.59 4.95 3.31 9.4 5.88 9.88 5.72 0.49-0.17 1.53-2.11 2.3-4.31 0.78-2.2 2.07-8.27 2.86-13.5 0.8-5.23 1.45-15.58 1.45-23 0-7.42-0.45-16.31-1-19.75-0.54-3.44-1.93-8.16-3.09-10.5-1.15-2.34-4.53-6.61-7.5-9.5-2.97-2.89-6.07-6.6-6.9-8.25-0.83-1.65-2.31-6.94-3.29-11.75-0.99-4.81-2.68-10.29-3.75-12.16-1.08-1.88-4.66-5.51-7.96-8.08-3.3-2.56-7.03-6.2-8.28-8.09-1.25-1.88-3.89-8.37-5.86-14.42-1.97-6.05-5.76-16.63-8.41-23.5-2.92-7.57-6.14-14.08-8.17-16.5-1.85-2.2-4.18-6.48-5.2-9.5-1.55-4.63-1.73-7.08-1.1-15.5 0.62-8.26 0.46-10.57-0.87-13.25-0.88-1.79-3.52-4.73-5.86-6.55-2.34-1.81-6.25-4.58-8.69-6.14-2.44-1.57-5.93-4.59-7.75-6.71-1.82-2.12-3.77-3.85-4.33-3.85-0.56 0-1.4 1.01-1.86 2.25z"/>
	<path id="Camada 5" fill-rule="evenodd" class="s1" d="m620.5 329.77l3.5 0.74c1.92 0.41 7.77 2.05 13 3.65 5.23 1.59 13.77 3.42 19 4.06 5.27 0.64 23.3 1.16 40.5 1.17 29.08 0.02 31.99-0.15 47-2.68 8.8-1.48 18.02-2.68 20.5-2.68 2.48 0.01 6.41 0.9 8.75 1.99 2.86 1.33 4.72 3.04 5.67 5.23 0.79 1.79 1.74 6.63 2.11 10.75 0.39 4.18 0.17 12.6-0.48 19-0.65 6.33-2.07 16.9-3.16 23.5-1.1 6.6-3.15 16.73-4.56 22.5-1.41 5.77-4.13 15-6.05 20.5-1.92 5.5-4.63 12.25-6.02 15-1.39 2.75-4.11 7.48-6.05 10.5-1.93 3.02-4.74 8.2-6.25 11.5-1.51 3.3-7.4 13.99-13.1 23.75-5.7 9.76-12.2 19.66-14.45 22-2.95 3.07-4.54 5.91-5.74 10.25-0.92 3.3-2.3 8.02-3.07 10.5-0.78 2.48-3.01 8.33-4.96 13-1.95 4.67-4.68 12.77-6.06 18-1.53 5.8-5.58 15.93-18.27 42.5l-11.42 11c-6.28 6.05-13.89 13.08-16.9 15.63-3.02 2.54-12.47 9.48-20.99 15.43-8.52 5.95-19.55 13.96-24.5 17.8-4.95 3.85-13.05 10.4-18 14.56-4.95 4.16-15.75 14.1-24 22.08-11.46 11.09-17.36 15.95-25 20.62-5.5 3.37-16.08 9.5-23.5 13.63-7.43 4.13-19.13 10.38-38.5 20.25l-29-0.29c-17.57-0.17-30.38-0.72-32.5-1.39-1.93-0.6-6.88-3.03-11-5.39-4.13-2.37-8.52-5.34-9.76-6.61-1.53-1.58-3.23-6.16-5.31-14.32-2.92-11.49-3.04-12.75-2.74-29.5 0.17-9.62-0.1-23.58-0.59-31-0.78-11.73-0.69-13.96 0.75-17 0.91-1.92 4.96-7.77 9-13 7.09-9.17 7.77-9.73 19.25-16.17 6.54-3.66 17.52-9.22 24.4-12.35 6.87-3.12 20.6-8.96 30.5-12.96 9.9-4 22.95-8.94 29-10.97 6.05-2.03 17.08-6.89 24.5-10.8 7.42-3.91 13.05-7.29 12.5-7.5-0.55-0.22-3.48 0.12-6.5 0.75-3.02 0.63-14.05 1.47-24.5 1.85-10.45 0.39-23.13 0.47-28.17 0.18-5.04-0.29-9.54-0.87-10-1.29-0.46-0.42-0.27-1.88 0.42-3.25 0.69-1.37 2.26-2.92 3.5-3.44 1.24-0.52 4.73-1.63 7.75-2.46 3.04-0.84 10.53-4.67 16.75-8.56 6.19-3.86 16.54-10.84 23-15.49 6.46-4.65 13.33-9.79 15.25-11.42 1.92-1.63 3.16-3.23 2.75-3.54-0.41-0.32-6.26 1.63-13 4.32-6.74 2.7-16.07 5.95-20.75 7.23-7.28 2-10.86 2.33-25 2.35-9.07 0.01-21.68-0.56-39.5-2.57l-3.23-6.71c-2.7-5.59-3.24-7.86-3.24-13.7 0-4.88 0.58-8.21 1.93-11 1.18-2.43 3.43-4.86 5.74-6.2 2.09-1.21 7.17-2.68 11.3-3.27 5.31-0.76 10.57-0.76 18-0.01 5.77 0.58 19.27 2.41 30 4.07 10.73 1.65 21.71 2.87 24.42 2.71 2.71-0.17 5.06-0.75 5.24-1.3 0.17-0.55-2.16-1.79-5.18-2.75-3.01-0.96-12.57-5.03-21.23-9.04-8.66-4.01-19.09-9.53-23.16-12.25-4.08-2.73-8.49-6.31-9.81-7.96-1.32-1.65-2.22-3.45-2.01-4 0.21-0.55 2.83-1.13 5.81-1.28 3.9-0.21 8.78 0.69 17.42 3.22 6.6 1.93 12.23 3.31 12.5 3.06 0.27-0.25-0.21-1.47-1.08-2.72-0.87-1.26-4.47-4.76-8-7.78-3.53-3.02-9.16-8.2-12.51-11.5-4.19-4.12-7.39-8.58-14.41-22.5l2.75 0.59c1.51 0.33 9.83 2.92 18.48 5.75 8.65 2.84 15.74 4.93 15.76 4.66 0.02-0.27-1.65-2.15-3.72-4.16-2.08-2.01-8.04-6.21-13.27-9.34-5.23-3.13-11-7.11-12.84-8.85-1.83-1.73-4.2-4.84-5.25-6.9-1.25-2.46-1.91-5.82-1.91-9.75 0-4.1 0.86-8.29 2.74-13.25 1.72-4.56 4.03-8.53 6.25-10.7 1.93-1.9 7.11-5.79 11.51-8.66 4.4-2.87 14.75-8.83 23-13.25 8.25-4.42 21.3-10.71 29-13.97 7.7-3.26 15.8-6.47 22-8.35l5.01 4.84c2.75 2.66 6.69 6.3 8.75 8.09 2.06 1.79 3.74 3.7 3.74 4.25 0 0.55-3.71 4.06-8.25 7.81-5.03 4.15-9.93 9.32-12.56 13.25-2.37 3.54-5.13 9.14-6.13 12.44-1 3.3-2.13 8.7-2.51 12-0.46 4.11-0.16 8.52 0.98 14 0.91 4.4 2.72 10.25 4.04 13 1.31 2.75 4.42 7.59 6.9 10.75 2.49 3.16 7.57 8 11.28 10.75 3.71 2.75 10.24 6.35 14.5 8 4.26 1.65 11.01 3.47 15 4.04 5.01 0.72 9.33 0.72 14 0 3.71-0.57 8.89-1.84 11.5-2.83 2.61-0.98 6.89-3 9.5-4.5 2.61-1.49 7.4-5.3 10.63-8.46 3.7-3.61 6.79-7.8 8.3-11.25 1.33-3.02 3.07-5.91 3.87-6.4 1.06-0.67 2.33 0.07 4.7 2.75 2.31 2.59 3.76 3.46 5 2.99 0.96-0.37 6.15-3.85 11.53-7.75 5.37-3.9 9.78-7.32 9.78-7.59 0-0.27-3.72-4.83-8.28-10.12-4.55-5.3-12.37-14.3-17.38-20-5-5.71-16.67-19.15-25.91-29.88-9.25-10.73-17.76-20.56-18.9-21.87zm333.5 45.3c3.99-0.11 4.65 0.19 5.81 2.66 0.73 1.53 4.54 8.63 8.48 15.78 3.94 7.15 9.58 18.4 12.52 25 2.95 6.6 7.78 19.2 10.74 28 2.96 8.8 6.53 20.27 7.92 25.5 1.4 5.22 3.65 16.25 5 24.5 1.36 8.25 2.94 19.72 3.52 25.5 0.58 5.77 0.99 20.4 0.91 32.5-0.08 12.1-0.54 26.05-1.03 31-0.48 4.95-1.8 15.52-2.93 23.5-1.13 7.97-3.13 19.9-4.45 26.5-1.31 6.6-4.92 20.77-8.02 31.5-3.09 10.72-8.57 26.92-12.17 36-3.59 9.07-9.41 22.23-12.92 29.25-3.51 7.01-9.34 17.58-12.96 23.5-3.62 5.91-9.14 14.29-12.25 18.63-3.12 4.34-10.38 13.56-16.14 20.5-5.75 6.94-16.1 18.4-23 25.47-6.89 7.07-16.13 15.91-20.53 19.64-4.4 3.73-11.38 9.07-23 16.94l-3.5-1.83c-1.93-1.01-3.83-2.9-4.24-4.22-0.4-1.31-0.74-3.4-0.75-4.63-0.01-1.24 1.47-4.39 3.29-7 1.81-2.62 5.16-9.48 7.43-15.25 2.27-5.78 5.47-15.45 7.09-21.5 1.63-6.05 3.89-15.05 5.03-20 1.14-4.95 2.55-13.05 3.15-18 0.88-7.3 0.78-11.37-0.53-21.5-0.89-6.88-1.94-24.43-2.33-39-0.71-26.19-0.76-26.57-3.51-32.5-1.53-3.3-5.87-10.05-9.65-15-3.77-4.95-8.01-11.48-9.41-14.5-1.77-3.82-2.55-7.19-2.54-11 0.01-3.03 0.43-7.3 0.93-9.5 0.51-2.2 1.37-8.28 1.9-13.5 0.6-5.75 0.64-12.27 0.11-16.5-0.48-3.85-2.74-12.63-5.02-19.5-3.42-10.34-4.27-14.49-4.9-24-0.42-6.33-0.34-20.95 0.17-32.5 0.51-11.55 0.69-25.28 0.39-30.5-0.3-5.23-1.27-11.53-2.16-14-0.89-2.48-3.58-7.2-10.36-16.5l5.7-2.47c3.14-1.36 22.81-14.68 43.71-29.6 20.9-14.91 43.85-31.24 51-36.27 7.15-5.04 14.35-9.57 16-10.07 1.65-0.5 5.02-0.97 7.5-1.03zm-351.5 2.01c1.1-0.05 4.25 0.55 7 1.34 3.81 1.09 7.02 3.26 13.5 9.15 4.67 4.25 9.51 8.34 10.75 9.08 1.82 1.1 2.25 2.26 2.26 6.11 0 2.61-0.78 6.97-1.75 9.68-1.21 3.38-3.18 6.15-6.26 8.78-3.21 2.73-6.08 4.15-10 4.95-4.13 0.84-7.26 0.82-12.5-0.07-3.85-0.65-8.8-2.23-11-3.51-2.2-1.28-5.37-3.85-7.05-5.71-1.67-1.85-3.88-5.62-4.92-8.37-1.41-3.79-1.71-6.34-1.22-10.5 0.44-3.76 1.62-6.93 3.73-10 1.7-2.48 4.52-5.51 6.27-6.75 1.75-1.23 4.54-2.65 6.19-3.16 1.65-0.51 3.9-0.96 5-1.02zm143.45 190.16c3.1 2.9 8.47 7.29 11.95 9.77 3.48 2.47 6.83 5.4 7.45 6.5 0.67 1.2 1.12 7.4 1.13 15.5 0.02 11.83 0.28 13.99 2.14 17.5 1.17 2.2 2.92 4.67 3.88 5.5 0.96 0.82 2.54 3.07 3.51 5 0.98 1.92 4.76 11.82 8.41 22 3.66 10.17 7.39 20.52 8.3 23 0.91 2.47 3.48 6.45 5.72 8.84 2.23 2.39 5.41 5.15 7.06 6.12 1.65 0.98 3.99 3.3 5.19 5.16 1.21 1.86 3.18 7.65 4.38 12.88 1.2 5.22 2.87 10.85 3.71 12.5 0.83 1.65 4.33 5.92 7.77 9.5 4.78 4.97 6.64 7.79 7.94 12 1.07 3.47 1.89 10.65 2.23 19.5 0.32 8.2 0.06 18.14-0.63 24-0.65 5.5-1.84 12.81-2.64 16.25-0.8 3.43-1.79 6.26-2.2 6.27-0.42 0.01-5.48-3.2-11.25-7.14-5.78-3.94-13.88-9.97-18-13.39-4.13-3.43-10.32-9.21-13.75-12.86-4.61-4.89-7.55-9.33-11.18-16.88-2.72-5.64-7.23-16.55-10.03-24.25-2.8-7.7-6.89-18.5-9.08-24-2.19-5.5-4.64-13.15-5.44-17-0.79-3.85-1.52-13.08-1.61-20.5-0.09-7.43-0.55-16.77-1.04-20.75-0.48-3.99-1.76-9.62-2.85-12.5-1.09-2.89-4.47-9.08-7.51-13.75-3.04-4.68-5.99-9.85-6.55-11.5-0.7-2.05-0.7-3.87 0-5.75 0.57-1.52 1.03-4.67 1.02-7 0-2.34-0.79-6.64-1.75-9.55-1.42-4.33-1.5-5.61-0.47-7 0.7-0.94 2.15-3.05 3.23-4.7 1.09-1.65 2.26-5.03 2.62-7.5 0.35-2.48 1.1-5.07 1.67-5.77 0.8-0.98 2.34-0.06 6.67 4z"/>
	<path id="Camada 4" class="s2" d="m594 174.61c-2.48 0.21-10.13 0.84-17 1.39-6.88 0.56-14.52 1.27-17 1.59-2.48 0.32-5.96 0.77-7.75 0.99-1.79 0.23-4.71 0.63-6.5 0.89-1.79 0.26-5.27 0.73-7.75 1.05-2.48 0.31-5.85 0.74-7.5 0.94-1.65 0.2-5.7 0.65-9 1-3.3 0.35-13.65 1.78-23 3.16-9.35 1.39-19.25 2.97-22 3.52-2.75 0.54-6.35 1.21-8 1.47-1.65 0.27-4.01 0.69-5.25 0.94-1.24 0.25-3.49 0.7-5 1.01-1.51 0.3-3.88 0.73-5.25 0.94-1.38 0.21-3.85 0.65-5.5 0.96-1.65 0.32-4.57 0.78-6.5 1.01-1.93 0.24-11.15 1.79-20.5 3.45-9.35 1.66-19.25 3.51-22 4.09-2.75 0.59-6.13 1.29-7.5 1.55-1.38 0.27-4.07 0.71-6 0.99-1.93 0.28-4.63 0.71-6 0.95-1.38 0.24-4.07 0.67-6 0.95-1.93 0.28-4.85 0.76-6.5 1.06-1.65 0.3-3.68 0.58-4.5 0.61-0.82 0.03-5.32 0.91-10 1.94-4.68 1.03-14.57 2.59-22 3.48-7.43 0.89-14.85 1.82-16.5 2.07-1.65 0.26-4.8 0.7-7 0.99-2.2 0.3-5.57 0.74-7.5 0.99-1.93 0.26-5.07 0.66-7 0.91-1.93 0.24-5.3 0.66-7.5 0.92-2.2 0.26-7.15 0.81-11 1.22-3.85 0.41-23.43 0.73-43.5 0.72-20.07-0.02-38.97-0.36-42-0.76-3.03-0.4-6.63-0.9-8-1.12-1.38-0.21-3.85-0.61-5.5-0.88-1.65-0.28-4.13-0.72-5.5-1-1.38-0.27-4.07-0.76-6-1.08-1.93-0.31-6.65-0.86-10.5-1.2-6.78-0.6-6.95-0.56-5.5 1.28 0.82 1.04 1.95 2.23 2.5 2.63 0.55 0.41 0.66 0.75 0.25 0.75-0.41 0.01 0.09 1.26 1.11 2.77 1.02 1.51 4.45 7.02 7.61 12.25 3.16 5.22 5.92 10.4 6.14 11.5 0.21 1.1 1.99 4.25 3.94 7 1.96 2.75 5.05 7.02 6.88 9.5 1.82 2.48 3.14 4.84 2.94 5.25-0.2 0.41 0.08 0.75 0.63 0.75 0.55 0 0.99 0.56 0.98 1.25-0.01 0.69 2.8 4.41 6.25 8.28 3.45 3.86 8.52 9.71 11.27 13 2.75 3.28 5.34 6.08 5.75 6.22 0.41 0.14 2.13 3.06 3.83 6.5 2.7 5.49 2.95 6.68 2.03 9.75-0.57 1.92-1.97 4.4-3.1 5.5-1.14 1.1-2.04 2.58-1.99 3.28 0.04 0.71-0.73 1.58-1.72 1.95-0.99 0.37-4.27 2.64-7.3 5.05-3.03 2.41-6.29 5.02-7.25 5.8-0.96 0.78-2.09 1.41-2.5 1.4-0.41-0.01-1.76 0.89-3 2-1.24 1.11-2.25 1.79-2.25 1.52 0-0.27-1.91 0.81-4.25 2.41-2.34 1.6-5.87 4.63-7.85 6.75-1.97 2.11-7.37 5.95-12 8.54-4.62 2.58-8.96 5.17-9.65 5.75-0.69 0.58-1.49 0.71-1.78 0.3-0.29-0.41-0.51-0.19-0.5 0.5 0.02 0.69-0.42 1.02-0.97 0.75-0.55-0.27-0.99 0.06-0.97 0.75 0.01 0.69-0.32 0.93-0.75 0.54-0.43-0.39-5.73 1.8-11.78 4.87-6.05 3.07-11.11 5.97-11.25 6.46-0.14 0.48-0.81 0.86-1.5 0.84-0.69-0.03-1.92 0.67-2.75 1.54-1.35 1.42-1.09 1.99 2.5 5.51 2.2 2.15 4.34 3.71 4.75 3.45 0.41-0.25 0.97 0.22 1.25 1.04 0.28 0.82 0.95 1.27 1.5 1 0.55-0.27 0.98-0.16 0.96 0.25-0.02 0.41 3.13 2.89 7 5.5 3.87 2.61 7.05 4.41 7.07 4 0.02-0.41 0.47 0.04 1 1 0.53 0.96 1.42 1.52 1.97 1.25 0.55-0.27 0.98-0.16 0.95 0.25-0.02 0.41 3.8 3.34 8.5 6.5 4.7 3.16 9 5.75 9.55 5.75 0.55 0 1.22 0.68 1.5 1.5 0.28 0.82 0.95 1.27 1.5 1 0.55-0.27 0.98-0.16 0.96 0.25-0.02 0.41 2.57 2.55 5.75 4.75 3.19 2.2 6.24 4.19 6.79 4.43 0.55 0.24 4.15 3.6 8 7.48 3.85 3.88 6.89 7.4 6.75 7.82-0.14 0.43 0.2 0.77 0.75 0.77 0.55 0 0.9 0.34 0.79 0.75-0.12 0.41 0.39 1.87 1.13 3.25 0.74 1.37 1.95 5.42 2.7 9 0.74 3.57 1.35 10.77 1.36 16 0.01 5.23-0.46 13.55-1.03 18.5-0.58 4.95-1.79 12.37-2.7 16.5-0.91 4.12-1.79 7.84-1.95 8.25-0.17 0.41-0.3 0.98-0.3 1.25 0 0.27-0.12 0.84-0.27 1.25-0.14 0.41-0.59 1.31-1 2-0.4 0.69-0.51 1.25-0.23 1.25 0.28 0-0.05 1.01-0.71 2.25-0.67 1.24-1.12 2.59-1 3 0.11 0.41-0.24 0.75-0.79 0.75-0.55 0-0.99 0.34-0.98 0.75 0.02 0.41-1.65 4.35-3.7 8.75-2.05 4.4-3.63 8.34-3.52 8.75 0.11 0.41-0.25 0.75-0.8 0.75-0.55 0-0.78 0.45-0.5 1 0.28 0.55-0.18 1.23-1 1.5-0.82 0.27-1.28 0.95-1 1.5 0.28 0.55 0.16 0.99-0.25 0.99-0.41-0.01-3.1 3.25-5.97 7.25-2.87 3.99-10.07 12.07-16 17.96-5.93 5.88-14.16 13.48-18.28 16.89-4.13 3.41-7.84 6.81-8.25 7.55-0.41 0.75-1.2 1.36-1.75 1.36-0.55 0-4.61 2.59-9.03 5.75-4.41 3.16-8.01 6.09-8 6.5 0.02 0.41-0.31 0.65-0.72 0.53-0.41-0.11-5.03 2.63-10.25 6.11-5.22 3.47-9.61 6.72-9.75 7.21-0.14 0.5-0.81 0.91-1.5 0.92-0.69 0.02-3.5 1.45-6.25 3.19-2.75 1.74-5.22 3.31-5.5 3.48-0.28 0.17-0.12 0.65 0.34 1.06 0.46 0.41 2.26 0.86 4 0.99 1.74 0.12 7.66 0.5 13.16 0.83 5.5 0.32 14.72 0.77 20.5 0.99 5.78 0.22 14.55 0.64 19.5 0.92 4.95 0.29 11.25 0.69 14 0.89 2.75 0.2 7.03 0.65 9.5 0.99 2.47 0.34 5.85 0.8 7.5 1.03 1.65 0.23 5.93 0.94 9.5 1.58 3.57 0.64 10.1 2.05 14.5 3.14 4.4 1.08 9.57 2.61 11.5 3.39 1.93 0.78 3.85 1.1 4.28 0.71 0.43-0.39 0.76-0.15 0.75 0.54-0.02 0.69 0.42 1.02 0.97 0.75 0.55-0.27 1-0.05 1 0.5 0 0.55 0.45 0.77 1 0.5 0.55-0.27 0.99-0.16 0.98 0.25-0.02 0.41 4.14 2.99 9.25 5.73 5.1 2.73 9.61 4.87 10.02 4.75 0.41-0.13 0.75 0.22 0.75 0.77 0 0.55 0.45 0.77 1 0.5 0.55-0.27 1-0.05 1 0.5 0 0.55 0.45 0.77 1 0.5 0.55-0.27 1-0.05 1 0.5 0 0.55 2.48 2.24 5.51 3.75 3.04 1.51 5.51 3.09 5.5 3.5 0 0.41-0.46 0.75-1.01 0.75-0.55 0-1 0.45-1 1 0 0.55-0.64 1.67-1.43 2.5-0.78 0.83-1.68 1.5-2 1.5-0.31 0-2.93 1.63-5.82 3.62-2.89 1.99-7.87 6.15-11.07 9.25-3.21 3.09-8.25 9.23-11.22 13.63-2.97 4.4-5.41 8.56-5.43 9.25-0.02 0.69-0.48 1.25-1.03 1.25-0.55 0-0.78 0.45-0.5 1 0.28 0.55 0.05 1-0.5 1-0.55 0-0.78 0.45-0.5 1 0.28 0.55 0.16 0.99-0.25 0.98-0.41-0.01-2.66 3.59-5 8-2.34 4.41-3.99 8.02-3.68 8.02 0.32 0-0.13 0.67-1 1.5-0.86 0.82-1.35 1.95-1.07 2.5 0.28 0.55 0.05 1-0.5 1-0.55 0-0.78 0.45-0.5 1 0.28 0.55 0.05 1-0.5 1-0.55 0-0.78 0.45-0.5 1 0.28 0.55 0.16 0.98-0.25 0.97-0.41-0.02-2.44 4.25-4.5 9.5-2.06 5.24-3.75 10.2-3.75 11.03 0 0.83 0.56 1.49 1.25 1.48 0.69-0.01 3.28-1.21 5.75-2.67 2.47-1.45 4.72-2.9 5-3.22 0.28-0.33 1.73-1.26 3.24-2.09 1.5-0.83 6.35-3.75 10.77-6.5 4.41-2.75 8.02-5.34 8.01-5.75-0.01-0.41 0.66-0.75 1.48-0.75 0.82 0 1.5-0.45 1.5-1 0-0.55 0.68-1 1.5-1 0.82 0 1.5-0.45 1.5-1 0-0.55 0.34-0.91 0.75-0.8 0.41 0.11 4.57-1.75 9.25-4.12 4.68-2.38 8.61-4.72 8.75-5.2 0.14-0.48 0.7-0.65 1.25-0.38 0.55 0.27 1 0.05 1-0.5 0-0.55 0.45-0.77 1-0.5 0.55 0.27 1 0.05 1-0.5 0-0.55 0.34-0.95 0.75-0.88 0.41 0.06 1.09 0.06 1.5 0 0.41-0.07 1.09-0.26 1.5-0.44 0.41-0.17 7.5-2.51 15.75-5.2 8.25-2.69 15.34-5.03 15.75-5.19 0.41-0.16 1.09-0.34 1.5-0.41 0.41-0.06 1.2-0.22 1.75-0.34 0.55-0.13 1.23-0.36 1.5-0.52 0.27-0.15 1.85-0.47 3.5-0.71 1.65-0.23 5.48-0.48 8.5-0.56 5.28-0.12 5.51-0.02 5.75 2.56 0.14 1.48-0.41 3.93-1.22 5.44-0.81 1.51-1.14 3.1-0.75 3.53 0.4 0.43 0.16 0.76-0.53 0.75-0.69-0.02-1.05 0.31-0.8 0.72 0.24 0.41-1.14 2.55-3.07 4.75-1.94 2.2-5.51 7.26-7.95 11.25-2.44 3.99-4.09 7.26-3.68 7.27 0.41 0 0.26 0.34-0.34 0.75-0.59 0.4-3.02 4.1-5.4 8.23-2.37 4.12-4.44 8.17-4.59 9-0.15 0.83-0.35 1.73-0.46 2-0.11 0.27-0.14 0.84-0.08 1.25 0.07 0.41-0.33 0.75-0.88 0.75-0.55 0-0.95 0.34-0.88 0.75 0.06 0.41 0.06 1.09 0 1.5-0.07 0.41-0.35 1.2-0.62 1.75-0.27 0.55-0.5 1.23-0.5 1.5 0 0.27-0.23 0.95-0.5 1.5-0.27 0.55-0.5 1.23-0.5 1.5 0 0.27-0.17 0.84-0.38 1.25-0.22 0.41-0.69 1.65-1.05 2.75-0.36 1.1-2.25 5.83-4.19 10.5-1.94 4.67-3.61 9.06-3.7 9.75-0.1 0.69-0.52 1.25-0.93 1.25-0.41 0-0.52 0.45-0.25 1 0.27 0.55 0.05 1-0.5 1-0.55 0-0.77 0.45-0.5 1 0.27 0.55-0.06 0.99-0.75 0.97-0.69-0.01-0.92 0.32-0.51 0.75 0.41 0.43 0.34 1.23-0.14 1.78-0.49 0.55-1.39 2.69-2 4.75l-1.1 3.75c4.65-0.39 6-0.84 6-1.25 0-0.41 0.68-0.52 1.5-0.25 0.82 0.27 1.5 0.16 1.5-0.25 0-0.41 0.79-0.88 1.75-1.05 0.96-0.16 5.46-0.5 10-0.75 6.84-0.37 8.6-0.15 10.33 1.3 1.14 0.96 2.72 2.99 3.5 4.5 0.81 1.57 1.42 5.64 1.43 9.5 0.01 3.71-0.45 9.23-1.02 12.25-0.57 3.02-1.28 7.3-1.58 9.5-0.3 2.2-0.75 5.12-1 6.5-0.25 1.37-0.67 4.3-0.93 6.5-0.27 2.2-0.47 10.3-0.46 18 0.01 7.7 0.26 16.25 0.55 19 0.29 2.75 0.69 6.35 0.91 8 0.21 1.65 0.63 4.58 0.94 6.5 0.31 1.92 1.22 5.75 2.02 8.5 0.81 2.75 2.12 6.58 2.92 8.5 0.8 1.92 1.39 3.73 1.31 4-0.08 0.27 0.86 2.19 2.09 4.25 1.23 2.06 1.9 3.76 1.49 3.77-0.41 0-0.22 0.34 0.43 0.75 0.65 0.4 1.43 2.08 1.74 3.73 0.31 1.65 1.58 5.35 2.82 8.23 1.24 2.87 3.05 5.46 4.01 5.75 1.33 0.4 1.87-0.2 2.25-2.48 0.27-1.65 0.46-3.34 0.41-3.75-0.04-0.41 0.38-0.98 0.93-1.25 0.56-0.27 1.24-1.63 1.51-3 0.26-1.38 1.17-3.85 2.02-5.5 0.84-1.65 3.11-7.27 5.04-12.5 1.93-5.23 3.19-9.85 2.8-10.28-0.39-0.43-0.15-0.76 0.54-0.75 0.69 0.02 1.02-0.42 0.75-0.97-0.27-0.55-0.05-1.23 0.5-1.5 0.55-0.27 0.77-0.95 0.5-1.5-0.27-0.55-0.05-1 0.5-1 0.55 0 0.9-0.34 0.79-0.75-0.12-0.41 0.29-1.65 0.9-2.75 0.61-1.1 1.16-2.34 1.21-2.75 0.06-0.41 2.11-4.69 4.56-9.5 2.45-4.81 4.14-9.1 3.75-9.53-0.39-0.43-0.15-0.76 0.54-0.75 0.69 0.02 1.25-0.64 1.25-1.47 0-0.83 0.45-1.5 1-1.5 0.55 0 0.77-0.45 0.5-1-0.27-0.55-0.1-1.11 0.38-1.25 0.48-0.14 2.73-3.96 5-8.5 2.27-4.54 3.89-8.7 3.62-9.25-0.27-0.55-0.05-1 0.5-1 0.55 0 0.77-0.67 0.5-1.5-0.27-0.83-0.05-1.5 0.5-1.5 0.55 0 0.77-0.45 0.5-1-0.27-0.55-0.05-1 0.5-1 0.55 0 0.77-0.45 0.5-1-0.27-0.55-0.05-1 0.5-1 0.55 0 1-0.67 1-1.5 0-0.83 0.68-1.73 1.5-2 0.82-0.27 3.07-3.65 5-7.5 1.93-3.85 3.27-7.45 3-8-0.27-0.55-0.05-1 0.5-1 0.55 0 0.95-0.34 0.88-0.75-0.06-0.41-0.06-1.09 0-1.5 0.07-0.41 0.35-1.2 0.62-1.75 0.27-0.55 0.54-1.11 0.58-1.25 0.05-0.14 0.29-1.38 0.53-2.75 0.25-1.38 0.62-6.1 0.82-10.5 0.21-4.4-0.03-8.56-0.53-9.25-0.49-0.69-0.67-1.7-0.4-2.25 0.27-0.55 0.05-1.23-0.5-1.5-0.55-0.27-0.77-0.95-0.5-1.5 0.27-0.55 0.05-1.23-0.5-1.5-0.55-0.27-0.77-0.95-0.5-1.5 0.27-0.55 0.05-1.23-0.5-1.5-0.55-0.27-0.77-0.95-0.5-1.5 0.27-0.55-0.03-1-0.67-1-0.64 0-0.86-0.23-0.5-0.5 0.37-0.27-0.84-4.21-2.68-8.75-1.84-4.54-3.72-9.15-4.16-10.25-0.45-1.1-0.97-2.34-1.15-2.75-0.19-0.41-0.39-1.09-0.46-1.5-0.06-0.41-0.22-1.2-0.34-1.75-0.13-0.55-0.3-1.34-0.39-1.75-0.08-0.41-0.38-1.2-0.65-1.75-0.27-0.55-0.5-1.23-0.5-1.5 0-0.27-0.23-0.95-0.5-1.5-0.27-0.55-0.53-1.11-0.57-1.25-0.05-0.14-0.25-1.15-0.46-2.25-0.21-1.1-2.29-7.85-4.61-15-2.33-7.15-4.37-13.34-4.55-13.75-0.17-0.41-0.34-0.86-0.39-1-0.04-0.14-0.26-1.04-0.5-2-0.23-0.96-0.61-2.54-0.84-3.5-0.24-0.96-0.52-1.75-0.63-1.75-0.11 0-0.36-0.9-0.56-2-0.19-1.1-0.59-3.35-0.89-5-0.3-1.65-0.87-6.6-1.27-11-0.4-4.4-0.73-14.52-0.73-22.5 0.01-7.98 0.37-18.1 0.82-22.5 0.44-4.4 0.97-9.13 1.18-10.5 0.21-1.38 0.65-3.85 0.98-5.5 0.33-1.65 0.59-3.79 0.56-4.75-0.02-0.96 0.41-1.98 0.96-2.25 0.55-0.27 0.77-0.95 0.5-1.5-0.27-0.55-0.11-1.56 0.37-2.25 0.48-0.69 0.94-4.4 1.03-8.25 0.08-3.85 0.31-7.9 0.49-9 0.19-1.1 0.92-3.13 1.62-4.5 0.71-1.38 2.55-4.3 4.1-6.5 1.55-2.2 2.5-4.35 2.1-4.78-0.39-0.43-0.15-0.76 0.54-0.75 0.69 0.02 1.02-0.42 0.75-0.97-0.27-0.55 0.06-0.99 0.75-0.97 0.69 0.01 0.91-0.21 0.5-0.5-0.41-0.29 0.04-1.39 1-2.43 0.96-1.05 3.75-6.33 6.21-11.75 2.45-5.42 4.92-10.18 5.5-10.58 0.57-0.41 0.67-0.75 0.22-0.75-0.45-0.01-0.23-0.6 0.5-1.31 0.73-0.7 3.57-4.82 6.32-9.15 2.75-4.33 4.89-8.25 4.75-8.71-0.14-0.47 0.2-0.85 0.75-0.85 0.55 0 1-0.67 1-1.5 0-0.83 0.63-2.06 1.4-2.75 0.77-0.69 3.77-6.2 6.66-12.25 2.89-6.05 5.29-11.56 5.34-12.25 0.06-0.69 0.44-1.25 0.85-1.25 0.41 0 0.68-0.34 0.59-0.75-0.09-0.41 0.74-2.77 1.84-5.25 1.11-2.48 2.97-7.42 4.15-11 1.17-3.58 2.27-7.4 2.43-8.5 0.16-1.1 0.62-2.56 1.02-3.25 0.4-0.69 0.49-1.7 0.22-2.25-0.27-0.55-0.18-1.56 0.21-2.25 0.39-0.69 0.83-2.15 0.98-3.25 0.16-1.1 0.29-6.27 0.3-11.5 0.01-5.23-0.2-11.3-0.47-13.5-0.26-2.2-0.68-5.13-0.93-6.5-0.25-1.38-0.72-4.52-1.05-7-0.33-2.48-0.8-5.18-1.04-6-0.25-0.83-0.89-5.55-1.44-10.5-0.65-5.93-0.65-11.56 0-16.5 0.55-4.13 1.17-8.4 1.39-9.5 0.22-1.1 0.48-2.23 0.59-2.5 0.11-0.27 0.14-0.84 0.08-1.25-0.07-0.41 0.33-0.75 0.88-0.75 0.55 0 0.83-0.34 0.62-0.75-0.2-0.41 0.81-2.85 2.25-5.41 1.45-2.56 4.65-7.96 7.13-12 2.48-4.04 4.67-7.79 4.89-8.34 0.21-0.55 5.5-6.06 11.75-12.25 7.09-7.02 14.84-13.51 20.61-17.27 5.09-3.32 9.7-5.98 10.25-5.92 0.55 0.06 1.23-0.32 1.5-0.84 0.27-0.52 4.32-2.62 9-4.65 4.68-2.04 11.65-5.46 15.5-7.6 3.85-2.15 7.35-3.58 7.78-3.19 0.43 0.4 0.76 0.16 0.75-0.53-0.02-0.69 0.31-1.15 0.72-1.02 0.41 0.12 5.02-1.44 10.25-3.46 5.23-2.02 10.85-4.18 12.5-4.8 1.65-0.61 3.23-1.04 3.5-0.95 0.27 0.08 0.73-0.34 1-0.95 0.27-0.6 1.51-1.2 2.75-1.33 1.24-0.13 2.24-0.69 2.22-1.24-0.01-0.55 0.32-0.68 0.75-0.28 0.43 0.39 2.36-0.11 4.28-1.12 1.92-1 6.65-2.85 10.5-4.1 3.85-1.24 7.58-2.77 8.29-3.38 0.72-0.62 1.28-0.78 1.25-0.37-0.02 0.41 1.18-0.04 2.67-1 1.48-0.96 2.83-1.64 3-1.5 0.16 0.14 0.52 0.25 0.79 0.25 0.27 0 0.95-0.23 1.5-0.5 0.55-0.27 1.11-0.53 1.25-0.58 0.14-0.04 1.15-0.25 2.25-0.46 1.1-0.22 4.17-1.2 6.82-2.18 2.64-0.98 7.48-4.14 10.75-7.03 3.5-3.1 6.85-5.24 8.18-5.21 1.24 0.02 4.16 1.82 6.5 4 2.34 2.18 4.92 3.96 5.75 3.96 0.83 0 11.29 0.94 23.25 2.08 18.29 1.75 22.94 1.9 29.25 0.92 4.13-0.63 11.1-2.04 15.5-3.12 4.4-1.08 8.67-2.24 9.5-2.58 0.83-0.35 1.84-0.78 2.25-0.96 0.41-0.19 0.98-0.34 1.25-0.34 0.27 0 0.95-0.23 1.5-0.5 0.55-0.27 1.23-0.5 1.5-0.5 0.27 0 0.95-0.23 1.5-0.5 0.55-0.27 1.23-0.5 1.5-0.5 0.27 0 0.95-0.23 1.5-0.5 0.55-0.27 1.34-0.55 1.75-0.62 0.41-0.06 1.09-0.06 1.5 0 0.41 0.07 0.75-0.22 0.75-0.63 0-0.41 0.78-0.82 1.75-0.91 0.96-0.08 5.46-2 10-4.25 4.54-2.25 8.49-3.75 8.78-3.34 0.29 0.41 0.51 0.19 0.5-0.5-0.02-0.69 0.64-1.02 1.47-0.75 0.83 0.27 1.5 0.05 1.5-0.5 0-0.55 0.56-0.8 1.25-0.55 0.69 0.25 1.63 0.13 2.09-0.25 0.46-0.39 1.81-0.85 3-1.02 1.19-0.18 7.33-0.34 13.66-0.36 6.33-0.01 12.4 0.15 13.5 0.37 1.1 0.22 2.56 0.71 3.25 1.1 0.69 0.39 1.59 0.49 2 0.22 0.41-0.27 1.33 0.06 2.04 0.75 0.72 0.68 1.26 0.79 1.21 0.24-0.05-0.55 0.63-0.33 1.5 0.5 0.87 0.82 1.55 1.05 1.5 0.5-0.05-0.61 0.41-0.58 1.21 0.09 0.71 0.6 5.12 2.6 9.79 4.44 4.67 1.84 9.06 3.37 9.75 3.41 0.69 0.03 1.25 0.4 1.25 0.81 0 0.41 0.45 0.52 1 0.25 0.55-0.27 1-0.05 1 0.5 0 0.55 0.34 0.91 0.75 0.8 0.41-0.11 2.66 0.79 5 2 2.34 1.21 4.25 1.97 4.25 1.7 0-0.27 0.72 0.06 1.6 0.75 0.87 0.69 2.59 2.15 3.82 3.25 1.58 1.42 2.42 3.66 2.9 7.75 0.37 3.16 1.24 6.89 1.93 8.28 0.69 1.39 1.59 2.51 2 2.5 0.41-0.02 0.52 0.42 0.25 0.97-0.27 0.55 0.29 1.44 1.25 1.97 0.96 0.53 1.41 0.98 1 1-0.41 0.02 0.12 1.27 1.17 2.78 1.06 1.51 3.12 5.9 4.58 9.75 1.46 3.85 3.33 10.15 4.15 14 0.83 3.85 1.67 7.9 1.87 9 0.2 1.1 0.58 2.9 0.85 4 0.26 1.1 0.56 2.23 0.67 2.5 0.11 0.27 0.14 0.84 0.08 1.25-0.07 0.41 0.33 0.75 0.88 0.75 0.55 0 1.23 0.9 1.5 2 0.27 1.1 1.17 2 2 2 0.83 0 1.5 0.45 1.5 1 0 0.55 0.34 0.83 0.75 0.62 0.41-0.21 1.88 0.08 3.25 0.65 1.38 0.56 3.17 1.22 4 1.45 0.83 0.23 3.52 0.72 6 1.1 2.48 0.37 11.92 0.68 21 0.67 9.08 0 18.3-0.38 20.5-0.83 2.2-0.45 4.52-0.9 5.15-0.99 0.64-0.09 1.54-0.48 2-0.87 0.47-0.38 1.41-0.5 2.1-0.25 0.69 0.25 1.48 0 1.75-0.55 0.27-0.55 0.95-0.77 1.5-0.5 0.55 0.27 1 0.05 1-0.5 0-0.55 0.45-0.77 1-0.5 0.55 0.27 3.81-0.97 7.25-2.77 3.44-1.8 8.95-5.37 12.25-7.93 3.3-2.56 9.83-6.46 14.5-8.68 4.67-2.21 9.85-4.3 11.5-4.64 1.65-0.34 7.27-0.83 12.5-1.09 5.23-0.26 10.85-1 12.5-1.64 1.65-0.63 3.59-1.85 4.3-2.7 0.72-0.85 2.15-3.35 3.18-5.55 1.04-2.2 1.69-4.34 1.45-4.75-0.24-0.41 0.02-0.75 0.57-0.75 0.55 0 0.77-0.45 0.5-1-0.27-0.55-0.05-1.23 0.5-1.5 0.55-0.27 0.77-0.95 0.5-1.5-0.27-0.55 0.06-1.7 0.75-2.54 0.69-0.85 0.8-1.51 0.25-1.46-0.55 0.05-0.33-0.63 0.5-1.5 0.83-0.87 1.05-1.55 0.5-1.5-0.58 0.05-0.52-0.46 0.14-1.21 0.63-0.71 1.03-3.09 0.88-5.29-0.15-2.2-0.77-4.11-1.39-4.25-0.62-0.14-1.13-0.93-1.13-1.75 0-0.83-0.45-1.5-1-1.5-0.55 0-0.93-0.34-0.84-0.75 0.08-0.41-1.79-4.8-4.15-9.75-2.37-4.95-4.8-9.33-5.41-9.73-0.6-0.41-0.76-0.75-0.35-0.75 0.41-0.01 0.07-1.03-0.76-2.27-0.82-1.24-1.2-2.59-0.83-3 0.37-0.41 0.15-0.75-0.49-0.75-0.64 0-1.06-0.38-0.92-0.84 0.14-0.47-1.33-3.26-3.25-6.22-1.92-2.95-6.65-7.96-10.5-11.14-3.85-3.17-7.45-5.77-8-5.77-0.55 0-3.7-3.17-7-7.05-3.3-3.89-6.34-7.04-6.75-7.02-0.41 0.02-0.75-0.52-0.76-1.21 0-0.69-1.92-3.15-4.25-5.47-2.33-2.32-5.11-5.02-6.17-6-1.06-0.98-2.18-1.79-2.5-1.81-0.31-0.01-1.92-0.91-3.57-1.99-1.65-1.08-6.71-3.2-11.25-4.72-4.54-1.52-8.7-2.54-9.25-2.26-0.55 0.27-1.23 0.05-1.5-0.5-0.27-0.55-1.29-0.99-2.25-0.98-0.96 0-3.33-0.18-5.25-0.41-1.92-0.24-6.42-0.93-10-1.54-3.58-0.62-8.52-1.34-11-1.6-2.48-0.27-7.09-1.16-10.25-1.98-3.16-0.82-8.45-2.84-11.75-4.49-3.3-1.65-7.01-3.19-8.25-3.43-1.24-0.23-2.48-0.51-2.75-0.61-0.27-0.11-0.84-0.14-1.25-0.08-0.41 0.07-0.75-0.33-0.75-0.88 0-0.55-0.34-0.95-0.75-0.88-0.41 0.06-1.09 0.06-1.5 0-0.41-0.07-1.09-0.27-1.5-0.45-0.41-0.19-2.1-0.89-3.75-1.56-1.65-0.68-6.37-2.11-10.5-3.18-4.12-1.07-8.17-1.93-9-1.91-0.83 0.02-4.09-1.1-7.25-2.49-3.16-1.39-6.2-2.31-6.75-2.03-0.55 0.27-1.23 0.05-1.5-0.5-0.27-0.55-0.95-0.78-1.5-0.5-0.55 0.27-1.56 0.18-2.25-0.22-0.69-0.4-1.7-0.82-2.25-0.94-0.55-0.12-1.9-0.43-3-0.68-1.1-0.24-3.8-0.92-6-1.5-2.2-0.57-12.33-2.23-22.5-3.67-10.17-1.44-19.85-2.85-21.5-3.13-1.65-0.27-4.24-0.69-5.75-0.93-1.51-0.24-4.1-0.66-5.75-0.93-1.65-0.28-4.24-0.68-5.75-0.9-1.51-0.22-4.77-0.72-7.25-1.1-2.48-0.39-5.62-0.89-7-1.11-1.37-0.21-7-0.87-12.5-1.46-5.5-0.58-26.65-1.21-47-1.38-20.35-0.18-39.02-0.15-41.5 0.06z"/>
</svg>