<?xml version="1.0" encoding="UTF-8" standalone="no"?>
<!-- Created with Inkscape (http://www.inkscape.org/) -->

<svg
   width="65mm"
   height="75mm"
   viewBox="0 0 65 75"
   version="1.1"
   id="svg5"
   xmlns="http://www.w3.org/2000/svg"
   xmlns:svg="http://www.w3.org/2000/svg">
  <defs
     id="defs2" />
  <g
     id="layer1"
     transform="translate(-57.06392,-120.41567)">
    <g
       id="g7852"
       transform="translate(4.492,4.3044107)">
      <path
         style="fill:none;fill-rule:evenodd;stroke:#000000;stroke-width:3.77953;stroke-miterlimit:4;stroke-dasharray:none"
         id="path847-7"
         transform="matrix(0.26458333,0,0,0.26458333,36.506519,59.23662)"
         d="m 176.37642,304.89877 c -0.27421,4.31879 -5.95693,1.76112 -7.17811,-0.45575 -3.30934,-6.00756 2.41578,-12.48331 8.08961,-13.90047 10.14915,-2.53495 19.21213,6.10975 20.62283,15.72347 2.07026,14.10854 -9.82611,26.0637 -23.35733,27.34519 -18.035,1.70803 -32.96297,-13.54679 -34.06755,-30.99119 -1.39001,-21.952 17.26864,-39.88597 38.62505,-40.78991 25.86547,-1.09479 46.82255,20.99099 47.51227,46.25892 0.81282,29.77737 -24.7136,53.76762 -53.89277,54.23463 -33.68852,0.53918 -60.71837,-28.4364 -60.95699,-61.52664 -0.27115,-37.59924 32.15932,-67.67308 69.16049,-67.67935 41.50973,-0.007 74.63068,35.88236 74.40171,76.79436 -0.25419,45.42007 -39.60548,81.59045 -84.42822,81.12407" />
      <g
         aria-label="LOGO"
         id="text1533-3"
         style="font-weight:bold;font-size:19.7556px;line-height:1.25;font-family:prosto;-inkscape-font-specification:'prosto Bold';letter-spacing:0px;word-spacing:0px;stroke-width:0.222004">
        <path
           d="M 57.06392,186.61392 V 173.0223 h 2.845655 v 11.39227 h 7.292595 v 2.19935 z"
           style="font-family:'Liberation Sans';-inkscape-font-specification:'Liberation Sans Bold'"
           id="path7750" />
        <path
           d="m 82.346844,179.75541 q 0,2.12218 -0.839228,3.73311 -0.839227,1.61093 -2.401926,2.46945 -1.562698,0.84888 -3.646297,0.84888 -3.202568,0 -5.025716,-1.88103 -1.813503,-1.89067 -1.813503,-5.17041 0,-3.27009 1.813503,-5.10289 1.813502,-1.83279 5.045009,-1.83279 3.231507,0 5.045009,1.85209 1.823149,1.85208 1.823149,5.08359 z m -2.903533,0 q 0,-2.19935 -1.0418,-3.44372 -1.041799,-1.25402 -2.922825,-1.25402 -1.909965,0 -2.951765,1.24437 -1.041799,1.23472 -1.041799,3.45337 0,2.23794 1.061092,3.53054 1.070738,1.28296 2.913179,1.28296 1.909965,0 2.942118,-1.25402 1.0418,-1.25402 1.0418,-3.55948 z"
           style="font-family:'Liberation Sans';-inkscape-font-specification:'Liberation Sans Bold'"
           id="path7752" />
        <path
           d="m 90.951333,184.57856 q 1.109323,0 2.151122,-0.31833 1.0418,-0.32798 1.610931,-0.82958 v -1.88103 h -3.318324 v -2.10289 h 5.922822 v 4.99678 q -1.080385,1.10932 -2.816717,1.73633 -1.726685,0.62701 -3.627004,0.62701 -3.318324,0 -5.102887,-1.8328 -1.784564,-1.84244 -1.784564,-5.21864 0,-3.35691 1.79421,-5.14147 1.79421,-1.79421 5.160765,-1.79421 4.784559,0 6.086808,3.54019 l -2.623791,0.79099 q -0.424436,-1.03215 -1.331187,-1.5627 -0.906752,-0.53054 -2.13183,-0.53054 -2.006428,0 -3.048228,1.21543 -1.041799,1.21543 -1.041799,3.48231 0,2.30546 1.070738,3.56913 1.080385,1.25402 3.028935,1.25402 z"
           style="font-family:'Liberation Sans';-inkscape-font-specification:'Liberation Sans Bold'"
           id="path7754" />
        <path
           d="m 113.07992,179.75541 q 0,2.12218 -0.83923,3.73311 -0.83923,1.61093 -2.40192,2.46945 -1.5627,0.84888 -3.6463,0.84888 -3.20257,0 -5.02572,-1.88103 -1.813501,-1.89067 -1.813501,-5.17041 0,-3.27009 1.813501,-5.10289 1.8135,-1.83279 5.04501,-1.83279 3.23151,0 5.04501,1.85209 1.82315,1.85208 1.82315,5.08359 z m -2.90353,0 q 0,-2.19935 -1.0418,-3.44372 -1.0418,-1.25402 -2.92283,-1.25402 -1.90996,0 -2.95176,1.24437 -1.0418,1.23472 -1.0418,3.45337 0,2.23794 1.06109,3.53054 1.07074,1.28296 2.91318,1.28296 1.90996,0 2.94212,-1.25402 1.0418,-1.25402 1.0418,-3.55948 z"
           style="font-family:'Liberation Sans';-inkscape-font-specification:'Liberation Sans Bold'"
           id="path7756" />
      </g>
    </g>
  </g>
</svg>
