<svg width="800" height="801" viewBox="0 0 800 801" fill="none" xmlns="http://www.w3.org/2000/svg">
<g clip-path="url(#clip0_52_272)">
<path d="M30.4762 532.63C28.8575 529.365 27.4621 526.742 26.2341 524.676C26.9877 527.132 27.9924 530.146 29.3878 533.886C30.4762 536.789 31.6205 539.635 32.7368 542.51C33.2671 541.729 33.7695 540.975 34.2997 540.194C33.0159 537.71 31.7321 535.17 30.4762 532.63Z" fill="url(#paint0_linear_52_272)"/>
<path d="M230.944 725.814L235.828 725.87C231.055 724.111 226.227 722.186 221.427 720.148L230.944 725.842V725.814Z" fill="url(#paint1_linear_52_272)"/>
<path d="M171.331 725.256L223.492 725.73L91.4565 646.804C114.621 677.057 141.497 703.347 171.359 725.256H171.331Z" fill="url(#paint2_linear_52_272)"/>
<path d="M176.661 729.107C217.296 757.881 263.206 778.561 312.744 789.948L312.66 789.39C317.293 788.748 321.674 787.938 325.889 786.989L229.883 729.581L176.661 729.079V729.107Z" fill="url(#paint3_linear_52_272)"/>
<path d="M36.2811 543.961C35.6392 544.882 35.0252 545.803 34.4113 546.752C48.0865 580.354 65.334 611.193 85.5398 638.906L143.059 673.29C102.927 641.697 65.3898 598.857 36.2811 543.961Z" fill="url(#paint4_linear_52_272)"/>
<path d="M399.623 713.339C391.893 722.018 381.427 728.8 368.673 733.461C354.886 739.042 338.196 742.001 319.191 742.001C297.059 742.001 272.527 737.982 247.075 729.721L237.391 729.609L331.108 785.65C334.094 784.84 336.968 783.947 339.759 782.943C374.924 769.323 392.116 742.336 399.651 713.283L399.623 713.339Z" fill="url(#paint5_linear_52_272)"/>
<path d="M618.203 436.039L543.771 556.743C543.827 557.916 543.883 559.088 543.911 560.26L617.255 578.512C617.422 576.977 617.617 575.414 617.785 573.851C623.646 517.057 622.669 471.901 618.203 436.011V436.039Z" fill="url(#paint6_linear_52_272)"/>
<path d="M465.711 753.387C446.649 772.086 424.741 787.882 400.712 800.078C401.633 800.078 402.526 800.106 403.447 800.106C404.675 800.106 405.903 800.106 407.159 800.106C420.75 799.995 437.411 796.785 455.385 790.366C465.32 786.627 475.59 781.938 485.972 776.245L465.711 753.443V753.387Z" fill="url(#paint7_linear_52_272)"/>
<path d="M489.349 774.291C545.892 741.973 603.858 679.597 616.752 582.308L543.967 564.195C543.967 565.2 543.994 566.232 543.994 567.265C543.994 638.739 515.081 703.57 468.362 750.736L489.322 774.291H489.349Z" fill="url(#paint8_linear_52_272)"/>
<path d="M394.432 798.962C419.969 786.627 443.189 770.216 463.199 750.569L440.23 724.697L394.46 798.962H394.432Z" fill="url(#paint9_linear_52_272)"/>
<path d="M415.364 696.733C410.061 732.679 392.451 774.737 342.02 792.208L349.192 796.506C362.421 798.264 375.845 799.381 389.465 799.827L437.607 721.767L415.364 696.733Z" fill="url(#paint10_linear_52_272)"/>
<path d="M412.657 624.226L413.103 624.115C413.271 624.896 417.429 643.26 417.401 668.155C417.401 675.327 417.038 683.337 416.006 691.793L439.672 718.39L535.985 562.186L536.124 561.99L344.448 494.563C344.448 494.563 344.615 494.786 344.699 494.87C381.399 539.887 404.312 583.675 412.629 624.226H412.657Z" fill="url(#paint11_linear_52_272)"/>
<path d="M539.976 555.739C534.143 423.898 428.564 317.595 297.031 310.506C292.398 320.748 289.301 331.465 287.793 342.74C280.146 400.678 315.228 457.193 340.01 488.981L538.134 558.697L539.976 555.739Z" fill="url(#paint12_linear_52_272)"/>
<path d="M335.517 794.469C336.829 794.692 338.141 794.887 339.452 795.111L337.415 793.883C336.801 794.078 336.159 794.274 335.517 794.469Z" fill="url(#paint13_linear_52_272)"/>
<path d="M540.171 563.246L539.836 563.162L442.296 721.376L465.878 747.917C511.816 701.449 540.227 637.623 540.227 567.293C540.227 565.953 540.227 564.614 540.199 563.274L540.171 563.246Z" fill="url(#paint14_linear_52_272)"/>
<path d="M585.801 159.52C561.242 123.267 525.938 95.0514 484.493 79.1993L491.443 143.696C513.825 148.357 537.213 156.227 559.819 166.665L585.801 159.52Z" fill="url(#paint15_linear_52_272)"/>
<path d="M696.71 284.997C696.599 284.635 696.459 284.244 696.347 283.881C695.901 282.597 695.482 281.341 695.036 280.085C694.422 278.355 693.808 276.625 693.222 274.922C692.747 273.611 692.273 272.327 691.798 271.043C691.184 269.396 690.57 267.75 689.956 266.103C689.482 264.791 688.98 263.508 688.477 262.224C687.863 260.605 687.249 258.986 686.607 257.396C686.105 256.112 685.603 254.828 685.1 253.6C684.458 251.981 683.816 250.391 683.175 248.8C682.7 247.572 682.198 246.344 681.695 245.144C680.998 243.469 680.3 241.823 679.602 240.176C679.156 239.06 678.681 237.943 678.207 236.827C677.342 234.818 676.477 232.836 675.583 230.855C675.249 230.129 674.942 229.375 674.635 228.65C673.462 226.026 672.262 223.375 671.062 220.808C670.588 219.775 670.113 218.798 669.639 217.793C668.885 216.175 668.132 214.556 667.35 212.937C666.82 211.821 666.262 210.705 665.704 209.56C665.313 208.779 664.922 207.97 664.532 207.188C664.253 206.63 663.973 206.072 663.694 205.542C662.997 204.146 662.271 202.779 661.573 201.411C660.987 200.239 660.373 199.123 659.759 197.95C659.034 196.611 658.336 195.271 657.61 193.932C656.996 192.787 656.382 191.643 655.768 190.527C655.043 189.215 654.317 187.903 653.564 186.592C652.95 185.503 652.336 184.359 651.694 183.298C650.94 181.959 650.159 180.647 649.377 179.335C648.763 178.275 648.177 177.242 647.535 176.21C646.698 174.786 645.833 173.391 644.996 171.995C644.437 171.102 643.907 170.181 643.349 169.26C641.982 167.028 640.586 164.823 639.191 162.646C638.688 161.865 638.186 161.111 637.656 160.33C636.707 158.878 635.758 157.427 634.837 156.004C634.195 155.055 633.553 154.134 632.911 153.185C632.409 152.431 631.907 151.706 631.404 150.98L591.718 161.865C598.416 172.247 604.221 183.159 609.049 194.49C637.544 213.942 671.146 243.302 696.766 285.025L696.71 284.997Z" fill="url(#paint16_linear_52_272)"/>
<path d="M565.065 169.121C578.182 175.456 591.02 182.629 603.244 190.583C598.807 180.926 593.755 171.633 588.006 162.813L565.065 169.121Z" fill="url(#paint17_linear_52_272)"/>
<path d="M759.114 595.341C762.519 588.978 765.31 583.843 768.045 580.159C787.357 531.793 797.823 482.06 799.693 432.606L761.207 366.072L759.114 595.341Z" fill="url(#paint18_linear_52_272)"/>
<path d="M644.354 720.455C639.888 724.976 637.656 728.549 636.623 731.116C638.298 730.614 640.781 729.498 644.158 727.042C703.129 683.923 731.847 643.204 748.257 615.016L719.484 607.844C703.687 648.479 678.905 685.597 644.382 720.455H644.354Z" fill="url(#paint19_linear_52_272)"/>
<path d="M675.36 207.3C677.984 212.602 680.579 218.017 683.063 223.515L712.953 275.173L749.43 216.035C742.648 203.588 735.224 191.364 727.159 179.447C651.443 67.5335 533.947 0.692383 412.796 0.692383C473.888 7.05554 528.17 30.3313 574.61 70.2127C614.045 104.066 647.731 149.948 675.332 207.3H675.36Z" fill="url(#paint20_linear_52_272)"/>
<path d="M751.467 219.887L715.102 278.885L757.523 352.201L758.612 233.897C757.942 232.501 757.244 231.106 756.546 229.71C754.9 226.417 753.225 223.152 751.467 219.887Z" fill="url(#paint21_linear_52_272)"/>
<path d="M799.916 425.461C801.256 362.527 788.585 300.235 762.323 242.018L761.263 358.648L799.916 425.461Z" fill="url(#paint22_linear_52_272)"/>
<path d="M712.841 282.541L708.767 289.128C716.609 312.431 723.754 337.075 730.089 363.086L732.21 371.737L732.015 371.681C734.303 382.119 736.034 392.78 737.122 403.441C741.866 449.826 745.55 510.499 731.736 568.521C728.805 580.745 725.149 592.634 720.795 604.272L750.211 611.584C752.025 608.374 753.728 605.332 755.235 602.486L757.467 359.625L712.841 282.513V282.541Z" fill="url(#paint23_linear_52_272)"/>
<path d="M707.204 284.495L710.72 278.83L695.203 251.981C699.389 262.503 703.408 273.332 707.232 284.495H707.204Z" fill="url(#paint24_linear_52_272)"/>
<path d="M204.291 273.22C196.476 266.271 188.885 261.387 181.127 258.261C173.926 255.358 166.475 253.963 158.381 253.963C145.683 253.963 131.282 257.368 113.058 264.652C110.239 265.768 107.42 266.745 104.573 267.61C97.4847 269.703 90.368 270.903 83.0001 271.266C81.521 271.35 80.0418 271.378 78.5347 271.378C65.7805 271.378 54.031 268.838 43.7048 266.578L40.3279 265.852C39.5743 265.712 38.8208 265.461 38.0394 265.21C37.7882 265.126 37.537 265.015 37.2858 264.903C36.7835 264.708 36.2532 264.512 35.7509 264.261C35.4439 264.122 35.1648 263.954 34.8857 263.815C34.4112 263.563 33.9368 263.312 33.4624 263.033C33.1833 262.866 32.8763 262.67 32.5693 262.503C32.0948 262.224 31.6762 261.917 31.2297 261.61C30.9227 261.387 30.6436 261.191 30.3645 260.996C29.918 260.661 29.4993 260.298 29.0528 259.935C28.8016 259.712 28.5225 259.517 28.2993 259.293C27.8248 258.847 27.3783 258.4 26.9317 257.954C26.7364 257.759 26.5689 257.619 26.4015 257.424C25.8154 256.81 25.2572 256.168 24.727 255.498C18.1963 270.708 12.9216 285.109 8.87488 298.7C19.8988 333.698 65.8642 360.016 120.733 360.016C170.075 360.016 212.189 338.749 228.236 309.027C222.906 294.933 214.812 282.625 204.263 273.248L204.291 273.22Z" fill="url(#paint25_linear_52_272)"/>
<path d="M199.239 443.518L197.788 442.988L194.021 441.676C194.021 441.676 194.021 441.648 194.048 441.62L0 373.384C1.59079 386.557 5.27473 398.278 11.1076 408.549C34.2159 449.184 75.8835 474.413 119.867 474.441C135.078 474.441 150.399 471.511 165.386 465.733C168.345 464.589 171.191 463.305 174.01 461.91C174.066 461.826 174.122 461.77 174.205 461.715C179.229 459.147 184.001 456.161 188.523 452.784C192.29 449.965 195.863 446.867 199.267 443.546L199.239 443.518Z" fill="url(#paint26_linear_52_272)"/>
<path d="M232.702 314.608C214.896 343.996 172.698 364.732 123.579 364.732C69.6599 364.732 24.1131 339.754 9.9634 305.733C3.32115 329.93 0.809379 351.448 2.40017 370.174L199.63 439.583L203.51 440.951L205.1 441.509C210.403 435.843 215.175 429.536 219.334 422.698C222.459 417.563 225.25 412.093 227.65 406.344C231.474 397.274 234.376 387.533 236.246 377.263C240.265 355.132 238.842 333.447 232.702 314.636V314.608Z" fill="url(#paint27_linear_52_272)"/>
<path d="M443.021 212.63C428.62 202.667 413.996 193.206 399.149 184.415C390.525 179.307 381.79 174.675 372.943 170.432C363.007 177.549 354.942 185.726 346.709 194.099C339.229 201.69 331.498 209.505 322.316 216.398C310.958 224.91 298.762 230.855 284.668 234.734C294.743 236.408 305.236 238.781 316.177 241.823C317.628 241.348 319.079 240.874 320.558 240.455C334.289 236.381 348.718 233.338 364.626 231.106C364.793 231.106 364.961 231.05 365.128 231.022C388.655 218.686 412.433 212.407 436.183 212.407C438.5 212.407 440.761 212.463 443.049 212.602L443.021 212.63Z" fill="url(#paint28_linear_52_272)"/>
<path d="M195.779 241.348C200.495 239.534 203.649 237.804 209.035 237.078C210.152 236.743 211.296 236.436 212.44 236.157C209.538 233.506 206.356 231.022 202.979 228.65C201.5 227.98 200.021 227.282 198.57 226.529C197.984 228.845 196.393 235.348 195.779 241.348Z" fill="url(#paint29_linear_52_272)"/>
<path d="M171.303 212.937L153.804 244.641C155.339 244.558 156.874 244.474 158.353 244.474C159.47 244.474 160.586 244.474 161.675 244.558C162.037 244.558 162.372 244.586 162.735 244.614C163.489 244.641 164.214 244.697 164.94 244.781C165.358 244.809 165.777 244.865 166.196 244.893C166.866 244.976 167.507 245.032 168.149 245.116C168.596 245.172 169.042 245.255 169.489 245.311C170.103 245.395 170.717 245.507 171.331 245.618C171.777 245.702 172.224 245.786 172.643 245.869C173.257 245.981 173.843 246.121 174.457 246.26C174.903 246.372 175.35 246.456 175.768 246.567C176.354 246.707 176.968 246.874 177.555 247.042C178.001 247.153 178.42 247.293 178.866 247.432C179.452 247.6 180.038 247.823 180.652 247.991C181.099 248.13 181.49 248.27 181.908 248.437C182.076 248.493 182.215 248.549 182.383 248.604C189.332 244.418 189.527 244.027 190.699 243.33C190.699 243.33 193.211 230.017 195.025 224.659C191.23 222.594 187.546 220.333 184.001 217.905C179.927 216.063 175.685 214.416 171.275 212.909L171.303 212.937Z" fill="url(#paint30_linear_52_272)"/>
<path d="M29.4436 243.414L29.918 243.581C29.6111 244.725 30.0297 246.372 31.146 248.158C33.5183 252.009 38.4023 255.693 42.3095 256.531L45.7143 257.256C54.7846 259.238 64.1061 261.275 74.1811 261.749C75.6323 261.833 77.0836 261.861 78.5348 261.861C89.2517 261.861 99.3826 259.88 109.541 255.833C124.807 249.721 137.673 246.232 149.283 245.004L167.619 211.765C153.302 207.383 137.45 204.928 120.761 204.928C87.6609 204.928 57.7987 214.5 36.8952 229.794C34.4113 233.45 32.2903 237.078 30.6437 240.651C30.225 241.572 29.8343 242.493 29.4715 243.414H29.4436Z" fill="url(#paint31_linear_52_272)"/>
<path d="M339.536 246.958C344.895 243.079 350.309 239.562 355.695 236.353C344.085 238.306 333.201 240.762 322.791 243.776C327.619 245.228 332.503 246.79 337.499 248.493C338.196 247.991 338.838 247.46 339.536 246.958Z" fill="url(#paint32_linear_52_272)"/>
<path d="M630.399 431.35C638.688 439.304 646.754 447.37 654.513 455.547C656.968 458.114 659.48 460.877 661.992 463.64C668.606 470.869 679.463 482.758 683.593 483.958C684.179 483.316 684.319 482.395 683.342 479.297C681.5 473.52 676.253 463.612 666.346 447.146C657.582 432.578 648.066 418.177 637.991 403.972L628.669 419.126C629.311 423.089 629.897 427.164 630.427 431.378L630.399 431.35Z" fill="url(#paint33_linear_52_272)"/>
<path d="M145.376 156.646C145.376 156.646 145.153 156.729 145.041 156.757C145.627 158.125 146.213 159.464 146.827 160.832C147.441 162.144 148.111 163.483 148.809 164.795C148.781 164.739 148.725 164.683 148.725 164.628C147.469 161.948 146.381 159.297 145.348 156.618L145.376 156.646Z" fill="#5D5D5D"/>
<path d="M138.315 164.907C137.534 163.288 136.836 161.669 136.194 160.051C123.635 164.851 112.723 170.014 103.569 174.898C78.4232 188.322 57.4359 204.621 43.677 220.891C64.3852 208.611 91.317 201.132 120.761 201.132C138.148 201.132 154.614 203.755 169.489 208.416L170.215 207.104C156.204 194.601 145.32 179.726 138.315 164.907Z" fill="url(#paint34_linear_52_272)"/>
<path d="M635.618 400.623C630.651 393.729 625.488 386.892 620.241 380.11C623.032 390.073 625.543 401.125 627.72 413.461L635.646 400.623H635.618Z" fill="url(#paint35_linear_52_272)"/>
<path d="M615.468 417.368C610.584 389.068 603.579 367.495 596.658 351.141C589.904 335.177 583.234 324.181 578.741 316.785C560.684 287.063 518.291 239.757 462.613 226.585C458.427 225.608 454.185 224.798 449.859 224.24C444.584 224.212 418.824 219.607 385.083 232.166C372.775 237.106 360.495 243.86 348.299 252.316C347.211 253.07 346.122 253.823 345.034 254.605C323.879 269.871 308.418 287.342 298.734 306.794C429.653 314.608 534.868 419.349 543.408 550.073L617.394 430.094C616.78 425.712 616.138 421.47 615.413 417.368H615.468Z" fill="url(#paint36_linear_52_272)"/>
<path d="M473.832 28.3777C472.604 27.9591 471.376 27.5404 470.12 27.1218C469.199 26.8148 468.25 26.5357 467.329 26.2287C466.074 25.8101 464.79 25.4473 463.534 25.0566C462.613 24.8054 461.692 24.5263 460.771 24.2472C459.431 23.8565 458.064 23.4937 456.696 23.1309C455.859 22.9076 454.994 22.6564 454.157 22.4332C452.538 22.0145 450.947 21.6238 449.328 21.2331C448.714 21.0936 448.1 20.9261 447.486 20.7866C445.254 20.2563 443.021 19.7539 440.76 19.2795C440.202 19.1679 439.616 19.0562 439.03 18.9446C437.356 18.6097 435.653 18.2748 433.951 17.9399C433.086 17.8003 432.248 17.6608 431.383 17.4933C429.932 17.2422 428.509 16.991 427.057 16.7398C426.108 16.6003 425.16 16.4607 424.211 16.3212C422.843 16.1258 421.448 15.9026 420.08 15.7351C419.103 15.5956 418.099 15.4839 417.122 15.3444C415.754 15.149 414.387 15.0095 413.019 14.842C412.015 14.7304 411.038 14.6188 410.033 14.535C408.638 14.3955 407.242 14.2559 405.847 14.1164C404.842 14.0327 403.865 13.949 402.889 13.8652C401.437 13.7536 399.986 13.642 398.507 13.5582C397.558 13.5024 396.637 13.4187 395.688 13.3908C394.097 13.3071 392.479 13.2233 390.86 13.1675C390.051 13.1396 389.269 13.0838 388.46 13.0559C386.032 12.9722 383.604 12.8884 381.176 12.8605C378.775 12.8326 376.431 12.8326 374.059 12.8326C373.054 12.8326 372.049 12.8605 371.045 12.8884C369.705 12.8884 368.338 12.9163 366.998 12.9722C366.133 12.9722 365.296 13.028 364.43 13.0559C362.923 13.1117 361.444 13.1396 359.965 13.1954C359.128 13.2512 358.291 13.2791 357.453 13.335C355.946 13.4187 354.467 13.4745 352.988 13.5861C351.927 13.6699 350.895 13.7257 349.834 13.8094C348.578 13.8931 347.322 13.9769 346.067 14.0885C344.978 14.1722 343.89 14.2839 342.773 14.3955C341.601 14.5071 340.401 14.5909 339.201 14.7304C338.141 14.842 337.108 14.9537 336.047 15.0653C334.819 15.2048 333.619 15.3165 332.419 15.456C331.387 15.5677 330.382 15.7072 329.405 15.8188C328.149 15.9584 326.921 16.1258 325.693 16.2933C324.689 16.4328 323.74 16.5724 322.763 16.7119C321.507 16.8794 320.251 17.0747 319.023 17.2422C317.991 17.4096 316.986 17.5771 315.981 17.7166C314.781 17.912 313.609 18.0794 312.409 18.2748C311.404 18.4422 310.427 18.6097 309.423 18.8051C308.25 19.0283 307.05 19.2237 305.878 19.419C304.929 19.5865 304.008 19.7819 303.087 19.9493C301.859 20.1726 300.631 20.4238 299.431 20.647C298.566 20.8145 297.673 21.0098 296.808 21.1773C295.552 21.4285 294.296 21.6796 293.068 21.9587C292.231 22.1262 291.394 22.3215 290.556 22.5169C289.301 22.796 288.045 23.0751 286.789 23.3542C285.924 23.5495 285.058 23.7449 284.221 23.9681C283.021 24.2472 281.793 24.5263 280.593 24.8054C279.728 25.0287 278.863 25.2519 277.998 25.4473C277.049 25.6706 276.1 25.9217 275.179 26.145L210.012 140.375L176.522 199.039C182.522 204.425 189.164 209.337 196.337 213.551C205.268 186.257 219.585 160.888 238.256 139.063C247.828 127.872 258.545 117.602 270.239 108.475C309.925 77.6085 357.565 61.6448 407.968 62.3704C433.114 62.7332 457.617 67.3381 480.642 75.7944L476.149 29.1871C475.395 28.908 474.614 28.6568 473.832 28.4056V28.3777Z" fill="url(#paint37_linear_52_272)"/>
<path d="M628.306 146.543C627.497 145.398 626.688 144.226 625.85 143.11C625.153 142.133 624.427 141.156 623.729 140.18C622.92 139.063 622.111 137.975 621.273 136.886C620.548 135.91 619.822 134.961 619.096 134.012C618.287 132.923 617.45 131.863 616.613 130.774C615.859 129.853 615.133 128.905 614.408 127.984C613.543 126.923 612.705 125.862 611.84 124.802C611.115 123.909 610.389 123.016 609.663 122.151C608.742 121.062 607.849 119.974 606.928 118.885C606.231 118.076 605.561 117.267 604.863 116.457C603.719 115.146 602.575 113.834 601.43 112.55C600.76 111.797 600.063 111.015 599.393 110.262C597.998 108.727 596.574 107.164 595.151 105.629C594.481 104.903 593.783 104.205 593.086 103.48C592.109 102.447 591.104 101.415 590.099 100.382C589.346 99.6005 588.592 98.8469 587.811 98.0934C586.862 97.1445 585.941 96.1956 584.992 95.2746C584.211 94.4932 583.401 93.7397 582.62 92.9861C581.699 92.0931 580.75 91.2 579.801 90.3069C578.992 89.5534 578.182 88.7998 577.373 88.0742C576.424 87.209 575.475 86.3439 574.526 85.5066C573.717 84.781 572.88 84.0554 572.07 83.3298C571.094 82.4925 570.117 81.6552 569.168 80.818C568.359 80.1203 567.549 79.4226 566.74 78.7527C565.707 77.8876 564.703 77.0503 563.67 76.241C562.889 75.5991 562.107 74.9572 561.326 74.3153C560.181 73.3943 559.009 72.5012 557.837 71.5802C557.167 71.05 556.497 70.5197 555.828 70.0174C554.014 68.6498 552.2 67.2823 550.385 65.9706C549.771 65.5241 549.157 65.1054 548.543 64.6589C547.288 63.7658 546.032 62.8727 544.776 61.9797C543.994 61.4494 543.185 60.9191 542.404 60.3889C541.315 59.6354 540.199 58.8818 539.082 58.1562C538.245 57.598 537.38 57.0399 536.543 56.5096C535.482 55.8119 534.394 55.1421 533.305 54.4723C532.412 53.9141 531.547 53.4117 530.682 52.8536C529.594 52.2117 528.533 51.5698 527.445 50.9279C526.552 50.3976 525.658 49.8673 524.793 49.365C523.677 48.751 522.588 48.137 521.5 47.4951C520.607 47.0207 519.742 46.5183 518.849 46.0439C517.704 45.402 516.56 44.8159 515.416 44.2298C514.551 43.7833 513.686 43.3367 512.848 42.8902C511.592 42.2483 510.337 41.6343 509.081 41.0203C508.327 40.6296 507.546 40.2389 506.764 39.8761C505.062 39.0667 503.359 38.2574 501.629 37.4759C501.211 37.3085 500.792 37.0852 500.373 36.9177C498.42 36.0526 496.466 35.1874 494.484 34.3502C493.731 34.0432 492.977 33.7362 492.224 33.4292C490.884 32.871 489.545 32.3128 488.205 31.8105C487.34 31.4756 486.475 31.1407 485.61 30.8058C484.354 30.3313 483.126 29.8569 481.87 29.4103C480.949 29.0754 480.056 28.7684 479.135 28.4335L484.075 74.9851C511.732 85.3113 537.241 101.247 559.065 122.206C570.619 133.286 580.806 145.426 589.541 158.46L629.116 147.603C628.864 147.24 628.613 146.878 628.362 146.515L628.306 146.543Z" fill="url(#paint38_linear_52_272)"/>
<path d="M267.225 28.7684C266.443 28.9917 265.718 29.215 264.936 29.4382C263.708 29.7731 262.508 30.136 261.308 30.4988C260.611 30.6941 259.913 30.9453 259.187 31.1407C257.959 31.5314 256.703 31.8942 255.503 32.2849C254.778 32.5082 254.08 32.7315 253.354 32.9826C252.154 33.3734 250.954 33.7362 249.782 34.1269C249.14 34.3502 248.498 34.5455 247.856 34.7688C246.628 35.1874 245.4 35.5781 244.172 35.9968C243.586 36.1921 243 36.4154 242.414 36.5828C241.158 37.0015 239.902 37.448 238.674 37.8946C238.144 38.0899 237.586 38.2853 237.056 38.4806C235.8 38.9272 234.544 39.3737 233.288 39.8202C232.786 40.0156 232.283 40.211 231.781 40.4063C230.525 40.8808 229.297 41.3273 228.041 41.8018C227.539 41.9971 227.064 42.1925 226.562 42.3599C225.334 42.8344 224.106 43.3088 222.878 43.7833C222.459 43.9507 222.041 44.1182 221.622 44.2577C220.366 44.7601 219.083 45.2624 217.855 45.7648C217.548 45.9043 217.241 46.016 216.934 46.1276C215.594 46.6579 214.254 47.216 212.971 47.7463C212.719 47.8579 212.468 47.9696 212.217 48.0812C210.877 48.6394 209.538 49.1975 208.198 49.7557C208.031 49.8394 207.863 49.9232 207.668 49.979C206.272 50.5651 204.905 51.179 203.537 51.7651C203.482 51.7651 203.426 51.8209 203.37 51.8489C198.96 53.7745 194.718 55.7002 190.699 57.5701C190.03 58.0167 189.36 58.4353 188.69 58.8818C188.188 59.2167 187.657 59.5516 187.155 59.8865C186.346 60.4168 185.592 60.9471 184.811 61.4494C184.392 61.7285 184.001 61.9797 183.583 62.2588C182.746 62.8448 181.908 63.403 181.099 63.9612C180.792 64.1845 180.457 64.3798 180.178 64.6031C179.285 65.2171 178.448 65.8032 177.582 66.3892C177.331 66.5567 177.08 66.7241 176.857 66.8916C175.936 67.5335 175.043 68.1475 174.15 68.8173C173.982 68.9289 173.815 69.0406 173.647 69.1522C172.754 69.7941 171.889 70.4081 171.024 71.0221C170.884 71.1337 170.717 71.2453 170.577 71.357C169.656 72.0268 168.735 72.6966 167.842 73.3385C167.787 73.3943 167.703 73.4501 167.619 73.5059C166.67 74.2036 165.721 74.9014 164.8 75.5712C160.363 78.8644 156.372 82.6041 152.995 86.7067C137.924 105.043 135.301 130.16 145.348 156.646C146.353 159.297 147.441 161.976 148.725 164.655C148.725 164.711 148.781 164.767 148.809 164.823C155.004 176.684 163.851 188.434 174.847 198.62L205.742 142.608L268.788 28.3219C268.257 28.4614 267.699 28.6289 267.169 28.7684H267.225Z" fill="url(#paint39_linear_52_272)"/>
<path d="M480.502 77.7481C457.617 69.515 432.918 65.0217 407.214 65.0217C342.159 65.0217 283.049 93.628 243.223 140.319C224.441 162.311 209.956 188.35 201.137 217.263C216.068 225.105 233.176 229.934 251.847 229.934C258.266 229.934 264.741 229.348 271.16 228.175C288.966 224.882 303.394 218.77 316.623 208.863C325.275 202.388 332.391 195.16 339.955 187.485C347.183 180.173 354.467 172.749 363.175 165.967C378.022 154.385 396.944 144.617 426.388 140.235C432.779 139.287 439.756 138.812 447.124 138.812C459.878 138.812 473.497 140.235 487.535 142.943L480.53 77.7481H480.502Z" fill="url(#paint40_linear_52_272)"/>
</g>
<defs>
<linearGradient id="paint0_linear_52_272" x1="707.288" y1="116.318" x2="0.641965" y2="551.329" gradientUnits="userSpaceOnUse">
<stop offset="0.07" stop-color="#22F4A8"/>
<stop offset="0.44" stop-color="#40BDED"/>
<stop offset="1" stop-color="#9948C9"/>
</linearGradient>
<linearGradient id="paint1_linear_52_272" x1="652.531" y1="299.122" x2="-9.87543" y2="961.505" gradientUnits="userSpaceOnUse">
<stop offset="0.07" stop-color="#22F4A8"/>
<stop offset="0.44" stop-color="#40BDED"/>
<stop offset="1" stop-color="#9948C9"/>
</linearGradient>
<linearGradient id="paint2_linear_52_272" x1="598.779" y1="244.976" x2="21.0149" y2="822.74" gradientUnits="userSpaceOnUse">
<stop offset="0.07" stop-color="#22F4A8"/>
<stop offset="0.44" stop-color="#40BDED"/>
<stop offset="0.87" stop-color="#9948C9"/>
</linearGradient>
<linearGradient id="paint3_linear_52_272" x1="658.727" y1="350.583" x2="-38.1511" y2="1047.49" gradientUnits="userSpaceOnUse">
<stop offset="0.07" stop-color="#22F4A8"/>
<stop offset="0.31" stop-color="#40BDED"/>
<stop offset="0.58" stop-color="#9948C9"/>
</linearGradient>
<linearGradient id="paint4_linear_52_272" x1="526.049" y1="172.219" x2="-136.668" y2="834.936" gradientUnits="userSpaceOnUse">
<stop offset="0.07" stop-color="#22F4A8"/>
<stop offset="0.44" stop-color="#40BDED"/>
<stop offset="1" stop-color="#9948C9"/>
</linearGradient>
<linearGradient id="paint5_linear_52_272" x1="872.814" y1="178.107" x2="210.152" y2="840.769" gradientUnits="userSpaceOnUse">
<stop offset="0.07" stop-color="#22F4A8"/>
<stop offset="0.44" stop-color="#40BDED"/>
<stop offset="1" stop-color="#9948C9"/>
</linearGradient>
<linearGradient id="paint6_linear_52_272" x1="691.352" y1="433.639" x2="28.6901" y2="1096.33" gradientUnits="userSpaceOnUse">
<stop stop-color="#22F4A8"/>
<stop offset="0.35" stop-color="#40BDED"/>
<stop offset="1" stop-color="#9948C9"/>
</linearGradient>
<linearGradient id="paint7_linear_52_272" x1="792.632" y1="438.858" x2="129.943" y2="1101.55" gradientUnits="userSpaceOnUse">
<stop offset="0.07" stop-color="#22F4A8"/>
<stop offset="0.44" stop-color="#40BDED"/>
<stop offset="1" stop-color="#9948C9"/>
</linearGradient>
<linearGradient id="paint8_linear_52_272" x1="804.298" y1="388.008" x2="141.636" y2="1050.67" gradientUnits="userSpaceOnUse">
<stop offset="0.07" stop-color="#22F4A8"/>
<stop offset="0.44" stop-color="#40BDED"/>
<stop offset="1" stop-color="#9948C9"/>
</linearGradient>
<linearGradient id="paint9_linear_52_272" x1="771.589" y1="417.787" x2="108.872" y2="1080.48" gradientUnits="userSpaceOnUse">
<stop offset="0.07" stop-color="#22F4A8"/>
<stop offset="0.57" stop-color="#40BDED"/>
<stop offset="1" stop-color="#9948C9"/>
</linearGradient>
<linearGradient id="paint10_linear_52_272" x1="752.22" y1="398.474" x2="89.5586" y2="1061.14" gradientUnits="userSpaceOnUse">
<stop offset="0.07" stop-color="#22F4A8"/>
<stop offset="0.27" stop-color="#40BDED"/>
<stop offset="1" stop-color="#9948C9"/>
</linearGradient>
<linearGradient id="paint11_linear_52_272" x1="676.169" y1="322.367" x2="13.4798" y2="985.057" gradientUnits="userSpaceOnUse">
<stop offset="0.07" stop-color="#22F4A8"/>
<stop offset="0.36" stop-color="#40BDED"/>
<stop offset="1" stop-color="#9948C9"/>
</linearGradient>
<linearGradient id="paint12_linear_52_272" x1="592.165" y1="260.019" x2="-70.4972" y2="922.681" gradientUnits="userSpaceOnUse">
<stop offset="0.07" stop-color="#22F4A8"/>
<stop offset="0.44" stop-color="#40BDED"/>
<stop offset="1" stop-color="#9948C9"/>
</linearGradient>
<linearGradient id="paint13_linear_52_272" x1="742.563" y1="389.708" x2="80.6231" y2="1051.61" gradientUnits="userSpaceOnUse">
<stop offset="0.07" stop-color="#22F4A8"/>
<stop offset="0.44" stop-color="#40BDED"/>
<stop offset="1" stop-color="#9948C9"/>
</linearGradient>
<linearGradient id="paint14_linear_52_272" x1="729.643" y1="428.727" x2="183.081" y2="975.289" gradientUnits="userSpaceOnUse">
<stop offset="0.07" stop-color="#22F4A8"/>
<stop offset="0.31" stop-color="#40BDED"/>
<stop offset="1" stop-color="#9948C9"/>
</linearGradient>
<linearGradient id="paint15_linear_52_272" x1="867.957" y1="-374.595" x2="326.921" y2="428.364" gradientUnits="userSpaceOnUse">
<stop stop-color="#5CEA5C"/>
<stop offset="0.44" stop-color="#22F4A8"/>
<stop offset="0.59" stop-color="#2FDCC6"/>
<stop offset="0.73" stop-color="#38CADB"/>
<stop offset="0.87" stop-color="#3EC0E8"/>
<stop offset="1" stop-color="#40BDED"/>
</linearGradient>
<linearGradient id="paint16_linear_52_272" x1="1102.53" y1="-456.841" x2="497.415" y2="441.23" gradientUnits="userSpaceOnUse">
<stop stop-color="#5CEA5C"/>
<stop offset="0.44" stop-color="#22F4A8"/>
<stop offset="1" stop-color="#40BDED"/>
</linearGradient>
<linearGradient id="paint17_linear_52_272" x1="894.945" y1="-281.408" x2="604.221" y2="150.059" gradientUnits="userSpaceOnUse">
<stop stop-color="#5CEA5C"/>
<stop offset="0.44" stop-color="#22F4A8"/>
<stop offset="1" stop-color="#40BDED"/>
</linearGradient>
<linearGradient id="paint18_linear_52_272" x1="1005.6" y1="116.429" x2="400.544" y2="1014.44" gradientUnits="userSpaceOnUse">
<stop stop-color="#5CEA5C"/>
<stop offset="0.44" stop-color="#22F4A8"/>
<stop offset="1" stop-color="#40BDED"/>
</linearGradient>
<linearGradient id="paint19_linear_52_272" x1="1048.3" y1="145.175" x2="443.216" y2="1043.22" gradientUnits="userSpaceOnUse">
<stop stop-color="#5CEA5C"/>
<stop offset="0.44" stop-color="#22F4A8"/>
<stop offset="1" stop-color="#40BDED"/>
</linearGradient>
<linearGradient id="paint20_linear_52_272" x1="832.765" y1="-262.625" x2="227.678" y2="635.418" gradientUnits="userSpaceOnUse">
<stop stop-color="#5CEA5C"/>
<stop offset="0.44" stop-color="#22F4A8"/>
<stop offset="1" stop-color="#40BDED"/>
</linearGradient>
<linearGradient id="paint21_linear_52_272" x1="1051.93" y1="-155.345" x2="446.844" y2="742.642" gradientUnits="userSpaceOnUse">
<stop stop-color="#5CEA5C"/>
<stop offset="0.32" stop-color="#22F4A8"/>
<stop offset="1" stop-color="#40BDED"/>
</linearGradient>
<linearGradient id="paint22_linear_52_272" x1="1112.83" y1="-158.554" x2="507.742" y2="739.461" gradientUnits="userSpaceOnUse">
<stop stop-color="#5CEA5C"/>
<stop offset="0.7" stop-color="#22F4A8"/>
<stop offset="1" stop-color="#40BDED"/>
</linearGradient>
<linearGradient id="paint23_linear_52_272" x1="1009.82" y1="34.0711" x2="404.731" y2="932.086" gradientUnits="userSpaceOnUse">
<stop stop-color="#5CEA5C"/>
<stop offset="0.44" stop-color="#22F4A8"/>
<stop offset="1" stop-color="#40BDED"/>
</linearGradient>
<linearGradient id="paint24_linear_52_272" x1="977.945" y1="12.8326" x2="-329.601" y2="1219.52" gradientUnits="userSpaceOnUse">
<stop stop-color="#5CEA5C"/>
<stop offset="0.44" stop-color="#22F4A8"/>
<stop offset="1" stop-color="#40BDED"/>
</linearGradient>
<linearGradient id="paint25_linear_52_272" x1="214.505" y1="198.788" x2="-870.804" y2="1255.27" gradientUnits="userSpaceOnUse">
<stop stop-color="#40BDED"/>
<stop offset="0.45" stop-color="#9948C9"/>
<stop offset="1" stop-color="#DA26DD"/>
</linearGradient>
<linearGradient id="paint26_linear_52_272" x1="701.873" y1="-177.839" x2="-383.409" y2="878.669" gradientUnits="userSpaceOnUse">
<stop stop-color="#40BDED"/>
<stop offset="0.62" stop-color="#9948C9"/>
<stop offset="1" stop-color="#DA26DD"/>
</linearGradient>
<linearGradient id="paint27_linear_52_272" x1="414.471" y1="74.8456" x2="-670.867" y2="1131.35" gradientUnits="userSpaceOnUse">
<stop stop-color="#40BDED"/>
<stop offset="0.45" stop-color="#9948C9"/>
<stop offset="1" stop-color="#DA26DD"/>
</linearGradient>
<linearGradient id="paint28_linear_52_272" x1="832.318" y1="-232.344" x2="-253.02" y2="824.163" gradientUnits="userSpaceOnUse">
<stop stop-color="#40BDED"/>
<stop offset="0.33" stop-color="#9948C9"/>
<stop offset="1" stop-color="#DA26DD"/>
</linearGradient>
<linearGradient id="paint29_linear_52_272" x1="454.659" y1="-11.2248" x2="-630.931" y2="1045.53" gradientUnits="userSpaceOnUse">
<stop stop-color="#40BDED"/>
<stop offset="0.29" stop-color="#9948C9"/>
<stop offset="1" stop-color="#DA26DD"/>
</linearGradient>
<linearGradient id="paint30_linear_52_272" x1="886.907" y1="-459.018" x2="-198.43" y2="597.517" gradientUnits="userSpaceOnUse">
<stop stop-color="#40BDED"/>
<stop offset="0.45" stop-color="#9948C9"/>
<stop offset="1" stop-color="#DA26DD"/>
</linearGradient>
<linearGradient id="paint31_linear_52_272" x1="784.734" y1="-435.854" x2="-401.912" y2="719.283" gradientUnits="userSpaceOnUse">
<stop stop-color="#40BDED"/>
<stop offset="0.45" stop-color="#9948C9"/>
<stop offset="1" stop-color="#DA26DD"/>
</linearGradient>
<linearGradient id="paint32_linear_52_272" x1="523.984" y1="60.1936" x2="161.088" y2="413.46" gradientUnits="userSpaceOnUse">
<stop stop-color="#40BDED"/>
<stop offset="0.14" stop-color="#9948C9"/>
<stop offset="1" stop-color="#DA26DD"/>
</linearGradient>
<linearGradient id="paint33_linear_52_272" x1="1137.16" y1="-19.7647" x2="51.8262" y2="1036.77" gradientUnits="userSpaceOnUse">
<stop stop-color="#40BDED"/>
<stop offset="0.33" stop-color="#9948C9"/>
<stop offset="1" stop-color="#DA26DD"/>
</linearGradient>
<linearGradient id="paint34_linear_52_272" x1="773.599" y1="-435.101" x2="-82.0234" y2="397.804" gradientUnits="userSpaceOnUse">
<stop stop-color="#40BDED"/>
<stop offset="0.45" stop-color="#9948C9"/>
<stop offset="1" stop-color="#DA26DD"/>
</linearGradient>
<linearGradient id="paint35_linear_52_272" x1="1403.77" y1="-362.342" x2="318.352" y2="694.247" gradientUnits="userSpaceOnUse">
<stop stop-color="#40BDED"/>
<stop offset="0.45" stop-color="#9948C9"/>
<stop offset="1" stop-color="#DA26DD"/>
</linearGradient>
<linearGradient id="paint36_linear_52_272" x1="541.678" y1="284.579" x2="3.82339" y2="913.666" gradientUnits="userSpaceOnUse">
<stop offset="0.07" stop-color="#22F4A8"/>
<stop offset="0.44" stop-color="#40BDED"/>
<stop offset="1" stop-color="#9948C9"/>
</linearGradient>
<linearGradient id="paint37_linear_52_272" x1="609.85" y1="-282.733" x2="250.194" y2="234.727" gradientUnits="userSpaceOnUse">
<stop stop-color="#5CEA5C"/>
<stop offset="0.21" stop-color="#22F4A8"/>
<stop offset="1" stop-color="#40BDED"/>
</linearGradient>
<linearGradient id="paint38_linear_52_272" x1="681.919" y1="-101.676" x2="520.691" y2="137.64" gradientUnits="userSpaceOnUse">
<stop stop-color="#5CEA5C"/>
<stop offset="0.44" stop-color="#22F4A8"/>
<stop offset="1" stop-color="#40BDED"/>
</linearGradient>
<linearGradient id="paint39_linear_52_272" x1="450.64" y1="-283.054" x2="-28.5226" y2="428.113" gradientUnits="userSpaceOnUse">
<stop stop-color="#5CEA5C"/>
<stop offset="0.23" stop-color="#22F4A8"/>
<stop offset="0.55" stop-color="#40BDED"/>
</linearGradient>
<linearGradient id="paint40_linear_52_272" x1="897.736" y1="-649.69" x2="292.65" y2="248.325" gradientUnits="userSpaceOnUse">
<stop stop-color="#5CEA5C"/>
<stop offset="0.44" stop-color="#22F4A8"/>
<stop offset="1" stop-color="#40BDED"/>
</linearGradient>
<clipPath id="clip0_52_272">
<rect width="800" height="799.414" fill="white" transform="translate(0 0.692383)"/>
</clipPath>
</defs>
</svg>
