<svg width="800" height="798" viewBox="0 0 800 798" fill="none" xmlns="http://www.w3.org/2000/svg">
<g clip-path="url(#clip0_55_512)">
<path d="M30.4907 530.968C28.8691 527.688 27.453 525.091 26.2426 523.018C26.9963 525.456 28.0012 528.485 29.3944 532.198C30.4679 535.091 31.6098 537.915 32.729 540.785C33.2543 540.01 33.7568 539.259 34.3049 538.484C33.0259 536.002 31.724 533.496 30.4679 530.968H30.4907Z" fill="#5D5D5D"/>
<path d="M230.953 723.62L235.841 723.665C231.067 721.912 226.248 719.998 221.429 717.948L230.953 723.62Z" fill="#5D5D5D"/>
<path d="M171.319 723.073L223.462 723.552L91.4266 644.833C114.609 675.013 141.491 701.23 171.319 723.073Z" fill="#63B3D2"/>
<path d="M176.664 726.9C217.295 755.577 263.203 776.236 312.742 787.579L312.673 787.032C317.309 786.395 321.695 785.597 325.897 784.618L229.88 727.401L176.641 726.9H176.664Z" fill="#63B3D2"/>
<path d="M36.292 542.243C35.6525 543.154 35.0359 544.088 34.4192 545.022C48.1001 578.527 65.3211 609.277 85.534 636.929L143.044 671.209C102.892 639.708 65.3667 596.977 36.292 542.243Z" fill="#63B3D2"/>
<path d="M399.623 711.183C391.903 719.816 381.443 726.604 368.676 731.25C354.881 736.808 338.185 739.792 319.182 739.792C297.051 739.792 272.521 735.76 247.055 727.538L237.371 727.447L331.082 783.32C334.074 782.5 336.952 781.611 339.715 780.632C374.888 767.057 392.063 740.111 399.623 711.183Z" fill="#63B3D2"/>
<path d="M618.197 434.619L543.786 554.998C543.832 556.182 543.878 557.344 543.923 558.506L617.238 576.705C617.421 575.156 617.626 573.607 617.786 572.058C623.656 515.434 622.674 470.38 618.22 434.619H618.197Z" fill="#63B3D2"/>
<path d="M465.698 751.112C446.65 769.744 424.747 785.506 400.719 797.67C401.633 797.67 402.547 797.692 403.46 797.692C404.694 797.692 405.927 797.692 407.183 797.692C420.773 797.578 437.445 794.39 455.42 787.966C465.355 784.254 475.633 779.584 486.002 773.867L465.721 751.135L465.698 751.112Z" fill="#63B3D2"/>
<path d="M489.337 771.954C545.91 739.701 603.854 677.518 616.759 580.486L543.969 562.424C543.969 563.449 543.992 564.451 543.992 565.476C543.992 636.747 515.077 701.389 468.37 748.425L489.337 771.931V771.954Z" fill="#63B3D2"/>
<path d="M394.439 796.553C419.973 784.254 443.201 767.899 463.208 748.288L440.232 722.504L394.461 796.553H394.439Z" fill="#63B3D2"/>
<path d="M415.36 694.624C410.038 730.476 392.452 772.409 342.022 789.834L349.193 794.116C362.418 795.87 375.847 796.986 389.46 797.442L437.605 719.588L415.36 694.624Z" fill="#63B3D2"/>
<path d="M412.642 622.306L413.098 622.214C413.281 622.989 417.415 641.302 417.415 666.129C417.415 673.282 417.05 681.276 416.022 689.704L439.661 716.24L535.975 560.465L536.112 560.26L344.466 493.02C344.466 493.02 344.626 493.225 344.717 493.317C381.42 538.211 404.305 581.875 412.664 622.306H412.642Z" fill="#63B3D2"/>
<path d="M539.949 553.996C534.102 422.524 428.538 316.495 297.028 309.434C292.392 319.638 289.285 330.344 287.801 341.596C280.172 399.359 315.231 455.734 340.012 487.44L538.145 556.957L539.972 553.996H539.949Z" fill="#63B3D2"/>
<path d="M335.513 792.066C336.814 792.294 338.139 792.476 339.441 792.681L337.408 791.474C336.792 791.679 336.152 791.861 335.513 792.066Z" fill="#5D5D5D"/>
<path d="M540.178 561.467L539.835 561.376L442.287 719.133L465.858 745.6C511.788 699.248 540.223 635.608 540.223 565.453C540.223 564.109 540.2 562.788 540.178 561.444V561.467Z" fill="#63B3D2"/>
<path d="M585.788 158.875C561.236 122.727 525.926 94.5736 484.472 78.7888L491.415 143.112C513.798 147.759 537.163 155.595 559.797 166.004L585.788 158.897V158.875Z" fill="#33D563"/>
<path d="M696.697 283.991C696.56 283.627 696.446 283.24 696.309 282.875C695.875 281.6 695.418 280.347 694.984 279.094C694.39 277.363 693.773 275.655 693.157 273.946C692.677 272.648 692.22 271.35 691.741 270.074C691.124 268.434 690.53 266.794 689.914 265.154C689.434 263.856 688.931 262.58 688.452 261.282C687.835 259.665 687.218 258.071 686.579 256.476C686.099 255.201 685.597 253.948 685.094 252.695C684.455 251.078 683.815 249.483 683.153 247.889C682.65 246.682 682.171 245.452 681.668 244.245C680.983 242.582 680.275 240.919 679.567 239.279C679.11 238.163 678.631 237.07 678.151 235.954C677.283 233.949 676.415 231.967 675.547 229.986C675.228 229.257 674.908 228.528 674.588 227.822C673.4 225.18 672.213 222.583 671.002 219.987C670.523 218.984 670.066 217.982 669.586 216.98C668.833 215.363 668.056 213.745 667.28 212.151C666.731 211.012 666.183 209.896 665.635 208.78C665.247 207.983 664.859 207.208 664.47 206.411C664.196 205.864 663.899 205.295 663.625 204.748C662.917 203.359 662.209 201.992 661.501 200.626C660.907 199.487 660.291 198.325 659.697 197.186C658.989 195.842 658.258 194.521 657.55 193.177C656.933 192.039 656.317 190.922 655.7 189.784C654.969 188.462 654.238 187.164 653.507 185.843C652.891 184.75 652.274 183.634 651.634 182.54C650.881 181.219 650.104 179.898 649.328 178.6C648.711 177.552 648.117 176.504 647.5 175.479C646.655 174.067 645.81 172.655 644.942 171.265C644.394 170.354 643.846 169.443 643.298 168.555C641.928 166.346 640.534 164.136 639.141 161.949C638.639 161.175 638.136 160.401 637.634 159.626C636.697 158.191 635.761 156.733 634.802 155.321C634.162 154.365 633.523 153.431 632.883 152.497C632.381 151.745 631.878 151.016 631.376 150.287L591.704 161.152C598.418 171.516 604.197 182.404 609.039 193.701C637.542 213.085 671.117 242.377 696.743 283.991H696.697Z" fill="#33D563"/>
<path d="M565.05 168.464C578.183 174.773 591.018 181.948 603.215 189.875C598.807 180.24 593.713 170.992 587.981 162.2L565.05 168.464Z" fill="#52CC52"/>
<path d="M759.072 593.515C762.475 587.183 765.284 582.058 768.002 578.368C787.301 530.148 797.785 480.538 799.657 431.225L761.173 364.874L759.072 593.515Z" fill="#33D563"/>
<path d="M644.349 718.29C639.895 722.777 637.657 726.353 636.629 728.904C638.296 728.403 640.786 727.31 644.143 724.85C703.092 681.869 731.824 641.234 748.246 613.126L719.468 605.974C703.663 646.472 678.882 683.509 644.349 718.29Z" fill="#33D563"/>
<path d="M675.342 206.525C677.946 211.832 680.526 217.185 683.039 222.697L712.936 274.22L749.388 215.226C742.604 202.835 735.204 190.649 727.119 178.736C651.429 67.1267 533.92 0.479736 412.802 0.479736C473.874 6.81188 528.187 30.0449 574.597 69.7917C614.041 103.548 647.706 149.285 675.342 206.502V206.525Z" fill="#33D563"/>
<path d="M751.466 219.075L715.083 277.91L757.519 351.048L758.592 233.061C757.93 231.671 757.199 230.282 756.514 228.893C754.869 225.613 753.179 222.333 751.443 219.075H751.466Z" fill="#33D563"/>
<path d="M799.886 424.096C801.211 361.344 788.557 299.207 762.292 241.147L761.219 357.472L799.886 424.096Z" fill="#33D563"/>
<path d="M712.822 281.554L708.756 288.137C716.613 311.37 723.739 335.97 730.088 361.913L732.189 370.546L732.007 370.477C734.314 380.91 736.026 391.524 737.123 402.138C741.873 448.399 745.573 508.896 731.733 566.774C728.809 578.96 725.132 590.827 720.793 602.421L750.187 609.71C752.014 606.498 753.681 603.469 755.212 600.644L757.427 358.451L712.799 281.554H712.822Z" fill="#33D563"/>
<path d="M707.18 283.513L710.675 277.864L695.144 251.101C699.323 261.578 703.32 272.398 707.157 283.513H707.18Z" fill="#5D5D5D"/>
<path d="M204.277 272.261C196.466 265.336 188.883 260.439 181.117 257.319C173.923 254.426 166.477 253.037 158.369 253.037C145.67 253.037 131.259 256.43 113.056 263.674C110.246 264.813 107.414 265.769 104.582 266.612C97.5019 268.708 90.376 269.915 82.9988 270.256C81.5142 270.325 80.0525 270.37 78.5451 270.37C65.7778 270.37 54.0383 267.819 43.692 265.587L40.3346 264.858C39.5809 264.699 38.8043 264.471 38.0506 264.198C37.7994 264.106 37.5481 263.993 37.2969 263.901C36.7716 263.697 36.2463 263.514 35.7438 263.264C35.4469 263.127 35.15 262.99 34.8531 262.831C34.3734 262.58 33.9167 262.33 33.437 262.079C33.1401 261.897 32.8432 261.715 32.5463 261.533C32.0895 261.259 31.6327 260.963 31.1987 260.644C30.9247 260.439 30.6278 260.234 30.3537 260.029C29.8969 259.688 29.4858 259.346 29.0518 258.982C28.8006 258.777 28.5494 258.572 28.2981 258.344C27.8185 257.911 27.3617 257.455 26.9049 257C26.745 256.818 26.5395 256.658 26.3796 256.476C25.7858 255.861 25.2376 255.223 24.7123 254.54C18.1802 269.71 12.9043 284.06 8.86169 297.635C19.8932 332.53 65.8463 358.793 120.707 358.793C170.04 358.793 212.156 337.587 228.19 307.953C222.868 293.899 214.783 281.622 204.231 272.284L204.277 272.261Z" fill="#EB49D1"/>
<path d="M199.229 442.09L197.767 441.589L193.999 440.268C193.999 440.268 193.999 440.268 194.045 440.222L0 372.14C1.59877 385.26 5.27593 396.991 11.1 407.218C34.2136 447.739 75.8729 472.931 119.862 472.931C135.073 472.931 150.398 470.015 165.381 464.23C168.327 463.091 171.182 461.815 173.991 460.403C174.06 460.335 174.129 460.289 174.174 460.221C179.199 457.67 183.972 454.686 188.495 451.315C192.263 448.513 195.849 445.415 199.229 442.09Z" fill="#EB49D1"/>
<path d="M232.712 313.534C214.897 342.848 172.69 363.508 123.585 363.508C69.6834 363.508 24.1185 338.612 9.98085 304.696C3.35739 328.817 0.822204 350.251 2.42097 368.951L199.663 438.172L203.546 439.516L205.145 440.086C210.443 434.437 215.194 428.15 219.351 421.317C222.48 416.169 225.266 410.725 227.687 405.008C231.501 395.966 234.402 386.262 236.275 376.012C240.295 353.941 238.856 332.325 232.712 313.556V313.534Z" fill="#EB49D1"/>
<path d="M443.018 211.832C428.629 201.901 413.989 192.471 399.144 183.702C390.51 178.6 381.763 173.976 372.924 169.762C362.989 176.869 354.926 185.023 346.681 193.36C339.213 200.922 331.493 208.734 322.289 215.613C310.914 224.109 298.741 230.031 284.649 233.904C294.721 235.566 305.205 237.935 316.122 240.965C317.584 240.509 319.045 240.031 320.507 239.598C334.234 235.544 348.645 232.491 364.564 230.282C364.724 230.259 364.884 230.236 365.067 230.214C388.569 217.914 412.368 211.65 436.121 211.65C438.428 211.65 440.711 211.695 442.995 211.832H443.018Z" fill="#EB49D1"/>
<path d="M195.758 240.463C200.485 238.664 203.637 236.933 209.027 236.204C210.146 235.885 211.288 235.566 212.43 235.27C209.507 232.628 206.332 230.145 202.952 227.776C201.467 227.093 200.006 226.41 198.544 225.658C197.973 227.959 196.374 234.45 195.758 240.441V240.463Z" fill="#EB49D1"/>
<path d="M171.296 212.151L153.801 243.766C155.354 243.675 156.862 243.607 158.369 243.607C159.488 243.607 160.585 243.63 161.704 243.675C162.046 243.675 162.412 243.721 162.754 243.744C163.485 243.789 164.216 243.835 164.97 243.903C165.404 243.949 165.815 243.994 166.226 244.04C166.888 244.108 167.528 244.176 168.19 244.267C168.624 244.336 169.058 244.404 169.515 244.472C170.132 244.564 170.748 244.677 171.365 244.769C171.799 244.86 172.256 244.951 172.69 245.019C173.306 245.133 173.9 245.27 174.494 245.406C174.928 245.497 175.385 245.611 175.819 245.725C176.413 245.862 177.006 246.021 177.6 246.203C178.034 246.34 178.468 246.454 178.902 246.591C179.496 246.773 180.09 246.955 180.684 247.16C181.117 247.297 181.529 247.433 181.94 247.593C182.1 247.638 182.259 247.684 182.396 247.752C189.363 243.584 189.522 243.197 190.71 242.491C190.71 242.491 193.222 229.211 195.027 223.859C191.235 221.786 187.558 219.531 184.018 217.139C179.953 215.317 175.705 213.632 171.296 212.174V212.151Z" fill="#EB49D1"/>
<path d="M29.463 242.536L29.9426 242.718C29.6457 243.88 30.0797 245.497 31.176 247.297C33.5513 251.146 38.4618 254.813 42.3445 255.656L45.7248 256.385C54.792 258.344 64.1334 260.371 74.2056 260.849C75.6445 260.918 77.0834 260.94 78.568 260.94C89.2797 260.94 99.4205 258.959 109.561 254.927C124.841 248.846 137.7 245.338 149.302 244.131L167.642 210.967C153.322 206.616 137.471 204.156 120.775 204.156C87.6581 204.156 57.8069 213.723 36.9087 228.961C34.442 232.605 32.318 236.227 30.6735 239.78C30.2396 240.691 29.8513 241.602 29.4859 242.536H29.463Z" fill="#EB49D1"/>
<path d="M339.532 246.067C344.9 242.195 350.29 238.687 355.703 235.475C344.077 237.411 333.206 239.871 322.768 242.878C327.587 244.313 332.498 245.907 337.477 247.593C338.162 247.092 338.824 246.568 339.51 246.067H339.532Z" fill="#EB49D1"/>
<path d="M630.394 429.95C638.685 437.876 646.747 445.917 654.512 454.094C656.933 456.645 659.468 459.401 661.981 462.157C668.581 469.355 679.453 481.222 683.587 482.429C684.181 481.768 684.318 480.88 683.336 477.759C681.486 471.997 676.256 462.111 666.343 445.689C657.573 431.157 648.071 416.784 637.976 402.639L628.635 417.741C629.275 421.681 629.846 425.758 630.394 429.95Z" fill="#EB49D1"/>
<path d="M145.374 156.027C145.259 156.073 145.145 156.096 145.031 156.141C145.602 157.508 146.196 158.852 146.835 160.218C147.452 161.539 148.114 162.838 148.822 164.159C148.8 164.113 148.754 164.045 148.731 163.999C147.475 161.335 146.379 158.67 145.374 156.027Z" fill="#5D5D5D"/>
<path d="M138.293 164.25C137.54 162.633 136.832 161.016 136.169 159.398C123.63 164.204 112.69 169.352 103.554 174.204C78.4081 187.597 57.4186 203.86 43.6692 220.078C64.3618 207.823 91.3124 200.375 120.753 200.375C138.111 200.375 154.601 202.972 169.469 207.618L170.2 206.297C156.2 193.815 145.305 178.987 138.293 164.227V164.25Z" fill="#EB49D1"/>
<path d="M635.578 399.314C630.599 392.435 625.46 385.625 620.185 378.86C622.948 388.791 625.506 399.815 627.676 412.115L635.578 399.314Z" fill="#EB49D1"/>
<path d="M615.434 416.033C610.569 387.811 603.557 366.309 596.637 350.001C589.876 334.079 583.207 323.123 578.708 315.743C560.642 286.087 518.274 238.915 462.592 225.795C458.412 224.815 454.164 224.018 449.824 223.449C444.549 223.426 418.786 218.825 385.052 231.375C372.741 236.295 360.476 243.037 348.28 251.488C347.206 252.24 346.11 252.968 345.014 253.766C323.864 268.981 308.402 286.406 298.718 305.812C429.634 313.602 534.856 418.083 543.375 548.438L617.352 428.765C616.759 424.392 616.096 420.155 615.388 416.078L615.434 416.033Z" fill="#63B3D2"/>
<path d="M472.573 26.0133C471.339 25.6261 470.106 25.2161 468.873 24.8517C467.936 24.5556 467 24.2822 466.041 23.9861C464.784 23.6217 463.505 23.2573 462.226 22.8928C461.313 22.6423 460.376 22.3689 459.463 22.1184C458.115 21.7539 456.745 21.4123 455.397 21.0706C454.529 20.8428 453.684 20.6151 452.839 20.4101C451.218 20.0229 449.596 19.6584 447.997 19.2712C447.381 19.1345 446.764 18.9979 446.147 18.8384C443.909 18.3601 441.671 17.8818 439.41 17.449C438.839 17.3351 438.245 17.244 437.674 17.1301C435.984 16.8112 434.294 16.4923 432.581 16.219C431.736 16.0823 430.868 15.9457 430.023 15.809C428.584 15.5812 427.122 15.3535 425.683 15.1485C424.747 15.0118 423.787 14.8751 422.851 14.7613C421.458 14.579 420.087 14.3968 418.717 14.2146C417.735 14.1007 416.753 13.9868 415.748 13.8729C414.378 13.7135 413.007 13.5768 411.637 13.4402C410.632 13.349 409.65 13.2579 408.645 13.1668C407.252 13.0529 405.858 12.9391 404.465 12.8252C403.483 12.7568 402.501 12.6885 401.519 12.6202C400.057 12.5291 398.595 12.4379 397.134 12.3696C396.197 12.3241 395.261 12.2557 394.302 12.2329C392.703 12.1646 391.081 12.1191 389.46 12.0735C388.66 12.0507 387.861 12.0052 387.061 12.0052C384.64 11.9596 382.197 11.9141 379.753 11.9141C377.309 11.9141 375.002 11.9368 372.65 11.9824C371.645 11.9824 370.64 12.0507 369.635 12.0735C368.287 12.1191 366.94 12.1418 365.592 12.1874C364.724 12.2329 363.879 12.2785 363.034 12.3241C361.55 12.3924 360.065 12.4607 358.581 12.5518C357.736 12.5974 356.913 12.6657 356.068 12.7341C354.584 12.8252 353.099 12.9163 351.615 13.0302C350.564 13.1213 349.513 13.2124 348.463 13.3035C347.207 13.4174 345.95 13.5085 344.694 13.6224C343.598 13.7363 342.502 13.8502 341.428 13.964C340.24 14.0779 339.03 14.1918 337.842 14.3285C336.792 14.4424 335.741 14.579 334.69 14.7157C333.457 14.8524 332.247 15.0118 331.036 15.1712C330.031 15.3079 329.026 15.4446 328.021 15.5812C326.788 15.7635 325.532 15.9229 324.321 16.1051C323.339 16.2418 322.38 16.4012 321.398 16.5607C320.165 16.7657 318.908 16.9479 317.675 17.1529C316.67 17.3351 315.665 17.4946 314.66 17.6768C313.473 17.8818 312.285 18.064 311.12 18.2918C310.115 18.474 309.133 18.6562 308.151 18.8612C306.963 19.089 305.776 19.294 304.588 19.5217C303.652 19.704 302.738 19.909 301.802 20.0912C300.591 20.3417 299.381 20.5923 298.147 20.8428C297.279 21.0251 296.411 21.2301 295.543 21.4123C294.31 21.6856 293.054 21.9589 291.798 22.2323C290.953 22.4145 290.131 22.6195 289.285 22.8245C288.029 23.1206 286.773 23.3939 285.54 23.7128C284.672 23.9178 283.827 24.1456 282.982 24.3506C281.771 24.6467 280.561 24.9428 279.373 25.2617C278.505 25.4895 277.66 25.7172 276.792 25.945C275.856 26.1956 274.919 26.4461 273.983 26.6967L210.466 141.518L177.829 200.512C183.927 205.796 190.619 210.602 197.859 214.679C206.401 187.346 220.333 161.836 238.696 139.787C248.106 128.489 258.658 118.08 270.237 108.832C309.476 77.4677 356.868 60.8857 407.274 60.8857C432.421 60.8857 456.996 65.1223 480.133 73.2311L474.971 26.8105C474.194 26.56 473.418 26.3094 472.641 26.0361L472.573 26.0133Z" fill="#33D563"/>
<path d="M628.292 145.937C627.47 144.775 626.671 143.636 625.849 142.52C625.141 141.541 624.433 140.561 623.725 139.605C622.925 138.489 622.103 137.395 621.281 136.302C620.55 135.345 619.842 134.389 619.111 133.432C618.289 132.361 617.444 131.291 616.622 130.22C615.891 129.287 615.16 128.375 614.429 127.442C613.584 126.371 612.716 125.323 611.848 124.275C611.117 123.387 610.409 122.499 609.678 121.611C608.765 120.517 607.851 119.424 606.915 118.353C606.23 117.556 605.544 116.736 604.859 115.939C603.717 114.641 602.575 113.342 601.433 112.044C600.748 111.292 600.086 110.518 599.401 109.766C597.984 108.217 596.568 106.668 595.152 105.165C594.467 104.436 593.782 103.73 593.097 103.024C592.115 101.976 591.11 100.951 590.128 99.9263C589.374 99.1519 588.62 98.4002 587.844 97.6486C586.907 96.7147 585.971 95.758 585.012 94.8469C584.235 94.0725 583.436 93.3209 582.636 92.5692C581.7 91.6809 580.763 90.7925 579.827 89.9042C579.028 89.1526 578.205 88.4009 577.406 87.672C576.47 86.8065 575.51 85.9637 574.551 85.0982C573.729 84.3693 572.93 83.6404 572.107 82.9115C571.125 82.0688 570.166 81.226 569.184 80.406C568.384 79.7227 567.562 79.0166 566.763 78.3333C565.735 77.4905 564.73 76.6477 563.679 75.805C562.903 75.1672 562.126 74.5294 561.327 73.8916C560.185 72.9805 559.02 72.0922 557.855 71.1811C557.193 70.6572 556.531 70.1334 555.846 69.6323C554.041 68.2656 552.237 66.9217 550.41 65.6006C549.793 65.1451 549.176 64.7351 548.56 64.2795C547.304 63.3912 546.047 62.4801 544.791 61.6146C543.992 61.0679 543.192 60.544 542.416 60.0201C541.297 59.2685 540.2 58.5168 539.081 57.8107C538.236 57.2641 537.391 56.7174 536.546 56.1707C535.473 55.4874 534.399 54.8041 533.303 54.1208C532.435 53.5741 531.544 53.0502 530.676 52.5036C529.603 51.8658 528.529 51.228 527.456 50.5903C526.565 50.0664 525.675 49.5653 524.784 49.0414C523.687 48.4036 522.591 47.8114 521.495 47.1736C520.604 46.6953 519.736 46.1942 518.845 45.7159C517.704 45.1009 516.562 44.5087 515.42 43.8937C514.552 43.4381 513.707 43.0054 512.839 42.5498C511.605 41.912 510.349 41.297 509.093 40.682C508.316 40.2948 507.563 39.9076 506.786 39.5432C505.073 38.7232 503.36 37.926 501.647 37.1515C501.236 36.9693 500.825 36.7643 500.391 36.5821C498.45 35.7166 496.486 34.8738 494.521 34.031C493.768 33.7121 493.014 33.416 492.26 33.1199C490.913 32.5733 489.588 32.0266 488.241 31.5027C487.373 31.161 486.505 30.8422 485.637 30.5005C484.404 30.0222 483.147 29.5666 481.891 29.1111C480.978 28.7922 480.064 28.4733 479.15 28.1544L484.084 74.575C511.742 84.8704 537.231 100.769 559.066 121.656C570.623 132.703 580.809 144.821 589.557 157.804L629.138 146.985C628.886 146.62 628.635 146.256 628.384 145.914L628.292 145.937Z" fill="#33D563"/>
<path d="M267.222 28.4961C266.469 28.7011 265.715 28.9288 264.938 29.1566C263.728 29.4983 262.517 29.8627 261.307 30.2044C260.599 30.4094 259.891 30.6371 259.183 30.8649C257.95 31.2294 256.716 31.6166 255.506 32.0038C254.775 32.2316 254.067 32.4593 253.359 32.6871C252.171 33.0743 250.984 33.4388 249.796 33.826C249.156 34.031 248.517 34.236 247.877 34.4638C246.644 34.8738 245.411 35.2838 244.2 35.6937C243.606 35.8987 243.035 36.1037 242.442 36.286C241.185 36.7187 239.929 37.1515 238.719 37.5843C238.171 37.7665 237.645 37.9715 237.097 38.1765C235.841 38.6093 234.562 39.0648 233.329 39.5204C232.826 39.7026 232.324 39.8848 231.821 40.0898C230.565 40.5454 229.309 41.0009 228.075 41.4792C227.573 41.6615 227.093 41.8664 226.614 42.0487C225.38 42.527 224.147 42.9825 222.937 43.4609C222.503 43.6203 222.091 43.8025 221.68 43.962C220.424 44.4631 219.145 44.9414 217.912 45.4653C217.615 45.5792 217.295 45.7158 216.975 45.8525C215.651 46.3992 214.326 46.9231 213.001 47.4697C212.75 47.5608 212.499 47.6747 212.225 47.7886C210.877 48.358 209.53 48.9047 208.205 49.4741C208.022 49.5425 207.862 49.6336 207.68 49.7019C206.287 50.2941 204.916 50.8863 203.546 51.4786C203.477 51.5013 203.432 51.5241 203.363 51.5469C198.955 53.4602 194.73 55.3735 190.71 57.264C190.025 57.6968 189.362 58.1296 188.7 58.5624C188.198 58.8812 187.65 59.2229 187.147 59.5646C186.348 60.0885 185.571 60.6123 184.795 61.1134C184.383 61.3868 183.972 61.6601 183.561 61.9334C182.716 62.5029 181.894 63.0723 181.049 63.6417C180.752 63.8467 180.432 64.0517 180.135 64.2795C179.245 64.8717 178.399 65.4867 177.554 66.0789C177.303 66.2384 177.075 66.4206 176.824 66.58C175.91 67.2178 175.019 67.8556 174.128 68.4934C173.969 68.6072 173.786 68.7211 173.626 68.835C172.735 69.4728 171.867 70.0878 170.999 70.7255C170.862 70.8394 170.703 70.9305 170.566 71.0444C169.629 71.705 168.738 72.3883 167.825 73.0261C167.756 73.0716 167.688 73.1172 167.619 73.1855C166.66 73.8916 165.724 74.5749 164.81 75.2355C160.356 78.4927 156.382 82.251 153.002 86.3281C137.928 104.596 135.301 129.674 145.351 156.073C146.356 158.715 147.452 161.357 148.708 164.045C148.708 164.091 148.777 164.159 148.799 164.204C154.989 176.049 163.828 187.756 174.837 197.915L205.738 142.042L268.775 28.0861C268.25 28.2227 267.702 28.3822 267.177 28.5416L267.222 28.4961Z" fill="#33D563"/>
<path d="M480.498 77.3083C457.613 69.1084 432.923 64.6212 407.206 64.6212C342.159 64.6212 283.073 93.1614 243.218 139.719C224.444 161.653 209.964 187.597 201.125 216.456C216.062 224.269 233.169 229.12 251.851 229.12C258.269 229.12 264.756 228.528 271.151 227.344C288.943 224.087 303.377 217.959 316.602 208.074C325.235 201.628 332.361 194.407 339.921 186.754C347.138 179.443 354.447 172.063 363.148 165.298C377.994 153.75 396.905 144.001 426.368 139.628C432.763 138.671 439.752 138.193 447.084 138.193C459.851 138.193 473.463 139.628 487.533 142.315L480.498 77.3083Z" fill="#33D563"/>
</g>
<defs>
<clipPath id="clip0_55_512">
<rect width="800" height="797.213" fill="white" transform="translate(0 0.479736)"/>
</clipPath>
</defs>
</svg>
