<svg xmlns="http://www.w3.org/2000/svg" xmlns:xlink="http://www.w3.org/1999/xlink" width="500" zoomAndPan="magnify" viewBox="0 0 375 374.999991" height="500" preserveAspectRatio="xMidYMid meet" version="1.0"><defs><clipPath id="675c6b4cd5"><path d="M 129 230.9375 L 136 230.9375 L 136 251 L 129 251 Z M 129 230.9375 " clip-rule="nonzero"/></clipPath></defs><path fill="#393e46" d="M 182.941406 105.097656 C 174.820312 105.894531 167.371094 108.066406 162.960938 110.957031 C 154.113281 116.695312 147.097656 127.253906 144.976562 137.980469 C 144.398438 140.824219 143.914062 145.355469 144.179688 145.355469 C 144.398438 145.355469 163.730469 150.539062 168.574219 151.886719 C 170.960938 152.5625 173.109375 153.285156 173.324219 153.503906 C 173.566406 153.746094 175.035156 156.78125 176.652344 160.277344 C 178.242188 163.796875 179.566406 166.6875 179.617188 166.714844 C 179.664062 166.761719 181.449219 167.339844 183.59375 167.992188 L 187.5 169.171875 L 191.402344 167.992188 C 193.550781 167.339844 195.332031 166.761719 195.382812 166.714844 C 195.429688 166.6875 196.753906 163.796875 198.347656 160.277344 C 199.960938 156.78125 201.433594 153.746094 201.671875 153.503906 C 201.890625 153.285156 204.035156 152.5625 206.421875 151.886719 C 211.265625 150.539062 230.601562 145.355469 230.816406 145.355469 C 231.082031 145.355469 230.601562 140.824219 230.019531 137.980469 C 227.828125 126.820312 220.402344 116.019531 211.074219 110.355469 C 205.023438 106.667969 191.957031 104.230469 182.941406 105.097656 Z M 182.941406 105.097656 " fill-opacity="1" fill-rule="nonzero"/><path fill="#393e46" d="M 143.769531 149.308594 C 143.820312 149.453125 146.785156 159.554688 150.375 171.75 L 156.859375 193.929688 L 165.707031 202.65625 L 174.554688 211.40625 L 187.015625 211.40625 L 187.015625 171.195312 L 181.664062 169.703125 C 170.214844 166.519531 160.019531 163.628906 157.4375 162.808594 L 154.738281 161.988281 L 151.941406 156.371094 C 148.808594 150.128906 149.4375 150.804688 145.628906 149.621094 C 144.445312 149.261719 143.699219 149.140625 143.769531 149.308594 Z M 143.769531 149.308594 " fill-opacity="1" fill-rule="nonzero"/><path fill="#393e46" d="M 228.621094 149.839844 C 227.175781 150.296875 225.949219 150.683594 225.921875 150.730469 C 225.898438 150.753906 224.597656 153.3125 223.054688 156.371094 L 220.257812 161.988281 L 217.558594 162.808594 C 214.980469 163.628906 204.78125 166.519531 193.355469 169.703125 L 187.980469 171.195312 L 187.980469 211.40625 L 200.445312 211.40625 L 209.289062 202.65625 L 218.136719 193.929688 L 224.621094 171.75 C 228.214844 159.554688 231.179688 149.429688 231.25 149.261719 C 231.296875 149.117188 231.324219 148.972656 231.296875 148.996094 C 231.273438 148.996094 230.070312 149.382812 228.621094 149.839844 Z M 228.621094 149.839844 " fill-opacity="1" fill-rule="nonzero"/><path fill="#393e46" d="M 143.652344 166.351562 L 143.625 176.835938 L 156.546875 197.738281 L 169.46875 218.636719 L 205.53125 218.636719 L 218.449219 197.738281 L 231.371094 176.835938 L 231.347656 166.351562 L 231.347656 155.839844 L 225.585938 175.367188 L 219.824219 194.867188 L 210.59375 204.101562 L 201.359375 213.332031 L 173.636719 213.332031 L 155.171875 194.867188 L 149.410156 175.367188 L 143.652344 155.839844 Z M 143.652344 166.351562 " fill-opacity="1" fill-rule="nonzero"/><g clip-path="url(#675c6b4cd5)"><path fill="#393e46" d="M 135.898438 231.90625 C 135.878906 234.4375 135.855469 234.792969 135.777344 234.484375 C 135.308594 232.835938 134.144531 232.027344 132.382812 232.121094 C 130.8125 232.21875 129.757812 233.167969 129.417969 234.816406 C 129.324219 235.285156 129.308594 236.378906 129.332031 241.683594 C 129.355469 248.527344 129.332031 248.195312 129.78125 249.074219 C 130.386719 250.257812 131.78125 250.90625 133.207031 250.667969 C 133.96875 250.542969 134.375 250.351562 134.867188 249.890625 C 135.292969 249.496094 135.539062 249.082031 135.777344 248.359375 C 135.921875 247.949219 135.929688 247.457031 135.953125 239.875 C 135.960938 235.453125 135.960938 231.1875 135.953125 230.402344 C 135.9375 229.609375 135.914062 230.273438 135.898438 231.90625 Z M 135.898438 231.90625 " fill-opacity="1" fill-rule="nonzero"/></g><path fill="#393e46" d="M 351.375 231.71875 C 347.832031 232.128906 343.929688 234.359375 341.710938 237.242188 C 340.6875 238.566406 340.078125 239.988281 339.695312 241.898438 C 339.496094 242.921875 339.496094 245.285156 339.703125 246.21875 C 340.417969 249.488281 342.496094 252.0625 345.792969 253.753906 C 347.210938 254.492188 349.011719 255.117188 353.867188 256.566406 C 357.703125 257.71875 358.558594 257.996094 359.296875 258.351562 C 360.835938 259.089844 361.476562 260.160156 361.375 261.839844 C 361.320312 262.808594 361.167969 263.371094 360.722656 264.273438 C 360.035156 265.679688 358.949219 266.503906 357.179688 266.945312 C 356.007812 267.25 355.148438 267.335938 353.945312 267.289062 C 351.34375 267.167969 348.832031 266.136719 346.214844 264.101562 C 344.890625 263.070312 344.082031 262.722656 343.066406 262.714844 C 342.195312 262.714844 341.703125 262.910156 341.011719 263.5625 C 340.632812 263.925781 340.386719 264.234375 340.210938 264.609375 C 339.964844 265.089844 339.949219 265.1875 339.949219 265.933594 C 339.949219 266.710938 339.957031 266.75 340.28125 267.398438 C 340.679688 268.191406 341.121094 268.714844 342.089844 269.515625 C 345.101562 272.03125 348.878906 273.402344 353.390625 273.625 C 355.730469 273.734375 358.597656 273.28125 360.773438 272.472656 C 361.683594 272.132812 363.492188 270.769531 364.839844 269.414062 C 367.140625 267.097656 368.066406 265.035156 368.195312 261.960938 C 368.390625 256.996094 365.910156 253.570312 360.683594 251.570312 C 360.273438 251.414062 358.472656 250.828125 356.6875 250.257812 C 349.058594 247.84375 348.25 247.535156 347.488281 246.808594 C 346.671875 246.015625 346.332031 245.171875 346.332031 243.929688 C 346.339844 242.007812 347.140625 240.582031 348.632812 239.84375 C 349.371094 239.488281 350.941406 239.082031 352.714844 238.804688 C 353.460938 238.695312 354.332031 238.542969 354.660156 238.488281 C 356.261719 238.179688 357.203125 237.203125 357.425781 235.625 C 357.679688 233.84375 356.648438 232.390625 354.785156 231.90625 C 353.761719 231.644531 352.550781 231.574219 351.375 231.71875 Z M 351.375 231.71875 " fill-opacity="1" fill-rule="nonzero"/><path fill="#393e46" d="M 8.648438 232.105469 C 7.410156 232.367188 6.492188 233.351562 6.195312 234.714844 C 6.03125 235.523438 6.03125 270.292969 6.203125 271.023438 C 6.664062 272.972656 8.257812 273.980469 10.226562 273.566406 C 11.390625 273.324219 12.105469 272.625 12.554688 271.277344 C 12.699219 270.855469 12.707031 270.160156 12.730469 253.199219 C 12.746094 241.359375 12.722656 235.378906 12.667969 235.023438 C 12.382812 233.152344 11.351562 232.144531 9.613281 232.066406 C 9.265625 232.050781 8.828125 232.066406 8.648438 232.105469 Z M 8.648438 232.105469 " fill-opacity="1" fill-rule="nonzero"/><path fill="#393e46" d="M 26.027344 232.113281 C 24.925781 232.273438 24.039062 232.765625 23.554688 233.484375 C 23.214844 233.992188 23.125 234.300781 23.078125 235.207031 C 23.03125 236.125 23.164062 236.703125 23.578125 237.316406 C 23.910156 237.800781 24.234375 238.070312 24.839844 238.347656 C 25.679688 238.726562 26.164062 238.757812 30.730469 238.765625 L 34.949219 238.765625 L 34.949219 254.402344 C 34.957031 271.140625 34.941406 270.632812 35.34375 271.695312 C 35.550781 272.234375 36.242188 273.027344 36.726562 273.273438 C 37.714844 273.78125 39.085938 273.78125 40.0625 273.273438 C 40.460938 273.070312 41.070312 272.449219 41.277344 272.03125 C 41.363281 271.855469 41.5 271.515625 41.578125 271.277344 C 41.71875 270.855469 41.726562 270.09375 41.75 254.253906 C 41.761719 244.941406 41.742188 236.957031 41.703125 236.054688 C 41.609375 234.046875 41.515625 233.730469 40.785156 233.007812 C 40.207031 232.4375 39.738281 232.234375 38.738281 232.105469 C 37.945312 232.011719 26.726562 232.011719 26.027344 232.113281 Z M 26.027344 232.113281 " fill-opacity="1" fill-rule="nonzero"/><path fill="#393e46" d="M 49.777344 232.113281 C 49.183594 232.234375 48.484375 232.621094 48.039062 233.097656 C 46.777344 234.429688 46.8125 236.441406 48.101562 237.742188 C 49.460938 239.089844 51.558594 239.074219 52.859375 237.695312 C 55.097656 235.332031 52.980469 231.488281 49.777344 232.113281 Z M 49.777344 232.113281 " fill-opacity="1" fill-rule="nonzero"/><path fill="#393e46" d="M 73.167969 232.128906 C 71.890625 232.429688 71.257812 233.128906 70.210938 235.371094 C 65.984375 244.492188 54.820312 268.921875 54.730469 269.269531 C 54.582031 269.832031 54.558594 270.953125 54.691406 271.433594 C 54.8125 271.886719 55.175781 272.464844 55.550781 272.792969 C 55.960938 273.15625 56.839844 273.550781 57.484375 273.65625 C 58.148438 273.765625 58.710938 273.6875 59.347656 273.378906 C 59.910156 273.101562 60.6875 272.25 61.089844 271.476562 C 61.328125 271.007812 72.621094 246.496094 73.746094 244 L 73.90625 243.644531 L 74.507812 244.871094 C 74.839844 245.546875 75.609375 247.1875 76.210938 248.519531 C 80.019531 256.894531 82.046875 261.160156 82.554688 261.871094 C 83.578125 263.308594 84.902344 263.972656 86.25 263.742188 C 88.128906 263.417969 89.136719 261.4375 88.503906 259.304688 C 88.359375 258.820312 87.25 256.363281 81.636719 244.117188 C 77.15625 234.34375 76.941406 233.882812 76.523438 233.335938 C 76.140625 232.851562 75.539062 232.382812 75.070312 232.226562 C 74.570312 232.050781 73.691406 232.011719 73.167969 232.128906 Z M 73.167969 232.128906 " fill-opacity="1" fill-rule="nonzero"/><path fill="#393e46" d="M 103.816406 232.167969 C 102.777344 232.527344 102.046875 233.359375 101.65625 234.605469 C 101.523438 235.0625 101.515625 235.816406 101.515625 253.039062 C 101.515625 270.285156 101.523438 271.015625 101.65625 271.433594 C 102.179688 272.972656 103.609375 273.757812 105.011719 273.28125 C 105.558594 273.101562 106.304688 272.347656 106.558594 271.710938 L 106.75 271.238281 L 106.789062 257.550781 L 106.828125 243.871094 L 118.878906 257.898438 C 125.507812 265.613281 131.074219 272.054688 131.25 272.203125 C 131.425781 272.355469 131.796875 272.59375 132.082031 272.726562 C 132.550781 272.949219 132.667969 272.980469 133.351562 272.980469 C 134.285156 272.980469 134.492188 272.902344 135.246094 272.234375 C 136 271.570312 136.160156 271.246094 136.160156 270.324219 C 136.167969 269.445312 135.929688 268.691406 135.4375 267.96875 C 133.875 265.679688 127.648438 257.695312 123.683594 252.878906 C 118.640625 246.765625 106.636719 232.84375 106.097656 232.488281 C 105.402344 232.027344 104.558594 231.90625 103.816406 232.167969 Z M 103.816406 232.167969 " fill-opacity="1" fill-rule="nonzero"/><path fill="#393e46" d="M 145.46875 232.105469 C 144.121094 232.335938 143.261719 233 142.859375 234.144531 C 142.628906 234.777344 142.558594 236.355469 142.558594 240.710938 C 142.558594 244.976562 142.628906 246.464844 142.867188 247.148438 C 143.382812 248.621094 144.609375 249.457031 146.148438 249.375 C 147.542969 249.304688 148.582031 248.464844 149.074219 247.011719 C 149.242188 246.511719 149.242188 246.355469 149.273438 242.628906 L 149.296875 238.75 L 156.09375 238.789062 C 161.984375 238.820312 162.976562 238.847656 163.5625 238.957031 C 166.367188 239.503906 168.4375 240.980469 170.054688 243.585938 C 171.316406 245.609375 172.15625 247.941406 172.484375 250.304688 C 172.664062 251.613281 172.609375 254.332031 172.371094 255.703125 C 171.894531 258.472656 170.921875 261.078125 169.746094 262.730469 C 169.183594 263.523438 168.105469 264.59375 167.40625 265.050781 C 166.257812 265.8125 164.78125 266.382812 163.140625 266.695312 C 162.285156 266.851562 161.96875 266.859375 153.929688 266.914062 C 145.871094 266.964844 145.585938 266.972656 145.078125 267.121094 C 144.023438 267.445312 143.335938 268.007812 142.921875 268.882812 C 142.683594 269.382812 142.667969 269.46875 142.667969 270.324219 C 142.667969 271.164062 142.683594 271.277344 142.898438 271.730469 C 143.175781 272.332031 143.792969 272.949219 144.40625 273.226562 C 145.347656 273.65625 145.238281 273.65625 154.292969 273.65625 C 159.351562 273.65625 163 273.625 163.492188 273.574219 C 166.535156 273.28125 169.238281 272.226562 171.609375 270.414062 C 172.347656 269.847656 173.742188 268.460938 174.449219 267.589844 C 176.144531 265.488281 177.527344 262.847656 178.34375 260.160156 C 180.300781 253.6875 179.515625 246.300781 176.289062 240.773438 C 173.21875 235.53125 168.820312 232.582031 163.363281 232.113281 C 162.238281 232.011719 146.039062 232.011719 145.46875 232.105469 Z M 145.46875 232.105469 " fill-opacity="1" fill-rule="nonzero"/><path fill="#393e46" d="M 298.558594 232.105469 C 296.742188 232.160156 296.441406 232.21875 295.726562 232.675781 C 295.046875 233.105469 294.617188 233.8125 294.425781 234.777344 C 294.261719 235.65625 294.269531 245.769531 294.433594 246.570312 C 294.769531 248.140625 295.71875 249.136719 297.140625 249.398438 C 298.84375 249.714844 300.414062 248.597656 300.875 246.726562 C 300.984375 246.25 301 245.695312 301 242.523438 L 301 238.863281 L 304.140625 238.804688 C 307.804688 238.734375 313.796875 238.804688 314.773438 238.925781 C 318.074219 239.34375 320.460938 241.128906 322.332031 244.5625 C 324.636719 248.804688 324.972656 253.847656 323.289062 258.984375 C 321.902344 263.210938 319.5625 265.566406 315.820312 266.511719 C 314.140625 266.9375 314.148438 266.9375 305.339844 266.988281 L 297.132812 267.042969 L 296.601562 267.214844 C 295.601562 267.550781 294.824219 268.304688 294.5 269.246094 C 294.292969 269.847656 294.316406 271.015625 294.546875 271.617188 C 294.777344 272.210938 295.433594 272.917969 296.003906 273.203125 C 296.964844 273.671875 296.863281 273.664062 303.988281 273.710938 C 311.046875 273.75 315.289062 273.664062 316.4375 273.457031 C 319.746094 272.855469 322.273438 271.570312 324.652344 269.277344 C 327.546875 266.488281 329.664062 262.515625 330.585938 258.128906 C 331.003906 256.148438 331.070312 255.464844 331.070312 252.878906 C 331.070312 250.960938 331.035156 250.265625 330.925781 249.511719 C 330.488281 246.609375 329.800781 244.347656 328.640625 242.015625 C 326.207031 237.132812 322.386719 233.777344 317.9375 232.636719 C 316.445312 232.25 315.789062 232.167969 313.265625 232.105469 C 310.546875 232.027344 301.105469 232.027344 298.558594 232.105469 Z M 298.558594 232.105469 " fill-opacity="1" fill-rule="nonzero"/><path fill="#393e46" d="M 201.28125 232.21875 C 199.609375 232.699219 198.609375 234.160156 198.816406 235.824219 C 198.941406 236.871094 199.5625 237.78125 200.488281 238.265625 C 201.035156 238.558594 201.296875 238.632812 202.496094 238.835938 C 204.058594 239.105469 204.96875 239.511719 205.832031 240.335938 C 206.453125 240.914062 206.863281 241.628906 207.101562 242.546875 C 207.332031 243.414062 207.332031 244.976562 207.101562 245.847656 C 206.691406 247.410156 205.652344 248.566406 204.199219 249.082031 C 202.996094 249.503906 203.296875 249.496094 194.605469 249.542969 L 186.515625 249.597656 L 185.984375 249.773438 C 184.621094 250.230469 184.003906 251.066406 183.78125 252.761719 C 183.726562 253.183594 183.703125 256.273438 183.71875 262 C 183.742188 269.824219 183.757812 270.648438 183.886719 271.101562 C 184.1875 272.226562 184.78125 273.019531 185.605469 273.410156 C 186 273.601562 186.128906 273.617188 187.074219 273.617188 C 188.023438 273.617188 188.136719 273.601562 188.554688 273.402344 C 189.402344 273.003906 189.984375 272.203125 190.269531 271.054688 C 190.378906 270.59375 190.394531 269.601562 190.417969 263.363281 L 190.449219 256.203125 L 195.261719 256.25 C 200.8125 256.3125 203.945312 256.226562 205.070312 255.988281 C 206.078125 255.765625 206.691406 255.554688 207.6875 255.0625 C 210.289062 253.777344 212.390625 251.253906 213.34375 248.28125 C 213.824219 246.765625 213.953125 245.886719 213.945312 244 C 213.945312 242.53125 213.921875 242.175781 213.761719 241.460938 C 213.222656 238.941406 212.230469 237.085938 210.511719 235.347656 C 208.917969 233.746094 207.1875 232.789062 204.992188 232.296875 C 204.214844 232.121094 201.796875 232.074219 201.28125 232.21875 Z M 201.28125 232.21875 " fill-opacity="1" fill-rule="nonzero"/><path fill="#393e46" d="M 278.5625 232.226562 C 277.472656 232.558594 276.746094 233.40625 276.417969 234.699219 C 276.292969 235.199219 276.285156 236.570312 276.285156 252.878906 C 276.285156 269.308594 276.292969 270.5625 276.417969 271.070312 C 276.707031 272.1875 277.308594 272.988281 278.203125 273.402344 C 278.789062 273.671875 280.019531 273.742188 280.695312 273.542969 C 281.652344 273.265625 282.351562 272.554688 282.722656 271.476562 L 282.9375 270.839844 L 282.9375 234.921875 L 282.722656 234.285156 C 282.359375 233.222656 281.660156 232.503906 280.734375 232.226562 C 280.242188 232.082031 279.019531 232.074219 278.5625 232.226562 Z M 278.5625 232.226562 " fill-opacity="1" fill-rule="nonzero"/><path fill="#393e46" d="M 252.894531 233.34375 C 252.371094 233.507812 252.003906 233.753906 251.53125 234.253906 C 251.015625 234.808594 250.746094 235.277344 250.578125 235.902344 C 250.460938 236.378906 250.460938 236.449219 250.578125 236.933594 C 250.816406 237.910156 251.59375 238.820312 253.441406 240.3125 C 255.519531 241.992188 256.722656 243.46875 257.722656 245.546875 C 258.769531 247.734375 259.164062 249.652344 259.085938 252.191406 C 259.023438 254.410156 258.59375 256.058594 257.59375 258.035156 C 256.859375 259.476562 256.167969 260.421875 254.988281 261.601562 C 253.195312 263.394531 251.171875 264.59375 248.800781 265.273438 C 246.488281 265.941406 243.832031 265.933594 241.394531 265.25 C 236.695312 263.925781 232.992188 260.191406 231.714844 255.496094 C 231.339844 254.125 231.277344 253.4375 231.277344 250.78125 C 231.277344 248.097656 231.238281 247.75 230.828125 246.988281 C 230.539062 246.472656 229.945312 245.949219 229.390625 245.734375 C 228.757812 245.5 227.582031 245.441406 226.964844 245.617188 C 225.878906 245.933594 225.109375 246.773438 224.746094 248.042969 C 224.46875 249.011719 224.371094 251.691406 224.539062 253.800781 C 224.839844 257.496094 226.566406 261.667969 229.121094 264.855469 C 229.882812 265.796875 231.5 267.421875 232.386719 268.136719 C 233.484375 269.007812 234.878906 269.898438 236.148438 270.523438 C 239.082031 271.964844 241.453125 272.503906 244.878906 272.496094 C 247.265625 272.496094 249.007812 272.25 251.078125 271.625 C 258.960938 269.246094 264.628906 262.546875 265.738281 254.300781 C 265.914062 252.992188 265.914062 250.574219 265.738281 249.195312 C 265.238281 245.300781 263.597656 241.4375 261.140625 238.394531 C 259.664062 236.570312 257.421875 234.636719 255.859375 233.851562 C 254.726562 233.28125 253.664062 233.097656 252.894531 233.34375 Z M 252.894531 233.34375 " fill-opacity="1" fill-rule="nonzero"/><path fill="#393e46" d="M 363.730469 235.714844 C 363.078125 235.855469 362.644531 236.085938 362.136719 236.570312 C 360.699219 237.925781 360.8125 240.390625 362.359375 241.621094 C 363.371094 242.421875 364.847656 242.539062 366.011719 241.921875 C 366.59375 241.613281 367.289062 240.882812 367.566406 240.296875 C 367.757812 239.882812 367.78125 239.742188 367.78125 239.003906 C 367.78125 238.234375 367.765625 238.132812 367.527344 237.632812 C 367.042969 236.617188 366.027344 235.855469 364.917969 235.675781 C 364.355469 235.578125 364.339844 235.578125 363.730469 235.714844 Z M 363.730469 235.714844 " fill-opacity="1" fill-rule="nonzero"/><path fill="#393e46" d="M 206.09375 259.898438 C 205.53125 260.015625 205.0625 260.238281 204.816406 260.507812 C 204.285156 261.078125 203.761719 262.316406 203.761719 263 C 203.761719 263.5625 204.96875 266.480469 206.167969 268.820312 C 206.792969 270.03125 207.847656 271.878906 208.1875 272.347656 C 208.625 272.949219 209.878906 273.417969 211.050781 273.417969 C 211.898438 273.417969 212.175781 273.3125 212.707031 272.824219 C 213.714844 271.886719 214.136719 270.492188 213.792969 269.175781 C 213.589844 268.390625 210.734375 263.039062 209.410156 260.953125 C 208.886719 260.136719 208.679688 259.976562 207.917969 259.859375 C 207.300781 259.753906 206.679688 259.769531 206.09375 259.898438 Z M 206.09375 259.898438 " fill-opacity="1" fill-rule="nonzero"/></svg>