<?xml version="1.0" encoding="UTF-8"?>
<svg id="Camada_1" data-name="Camada 1" xmlns="http://www.w3.org/2000/svg" viewBox="0 0 600 600">
  <defs>
    <style>
      .cls-1 {
        fill: #533c90;
      }

      .cls-1, .cls-2, .cls-3, .cls-4, .cls-5, .cls-6 {
        fill-rule: evenodd;
      }

      .cls-2 {
        fill: #61b558;
      }

      .cls-3 {
        fill: #8170b1;
      }

      .cls-4 {
        fill: #58575f;
      }

      .cls-5 {
        fill: #838187;
      }

      .cls-7 {
        fill: none;
      }

      .cls-8 {
        fill: #9a9999;
      }

      .cls-6, .cls-9 {
        fill: #17a638;
      }
    </style>
  </defs>
  <g>
    <polygon class="cls-6" points="296.86 190.66 232.37 155.7 232.37 227.6 295.04 265.41 360.45 230 360.45 155.7 296.86 190.66"/>
    <polygon class="cls-2" points="232.37 155.7 296.86 190.66 295.04 265.41 232.37 227.6 232.37 155.7"/>
    <path class="cls-4" d="M168.32,116.92v175.45c0,4.57,2.47,8.8,6.47,11.09l38.16,21.79c8.63,4.93,19.42-1.23,19.42-11.09V153.49l-64.05-36.57Z"/>
    <path class="cls-4" d="M422.16,115.59l-119.28-68.11c-4.01-2.29-8.94-2.29-12.95,0l-57.56,32.88-44.63-25.48c-8.63-4.93-19.42,1.23-19.42,11.09v50.96l64.05,36.57,64.04-36.57,62.23,35.53,63.53-36.86Z"/>
    <path class="cls-5" d="M432.14,109.8l-119.8-68.4c-4.01-2.29-8.94-2.29-12.95,0l-67.02,38.96-44.63-25.48c-8.63-4.93-19.42,1.23-19.42,11.09v50.96l64.05,36.57,64.04-36.57,62.23,35.53,73.51-42.65Z"/>
    <g>
      <path class="cls-3" d="M431.91,109.93l-119.39-68.17c-4.01-2.29-8.94-2.29-12.95,0l-9.64,5.72c4.01-2.29,8.94-2.29,12.95,0l119.28,68.11,9.75-5.66Z"/>
      <path class="cls-1" d="M424.5,118.42v173.95c0,4.57-2.47,8.8-6.47,11.09l9.64-4.77c4.01-2.29,6.47-6.51,6.47-11.09l-.31-174.6-9.33,5.41Z"/>
    </g>
    <path class="cls-4" d="M360.45,155.58v158.58c0,9.86,10.79,16.02,19.42,11.09l38.16-21.79c4.01-2.29,6.47-6.51,6.47-11.09V118.42l-64.05,37.16Z"/>
    <line class="cls-7" x1="232.37" y1="153.49" x2="168.32" y2="116.92"/>
  </g>
  <g>
    <g>
      <path class="cls-1" d="M232.77,352.85l47.53,27.44-25.03,14.45-25.03-14.45-25.03,14.45-25.03-14.45,47.53-27.44c1.57-.9,3.49-.9,5.06,0Z"/>
      <path class="cls-3" d="M232.53,352.71l47.77,27.58-25.03,14.45-25.03-14.45-25.03,14.45-25.03-14.45,47.77-27.58c1.42-.82,3.16-.82,4.58,0Z"/>
      <path class="cls-6" d="M247.68,448.17l-42.48-24.54v-28.88l-25.03-14.45v57.81l47.53,27.44c1.57,.9,3.49,.9,5.06,0l14.91-8.61c3.37-1.95,3.37-6.81,0-8.76Z"/>
      <path class="cls-2" d="M180.17,438.1l47.53,27.44c1.57,.9,3.49,.9,5.06,0l14.91-8.61c3.37-1.95,3.37-6.81,0-8.76l-42.48-24.54-25.03,14.47Z"/>
      <path class="cls-1" d="M255.27,394.75l-25.03,14.45v15.83c0,3.9,4.22,6.33,7.59,4.38l17.44-10.07,22.5-12.99c1.57-.9,2.53-2.57,2.53-4.38v-21.67l-25.03,14.45Z"/>
    </g>
    <g>
      <g>
        <path class="cls-4" d="M405.54,381.08v51.97c0,3.62-1.93,6.96-5.06,8.76l-39.94,23.06c-3.13,1.81-6.99,1.81-10.12,0l-39.94-23.06c-3.13-1.81-5.06-5.15-5.06-8.76v-51.96l25.03,14.45v28.9s25.03,14.46,25.03,14.46l25.03-14.46v-28.9l25.03-14.45Z"/>
        <path class="cls-4" d="M360.54,355.09l45,25.98-25.03,14.45-25.03-14.45-25.03,14.45-25.03-14.45,45-25.98c3.13-1.81,6.99-1.81,10.12,0Z"/>
      </g>
      <path class="cls-5" d="M358.01,353.63l47.53,27.44-25.03,14.45-25.03-14.45-25.03,14.45-25.03-14.45,47.53-27.44c1.57-.9,3.49-.9,5.06,0Z"/>
    </g>
    <g>
      <g>
        <path class="cls-4" d="M430.66,383.21v69.34c0,1.81,.96,3.48,2.53,4.38l14.91,8.61c3.37,1.95,7.59-.49,7.59-4.38v-63.5l-25.03-14.45Z"/>
        <path class="cls-4" d="M530.78,383.21v69.34c0,1.81-.96,3.48-2.53,4.38l-14.91,8.61c-3.37,1.95-7.59-.49-7.59-4.38v-63.5l25.03-14.45Z"/>
        <path class="cls-4" d="M483.25,355.76l47.53,27.44-25.03,14.45-25.03-14.45-25.03,14.45-25.03-14.45v-20.14c0-3.89,4.22-6.33,7.59-4.38l17.44,10.07,22.5-12.99c1.57-.9,3.49-.9,5.06,0Z"/>
      </g>
      <path class="cls-5" d="M483.25,355.76l47.53,27.44-25.03,14.45-25.03-14.45-25.03,14.45-25.03-14.45v-20.14c0-3.89,4.22-6.33,7.59-4.38l17.44,10.07,22.5-12.99c1.57-.9,3.49-.9,5.06,0Z"/>
    </g>
    <g>
      <g>
        <path class="cls-4" d="M54.93,383.21v69.34c0,1.81,.96,3.48,2.53,4.38l14.91,8.61c3.37,1.95,7.59-.49,7.59-4.38v-63.5l-25.03-14.45Z"/>
        <path class="cls-4" d="M155.06,383.21v69.34c0,1.81-.96,3.48-2.53,4.38l-14.91,8.61c-3.37,1.95-7.59-.49-7.59-4.38v-63.5l25.03-14.45Z"/>
        <path class="cls-4" d="M107.52,355.76l47.53,27.44-25.03,14.45-25.03-14.45-25.03,14.45-25.03-14.45v-20.14c0-3.89,4.22-6.33,7.59-4.38l17.44,10.07,22.5-12.99c1.57-.9,3.49-.9,5.06,0Z"/>
      </g>
      <path class="cls-5" d="M107.52,355.76l47.53,27.44-25.03,14.45-25.03-14.45-25.03,14.45-25.03-14.45v-20.14c0-3.89,4.22-6.33,7.59-4.38l17.44,10.07,22.5-12.99c1.57-.9,3.49-.9,5.06,0Z"/>
    </g>
  </g>
  <path class="cls-9" d="M58.44,491.34c160.96-2.1,325.67-2.12,486.63,0-160.96,2.12-325.67,2.1-486.63,0h0Z"/>
  <g>
    <path class="cls-8" d="M206.88,560.32h-6.03v-31.08h15.06l5.2,5.2v9.82l-5.2,5.2h-9.03v10.88Zm6.12-25.45h-6.12v8.98h6.12l2.07-2.07v-4.84l-2.07-2.07Z"/>
    <path class="cls-8" d="M237.57,560.32h-6.08v-31.08h15.54l5.2,5.2v8.98l-4.4,4.4,3.3,6.91,2.9,5.59h-6.03l-2.9-5.59-2.95-6.12h-4.58v11.71Zm6.56-25.45h-6.56v8.32h6.56l2.07-2.07v-4.18l-2.07-2.07Z"/>
    <path class="cls-8" d="M283.71,534.43v20.69l-5.15,5.2h-11.45l-5.2-5.2v-20.69l5.2-5.2h11.45l5.15,5.2Zm-6.03,18.23v-15.72l-2.07-2.07h-5.59l-2.07,2.07v15.72l2.07,2.07h5.59l2.07-2.07Z"/>
    <path class="cls-8" d="M305.11,560.32h-8.06l-5.15-5.2v-5.37h5.81v2.91l2.07,2.07h2.38l2.07-2.07v-23.42h6.03v25.89l-5.15,5.2Z"/>
    <path class="cls-8" d="M341.69,557.59l-2.73,2.73h-16.11v-31.08h16.11l2.73,2.73v2.91h-12.94v7.04h11.14v5.59h-11.14v7.22h12.94v2.86Z"/>
    <path class="cls-8" d="M356.27,560.32l-5.15-5.2v-20.69l5.15-5.2h10.17l5.15,5.2v5.59h-5.81v-3.08l-2.07-2.07h-4.49l-2.07,2.07v15.72l2.07,2.07h4.49l2.07-2.07v-3.13h5.81v5.59l-5.15,5.2h-10.17Z"/>
    <path class="cls-8" d="M395.54,560.32h-6.08v-25.45h-10.26v-2.91l2.73-2.73h21.18l2.69,2.73v2.91h-10.26v25.45Z"/>
  </g>
</svg>