<?xml version="1.0" standalone="no"?>
<!DOCTYPE svg PUBLIC "-//W3C//DTD SVG 20010904//EN"
 "http://www.w3.org/TR/2001/REC-SVG-20010904/DTD/svg10.dtd">
<svg version="1.0" xmlns="http://www.w3.org/2000/svg"
 width="4000.000000pt" height="4000.000000pt" viewBox="0 0 4000.000000 4000.000000"
 preserveAspectRatio="xMidYMid meet">

<g transform="translate(0.000000,4000.000000) scale(0.100000,-0.100000)"
fill="#000000" stroke="none">
<path d="M12595 30060 c-102 -16 -234 -59 -319 -103 -113 -58 -239 -183 -290
-287 -72 -148 -85 -326 -34 -475 77 -224 256 -359 655 -495 245 -84 332 -128
414 -209 83 -83 104 -136 104 -266 0 -82 -3 -97 -33 -157 -77 -158 -245 -237
-498 -238 -213 0 -415 52 -586 151 l-47 28 -45 -137 c-25 -75 -46 -143 -46
-150 0 -22 183 -102 303 -132 154 -39 245 -50 406 -50 163 0 278 18 413 64
131 44 198 86 293 181 134 133 195 282 195 475 0 171 -50 310 -152 424 -102
114 -257 201 -519 291 -401 137 -531 246 -533 445 0 61 5 86 26 131 34 75 85
129 156 167 85 46 167 62 312 62 151 0 270 -23 396 -75 49 -20 95 -37 103 -38
8 -1 30 45 62 135 l48 138 -27 14 c-54 28 -175 66 -270 86 -111 24 -388 35
-487 20z"/>
<path d="M14425 30044 c-89 -6 -349 -33 -384 -40 l-31 -6 0 -937 c0 -879 -5
-1322 -30 -2766 -39 -2241 -87 -3698 -145 -4363 -12 -143 -14 -154 -38 -172
-38 -30 -83 -108 -107 -185 -47 -154 -52 -229 -57 -777 l-5 -516 -36 -7 c-154
-27 -295 -168 -364 -360 l-31 -85 -25 37 c-47 71 -112 141 -159 172 -25 17
-50 31 -54 31 -8 0 -59 -88 -59 -102 0 -6 18 -31 41 -56 55 -63 123 -206 156
-328 l27 -99 3 -775 c2 -426 0 -801 -4 -834 l-8 -59 -55 -13 c-98 -25 -197
-81 -270 -153 -74 -73 -111 -131 -148 -230 -24 -64 -25 -78 -34 -421 -4 -195
-11 -502 -14 -682 l-6 -328 -1774 0 -1774 0 0 -310 0 -310 150 0 150 0 0 -460
0 -460 6218 2 6217 3 3 458 2 457 150 0 150 0 0 310 0 310 -1840 0 -1840 0 0
463 c0 938 -42 1183 -231 1364 -43 41 -148 103 -174 103 -17 0 -23 44 -29 225
-3 82 -11 160 -20 188 l-15 49 34 43 c91 120 56 256 -94 366 l-67 49 -74 430
c-49 279 -77 422 -82 408 -4 -13 -37 -196 -73 -408 -36 -212 -67 -395 -70
-407 -3 -11 -33 -42 -68 -66 -72 -52 -111 -98 -133 -159 -25 -71 -5 -160 51
-220 24 -26 24 -28 9 -70 -13 -37 -33 -261 -34 -379 0 -33 -3 -37 -42 -50
-143 -47 -270 -192 -322 -368 -43 -145 -66 -405 -66 -749 l0 -192 -562 6
c-310 4 -564 7 -565 8 -1 1 -6 159 -12 351 -10 379 -14 406 -72 525 -47 94
-163 209 -260 255 -41 19 -99 41 -129 48 l-55 14 -7 749 c-3 445 -2 791 3 852
17 182 91 382 184 496 l44 55 -26 48 c-15 26 -28 50 -29 51 -16 22 -146 -93
-206 -181 l-40 -59 -22 64 c-58 165 -151 284 -268 342 -38 20 -84 38 -102 41
l-33 7 -6 276 c-4 152 -7 368 -7 480 0 393 -43 596 -151 707 l-39 40 -15 190
c-69 872 -141 3468 -162 5819 l-6 749 24 -8 c44 -14 376 -18 475 -5 138 17
266 54 379 110 281 137 415 354 415 671 0 211 -56 356 -190 489 -91 90 -159
132 -288 176 -150 51 -250 66 -482 69 -113 1 -232 1 -265 -1z m514 -298 c265
-67 397 -256 362 -518 -29 -215 -176 -358 -424 -409 -107 -22 -321 -26 -442
-8 l-75 11 0 463 0 464 58 6 c31 3 64 8 72 10 42 11 390 -4 449 -19z m-739
-4386 c27 -1361 64 -2487 105 -3135 16 -246 43 -571 50 -592 2 -6 22 -14 45
-18 39 -7 44 -11 66 -59 49 -108 55 -178 64 -801 5 -319 9 -599 9 -621 l1 -42
93 -4 c76 -3 103 -9 150 -31 109 -54 175 -179 218 -412 19 -100 22 -169 29
-765 5 -360 9 -791 9 -956 l1 -301 109 -5 c102 -4 115 -7 185 -41 86 -43 145
-103 184 -186 31 -67 37 -155 47 -627 l7 -341 277 -6 c152 -4 495 -7 762 -7
l486 0 6 384 c7 407 16 534 47 657 47 193 143 285 316 305 31 4 57 12 59 18 2
6 8 122 13 259 11 272 12 277 75 311 l36 19 46 -27 c25 -15 51 -40 57 -54 6
-15 13 -134 17 -272 l6 -245 40 -9 c111 -24 173 -47 212 -81 80 -68 128 -211
153 -455 6 -58 14 -358 17 -667 l6 -563 -2706 0 -2705 0 5 313 c2 171 8 472
12 667 l7 355 26 57 c35 76 72 121 133 163 73 51 128 67 245 74 l105 6 6 930
c5 798 8 945 23 1035 45 288 132 444 269 485 28 8 85 15 128 15 l77 0 5 598
c5 660 12 755 65 862 24 49 32 56 67 64 22 5 41 10 42 11 6 3 35 344 53 618
39 621 73 1603 100 2882 13 642 25 1013 27 885 1 -58 7 -350 13 -650z m3585
-6760 c37 -39 27 -63 -41 -95 -31 -15 -63 -27 -72 -28 -31 -2 -125 38 -155 66
l-30 28 29 30 c16 17 51 44 79 60 l49 28 57 -30 c31 -17 69 -43 84 -59z
m-5855 -3015 l0 -205 145 0 145 0 0 -365 0 -365 -1340 0 -1340 0 0 460 0 460
-150 0 -150 0 0 110 0 110 1345 0 1345 0 0 -205z m3530 -365 l0 -570 -1520 0
-1520 0 0 465 0 465 -145 0 -145 0 0 105 0 105 1665 0 1665 0 0 -570z m3530
465 l0 -105 -150 0 -150 0 0 -465 0 -465 -1515 0 -1515 0 0 570 0 570 1665 0
1665 0 0 -105z m2890 -5 l0 -110 -155 0 -155 0 0 -460 0 -460 -1335 0 -1335 0
0 365 0 365 145 0 145 0 0 205 0 205 1345 0 1345 0 0 -110z"/>
<path d="M13960 19170 l0 -480 235 0 235 0 0 480 0 480 -235 0 -235 0 0 -480z
m270 0 l0 -280 -35 0 -35 0 0 280 0 280 35 0 35 0 0 -280z"/>
<path d="M13960 17305 l0 -475 235 0 235 0 0 475 0 475 -235 0 -235 0 0 -475z
m270 0 l0 -275 -35 0 -35 0 0 275 0 275 35 0 35 0 0 -275z"/>
<path d="M17542 16923 l3 -428 100 0 100 0 3 428 2 427 -105 0 -105 0 2 -427z"/>
<path d="M16140 28866 c0 -645 -3 -1201 -6 -1235 l-7 -61 150 0 150 0 7 53 c3
28 6 87 6 130 l0 78 83 -84 c126 -129 246 -185 444 -208 71 -9 118 -8 186 0
435 56 721 380 744 842 23 470 -242 832 -660 899 -101 17 -269 7 -365 -20
-136 -38 -274 -125 -345 -216 l-37 -47 0 521 0 522 -175 0 -175 0 0 -1174z
m986 143 c196 -35 356 -198 409 -416 27 -110 18 -311 -18 -416 -81 -234 -267
-367 -511 -367 -206 1 -397 115 -479 287 l-32 68 -3 207 c-4 233 3 276 63 383
110 198 334 297 571 254z"/>
<path d="M28590 29550 c0 -269 -1 -490 -3 -490 -1 0 -29 25 -61 55 -64 61
-184 125 -281 151 -96 25 -266 30 -366 10 -173 -35 -296 -101 -420 -225 -96
-97 -154 -186 -199 -309 -55 -152 -75 -354 -49 -512 15 -95 63 -232 111 -314
53 -91 182 -220 273 -274 146 -86 332 -124 497 -103 212 27 369 112 488 263
l37 46 7 -131 c4 -72 10 -135 12 -139 3 -4 73 -8 156 -8 l151 0 -6 107 c-4 58
-7 614 -7 1235 l0 1128 -170 0 -170 0 0 -490z m-389 -540 c193 -37 353 -197
379 -381 13 -85 12 -318 0 -399 -39 -251 -281 -438 -538 -415 -245 21 -411
163 -473 403 -26 104 -26 281 1 386 76 297 333 462 631 406z"/>
<path d="M18390 29285 c0 -456 4 -784 11 -843 38 -356 173 -612 398 -757 152
-98 284 -135 508 -142 102 -4 192 -1 244 6 490 72 775 391 829 930 6 61 10
400 10 827 l0 724 -175 0 -175 0 0 -727 c0 -897 -5 -950 -101 -1149 -62 -131
-134 -206 -252 -264 -98 -48 -192 -70 -307 -70 -299 0 -507 161 -593 460 -44
150 -47 222 -47 1008 l0 742 -175 0 -175 0 0 -745z"/>
<path d="M23233 29896 c-116 -54 -152 -196 -78 -307 73 -112 272 -107 345 8
38 60 45 109 26 176 -36 124 -170 180 -293 123z"/>
<path d="M24315 29696 l-160 -42 -3 -202 -2 -202 -135 0 -135 0 0 -135 0 -135
134 0 135 0 4 -507 c3 -415 7 -520 19 -573 54 -225 187 -340 418 -365 72 -7
217 8 299 32 l53 15 -7 132 c-4 72 -8 132 -9 133 -1 2 -18 -2 -37 -7 -19 -6
-70 -13 -114 -16 -139 -11 -210 21 -254 115 l-26 56 -3 492 -3 493 233 2 233
3 3 133 3 132 -236 0 -235 0 0 245 c0 135 -3 245 -7 244 -5 0 -80 -19 -168
-43z"/>
<path d="M21771 29279 c-151 -29 -262 -90 -373 -201 l-88 -88 0 48 c0 26 -3
84 -7 130 l-6 82 -151 0 -151 0 3 -827 c1 -456 5 -834 7 -841 4 -10 43 -12
172 -10 l168 3 5 550 5 550 30 60 c92 184 294 293 488 266 162 -23 260 -107
319 -271 23 -64 23 -72 28 -610 l5 -545 170 0 170 0 0 540 c-1 481 -3 549 -19
625 -62 295 -228 474 -493 534 -76 17 -209 19 -282 5z"/>
<path d="M25958 29280 c-448 -82 -729 -460 -705 -949 11 -226 80 -395 220
-539 146 -150 312 -225 562 -253 116 -13 313 -2 452 26 78 16 246 68 272 84
11 7 8 29 -17 126 -17 64 -32 119 -34 121 -2 2 -36 -8 -75 -21 -121 -42 -202
-56 -374 -62 -136 -5 -180 -3 -245 12 -167 36 -302 131 -371 261 -33 61 -63
165 -63 217 l0 27 639 0 639 0 6 31 c11 58 6 229 -10 306 -38 186 -122 344
-237 448 -67 61 -184 123 -282 150 -69 19 -305 28 -377 15z m315 -269 c144
-56 240 -190 262 -365 l7 -56 -476 0 c-543 0 -492 -10 -456 94 60 175 182 296
341 341 79 22 246 15 322 -14z"/>
<path d="M23152 28413 l3 -838 170 0 170 0 3 838 2 837 -175 0 -175 0 2 -837z"/>
<path d="M27080 20093 c-326 -7 -755 -43 -1050 -89 -1071 -164 -1746 -493
-1829 -892 -8 -37 -11 -413 -11 -1242 l0 -1190 28 -6 c15 -3 43 -10 62 -14 19
-4 47 -11 63 -14 l27 -6 0 -286 c0 -271 -1 -287 -20 -311 -11 -14 -29 -54 -39
-88 -35 -113 -46 -252 -45 -575 0 -334 9 -417 75 -739 33 -156 50 -197 99
-232 39 -29 2601 -592 2659 -584 85 10 156 69 185 152 l13 38 74 7 c74 7 74 7
109 -26 97 -92 218 -161 347 -198 111 -32 313 -32 427 0 192 55 352 159 485
316 l32 38 133 -51 c73 -28 140 -51 150 -51 28 0 293 69 411 107 220 71 462
189 646 314 l59 40 0 72 c1 40 5 313 10 607 10 547 19 756 45 962 13 98 15
351 15 1571 0 926 -4 1474 -10 1508 -15 82 -74 192 -141 263 -339 363 -1299
578 -2669 599 -124 1 -277 2 -340 0z m750 -213 c835 -44 1454 -158 1836 -339
241 -115 364 -240 364 -372 0 -51 -1 -53 -68 -118 -322 -314 -1500 -571 -2632
-574 l-285 -1 -1319 294 c-798 179 -1320 300 -1323 307 -3 7 5 33 17 58 83
171 395 357 820 489 418 128 976 222 1530 255 199 12 836 12 1060 1z m-2150
-1305 c685 -152 1248 -280 1253 -284 4 -4 6 -457 5 -1007 l-3 -999 -1220 267
c-671 147 -1244 272 -1272 278 l-53 11 0 768 c0 422 3 877 7 1010 5 214 8 241
22 237 9 -3 576 -129 1261 -281z m4336 -2475 c-23 -225 -34 -515 -42 -1029
l-7 -453 -51 -32 c-142 -90 -319 -173 -489 -230 -122 -41 -267 -79 -274 -72
-3 3 9 60 26 128 39 158 55 306 47 431 -31 483 -320 836 -786 959 -126 33
-308 34 -645 4 -159 -15 -347 -29 -416 -33 -143 -7 -172 2 -211 65 -20 33 -20
46 -26 1231 l-5 1198 284 6 c396 9 685 32 1039 83 620 88 1174 246 1470 419
44 26 83 52 87 58 5 7 9 -571 11 -1283 2 -1101 1 -1318 -12 -1450z m-4434 275
c541 -118 1004 -220 1031 -226 l47 -11 0 -424 c0 -335 -3 -424 -13 -424 -12 0
-2026 446 -2059 456 -17 5 -18 34 -18 425 0 361 2 419 15 419 8 0 457 -97 997
-215z m1334 -291 c20 -5 22 -14 27 -122 7 -154 29 -216 106 -293 40 -40 73
-62 116 -78 89 -34 147 -32 715 19 118 11 254 20 301 20 235 0 446 -85 605
-244 47 -47 98 -111 122 -152 123 -212 150 -490 76 -771 -15 -54 -29 -112 -31
-130 l-5 -31 -36 13 c-21 7 -36 17 -35 21 1 5 14 40 28 77 95 256 62 566 -84
789 -137 210 -349 336 -608 363 -121 12 -323 -30 -448 -93 -203 -102 -383
-301 -465 -515 -51 -131 -64 -199 -64 -347 0 -142 17 -236 63 -343 l20 -47
-40 0 c-83 0 -145 -49 -169 -134 -16 -57 -45 -78 -60 -44 -5 13 -49 196 -97
408 l-87 385 -3 628 c-4 600 -3 627 14 627 10 0 27 -3 39 -6z m-1301 -774
c569 -126 1037 -230 1040 -230 3 0 5 -34 5 -75 0 -41 -3 -75 -7 -75 -5 0 -471
105 -1037 234 -645 146 -1031 239 -1037 247 -9 15 -13 129 -4 129 3 0 471
-103 1040 -230z m2689 35 c143 -37 294 -152 364 -277 160 -280 101 -643 -142
-883 -133 -130 -277 -198 -449 -211 -264 -19 -510 144 -603 401 -142 391 116
871 522 969 80 19 235 20 308 1z m-2644 -397 c564 -127 1026 -233 1028 -234 6
-4 142 -628 137 -632 -3 -4 -2055 445 -2061 451 -3 3 -144 628 -144 639 0 4 3
8 8 8 4 0 468 -104 1032 -232z"/>
<path d="M27248 19840 c-174 -22 -314 -65 -360 -111 -36 -35 -35 -44 5 -84 61
-61 262 -107 527 -121 330 -17 704 59 735 150 9 26 6 31 -28 61 -41 36 -129
67 -258 91 -96 19 -511 28 -621 14z"/>
<path d="M28955 19498 c-107 -12 -238 -43 -302 -72 -173 -80 -47 -182 282
-228 135 -19 476 -16 610 6 251 40 370 111 305 181 -45 48 -200 95 -382 114
-114 13 -399 12 -513 -1z"/>
<path d="M25087 19379 c-267 -19 -467 -87 -467 -159 0 -162 891 -224 1200 -84
70 32 90 51 90 85 0 76 -195 139 -492 159 -158 11 -163 11 -331 -1z"/>
<path d="M26880 19355 c-255 -31 -413 -83 -449 -146 -13 -24 -13 -29 3 -54 55
-84 333 -143 716 -152 323 -8 559 16 739 72 94 30 142 61 156 99 9 26 6 31
-27 60 -63 55 -205 94 -438 121 -154 18 -551 18 -700 0z"/>
<path d="M27630 18864 c-208 -23 -330 -49 -394 -81 -182 -92 -27 -194 354
-234 141 -15 440 -7 562 15 394 71 399 209 9 277 -111 20 -438 34 -531 23z"/>
<path d="M21754 12949 c-65 -93 -69 -81 38 -144 338 -200 766 -219 1113 -50
141 68 137 61 87 136 -73 110 -55 105 -166 49 -141 -71 -245 -94 -426 -94
-117 0 -163 4 -235 22 -85 22 -252 95 -322 142 l-31 21 -58 -82z"/>
<path d="M31650 12969 c-168 -14 -347 -70 -495 -154 -116 -66 -113 -59 -55
-143 28 -39 55 -74 60 -77 6 -3 41 13 80 35 85 51 181 91 280 116 60 15 109
19 240 18 196 -1 271 -17 420 -92 l96 -48 54 79 55 79 -25 20 c-66 54 -259
128 -392 152 -108 19 -213 24 -318 15z"/>
<path d="M12420 12894 c-79 -14 -142 -34 -450 -143 -247 -87 -467 -93 -675
-17 l-66 24 -9 -22 c-4 -11 -20 -52 -35 -89 -16 -39 -24 -72 -19 -77 5 -5 45
-20 89 -35 271 -88 545 -71 865 55 263 104 371 125 595 117 174 -7 214 -15
470 -102 373 -126 589 -144 829 -68 103 32 238 101 229 117 -10 16 -96 150
-99 154 -1 2 -40 -15 -86 -37 -112 -54 -199 -73 -333 -73 -143 0 -261 25 -490
103 -267 91 -317 100 -540 105 -140 2 -212 -1 -275 -12z"/>
<path d="M8022 12816 c-29 -41 -52 -78 -52 -83 0 -16 162 -106 260 -144 141
-56 278 -81 435 -81 142 -1 216 10 345 48 86 26 226 90 268 122 l22 17 -55 82
-55 82 -51 -30 c-65 -38 -149 -72 -236 -95 -53 -15 -104 -19 -238 -19 -147 0
-181 3 -248 23 -103 30 -185 65 -264 113 -36 21 -68 39 -72 39 -4 0 -31 -33
-59 -74z"/>
<path d="M18825 12796 c-113 -22 -218 -53 -358 -107 -73 -28 -152 -57 -177
-65 -149 -44 -393 -57 -555 -29 -48 9 -180 47 -294 85 -113 38 -253 79 -311
91 -139 29 -331 31 -445 5 -130 -29 -321 -115 -312 -140 8 -19 98 -156 103
-156 2 0 36 16 75 36 106 53 201 74 337 74 150 0 256 -22 517 -109 249 -82
360 -103 545 -103 167 0 298 21 445 72 61 21 169 59 240 84 260 91 443 98 666
27 l87 -28 32 81 c18 44 34 86 37 92 5 14 -53 38 -175 70 -120 32 -345 42
-457 20z"/>
<path d="M25260 11364 c-135 -17 -308 -68 -415 -121 -67 -33 -165 -96 -165
-106 0 -4 23 -40 52 -80 28 -39 53 -73 54 -75 1 -2 37 17 81 42 163 96 316
138 508 139 174 0 300 -29 448 -106 43 -22 79 -38 81 -36 2 2 27 38 55 79 l52
75 -23 19 c-66 53 -251 126 -387 152 -78 15 -279 26 -341 18z"/>
<path d="M14329 11315 c-121 -23 -236 -63 -349 -121 -58 -30 -115 -63 -128
-72 l-23 -18 58 -81 58 -82 30 20 c68 46 236 120 320 141 117 29 352 32 459 5
86 -22 202 -68 256 -102 23 -15 46 -23 50 -18 4 4 30 41 59 82 l51 75 -47 30
c-71 44 -195 95 -303 123 -120 32 -370 41 -491 18z"/>
<path d="M29440 11214 c-82 -15 -148 -36 -435 -138 -171 -60 -289 -80 -425
-73 -97 6 -261 41 -310 67 -16 9 -22 -1 -55 -82 -20 -50 -32 -94 -28 -98 15
-15 175 -60 267 -76 67 -12 126 -15 221 -11 159 7 279 35 482 113 79 30 165
62 191 69 153 45 386 58 548 30 49 -9 170 -43 269 -76 397 -133 582 -155 815
-98 79 20 223 79 269 111 20 14 19 16 -29 92 -26 43 -51 80 -53 83 -3 2 -37
-12 -77 -32 -107 -54 -205 -76 -335 -77 -149 -1 -251 20 -495 102 -113 38
-239 76 -280 85 -109 24 -427 30 -540 9z"/>
<path d="M21185 11094 c-109 -16 -216 -44 -400 -104 -282 -91 -342 -104 -495
-105 -149 0 -233 18 -345 76 l-76 38 -53 -82 c-62 -95 -65 -87 49 -142 115
-56 235 -86 366 -92 186 -9 317 15 619 117 204 68 292 88 433 96 188 12 354
-20 584 -111 358 -140 609 -155 921 -54 34 11 62 26 62 32 0 6 -15 49 -32 95
-24 60 -37 82 -48 79 -8 -3 -55 -17 -105 -32 -71 -22 -117 -28 -220 -32 -158
-6 -257 10 -418 69 -383 139 -422 148 -647 153 -91 2 -178 1 -195 -1z"/>
<path d="M10529 10960 c-164 -15 -282 -46 -509 -135 -275 -108 -506 -120 -742
-41 l-70 23 -8 -21 c-4 -12 -20 -52 -35 -89 -16 -39 -24 -72 -19 -77 16 -15
174 -60 268 -76 67 -12 126 -15 221 -11 159 7 295 40 506 122 205 80 275 96
459 102 201 7 280 -7 554 -97 318 -104 488 -132 664 -111 114 14 233 51 334
103 72 37 77 42 66 62 -9 16 -81 129 -94 144 -1 2 -40 -15 -86 -37 -111 -54
-197 -72 -332 -72 -157 0 -274 25 -514 110 -178 62 -292 89 -438 101 -66 5
-123 9 -129 8 -5 0 -49 -4 -96 -8z"/>
<path d="M18045 10939 c-53 -36 -178 -95 -245 -117 -137 -44 -284 -59 -415
-42 -133 16 -198 35 -314 91 -56 28 -104 49 -105 47 -2 -2 -27 -38 -56 -81
-43 -64 -51 -80 -39 -88 8 -5 52 -29 99 -53 359 -185 796 -162 1161 59 32 20
59 40 59 45 0 11 -102 159 -110 159 -3 1 -18 -8 -35 -20z"/>
<path d="M27595 9460 c-91 -15 -212 -48 -291 -81 -100 -42 -239 -124 -238
-141 1 -7 25 -46 54 -86 l52 -72 42 26 c211 129 429 181 654 155 122 -14 257
-55 349 -107 34 -19 63 -34 66 -34 12 0 109 162 101 170 -5 5 -43 27 -84 49
-84 45 -192 83 -302 107 -87 19 -319 27 -403 14z"/>
<path d="M24195 9410 c-128 -14 -217 -36 -420 -105 -237 -80 -358 -105 -502
-105 -131 0 -232 23 -340 77 -40 20 -75 35 -77 32 -25 -28 -96 -154 -92 -164
9 -23 167 -94 272 -121 83 -22 121 -26 234 -26 174 -1 279 21 555 113 268 89
343 102 550 96 191 -5 237 -15 472 -103 95 -35 219 -76 275 -89 139 -35 310
-43 440 -21 96 16 255 60 272 77 9 8 -4 50 -45 146 l-18 41 -68 -23 c-115 -39
-183 -49 -313 -49 -149 0 -266 26 -462 103 -147 58 -234 84 -343 105 -105 19
-289 27 -390 16z"/>
<path d="M11825 9313 l-56 -78 23 -18 c40 -33 141 -88 223 -122 317 -131 663
-120 973 30 61 31 112 60 112 66 0 14 -99 159 -108 159 -4 0 -38 -16 -74 -35
-155 -82 -289 -110 -495 -102 -109 4 -156 10 -226 31 -86 26 -193 74 -269 122
-21 13 -40 24 -42 24 -3 0 -30 -35 -61 -77z"/>
<path d="M8470 9374 c-94 -12 -245 -50 -387 -99 -87 -29 -193 -63 -236 -74
-243 -63 -440 -50 -619 40 l-77 38 -47 -72 c-26 -40 -49 -79 -51 -88 -3 -12
18 -27 79 -57 126 -62 242 -92 379 -99 186 -9 340 20 634 121 192 65 282 85
429 93 191 10 339 -20 597 -120 237 -91 436 -125 617 -107 96 10 248 46 316
74 l35 14 -37 92 c-27 68 -40 90 -52 87 -8 -3 -55 -17 -105 -32 -71 -22 -117
-28 -221 -32 -156 -6 -242 8 -414 69 -410 144 -425 148 -645 153 -88 2 -176 1
-195 -1z"/>
<path d="M15145 9279 c-76 -10 -202 -42 -270 -68 l-42 -16 35 -93 c28 -72 39
-91 51 -87 65 25 196 56 273 64 175 17 338 -13 583 -109 162 -64 283 -96 422
-111 220 -24 418 4 698 100 264 90 334 105 505 105 164 1 241 -16 357 -79 l62
-34 50 80 c28 44 51 84 51 89 0 15 -178 97 -265 122 -70 20 -102 23 -255 23
-204 -1 -271 -14 -570 -115 -236 -79 -303 -92 -480 -93 -170 -1 -274 16 -419
69 -53 20 -139 52 -191 71 -200 73 -428 105 -595 82z"/>
<path d="M31020 9273 c-115 -19 -214 -45 -390 -103 -256 -85 -342 -103 -490
-104 -137 -1 -221 18 -336 74 -43 21 -81 37 -84 35 -3 -2 -28 -38 -54 -81 -48
-74 -49 -77 -30 -91 38 -29 131 -71 209 -96 247 -78 455 -60 852 73 231 77
346 100 498 100 182 -1 299 -25 510 -108 209 -81 342 -113 502 -119 79 -4 164
-1 215 7 77 11 264 64 280 78 5 6 -54 167 -66 179 -2 3 -39 -7 -83 -20 -120
-38 -219 -51 -346 -44 -131 7 -237 34 -425 106 -242 94 -381 122 -597 120 -77
-1 -151 -4 -165 -6z"/>
<path d="M19845 9150 c-30 -43 -55 -80 -55 -83 0 -3 34 -26 74 -52 289 -180
655 -224 988 -119 79 25 212 86 252 117 19 14 16 21 -88 174 -1 1 -45 -20 -98
-46 -145 -72 -250 -96 -428 -96 -207 1 -344 37 -508 134 l-82 49 -55 -78z"/>
</g>
</svg>
