<svg width="3523" height="1114" viewBox="0 0 3523 1114" fill="none" xmlns="http://www.w3.org/2000/svg">
<g clip-path="url(#clip0_55_605)">
<path d="M315.356 716.473C313.396 712.507 311.684 709.367 310.221 706.861C311.132 709.808 312.347 713.471 314.031 717.96C315.328 721.458 316.708 724.874 318.061 728.344C318.696 727.408 319.304 726.499 319.966 725.562C318.42 722.56 316.847 719.53 315.328 716.473H315.356Z" fill="#5D5D5D"/>
<path d="M557.665 949.431L563.573 949.486C557.803 947.365 551.978 945.051 546.153 942.572L557.665 949.431Z" fill="#5D5D5D"/>
<path d="M485.582 948.769L548.61 949.348L389.012 854.16C417.033 890.654 449.527 922.356 485.582 948.769Z" fill="#6B76D2"/>
<path d="M492.042 953.397C541.156 988.073 596.646 1013.05 656.526 1026.77L656.444 1026.11C662.048 1025.34 667.348 1024.37 672.428 1023.19L556.367 954.003L492.015 953.397H492.042Z" fill="#5564A0"/>
<path d="M322.368 730.107C321.595 731.209 320.85 732.338 320.104 733.467C336.641 773.983 357.457 811.166 381.889 844.603L451.404 886.055C402.871 847.963 357.512 796.292 322.368 730.107Z" fill="#793EA3"/>
<path d="M761.545 934.392C752.213 944.831 739.569 953.039 724.137 958.658C707.462 965.378 687.281 968.986 664.312 968.986C637.56 968.986 607.91 964.111 577.128 954.168L565.422 954.058L678.695 1021.62C682.312 1020.63 685.79 1019.55 689.131 1018.37C731.646 1001.95 752.407 969.372 761.545 934.392Z" fill="#2D899E"/>
<path d="M1025.75 599.967L935.802 745.531C935.857 746.963 935.912 748.368 935.967 749.773L1024.59 771.779C1024.81 769.906 1025.06 768.033 1025.25 766.161C1032.34 697.689 1031.16 643.209 1025.77 599.967H1025.75Z" fill="#3AAACC"/>
<path d="M841.412 982.675C818.388 1005.2 791.912 1024.26 762.87 1038.97C763.974 1038.97 765.078 1039 766.182 1039C767.673 1039 769.164 1039 770.682 1039C787.109 1038.86 807.262 1035.01 828.989 1027.24C840.998 1022.75 853.421 1017.1 865.955 1010.19L841.44 982.702L841.412 982.675Z" fill="#5564A0"/>
<path d="M869.986 1007.88C938.369 968.876 1008.41 893.684 1024.01 776.351L936.022 754.51C936.022 755.749 936.05 756.961 936.05 758.201C936.05 844.382 901.099 922.549 844.642 979.425L869.986 1007.85V1007.88Z" fill="#2D899E"/>
<path d="M755.278 1037.62C786.143 1022.75 814.219 1002.97 838.403 979.26L810.63 948.081L755.305 1037.62H755.278Z" fill="#2D899E"/>
<path d="M780.566 914.369C774.133 957.721 752.876 1008.43 691.919 1029.5L700.588 1034.68C716.572 1036.8 732.805 1038.15 749.259 1038.7L807.455 944.556L780.566 914.369Z" fill="#5564A0"/>
<path d="M777.281 826.92L777.833 826.81C778.054 827.746 783.051 849.891 783.051 879.912C783.051 888.561 782.609 898.228 781.366 908.419L809.94 940.507L926.36 752.141L926.526 751.893L694.873 670.587C694.873 670.587 695.066 670.835 695.177 670.945C739.541 725.232 767.204 778.031 777.308 826.92H777.281Z" fill="#2D899E"/>
<path d="M931.164 744.319C924.096 585.342 796.495 457.13 637.533 448.591C631.928 460.931 628.174 473.876 626.379 487.482C617.158 557.33 659.536 625.499 689.489 663.839L928.983 747.9L931.191 744.319H931.164Z" fill="#3AAACC"/>
<path d="M684.051 1032.2C685.624 1032.47 687.226 1032.69 688.799 1032.94L686.342 1031.48C685.597 1031.73 684.824 1031.95 684.051 1032.2Z" fill="#5D5D5D"/>
<path d="M931.44 753.353L931.026 753.243L813.115 944.005L841.606 976.01C897.124 919.96 931.495 843.005 931.495 758.173C931.495 756.548 931.467 754.951 931.44 753.325V753.353Z" fill="#3AAACC"/>
<path d="M986.571 266.533C956.894 222.823 914.213 188.78 864.105 169.692L872.498 247.473C899.553 253.092 927.795 262.567 955.154 275.154L986.571 266.561V266.533Z" fill="#27C46A"/>
<path d="M1120.63 417.826C1120.47 417.385 1120.33 416.917 1120.16 416.476C1119.64 414.934 1119.09 413.419 1118.56 411.904C1117.84 409.811 1117.1 407.745 1116.35 405.68C1115.77 404.11 1115.22 402.54 1114.64 400.997C1113.9 399.014 1113.18 397.031 1112.43 395.048C1111.85 393.478 1111.25 391.936 1110.67 390.366C1109.92 388.41 1109.18 386.482 1108.4 384.554C1107.82 383.012 1107.22 381.497 1106.61 379.982C1105.83 378.027 1105.06 376.099 1104.26 374.171C1103.65 372.711 1103.07 371.223 1102.47 369.764C1101.64 367.753 1100.78 365.742 1099.93 363.759C1099.37 362.41 1098.79 361.088 1098.22 359.738C1097.17 357.314 1096.12 354.918 1095.07 352.522C1094.68 351.641 1094.29 350.759 1093.91 349.905C1092.47 346.71 1091.04 343.57 1089.57 340.431C1088.99 339.219 1088.44 338.007 1087.86 336.795C1086.95 334.839 1086.01 332.884 1085.07 330.956C1084.41 329.579 1083.75 328.229 1083.09 326.879C1082.62 325.915 1082.15 324.979 1081.68 324.015C1081.35 323.354 1080.99 322.665 1080.66 322.004C1079.8 320.324 1078.95 318.672 1078.09 317.019C1077.37 315.642 1076.63 314.237 1075.91 312.86C1075.05 311.235 1074.17 309.638 1073.31 308.013C1072.57 306.635 1071.82 305.286 1071.08 303.909C1070.19 302.311 1069.31 300.741 1068.43 299.144C1067.68 297.822 1066.94 296.472 1066.16 295.15C1065.25 293.553 1064.31 291.955 1063.37 290.385C1062.63 289.118 1061.91 287.851 1061.17 286.612C1060.14 284.904 1059.12 283.197 1058.07 281.516C1057.41 280.415 1056.75 279.313 1056.09 278.239C1054.43 275.567 1052.75 272.895 1051.06 270.251C1050.45 269.315 1049.85 268.378 1049.24 267.442C1048.11 265.707 1046.98 263.944 1045.82 262.236C1045.04 261.08 1044.27 259.95 1043.5 258.821C1042.89 257.912 1042.28 257.031 1041.68 256.149L993.722 269.287C1001.84 281.819 1008.82 294.985 1014.68 308.646C1049.13 332.085 1089.71 367.505 1120.69 417.826H1120.63Z" fill="#1AAD71"/>
<path d="M961.504 278.129C977.378 285.758 992.893 294.434 1007.64 304.019C1002.31 292.368 996.151 281.186 989.222 270.554L961.504 278.129Z" fill="#52CC52"/>
<path d="M1196.03 792.106C1200.14 784.449 1203.54 778.252 1206.82 773.79C1230.15 715.482 1242.82 655.493 1245.09 595.863L1198.57 515.631L1196.03 792.106Z" fill="#7FD0EA"/>
<path d="M1057.36 942.986C1051.97 948.412 1049.27 952.736 1048.03 955.82C1050.04 955.215 1053.05 953.892 1057.11 950.918C1128.36 898.944 1163.09 849.808 1182.94 815.82L1148.16 807.172C1129.05 856.143 1099.1 900.928 1057.36 942.986Z" fill="#7FD0EA"/>
<path d="M1094.82 324.153C1097.97 330.57 1101.09 337.043 1104.12 343.708L1140.26 406.01L1184.32 334.674C1176.12 319.691 1167.18 304.955 1157.41 290.55C1065.91 155.59 923.875 75 777.474 75C851.296 82.6569 916.946 110.751 973.044 158.813C1020.72 199.631 1061.41 254.937 1094.82 324.125V324.153Z" fill="#00F5DA"/>
<path d="M1186.83 339.329L1142.86 410.472L1194.15 498.912L1195.45 356.24C1194.65 354.56 1193.76 352.88 1192.94 351.2C1190.95 347.234 1188.91 343.267 1186.81 339.329H1186.83Z" fill="#40BDED"/>
<path d="M1245.36 587.242C1246.96 511.361 1231.67 436.225 1199.92 366.018L1198.62 506.679L1245.36 587.242Z" fill="#00F5DA"/>
<path d="M1140.12 414.879L1135.21 422.839C1144.71 450.932 1153.32 480.679 1160.99 512.05L1163.53 522.489L1163.31 522.406C1166.1 535.021 1168.17 547.856 1169.5 560.691C1175.24 616.63 1179.71 689.784 1162.98 759.771C1159.45 774.506 1155 788.856 1149.76 802.875L1185.29 811.689C1187.5 807.805 1189.51 804.142 1191.36 800.727L1194.04 507.864L1140.1 414.879H1140.12Z" fill="#A4F4E7"/>
<path d="M1133.3 417.248L1137.53 410.417L1118.75 378.054C1123.81 390.724 1128.64 403.807 1133.28 417.248H1133.3Z" fill="#5D5D5D"/>
<path d="M525.419 403.641C515.978 395.268 506.812 389.347 497.426 385.573C488.729 382.075 479.729 380.395 469.929 380.395C454.579 380.395 437.159 384.499 415.156 393.258C411.76 394.635 408.337 395.792 404.914 396.811C396.355 399.345 387.742 400.804 378.825 401.218C377.03 401.3 375.263 401.355 373.441 401.355C358.009 401.355 343.819 398.27 331.313 395.571L327.254 394.69C326.343 394.497 325.405 394.222 324.494 393.891C324.19 393.781 323.886 393.643 323.583 393.533C322.948 393.285 322.313 393.065 321.705 392.762C321.346 392.597 320.988 392.431 320.629 392.239C320.049 391.936 319.497 391.633 318.917 391.33C318.558 391.109 318.199 390.889 317.84 390.669C317.288 390.338 316.736 389.98 316.212 389.594C315.88 389.347 315.521 389.099 315.19 388.851C314.638 388.438 314.141 388.025 313.616 387.584C313.313 387.336 313.009 387.088 312.705 386.813C312.126 386.289 311.573 385.738 311.021 385.188C310.828 384.967 310.58 384.774 310.386 384.554C309.669 383.81 309.006 383.039 308.371 382.213C300.475 400.557 294.098 417.909 289.212 434.324C302.546 476.52 358.092 508.277 424.404 508.277C484.036 508.277 534.944 482.634 554.324 446.801C547.892 429.807 538.119 414.961 525.364 403.669L525.419 403.641Z" fill="#F805D1"/>
<path d="M519.318 609.001L517.551 608.395L512.996 606.798C512.996 606.798 512.996 606.797 513.051 606.742L278.5 524.417C280.433 540.281 284.877 554.466 291.917 566.833C319.856 615.832 370.211 646.294 423.383 646.294C441.769 646.294 460.294 642.768 478.404 635.773C481.966 634.395 485.417 632.853 488.812 631.145C488.895 631.063 488.978 631.008 489.033 630.925C495.107 627.84 500.877 624.232 506.343 620.156C510.898 616.768 515.232 613.022 519.318 609.001Z" fill="#8F239B"/>
<path d="M559.791 453.549C538.257 488.997 487.239 513.978 427.883 513.978C362.73 513.978 307.653 483.874 290.564 442.862C282.558 472.03 279.494 497.948 281.426 520.561L519.843 604.264L524.536 605.889L526.469 606.577C532.873 599.746 538.616 592.145 543.64 583.882C547.422 577.657 550.791 571.074 553.717 564.161C558.327 553.227 561.833 541.493 564.097 529.099C568.956 502.41 567.217 476.272 559.791 453.577V453.549Z" fill="#DA26DD"/>
<path d="M813.998 330.57C796.606 318.561 778.909 307.159 760.965 296.555C750.529 290.385 739.956 284.794 729.272 279.698C717.262 288.292 707.517 298.152 697.551 308.233C688.523 317.377 679.192 326.824 668.066 335.142C654.318 345.416 639.603 352.577 622.569 357.259C634.744 359.27 647.416 362.134 660.612 365.797C662.379 365.247 664.146 364.668 665.913 364.145C682.505 359.242 699.925 355.552 719.167 352.88C719.361 352.852 719.554 352.825 719.775 352.797C748.183 337.924 776.949 330.35 805.661 330.35C808.449 330.35 811.21 330.405 813.971 330.57H813.998Z" fill="#9948C9"/>
<path d="M515.122 365.192C520.837 363.016 524.646 360.922 531.162 360.041C532.515 359.655 533.895 359.27 535.275 358.912C531.742 355.717 527.904 352.715 523.818 349.85C522.024 349.024 520.257 348.198 518.49 347.289C517.8 350.071 515.867 357.92 515.122 365.164V365.192Z" fill="#B127BB"/>
<path d="M485.555 330.956L464.407 369.185C466.285 369.075 468.107 368.992 469.929 368.992C471.282 368.992 472.607 369.02 473.959 369.075C474.374 369.075 474.815 369.13 475.229 369.158C476.113 369.213 476.996 369.268 477.907 369.351C478.432 369.406 478.929 369.461 479.426 369.516C480.226 369.598 480.999 369.681 481.8 369.791C482.324 369.874 482.849 369.957 483.401 370.039C484.147 370.149 484.892 370.287 485.637 370.397C486.162 370.507 486.714 370.618 487.239 370.7C487.984 370.838 488.702 371.003 489.42 371.168C489.944 371.279 490.496 371.416 491.021 371.554C491.739 371.719 492.456 371.912 493.174 372.132C493.699 372.298 494.223 372.435 494.748 372.601C495.466 372.821 496.183 373.041 496.901 373.289C497.426 373.454 497.923 373.62 498.42 373.812C498.613 373.868 498.806 373.923 498.972 374.005C507.392 368.965 507.585 368.497 509.021 367.643C509.021 367.643 512.058 351.585 514.238 345.113C509.656 342.606 505.211 339.88 500.932 336.988C496.018 334.784 490.883 332.746 485.555 330.983V330.956Z" fill="#793EA3"/>
<path d="M314.113 367.698L314.693 367.918C314.334 369.323 314.859 371.279 316.184 373.454C319.055 378.109 324.991 382.544 329.684 383.563L333.77 384.444C344.73 386.813 356.021 389.264 368.196 389.842C369.935 389.925 371.675 389.953 373.469 389.953C386.417 389.953 398.674 387.556 410.932 382.681C429.401 375.327 444.944 371.086 458.969 369.626L481.137 329.524C463.828 324.263 444.668 321.288 424.487 321.288C384.457 321.288 348.374 332.856 323.113 351.282C320.132 355.689 317.564 360.069 315.577 364.365C315.052 365.467 314.583 366.569 314.141 367.698H314.113Z" fill="#B127BB"/>
<path d="M688.91 371.967C695.397 367.285 701.913 363.043 708.456 359.16C694.404 361.501 681.263 364.475 668.646 368.111C674.471 369.846 680.407 371.774 686.425 373.812C687.253 373.207 688.054 372.573 688.882 371.967H688.91Z" fill="#8F239B"/>
<path d="M1040.49 594.321C1050.51 603.905 1060.26 613.628 1069.64 623.516C1072.57 626.601 1075.63 629.933 1078.67 633.266C1086.65 641.97 1099.79 656.319 1104.79 657.779C1105.5 656.981 1105.67 655.906 1104.48 652.133C1102.25 645.165 1095.92 633.211 1083.94 613.353C1073.34 595.78 1061.86 578.401 1049.65 561.297L1038.36 579.558C1039.14 584.322 1039.83 589.253 1040.49 594.321Z" fill="#5564A0"/>
<path d="M454.22 263.09C454.082 263.145 453.944 263.173 453.806 263.228C454.496 264.88 455.214 266.506 455.987 268.158C456.733 269.756 457.533 271.326 458.389 272.923C458.361 272.868 458.306 272.785 458.279 272.73C456.76 269.508 455.435 266.285 454.22 263.09Z" fill="#5D5D5D"/>
<path d="M445.662 273.033C444.751 271.078 443.895 269.122 443.095 267.167C427.938 272.978 414.714 279.203 403.671 285.069C373.276 301.265 347.905 320.93 331.285 340.541C356.297 325.723 388.874 316.716 424.46 316.716C445.441 316.716 465.374 319.856 483.346 325.475L484.229 323.877C467.306 308.784 454.137 290.853 445.662 273.006V273.033Z" fill="#793EA3"/>
<path d="M1046.76 557.275C1040.74 548.958 1034.53 540.722 1028.15 532.542C1031.49 544.551 1034.58 557.881 1037.2 572.755L1046.76 557.275Z" fill="#8F239B"/>
<path d="M1022.41 577.492C1016.53 543.366 1008.05 517.366 999.685 497.645C991.513 478.393 983.452 465.145 978.013 456.221C956.176 420.36 904.964 363.319 837.658 347.454C832.606 346.27 827.471 345.306 822.225 344.617C815.848 344.589 784.707 339.026 743.931 354.202C729.051 360.151 714.226 368.304 699.483 378.522C698.186 379.431 696.861 380.313 695.536 381.277C669.971 399.675 651.281 420.745 639.576 444.212C797.82 453.632 925.007 579.971 935.305 737.599L1024.72 592.888C1024.01 587.6 1023.21 582.477 1022.35 577.547L1022.41 577.492Z" fill="#7FD0EA"/>
<path d="M849.722 105.876C848.231 105.407 846.74 104.912 845.25 104.471C844.118 104.113 842.986 103.782 841.826 103.424C840.308 102.984 838.762 102.543 837.216 102.102C836.112 101.799 834.98 101.469 833.876 101.166C832.247 100.725 830.59 100.312 828.961 99.8988C827.912 99.6233 826.891 99.3479 825.869 99.1C823.909 98.6318 821.949 98.1911 820.017 97.7229C819.271 97.5576 818.526 97.3924 817.78 97.1996C815.075 96.6212 812.369 96.0428 809.636 95.5195C808.946 95.3817 808.228 95.2716 807.538 95.1339C805.495 94.7483 803.452 94.3627 801.382 94.0321C800.36 93.8669 799.311 93.7016 798.29 93.5364C796.55 93.2609 794.784 92.9855 793.044 92.7376C791.912 92.5724 790.753 92.4071 789.621 92.2694C787.937 92.0491 786.281 91.8287 784.624 91.6084C783.437 91.4707 782.25 91.3329 781.035 91.1952C779.379 91.0024 777.722 90.8372 776.066 90.6719C774.851 90.5617 773.664 90.4516 772.449 90.3414C770.765 90.2037 769.081 90.066 767.397 89.9283C766.21 89.8456 765.023 89.763 763.836 89.6804C762.069 89.5702 760.302 89.46 758.535 89.3774C757.403 89.3223 756.271 89.2397 755.112 89.2121C753.179 89.1295 751.219 89.0744 749.259 89.0193C748.293 88.9918 747.327 88.9367 746.36 88.9367C743.434 88.8816 740.48 88.8265 737.526 88.8265C734.572 88.8265 731.784 88.8541 728.94 88.9092C727.726 88.9092 726.511 88.9918 725.296 89.0193C723.667 89.0744 722.038 89.102 720.41 89.1571C719.361 89.2121 718.339 89.2672 717.318 89.3223C715.523 89.4049 713.729 89.4876 711.934 89.5977C710.913 89.6528 709.919 89.7355 708.897 89.8181C707.103 89.9283 705.308 90.0384 703.514 90.1761C702.244 90.2863 700.974 90.3965 699.704 90.5067C698.186 90.6444 696.667 90.7545 695.149 90.8923C693.824 91.03 692.499 91.1677 691.201 91.3054C689.766 91.4431 688.302 91.5808 686.867 91.7461C685.597 91.8838 684.327 92.0491 683.057 92.2143C681.566 92.3796 680.103 92.5724 678.64 92.7652C677.425 92.9304 676.21 93.0957 674.996 93.2609C673.505 93.4813 671.986 93.6741 670.523 93.8944C669.336 94.0597 668.177 94.2525 666.99 94.4453C665.499 94.6932 663.98 94.9135 662.49 95.1614C661.275 95.3817 660.06 95.5745 658.845 95.7949C657.41 96.0428 655.974 96.2631 654.566 96.5385C653.352 96.7589 652.164 96.9792 650.977 97.2271C649.542 97.5025 648.106 97.7504 646.671 98.0259C645.539 98.2462 644.434 98.4941 643.303 98.7144C641.839 99.0174 640.376 99.3204 638.885 99.6233C637.836 99.8437 636.787 100.092 635.738 100.312C634.247 100.642 632.729 100.973 631.211 101.303C630.189 101.524 629.195 101.772 628.174 102.02C626.655 102.378 625.137 102.708 623.646 103.094C622.597 103.342 621.576 103.617 620.554 103.865C619.091 104.223 617.628 104.581 616.192 104.967C615.143 105.242 614.122 105.518 613.073 105.793C611.941 106.096 610.809 106.399 609.677 106.702L532.901 245.545L493.45 316.881C500.821 323.271 508.91 329.083 517.662 334.013C527.987 300.962 544.827 270.114 567.024 243.452C578.398 229.791 591.152 217.204 605.149 206.021C652.579 168.095 709.864 148.044 770.793 148.044C801.189 148.044 830.894 153.167 858.86 162.972L852.621 106.84C851.682 106.537 850.744 106.234 849.805 105.903L849.722 105.876Z" fill="#29E57E"/>
<path d="M1037.95 250.889C1036.95 249.484 1035.99 248.107 1034.99 246.757C1034.14 245.573 1033.28 244.389 1032.43 243.232C1031.46 241.882 1030.47 240.56 1029.47 239.238C1028.59 238.081 1027.73 236.924 1026.85 235.768C1025.86 234.473 1024.84 233.179 1023.84 231.884C1022.96 230.755 1022.07 229.653 1021.19 228.524C1020.17 227.229 1019.12 225.962 1018.07 224.695C1017.19 223.621 1016.33 222.547 1015.45 221.473C1014.34 220.151 1013.24 218.829 1012.11 217.534C1011.28 216.57 1010.45 215.579 1009.62 214.615C1008.24 213.045 1006.86 211.475 1005.48 209.905C1004.65 208.996 1003.85 208.06 1003.03 207.151C1001.31 205.278 999.602 203.405 997.89 201.587C997.062 200.706 996.234 199.852 995.406 198.998C994.219 197.731 993.004 196.492 991.817 195.252C990.906 194.316 989.995 193.407 989.056 192.498C987.924 191.369 986.792 190.212 985.633 189.11C984.694 188.174 983.728 187.265 982.762 186.356C981.63 185.282 980.498 184.207 979.366 183.133C978.4 182.224 977.406 181.315 976.44 180.434C975.308 179.387 974.148 178.368 972.989 177.322C971.995 176.44 971.029 175.559 970.035 174.678C968.848 173.659 967.688 172.639 966.501 171.648C965.535 170.822 964.541 169.968 963.575 169.142C962.332 168.122 961.118 167.103 959.848 166.084C958.909 165.313 957.97 164.542 957.004 163.771C955.624 162.669 954.216 161.595 952.808 160.493C952.007 159.86 951.206 159.226 950.378 158.62C948.197 156.968 946.016 155.343 943.808 153.745C943.062 153.194 942.317 152.698 941.572 152.148C940.053 151.073 938.535 149.972 937.016 148.925C936.05 148.264 935.084 147.631 934.145 146.997C932.792 146.088 931.467 145.179 930.115 144.325C929.093 143.664 928.072 143.003 927.05 142.342C925.753 141.516 924.455 140.69 923.13 139.863C922.081 139.202 921.004 138.569 919.955 137.908C918.658 137.137 917.36 136.366 916.062 135.594C914.986 134.961 913.909 134.355 912.832 133.721C911.507 132.95 910.182 132.234 908.857 131.463C907.78 130.884 906.731 130.279 905.654 129.7C904.274 128.956 902.894 128.24 901.513 127.497C900.464 126.946 899.443 126.423 898.394 125.872C896.903 125.1 895.385 124.357 893.866 123.613C892.928 123.145 892.016 122.677 891.078 122.236C889.007 121.244 886.937 120.28 884.866 119.344C884.369 119.124 883.872 118.876 883.348 118.655C881.001 117.609 878.627 116.59 876.253 115.571C875.342 115.185 874.431 114.827 873.52 114.469C871.891 113.808 870.29 113.147 868.661 112.513C867.612 112.1 866.563 111.715 865.514 111.302C864.023 110.723 862.504 110.172 860.986 109.621C859.882 109.236 858.777 108.85 857.673 108.465L863.636 164.597C897.069 177.046 927.878 196.271 954.271 221.528C968.24 234.886 980.553 249.539 991.127 265.239L1038.97 252.156C1038.67 251.715 1038.36 251.274 1038.06 250.861L1037.95 250.889Z" fill="#52CC52"/>
<path d="M601.505 108.878C600.594 109.126 599.683 109.401 598.744 109.676C597.281 110.09 595.818 110.53 594.355 110.943C593.499 111.191 592.643 111.467 591.787 111.742C590.297 112.183 588.806 112.651 587.343 113.119C586.459 113.395 585.603 113.67 584.748 113.946C583.312 114.414 581.876 114.855 580.441 115.323C579.668 115.571 578.895 115.819 578.122 116.094C576.631 116.59 575.14 117.086 573.677 117.581C572.959 117.829 572.269 118.077 571.551 118.297C570.033 118.821 568.514 119.344 567.051 119.867C566.389 120.088 565.754 120.336 565.091 120.583C563.573 121.107 562.027 121.658 560.536 122.208C559.929 122.429 559.321 122.649 558.714 122.897C557.195 123.448 555.677 123.999 554.186 124.577C553.579 124.798 552.999 125.045 552.419 125.266C550.929 125.844 549.438 126.395 547.975 126.973C547.45 127.166 546.953 127.387 546.456 127.579C544.938 128.185 543.392 128.764 541.901 129.397C541.542 129.535 541.156 129.7 540.769 129.865C539.168 130.526 537.567 131.16 535.965 131.821C535.662 131.931 535.358 132.069 535.027 132.207C533.398 132.895 531.769 133.556 530.168 134.245C529.947 134.327 529.754 134.438 529.533 134.52C527.849 135.236 526.192 135.952 524.536 136.668C524.453 136.696 524.398 136.724 524.315 136.751C518.987 139.065 513.88 141.378 509.021 143.664C508.193 144.188 507.392 144.711 506.591 145.234C505.984 145.62 505.321 146.033 504.714 146.446C503.748 147.08 502.809 147.713 501.87 148.319C501.374 148.65 500.877 148.98 500.38 149.311C499.358 149.999 498.364 150.688 497.343 151.376C496.984 151.624 496.597 151.872 496.239 152.148C495.162 152.864 494.14 153.607 493.119 154.323C492.815 154.516 492.539 154.737 492.236 154.929C491.131 155.701 490.055 156.472 488.978 157.243C488.785 157.381 488.564 157.518 488.371 157.656C487.294 158.427 486.245 159.171 485.196 159.942C485.03 160.08 484.837 160.19 484.671 160.328C483.539 161.127 482.463 161.953 481.358 162.724C481.275 162.779 481.193 162.834 481.11 162.917C479.95 163.771 478.818 164.597 477.714 165.396C472.331 169.334 467.527 173.879 463.441 178.809C445.22 200.898 442.046 231.223 454.193 263.145C455.407 266.34 456.733 269.535 458.251 272.785C458.251 272.84 458.334 272.923 458.361 272.978C465.843 287.3 476.527 301.457 489.834 313.742L527.186 246.179L603.382 108.382C602.747 108.547 602.085 108.74 601.45 108.933L601.505 108.878Z" fill="#5CEA5C"/>
<path d="M859.302 167.902C831.639 157.987 801.796 152.561 770.71 152.561C692.085 152.561 620.665 187.072 572.49 243.369C549.797 269.893 532.294 301.265 521.61 336.161C539.665 345.609 560.343 351.475 582.925 351.475C590.683 351.475 598.524 350.759 606.254 349.327C627.76 345.388 645.207 337.979 661.192 326.026C671.628 318.231 680.241 309.5 689.379 300.245C698.103 291.404 706.937 282.48 717.456 274.3C735.4 260.336 758.259 248.548 793.873 243.259C801.603 242.102 810.05 241.524 818.912 241.524C834.345 241.524 850.799 243.259 867.805 246.509L859.302 167.902Z" fill="#22F4A8"/>
</g>
<path d="M1759.59 141.28C1754.25 139.147 1748.81 137.653 1743.27 136.8C1737.72 135.733 1732.28 135.2 1726.95 135.2C1717.56 135.2 1709.56 136.587 1702.95 139.36C1696.33 141.92 1691.32 146.187 1687.91 152.16C1684.49 157.92 1682.79 165.707 1682.79 175.52V280.48C1682.79 290.08 1684.28 297.867 1687.27 303.84C1690.25 309.813 1694.84 314.187 1701.03 316.96C1707.21 319.52 1714.89 320.8 1724.07 320.8C1729.19 320.8 1734.41 320.373 1739.75 319.52C1745.08 318.453 1750.41 317.28 1755.75 316C1761.08 314.507 1765.88 313.013 1770.15 311.52L1774.31 332.64C1765.35 336.053 1756.49 338.72 1747.75 340.64C1739.21 342.56 1730.89 343.52 1722.79 343.52C1709.35 343.52 1697.83 341.28 1688.23 336.8C1678.63 332.107 1671.27 325.173 1666.15 316C1661.24 306.827 1658.79 295.2 1658.79 281.12V176.8C1658.79 162.08 1661.45 150.027 1666.79 140.64C1672.33 131.04 1679.8 124 1689.19 119.52C1698.57 114.827 1709.13 112.48 1720.87 112.48C1728.97 112.48 1736.87 113.44 1744.55 115.36C1752.23 117.067 1759.59 119.733 1766.63 123.36L1759.59 141.28ZM1915.02 229.6C1915.02 222.347 1913.96 216.373 1911.82 211.68C1909.69 206.987 1906.6 203.467 1902.54 201.12C1898.49 198.56 1893.8 196.853 1888.46 196C1883.13 194.933 1877.26 194.4 1870.86 194.4L1872.14 177.12C1884.94 177.12 1895.61 178.293 1904.14 180.64C1912.68 182.987 1919.4 186.827 1924.3 192.16C1929.42 197.28 1933.05 204.32 1935.18 213.28C1937.53 222.027 1938.7 232.907 1938.7 245.92V340C1937.85 340.213 1935.93 340.427 1932.94 340.64C1930.17 340.853 1926.86 341.067 1923.02 341.28C1919.18 341.707 1915.02 342.027 1910.54 342.24C1906.28 342.667 1902.01 342.88 1897.74 342.88C1893.48 343.093 1889.53 343.2 1885.9 343.2C1876.09 343.413 1866.92 342.667 1858.38 340.96C1849.85 339.467 1842.38 336.693 1835.98 332.64C1829.58 328.373 1824.57 322.613 1820.94 315.36C1817.32 307.893 1815.5 298.507 1815.5 287.2V259.36C1815.5 250.613 1816.78 243.253 1819.34 237.28C1821.9 231.093 1825.42 226.08 1829.9 222.24C1834.38 218.4 1839.4 215.627 1844.94 213.92C1850.7 212.213 1856.68 211.36 1862.86 211.36C1869.26 211.36 1875.66 212.213 1882.06 213.92C1888.46 215.413 1894.44 217.547 1899.98 220.32C1905.74 222.88 1910.76 225.973 1915.02 229.6ZM1915.02 248.48C1910.97 246.133 1906.17 243.893 1900.62 241.76C1895.29 239.413 1889.53 237.493 1883.34 236C1877.37 234.293 1871.29 233.44 1865.1 233.44C1862.54 233.44 1859.77 233.867 1856.78 234.72C1853.8 235.36 1850.92 236.64 1848.14 238.56C1845.58 240.48 1843.45 243.253 1841.74 246.88C1840.04 250.507 1839.18 255.307 1839.18 261.28V284C1839.18 290.4 1839.82 296.053 1841.1 300.96C1842.38 305.867 1844.73 310.027 1848.14 313.44C1851.56 316.64 1856.36 318.987 1862.54 320.48C1868.73 321.973 1876.52 322.507 1885.9 322.08C1889.1 322.08 1892.09 321.973 1894.86 321.76C1897.85 321.547 1900.52 321.333 1902.86 321.12C1905.42 320.907 1907.56 320.8 1909.26 320.8C1911.18 320.587 1912.57 320.48 1913.42 320.48C1914.49 320.267 1915.02 320.16 1915.02 320.16V248.48ZM2076.94 197.92C2076.94 197.92 2075.55 197.707 2072.78 197.28C2070.22 196.853 2066.7 196.747 2062.22 196.96C2058.16 197.173 2053.79 197.707 2049.1 198.56C2044.62 199.2 2040.14 200.16 2035.66 201.44C2031.18 202.72 2026.91 204.213 2022.86 205.92C2019.02 207.627 2015.5 209.44 2012.3 211.36V340H1988.3V179.68H2012.3V188.96C2019.34 185.333 2026.8 182.347 2034.7 180C2042.59 177.653 2051.44 176.267 2061.26 175.84C2065.52 175.627 2069.26 175.84 2072.46 176.48C2075.87 177.12 2078.22 177.653 2079.5 178.08L2076.94 197.92ZM2215.28 197.92C2215.28 197.92 2213.89 197.707 2211.12 197.28C2208.56 196.853 2205.04 196.747 2200.56 196.96C2196.5 197.173 2192.13 197.707 2187.44 198.56C2182.96 199.2 2178.48 200.16 2174 201.44C2169.52 202.72 2165.25 204.213 2161.2 205.92C2157.36 207.627 2153.84 209.44 2150.64 211.36V340H2126.64V179.68H2150.64V188.96C2157.68 185.333 2165.14 182.347 2173.04 180C2180.93 177.653 2189.78 176.267 2199.6 175.84C2203.86 175.627 2207.6 175.84 2210.8 176.48C2214.21 177.12 2216.56 177.653 2217.84 178.08L2215.28 197.92ZM2374.88 280.8C2374.88 299.573 2370.08 314.72 2360.48 326.24C2350.88 337.547 2336.26 343.2 2316.64 343.2C2303.2 343.2 2292 340.32 2283.04 334.56C2274.08 328.8 2267.36 321.227 2262.88 311.84C2258.61 302.453 2256.48 292.107 2256.48 280.8V238.88C2256.48 225.227 2258.72 213.813 2263.2 204.64C2267.89 195.253 2274.72 188.213 2283.68 183.52C2292.64 178.613 2303.52 176.16 2316.32 176.16C2335.09 176.16 2349.49 181.707 2359.52 192.8C2369.76 203.893 2374.88 219.253 2374.88 238.88V280.8ZM2350.88 238.24C2350.88 229.707 2349.6 222.56 2347.04 216.8C2344.69 210.827 2340.96 206.347 2335.84 203.36C2330.93 200.16 2324.53 198.56 2316.64 198.56C2308.74 198.56 2302.02 200.053 2296.48 203.04C2291.14 206.027 2287.09 210.507 2284.32 216.48C2281.54 222.24 2280.16 229.493 2280.16 238.24V283.68C2280.16 290.933 2281.54 297.333 2284.32 302.88C2287.3 308.427 2291.57 312.8 2297.12 316C2302.66 319.2 2309.17 320.8 2316.64 320.8C2324.32 320.8 2330.72 319.307 2335.84 316.32C2340.96 313.333 2344.69 309.067 2347.04 303.52C2349.6 297.76 2350.88 291.147 2350.88 283.68V238.24ZM2510.43 205.28C2507.87 203.573 2504.88 202.187 2501.47 201.12C2498.27 199.84 2494.85 198.987 2491.23 198.56C2487.6 197.92 2483.97 197.6 2480.35 197.6C2476.93 197.6 2473.31 197.92 2469.47 198.56C2465.63 199.2 2462 200.373 2458.59 202.08C2455.39 203.573 2452.72 205.707 2450.59 208.48C2448.67 211.04 2447.71 214.133 2447.71 217.76C2447.71 222.453 2449.2 226.4 2452.19 229.6C2455.39 232.8 2459.55 235.68 2464.67 238.24C2469.79 240.8 2475.33 243.253 2481.31 245.6C2487.28 247.947 2493.25 250.507 2499.23 253.28C2505.41 256.053 2511.07 259.36 2516.19 263.2C2521.31 267.04 2525.36 271.733 2528.35 277.28C2531.55 282.827 2533.15 289.547 2533.15 297.44C2533.15 305.333 2531.55 312.267 2528.35 318.24C2525.15 324.213 2520.77 329.227 2515.23 333.28C2509.89 337.333 2503.92 340.32 2497.31 342.24C2490.69 344.373 2483.87 345.44 2476.83 345.44C2465.31 345.44 2454.21 342.987 2443.55 338.08C2432.88 333.173 2423.81 326.453 2416.35 317.92L2430.11 303.84C2434.37 307.893 2438.85 311.413 2443.55 314.4C2448.45 317.387 2453.57 319.627 2458.91 321.12C2464.24 322.613 2469.79 323.36 2475.55 323.36C2479.17 323.36 2482.91 322.933 2486.75 322.08C2490.8 321.013 2494.53 319.413 2497.95 317.28C2501.36 315.147 2504.13 312.48 2506.27 309.28C2508.4 306.08 2509.47 302.24 2509.47 297.76C2509.47 292.64 2507.87 288.267 2504.67 284.64C2501.68 280.8 2497.63 277.493 2492.51 274.72C2487.6 271.947 2482.05 269.387 2475.87 267.04C2469.89 264.48 2463.81 261.92 2457.63 259.36C2451.65 256.587 2446.11 253.387 2440.99 249.76C2436.08 246.133 2432.03 241.867 2428.83 236.96C2425.84 231.84 2424.35 225.653 2424.35 218.4C2424.35 211.36 2425.84 205.173 2428.83 199.84C2431.81 194.507 2435.87 190.133 2440.99 186.72C2446.11 183.093 2451.76 180.427 2457.95 178.72C2464.13 176.8 2470.53 175.84 2477.15 175.84C2481.41 175.84 2485.89 176.16 2490.59 176.8C2495.28 177.44 2499.97 178.613 2504.67 180.32C2509.57 182.027 2514.37 184.373 2519.07 187.36L2510.43 205.28ZM2671.26 205.28C2668.7 203.573 2665.72 202.187 2662.3 201.12C2659.1 199.84 2655.69 198.987 2652.06 198.56C2648.44 197.92 2644.81 197.6 2641.18 197.6C2637.77 197.6 2634.14 197.92 2630.3 198.56C2626.46 199.2 2622.84 200.373 2619.42 202.08C2616.22 203.573 2613.56 205.707 2611.42 208.48C2609.5 211.04 2608.54 214.133 2608.54 217.76C2608.54 222.453 2610.04 226.4 2613.02 229.6C2616.22 232.8 2620.38 235.68 2625.5 238.24C2630.62 240.8 2636.17 243.253 2642.14 245.6C2648.12 247.947 2654.09 250.507 2660.06 253.28C2666.25 256.053 2671.9 259.36 2677.02 263.2C2682.14 267.04 2686.2 271.733 2689.18 277.28C2692.38 282.827 2693.98 289.547 2693.98 297.44C2693.98 305.333 2692.38 312.267 2689.18 318.24C2685.98 324.213 2681.61 329.227 2676.06 333.28C2670.73 337.333 2664.76 340.32 2658.14 342.24C2651.53 344.373 2644.7 345.44 2637.66 345.44C2626.14 345.44 2615.05 342.987 2604.38 338.08C2593.72 333.173 2584.65 326.453 2577.18 317.92L2590.94 303.84C2595.21 307.893 2599.69 311.413 2604.38 314.4C2609.29 317.387 2614.41 319.627 2619.74 321.12C2625.08 322.613 2630.62 323.36 2636.38 323.36C2640.01 323.36 2643.74 322.933 2647.58 322.08C2651.64 321.013 2655.37 319.413 2658.78 317.28C2662.2 315.147 2664.97 312.48 2667.1 309.28C2669.24 306.08 2670.3 302.24 2670.3 297.76C2670.3 292.64 2668.7 288.267 2665.5 284.64C2662.52 280.8 2658.46 277.493 2653.34 274.72C2648.44 271.947 2642.89 269.387 2636.7 267.04C2630.73 264.48 2624.65 261.92 2618.46 259.36C2612.49 256.587 2606.94 253.387 2601.82 249.76C2596.92 246.133 2592.86 241.867 2589.66 236.96C2586.68 231.84 2585.18 225.653 2585.18 218.4C2585.18 211.36 2586.68 205.173 2589.66 199.84C2592.65 194.507 2596.7 190.133 2601.82 186.72C2606.94 183.093 2612.6 180.427 2618.78 178.72C2624.97 176.8 2631.37 175.84 2637.98 175.84C2642.25 175.84 2646.73 176.16 2651.42 176.8C2656.12 177.44 2660.81 178.613 2665.5 180.32C2670.41 182.027 2675.21 184.373 2679.9 187.36L2671.26 205.28ZM2765.18 295.52C2765.18 300.213 2765.93 304.267 2767.42 307.68C2768.92 311.093 2770.94 313.973 2773.5 316.32C2776.28 318.453 2779.48 320.053 2783.1 321.12C2786.94 322.187 2791 322.72 2795.26 322.72C2802.52 322.72 2809.88 321.44 2817.34 318.88C2825.02 316.32 2832.6 313.12 2840.06 309.28L2849.02 328.8C2841.34 333.493 2832.7 337.227 2823.1 340C2813.72 342.56 2804.65 343.84 2795.9 343.84C2788.01 343.84 2780.65 342.987 2773.82 341.28C2767.21 339.787 2761.45 337.227 2756.54 333.6C2751.85 329.76 2748.12 324.853 2745.34 318.88C2742.78 312.907 2741.5 305.653 2741.5 297.12V231.52C2741.5 219.36 2744.06 209.227 2749.18 201.12C2754.3 193.013 2761.34 186.933 2770.3 182.88C2779.26 178.827 2789.4 176.8 2800.7 176.8C2812.01 176.8 2821.82 178.827 2830.14 182.88C2838.68 186.72 2845.29 192.693 2849.98 200.8C2854.68 208.693 2857.02 218.613 2857.02 230.56V274.72L2765.18 279.52V295.52ZM2833.02 232.16C2833.02 225.547 2831.74 219.68 2829.18 214.56C2826.62 209.44 2822.89 205.387 2817.98 202.4C2813.08 199.413 2807.21 197.92 2800.38 197.92C2792.7 198.133 2786.2 199.733 2780.86 202.72C2775.74 205.493 2771.8 209.547 2769.02 214.88C2766.46 220.213 2765.18 226.72 2765.18 234.4V257.12L2833.02 253.92V232.16ZM2904.91 340V116H2928.59V340H2904.91Z" fill="#AAAAAA"/>
<path d="M1782.25 480.4C1772.25 476.4 1762.05 473.6 1751.65 472C1741.25 470 1731.05 469 1721.05 469C1703.45 469 1688.45 471.6 1676.05 476.8C1663.65 481.6 1654.25 489.6 1647.85 500.8C1641.45 511.6 1638.25 526.2 1638.25 544.6V741.4C1638.25 759.4 1641.05 774 1646.65 785.2C1652.25 796.4 1660.85 804.6 1672.45 809.8C1684.05 814.6 1698.45 817 1715.65 817C1725.25 817 1735.05 816.2 1745.05 814.6C1755.05 812.6 1765.05 810.4 1775.05 808C1785.05 805.2 1794.05 802.4 1802.05 799.6L1809.85 839.2C1793.05 845.6 1776.45 850.6 1760.05 854.2C1744.05 857.8 1728.45 859.6 1713.25 859.6C1688.05 859.6 1666.45 855.4 1648.45 847C1630.45 838.2 1616.65 825.2 1607.05 808C1597.85 790.8 1593.25 769 1593.25 742.6V547C1593.25 519.4 1598.25 496.8 1608.25 479.2C1618.65 461.2 1632.65 448 1650.25 439.6C1667.85 430.8 1687.65 426.4 1709.65 426.4C1724.85 426.4 1739.65 428.2 1754.05 431.8C1768.45 435 1782.25 440 1795.45 446.8L1782.25 480.4ZM2031.69 646C2031.69 632.4 2029.69 621.2 2025.69 612.4C2021.69 603.6 2015.89 597 2008.29 592.6C2000.69 587.8 1991.89 584.6 1981.89 583C1971.89 581 1960.89 580 1948.89 580L1951.29 547.6C1975.29 547.6 1995.29 549.8 2011.29 554.2C2027.29 558.6 2039.89 565.8 2049.09 575.8C2058.69 585.4 2065.49 598.6 2069.49 615.4C2073.89 631.8 2076.09 652.2 2076.09 676.6V853C2074.49 853.4 2070.89 853.8 2065.29 854.2C2060.09 854.6 2053.89 855 2046.69 855.4C2039.49 856.2 2031.69 856.8 2023.29 857.2C2015.29 858 2007.29 858.4 1999.29 858.4C1991.29 858.8 1983.89 859 1977.09 859C1958.69 859.4 1941.49 858 1925.49 854.8C1909.49 852 1895.49 846.8 1883.49 839.2C1871.49 831.2 1862.09 820.4 1855.29 806.8C1848.49 792.8 1845.09 775.2 1845.09 754V701.8C1845.09 685.4 1847.49 671.6 1852.29 660.4C1857.09 648.8 1863.69 639.4 1872.09 632.2C1880.49 625 1889.89 619.8 1900.29 616.6C1911.09 613.4 1922.29 611.8 1933.89 611.8C1945.89 611.8 1957.89 613.4 1969.89 616.6C1981.89 619.4 1993.09 623.4 2003.49 628.6C2014.29 633.4 2023.69 639.2 2031.69 646ZM2031.69 681.4C2024.09 677 2015.09 672.8 2004.69 668.8C1994.69 664.4 1983.89 660.8 1972.29 658C1961.09 654.8 1949.69 653.2 1938.09 653.2C1933.29 653.2 1928.09 654 1922.49 655.6C1916.89 656.8 1911.49 659.2 1906.29 662.8C1901.49 666.4 1897.49 671.6 1894.29 678.4C1891.09 685.2 1889.49 694.2 1889.49 705.4V748C1889.49 760 1890.69 770.6 1893.09 779.8C1895.49 789 1899.89 796.8 1906.29 803.2C1912.69 809.2 1921.69 813.6 1933.29 816.4C1944.89 819.2 1959.49 820.2 1977.09 819.4C1983.09 819.4 1988.69 819.2 1993.89 818.8C1999.49 818.4 2004.49 818 2008.89 817.6C2013.69 817.2 2017.69 817 2020.89 817C2024.49 816.6 2027.09 816.4 2028.69 816.4C2030.69 816 2031.69 815.8 2031.69 815.8V681.4ZM2125.35 853V552.4H2170.35V853H2125.35ZM2148.15 427C2155.35 427 2161.35 429.4 2166.15 434.2C2171.35 439 2173.95 445 2173.95 452.2C2173.95 459 2171.35 465 2166.15 470.2C2161.35 475 2155.35 477.4 2148.15 477.4C2141.35 477.4 2135.35 475 2130.15 470.2C2124.95 465 2122.35 459 2122.35 452.2C2122.35 445 2124.95 439 2130.15 434.2C2135.35 429.4 2141.35 427 2148.15 427ZM2441.08 747.4C2441.08 783.8 2432.48 811.8 2415.28 831.4C2398.08 850.6 2372.88 860.2 2339.68 860.2C2329.28 860.2 2319.08 858.6 2309.08 855.4C2299.48 852.6 2290.88 848.6 2283.28 843.4C2275.68 838.2 2269.48 832.4 2264.68 826V980.8L2219.08 966.4V553H2264.68V575.8C2271.48 570.2 2279.08 565.4 2287.48 561.4C2295.88 557 2304.68 553.6 2313.88 551.2C2323.48 548.4 2332.88 547 2342.08 547C2363.68 546.2 2381.68 549.8 2396.08 557.8C2410.88 565.4 2422.08 576.8 2429.68 592C2437.28 606.8 2441.08 624.6 2441.08 645.4V747.4ZM2396.68 648.4C2396.68 636.4 2394.88 626.4 2391.28 618.4C2387.68 610 2382.68 603.6 2376.28 599.2C2370.28 594.4 2363.48 591 2355.88 589C2348.28 587 2340.28 586.2 2331.88 586.6C2323.88 587.4 2315.48 589.2 2306.68 592C2297.88 594.8 2289.68 598.4 2282.08 602.8C2274.88 607.2 2269.08 612.4 2264.68 618.4V755.2C2264.68 765.6 2266.68 774.8 2270.68 782.8C2274.68 790.8 2280.08 797.6 2286.88 803.2C2294.08 808.4 2301.88 812.4 2310.28 815.2C2319.08 818 2328.08 819.4 2337.28 819.4C2350.08 819.4 2360.88 817 2369.68 812.2C2378.48 807 2385.08 799.6 2389.48 790C2394.28 780.4 2396.68 768.4 2396.68 754V648.4ZM2489.8 853V552.4H2534.8V853H2489.8ZM2512.6 427C2519.8 427 2525.8 429.4 2530.6 434.2C2535.8 439 2538.4 445 2538.4 452.2C2538.4 459 2535.8 465 2530.6 470.2C2525.8 475 2519.8 477.4 2512.6 477.4C2505.8 477.4 2499.8 475 2494.6 470.2C2489.4 465 2486.8 459 2486.8 452.2C2486.8 445 2489.4 439 2494.6 434.2C2499.8 429.4 2505.8 427 2512.6 427ZM2749.72 586.6C2749.72 586.6 2747.12 586.2 2741.92 585.4C2737.12 584.6 2730.52 584.4 2722.12 584.8C2714.52 585.2 2706.32 586.2 2697.52 587.8C2689.12 589 2680.72 590.8 2672.32 593.2C2663.92 595.6 2655.92 598.4 2648.32 601.6C2641.12 604.8 2634.52 608.2 2628.52 611.8V853H2583.52V552.4H2628.52V569.8C2641.72 563 2655.72 557.4 2670.52 553C2685.32 548.6 2701.92 546 2720.32 545.2C2728.32 544.8 2735.32 545.2 2741.32 546.4C2747.72 547.6 2752.12 548.6 2754.52 549.4L2749.72 586.6ZM2951.02 646C2951.02 632.4 2949.02 621.2 2945.02 612.4C2941.02 603.6 2935.22 597 2927.62 592.6C2920.02 587.8 2911.22 584.6 2901.22 583C2891.22 581 2880.22 580 2868.22 580L2870.62 547.6C2894.62 547.6 2914.62 549.8 2930.62 554.2C2946.62 558.6 2959.22 565.8 2968.42 575.8C2978.02 585.4 2984.82 598.6 2988.82 615.4C2993.22 631.8 2995.42 652.2 2995.42 676.6V853C2993.82 853.4 2990.22 853.8 2984.62 854.2C2979.42 854.6 2973.22 855 2966.02 855.4C2958.82 856.2 2951.02 856.8 2942.62 857.2C2934.62 858 2926.62 858.4 2918.62 858.4C2910.62 858.8 2903.22 859 2896.42 859C2878.02 859.4 2860.82 858 2844.82 854.8C2828.82 852 2814.82 846.8 2802.82 839.2C2790.82 831.2 2781.42 820.4 2774.62 806.8C2767.82 792.8 2764.42 775.2 2764.42 754V701.8C2764.42 685.4 2766.82 671.6 2771.62 660.4C2776.42 648.8 2783.02 639.4 2791.42 632.2C2799.82 625 2809.22 619.8 2819.62 616.6C2830.42 613.4 2841.62 611.8 2853.22 611.8C2865.22 611.8 2877.22 613.4 2889.22 616.6C2901.22 619.4 2912.42 623.4 2922.82 628.6C2933.62 633.4 2943.02 639.2 2951.02 646ZM2951.02 681.4C2943.42 677 2934.42 672.8 2924.02 668.8C2914.02 664.4 2903.22 660.8 2891.62 658C2880.42 654.8 2869.02 653.2 2857.42 653.2C2852.62 653.2 2847.42 654 2841.82 655.6C2836.22 656.8 2830.82 659.2 2825.62 662.8C2820.82 666.4 2816.82 671.6 2813.62 678.4C2810.42 685.2 2808.82 694.2 2808.82 705.4V748C2808.82 760 2810.02 770.6 2812.42 779.8C2814.82 789 2819.22 796.8 2825.62 803.2C2832.02 809.2 2841.02 813.6 2852.62 816.4C2864.22 819.2 2878.82 820.2 2896.42 819.4C2902.42 819.4 2908.02 819.2 2913.22 818.8C2918.82 818.4 2923.82 818 2928.22 817.6C2933.02 817.2 2937.02 817 2940.22 817C2943.82 816.6 2946.42 816.4 2948.02 816.4C2950.02 816 2951.02 815.8 2951.02 815.8V681.4Z" fill="#EDEDED"/>
<defs>
<clipPath id="clip0_55_605">
<rect width="967" height="964" fill="white" transform="translate(278.5 75)"/>
</clipPath>
</defs>
</svg>
