<svg xmlns="http://www.w3.org/2000/svg" xmlns:xlink="http://www.w3.org/1999/xlink" width="500" zoomAndPan="magnify" viewBox="0 0 375 374.999991" height="500" preserveAspectRatio="xMidYMid meet" version="1.0"><defs><clipPath id="fd5e2c1876"><path d="M 3.640625 0 L 375 0 L 375 375 L 3.640625 375 Z M 3.640625 0 " clip-rule="nonzero"/></clipPath><clipPath id="93ea954e69"><path d="M 189.320312 0 C 86.773438 0 3.640625 83.945312 3.640625 187.5 C 3.640625 291.054688 86.773438 375 189.320312 375 C 291.867188 375 375 291.054688 375 187.5 C 375 83.945312 291.867188 0 189.320312 0 Z M 189.320312 0 " clip-rule="nonzero"/></clipPath><clipPath id="3edba855fb"><path d="M 77 116 L 304 116 L 304 329.617188 L 77 329.617188 Z M 77 116 " clip-rule="nonzero"/></clipPath><clipPath id="bd06a37a9a"><path d="M 65 104 L 316 104 L 316 329.617188 L 65 329.617188 Z M 65 104 " clip-rule="nonzero"/></clipPath><clipPath id="c1ed7c1738"><path d="M 37.5 45.367188 L 140 45.367188 L 140 195 L 37.5 195 Z M 37.5 45.367188 " clip-rule="nonzero"/></clipPath><clipPath id="f692902229"><path d="M 240 45.367188 L 342.75 45.367188 L 342.75 195 L 240 195 Z M 240 45.367188 " clip-rule="nonzero"/></clipPath></defs><g clip-path="url(#fd5e2c1876)"><g clip-path="url(#93ea954e69)"><path fill="#373535" d="M 3.640625 0 L 375 0 L 375 375.710938 L 3.640625 375.710938 Z M 3.640625 0 " fill-opacity="1" fill-rule="nonzero"/></g></g><g clip-path="url(#3edba855fb)"><path fill="#ffffff" d="M 120.203125 194.535156 C 125.296875 194.632812 128.484375 196.640625 135.574219 203.195312 C 162.78125 228.339844 156.113281 265.34375 144.078125 281.65625 C 132.519531 297.324219 112.3125 287.628906 103.96875 275.328125 L 107.992188 298.144531 C 109.875 315.226562 154.816406 328.085938 190.066406 329.445312 C 225.3125 328.085938 270.394531 315.730469 272.277344 298.644531 L 276.390625 275.328125 C 268.042969 287.628906 247.835938 297.324219 236.277344 281.65625 C 224.242188 265.34375 217.574219 228.339844 244.78125 203.195312 C 251.875 196.640625 255.058594 194.632812 260.152344 194.535156 L 303.335938 197.296875 C 269.207031 173.722656 259.460938 147.105469 256.601562 116.382812 C 234.492188 129.507812 207.933594 139.15625 190.179688 139.097656 C 172.421875 139.15625 145.863281 129.507812 123.753906 116.382812 C 120.894531 147.105469 111.148438 173.722656 77.019531 197.296875 Z M 120.203125 194.535156 " fill-opacity="1" fill-rule="evenodd"/></g><g clip-path="url(#bd06a37a9a)"><path stroke-linecap="butt" transform="matrix(1.215131, 0, 0, 1.215131, 37.625905, 45.367216)" fill="none" stroke-linejoin="miter" d="M 67.957453 122.758714 C 72.149387 122.83908 74.772561 124.491423 80.607193 129.885645 C 102.997394 150.578498 97.509946 181.0311 87.605537 194.455577 C 78.093318 207.349632 61.463812 199.370813 54.59727 189.247806 L 57.908384 208.024714 C 59.457856 222.082481 96.442675 232.665186 125.451889 233.783893 C 154.457888 232.665186 191.558435 222.497174 193.107907 208.436192 L 196.492958 189.247806 C 189.623201 199.370813 172.993695 207.349632 163.481476 194.455577 C 153.577067 181.0311 148.089619 150.578498 170.47982 129.885645 C 176.317667 124.491423 178.937626 122.83908 183.129561 122.758714 L 218.667776 125.031488 C 190.581174 105.630933 182.560563 83.726148 180.207422 58.442741 C 162.01237 69.244044 140.155805 77.184287 125.545114 77.136067 C 110.931208 77.184287 89.074643 69.244044 70.879591 58.442741 C 68.52645 83.726148 60.50584 105.630933 32.419237 125.031488 Z M 67.957453 122.758714 " stroke="#373535" stroke-width="0.301" stroke-opacity="1" stroke-miterlimit="22.926001"/></g><g clip-path="url(#c1ed7c1738)"><path fill="#ffffff" d="M 139.363281 48.0625 C 69.066406 25.035156 8.671875 155.992188 52.457031 194.800781 C 95.589844 173.910156 107.457031 137.214844 110.007812 108.539062 C 98.246094 82.988281 111.601562 73.058594 139.363281 48.0625 Z M 139.363281 48.0625 " fill-opacity="1" fill-rule="evenodd"/></g><g clip-path="url(#f692902229)"><path fill="#ffffff" d="M 240.992188 48.0625 C 311.289062 25.035156 371.683594 155.992188 327.898438 194.800781 C 284.765625 173.910156 272.898438 137.214844 270.347656 108.539062 C 282.109375 82.988281 268.753906 73.058594 240.992188 48.0625 Z M 240.992188 48.0625 " fill-opacity="1" fill-rule="evenodd"/></g></svg>